<svg width="45" height="36" viewBox="0 0 45 36" fill="none" xmlns="http://www.w3.org/2000/svg">
<path d="M10.6285 2.5H34.3082C34.5623 2.5 34.7682 2.70593 34.7682 2.95996V4.24023C34.7683 5.04633 35.4221 5.69998 36.2281 5.7002H37.5084C37.7625 5.7002 37.9684 5.90611 37.9684 6.16016V7.94922C37.9684 8.55528 38.3412 9.0357 38.7565 9.31445C39.3597 9.71936 39.951 10.4263 40.4557 11.4355C41.3131 13.1505 41.8082 15.5117 41.8082 18C41.8082 20.4883 41.3131 22.8495 40.4557 24.5645C39.9511 25.5737 39.3597 26.2807 38.7565 26.6855C38.3412 26.9643 37.9684 27.4448 37.9684 28.0508V29.8398C37.9684 30.0939 37.7625 30.2998 37.5084 30.2998H36.2281C35.4221 30.3 34.7683 30.9537 34.7682 31.7598V33.04C34.7682 33.2941 34.5623 33.5 34.3082 33.5H10.6285C10.3745 33.5 10.1686 33.2941 10.1686 33.04V31.7598C10.1685 30.9536 9.51484 30.2998 8.70862 30.2998H7.42834C7.17438 30.2997 6.96838 30.0938 6.96838 29.8398V28.0508C6.96838 27.4447 6.59564 26.9643 6.1803 26.6855C5.57704 26.2807 4.98665 25.5736 4.48206 24.5645C3.62457 22.8494 3.12854 20.4884 3.12854 18L3.1344 17.5352C3.19198 15.219 3.67815 13.0434 4.48206 11.4355C4.98666 10.4264 5.57708 9.71936 6.1803 9.31445C6.59559 9.03571 6.96833 8.55533 6.96838 7.94922V6.16016C6.96838 5.90617 7.17438 5.7003 7.42834 5.7002H8.70862C9.51484 5.70015 10.1685 5.04644 10.1686 4.24023V2.95996C10.1686 2.70593 10.3745 2.5 10.6285 2.5Z" fill="#7A7697"/>
<path d="M10.6285 2.5H34.3082C34.5623 2.5 34.7682 2.70593 34.7682 2.95996V4.24023C34.7683 5.04633 35.4221 5.69998 36.2281 5.7002H37.5084C37.7625 5.7002 37.9684 5.90611 37.9684 6.16016V7.94922C37.9684 8.55528 38.3412 9.0357 38.7565 9.31445C39.3597 9.71936 39.951 10.4263 40.4557 11.4355C41.3131 13.1505 41.8082 15.5117 41.8082 18C41.8082 20.4883 41.3131 22.8495 40.4557 24.5645C39.9511 25.5737 39.3597 26.2807 38.7565 26.6855C38.3412 26.9643 37.9684 27.4448 37.9684 28.0508V29.8398C37.9684 30.0939 37.7625 30.2998 37.5084 30.2998H36.2281C35.4221 30.3 34.7683 30.9537 34.7682 31.7598V33.04C34.7682 33.2941 34.5623 33.5 34.3082 33.5H10.6285C10.3745 33.5 10.1686 33.2941 10.1686 33.04V31.7598C10.1685 30.9536 9.51484 30.2998 8.70862 30.2998H7.42834C7.17438 30.2997 6.96838 30.0938 6.96838 29.8398V28.0508C6.96838 27.4447 6.59564 26.9643 6.1803 26.6855C5.57704 26.2807 4.98665 25.5736 4.48206 24.5645C3.62457 22.8494 3.12854 20.4884 3.12854 18L3.1344 17.5352C3.19198 15.219 3.67815 13.0434 4.48206 11.4355C4.98666 10.4264 5.57708 9.71936 6.1803 9.31445C6.59559 9.03571 6.96833 8.55533 6.96838 7.94922V6.16016C6.96838 5.90617 7.17438 5.7003 7.42834 5.7002H8.70862C9.51484 5.70015 10.1685 5.04644 10.1686 4.24023V2.95996C10.1686 2.70593 10.3745 2.5 10.6285 2.5Z" fill="url(#paint0_linear_175_88)" fill-opacity="0.2"/>
<path d="M10.6285 2.5H34.3082C34.5623 2.5 34.7682 2.70593 34.7682 2.95996V4.24023C34.7683 5.04633 35.4221 5.69998 36.2281 5.7002H37.5084C37.7625 5.7002 37.9684 5.90611 37.9684 6.16016V7.94922C37.9684 8.55528 38.3412 9.0357 38.7565 9.31445C39.3597 9.71936 39.951 10.4263 40.4557 11.4355C41.3131 13.1505 41.8082 15.5117 41.8082 18C41.8082 20.4883 41.3131 22.8495 40.4557 24.5645C39.9511 25.5737 39.3597 26.2807 38.7565 26.6855C38.3412 26.9643 37.9684 27.4448 37.9684 28.0508V29.8398C37.9684 30.0939 37.7625 30.2998 37.5084 30.2998H36.2281C35.4221 30.3 34.7683 30.9537 34.7682 31.7598V33.04C34.7682 33.2941 34.5623 33.5 34.3082 33.5H10.6285C10.3745 33.5 10.1686 33.2941 10.1686 33.04V31.7598C10.1685 30.9536 9.51484 30.2998 8.70862 30.2998H7.42834C7.17438 30.2997 6.96838 30.0938 6.96838 29.8398V28.0508C6.96838 27.4447 6.59564 26.9643 6.1803 26.6855C5.57704 26.2807 4.98665 25.5736 4.48206 24.5645C3.62457 22.8494 3.12854 20.4884 3.12854 18L3.1344 17.5352C3.19198 15.219 3.67815 13.0434 4.48206 11.4355C4.98666 10.4264 5.57708 9.71936 6.1803 9.31445C6.59559 9.03571 6.96833 8.55533 6.96838 7.94922V6.16016C6.96838 5.90617 7.17438 5.7003 7.42834 5.7002H8.70862C9.51484 5.70015 10.1685 5.04644 10.1686 4.24023V2.95996C10.1686 2.70593 10.3745 2.5 10.6285 2.5Z" stroke="#C3BFD5"/>
<path d="M34.3082 1C35.3907 1 36.2682 1.8775 36.2682 2.95996V4.2002H37.5084C38.5909 4.2002 39.4684 5.07768 39.4684 6.16016V7.93848C39.4695 7.94144 39.4721 7.94833 39.4781 7.95801C39.4961 7.98651 39.5331 8.02846 39.5924 8.06836C40.4766 8.66179 41.2181 9.60579 41.7975 10.7646C42.7829 12.7356 43.3082 15.3388 43.3082 18C43.3082 20.6612 42.7829 23.2644 41.7975 25.2354C41.218 26.3943 40.4765 27.3383 39.5924 27.9316C39.533 27.9716 39.4961 28.0135 39.4781 28.042C39.4724 28.0511 39.4696 28.0574 39.4684 28.0605V29.8398C39.4684 30.9223 38.5909 31.7998 37.5084 31.7998H36.2682V33.04C36.2682 34.1225 35.3907 35 34.3082 35H10.6285C9.54608 35 8.6686 34.1225 8.66858 33.04V31.7998H7.42834C6.34596 31.7997 5.46838 30.9223 5.46838 29.8398V28.0586C5.46688 28.0552 5.46435 28.0496 5.45959 28.042C5.44171 28.0135 5.40408 27.9718 5.34436 27.9316C4.46027 27.3383 3.71971 26.3942 3.14026 25.2354C2.15477 23.2643 1.62854 20.6613 1.62854 18L1.6344 17.502C1.69578 15.0159 2.21634 12.6125 3.14026 10.7646C3.71968 9.60583 4.46024 8.66177 5.34436 8.06836C5.40402 8.02828 5.44165 7.98655 5.45959 7.95801C5.46463 7.94998 5.46693 7.94381 5.46838 7.94043V6.16016C5.46838 5.07774 6.34596 4.2003 7.42834 4.2002H8.66858V2.95996C8.6686 1.8775 9.54607 1 10.6285 1H34.3082Z" stroke="#7A7575" stroke-width="2"/>
<path d="M23.4727 8.85715C23.6722 8.85715 23.7793 9.09164 23.6487 9.24242C23.612 9.28474 23.5919 9.33887 23.5919 9.39487V16.3674C23.5919 16.5477 23.7381 16.6939 23.9184 16.6939H30.8909C30.9469 16.6939 31.001 16.6737 31.0433 16.637C31.1941 16.5064 31.4286 16.6135 31.4286 16.813V19.187C31.4286 19.3865 31.1941 19.4936 31.0433 19.363C31.001 19.3263 30.9469 19.3061 30.8909 19.3061H23.9184C23.7381 19.3061 23.5919 19.4523 23.5919 19.6327V26.6048C23.5919 26.6608 23.612 26.715 23.6487 26.7573C23.7794 26.9082 23.6722 27.1429 23.4725 27.1429H21.0989C20.8993 27.1429 20.7921 26.9082 20.9228 26.7573C20.9594 26.715 20.9796 26.6608 20.9796 26.6048V19.6327C20.9796 19.4523 20.8334 19.3061 20.6531 19.3061H13.6806C13.6246 19.3061 13.5705 19.3263 13.5282 19.363C13.3774 19.4936 13.1429 19.3865 13.1429 19.187V16.813C13.1429 16.6135 13.3774 16.5064 13.5282 16.637C13.5705 16.6737 13.6246 16.6939 13.6806 16.6939H20.6531C20.8334 16.6939 20.9796 16.5477 20.9796 16.3674V9.39487C20.9796 9.33887 20.9594 9.28474 20.9228 9.24242C20.7921 9.09164 20.8992 8.85715 21.0987 8.85715H23.4727Z" fill="#F6C893"/>
<defs>
<linearGradient id="paint0_linear_175_88" x1="22.2857" y1="18" x2="22.4685" y2="34" gradientUnits="userSpaceOnUse">
<stop stop-opacity="0"/>
<stop offset="1" stop-color="#5F618A"/>
</linearGradient>
</defs>
</svg>
