<svg width="291" height="58" viewBox="0 0 291 58" fill="none" xmlns="http://www.w3.org/2000/svg">
<path d="M272.88 1.5C274.57 1.5 275.94 2.86978 275.94 4.55957V6.63965C275.94 6.67279 275.967 6.7002 276 6.7002H278.08C279.77 6.70024 281.14 8.06991 281.14 9.75977V11.8398C281.14 11.8415 281.14 11.8481 281.147 11.8662C281.156 11.8873 281.178 11.9271 281.225 11.9805C281.326 12.0948 281.499 12.2193 281.716 12.3057C283.694 13.0926 285.312 14.9283 286.497 17.2988C288.088 20.4804 288.94 24.6899 288.94 29C288.94 33.3101 288.088 37.5196 286.497 40.7012C285.312 43.0717 283.694 44.9074 281.716 45.6943C281.499 45.7807 281.326 45.9052 281.225 46.0195C281.178 46.0729 281.156 46.1127 281.147 46.1338C281.14 46.1519 281.14 46.1585 281.14 46.1602V48.2402C281.14 49.9301 279.77 51.2998 278.08 51.2998H276C275.967 51.2998 275.94 51.3272 275.94 51.3604V53.4404C275.94 55.1302 274.57 56.5 272.88 56.5H16C14.3101 56.5 12.9407 55.1302 12.9404 53.4404V51.3604C12.9404 51.3272 12.913 51.2998 12.8799 51.2998H10.7998C9.10998 51.2997 7.74036 49.9301 7.74023 48.2402V45.332C7.74023 45.3307 7.73959 45.326 7.73633 45.3154C7.73265 45.3035 7.72471 45.2817 7.70605 45.252C7.66654 45.1889 7.59247 45.108 7.48242 45.0342C6.06927 44.0857 4.87867 42.5718 3.94336 40.7012C2.35264 37.5196 1.5 33.3101 1.5 29L1.50977 28.1934C1.60921 24.1677 2.45205 20.2816 3.94336 17.2988C4.8787 15.4281 6.06909 13.9135 7.48242 12.9648C7.59251 12.891 7.66652 12.8101 7.70605 12.7471C7.72435 12.7178 7.73259 12.6965 7.73633 12.6846C7.73974 12.6735 7.74023 12.6681 7.74023 12.667V9.75977C7.74036 8.06995 9.10998 6.7003 10.7998 6.7002H12.8799C12.913 6.7002 12.9404 6.67279 12.9404 6.63965V4.55957C12.9407 2.86978 14.3102 1.5 16 1.5H272.88Z" stroke="#BF8F8F" stroke-width="3"/>
<path d="M272.88 1.5C274.57 1.5 275.94 2.86978 275.94 4.55957V6.63965C275.94 6.67279 275.967 6.7002 276 6.7002H278.08C279.77 6.70024 281.14 8.06991 281.14 9.75977V11.8398C281.14 11.8415 281.14 11.8481 281.147 11.8662C281.156 11.8873 281.178 11.9271 281.225 11.9805C281.326 12.0948 281.499 12.2193 281.716 12.3057C283.694 13.0926 285.312 14.9283 286.497 17.2988C288.088 20.4804 288.94 24.6899 288.94 29C288.94 33.3101 288.088 37.5196 286.497 40.7012C285.312 43.0717 283.694 44.9074 281.716 45.6943C281.499 45.7807 281.326 45.9052 281.225 46.0195C281.178 46.0729 281.156 46.1127 281.147 46.1338C281.14 46.1519 281.14 46.1585 281.14 46.1602V48.2402C281.14 49.9301 279.77 51.2998 278.08 51.2998H276C275.967 51.2998 275.94 51.3272 275.94 51.3604V53.4404C275.94 55.1302 274.57 56.5 272.88 56.5H16C14.3101 56.5 12.9407 55.1302 12.9404 53.4404V51.3604C12.9404 51.3272 12.913 51.2998 12.8799 51.2998H10.7998C9.10998 51.2997 7.74036 49.9301 7.74023 48.2402V45.332C7.74023 45.3307 7.73959 45.326 7.73633 45.3154C7.73265 45.3035 7.72471 45.2817 7.70605 45.252C7.66654 45.1889 7.59247 45.108 7.48242 45.0342C6.06927 44.0857 4.87867 42.5718 3.94336 40.7012C2.35264 37.5196 1.5 33.3101 1.5 29L1.50977 28.1934C1.60921 24.1677 2.45205 20.2816 3.94336 17.2988C4.8787 15.4281 6.06909 13.9135 7.48242 12.9648C7.59251 12.891 7.66652 12.8101 7.70605 12.7471C7.72435 12.7178 7.73259 12.6965 7.73633 12.6846C7.73974 12.6735 7.74023 12.6681 7.74023 12.667V9.75977C7.74036 8.06995 9.10998 6.7003 10.7998 6.7002H12.8799C12.913 6.7002 12.9404 6.67279 12.9404 6.63965V4.55957C12.9407 2.86978 14.3102 1.5 16 1.5H272.88Z" stroke="url(#paint0_linear_195_7)" stroke-opacity="0.2" stroke-width="3"/>
<path d="M16 4H272.88C273.189 4 273.44 4.25049 273.44 4.55957V6.63965C273.44 8.0535 274.586 9.2002 276 9.2002H278.08C278.389 9.20024 278.64 9.45062 278.64 9.75977V11.8398C278.64 13.2964 279.819 14.2418 280.792 14.6289C281.903 15.0708 283.065 16.1829 284.063 18.0361L284.261 18.417C285.638 21.1718 286.44 24.9781 286.44 29C286.44 33.0219 285.638 36.8282 284.261 39.583C283.22 41.6654 281.977 42.8997 280.792 43.3711C279.819 43.7582 278.64 44.7036 278.64 46.1602V48.2402C278.64 48.5494 278.389 48.7998 278.08 48.7998H276C274.586 48.7998 273.44 49.9465 273.44 51.3604V53.4404C273.44 53.7495 273.189 54 272.88 54H16C15.6909 54 15.4407 53.7495 15.4404 53.4404V51.3604C15.4404 49.9465 14.2937 48.7998 12.8799 48.7998H10.7998C10.4907 48.7997 10.2404 48.5493 10.2402 48.2402V45.332C10.2402 44.2661 9.58521 43.434 8.87598 42.958C7.9308 42.3236 6.98929 41.2042 6.17871 39.583C4.80146 36.8282 4 33.0218 4 29L4.00977 28.249C4.10283 24.5067 4.88749 20.9997 6.17871 18.417C6.98942 16.7956 7.93078 15.6754 8.87598 15.041C9.58515 14.565 10.2402 13.733 10.2402 12.667V9.75977C10.2404 9.45066 10.4907 9.2003 10.7998 9.2002H12.8799C14.2937 9.2002 15.4404 8.0535 15.4404 6.63965V4.55957C15.4407 4.25049 15.6909 4 16 4Z" fill="#EE473B"/>
<path d="M16 4H272.88C273.189 4 273.44 4.25049 273.44 4.55957V6.63965C273.44 8.0535 274.586 9.2002 276 9.2002H278.08C278.389 9.20024 278.64 9.45062 278.64 9.75977V11.8398C278.64 13.2964 279.819 14.2418 280.792 14.6289C281.903 15.0708 283.065 16.1829 284.063 18.0361L284.261 18.417C285.638 21.1718 286.44 24.9781 286.44 29C286.44 33.0219 285.638 36.8282 284.261 39.583C283.22 41.6654 281.977 42.8997 280.792 43.3711C279.819 43.7582 278.64 44.7036 278.64 46.1602V48.2402C278.64 48.5494 278.389 48.7998 278.08 48.7998H276C274.586 48.7998 273.44 49.9465 273.44 51.3604V53.4404C273.44 53.7495 273.189 54 272.88 54H16C15.6909 54 15.4407 53.7495 15.4404 53.4404V51.3604C15.4404 49.9465 14.2937 48.7998 12.8799 48.7998H10.7998C10.4907 48.7997 10.2404 48.5493 10.2402 48.2402V45.332C10.2402 44.2661 9.58521 43.434 8.87598 42.958C7.9308 42.3236 6.98929 41.2042 6.17871 39.583C4.80146 36.8282 4 33.0218 4 29L4.00977 28.249C4.10283 24.5067 4.88749 20.9997 6.17871 18.417C6.98942 16.7956 7.93078 15.6754 8.87598 15.041C9.58515 14.565 10.2402 13.733 10.2402 12.667V9.75977C10.2404 9.45066 10.4907 9.2003 10.7998 9.2002H12.8799C14.2937 9.2002 15.4404 8.0535 15.4404 6.63965V4.55957C15.4407 4.25049 15.6909 4 16 4Z" fill="url(#paint1_linear_195_7)" fill-opacity="0.24"/>
<path d="M16 4H272.88C273.189 4 273.44 4.25049 273.44 4.55957V6.63965C273.44 8.0535 274.586 9.2002 276 9.2002H278.08C278.389 9.20024 278.64 9.45062 278.64 9.75977V11.8398C278.64 13.2964 279.819 14.2418 280.792 14.6289C281.903 15.0708 283.065 16.1829 284.063 18.0361L284.261 18.417C285.638 21.1718 286.44 24.9781 286.44 29C286.44 33.0219 285.638 36.8282 284.261 39.583C283.22 41.6654 281.977 42.8997 280.792 43.3711C279.819 43.7582 278.64 44.7036 278.64 46.1602V48.2402C278.64 48.5494 278.389 48.7998 278.08 48.7998H276C274.586 48.7998 273.44 49.9465 273.44 51.3604V53.4404C273.44 53.7495 273.189 54 272.88 54H16C15.6909 54 15.4407 53.7495 15.4404 53.4404V51.3604C15.4404 49.9465 14.2937 48.7998 12.8799 48.7998H10.7998C10.4907 48.7997 10.2404 48.5493 10.2402 48.2402V45.332C10.2402 44.2661 9.58521 43.434 8.87598 42.958C7.9308 42.3236 6.98929 41.2042 6.17871 39.583C4.80146 36.8282 4 33.0218 4 29L4.00977 28.249C4.10283 24.5067 4.88749 20.9997 6.17871 18.417C6.98942 16.7956 7.93078 15.6754 8.87598 15.041C9.58515 14.565 10.2402 13.733 10.2402 12.667V9.75977C10.2404 9.45066 10.4907 9.2003 10.7998 9.2002H12.8799C14.2937 9.2002 15.4404 8.0535 15.4404 6.63965V4.55957C15.4407 4.25049 15.6909 4 16 4Z" stroke="#F5CDCD" stroke-width="2"/>
<path d="M117.448 35.135C115.96 35.135 114.64 34.783 113.488 34.079C112.352 33.359 111.456 32.367 110.8 31.103C110.144 29.823 109.816 28.351 109.816 26.687C109.816 25.311 110.04 24.111 110.488 23.087C110.936 22.063 111.536 21.207 112.288 20.519C113.056 19.831 113.912 19.319 114.856 18.983C115.816 18.647 116.808 18.479 117.832 18.479C118.84 18.479 119.76 18.583 120.592 18.791C121.424 18.999 122.28 19.311 123.16 19.727C123.048 20.287 122.976 20.887 122.944 21.527C122.912 22.151 122.896 22.791 122.896 23.447C122.688 23.527 122.488 23.583 122.296 23.615C122.104 23.647 121.88 23.663 121.624 23.663C121.592 22.527 121.424 21.655 121.12 21.047C120.816 20.439 120.4 20.023 119.872 19.799C119.344 19.575 118.728 19.463 118.024 19.463C117.016 19.463 116.152 19.647 115.432 20.015C114.712 20.383 114.12 20.879 113.656 21.503C113.208 22.111 112.872 22.807 112.648 23.591C112.44 24.375 112.336 25.191 112.336 26.039C112.336 27.463 112.576 28.759 113.056 29.927C113.552 31.079 114.256 31.991 115.168 32.663C116.08 33.335 117.176 33.671 118.456 33.671C119.224 33.671 120.008 33.543 120.808 33.287C121.608 33.031 122.344 32.687 123.016 32.255C123.112 32.335 123.2 32.455 123.28 32.615C123.376 32.759 123.432 32.887 123.448 32.999C122.504 33.735 121.568 34.279 120.64 34.631C119.728 34.967 118.664 35.135 117.448 35.135ZM132.887 35.135C132.711 35.055 132.567 34.911 132.455 34.703C132.359 34.495 132.311 34.167 132.311 33.719C132.311 33.575 132.319 33.407 132.335 33.215C132.351 33.007 132.383 32.823 132.431 32.663H132.479C132.431 32.919 132.319 33.199 132.143 33.503C131.983 33.791 131.767 34.047 131.495 34.271C131.223 34.511 130.879 34.711 130.463 34.871C130.047 35.015 129.543 35.087 128.951 35.087C127.943 35.087 127.175 34.863 126.647 34.415C126.119 33.951 125.855 33.327 125.855 32.543C125.855 31.919 125.999 31.391 126.287 30.959C126.591 30.511 126.975 30.143 127.439 29.855C127.919 29.551 128.431 29.311 128.975 29.135C129.535 28.959 130.079 28.823 130.607 28.727C131.135 28.631 131.599 28.551 131.999 28.487C131.999 27.831 131.983 27.319 131.951 26.951C131.935 26.583 131.887 26.295 131.807 26.087C131.743 25.863 131.639 25.671 131.495 25.511C131.303 25.271 131.079 25.095 130.823 24.983C130.583 24.855 130.311 24.791 130.007 24.791C129.479 24.791 129.063 24.959 128.759 25.295C128.455 25.615 128.239 25.991 128.111 26.423C127.983 26.855 127.911 27.239 127.895 27.575C127.719 27.575 127.495 27.567 127.223 27.551C126.967 27.519 126.775 27.471 126.647 27.407C126.679 27.007 126.687 26.559 126.671 26.063C126.655 25.567 126.607 25.143 126.527 24.791C127.183 24.455 127.871 24.191 128.591 23.999C129.327 23.807 129.999 23.711 130.607 23.711C131.199 23.711 131.703 23.799 132.119 23.975C132.551 24.135 132.895 24.351 133.151 24.623C133.567 25.023 133.839 25.551 133.967 26.207C134.095 26.847 134.159 27.703 134.159 28.775V31.415C134.159 31.863 134.191 32.223 134.255 32.495C134.335 32.751 134.479 32.943 134.687 33.071C134.895 33.183 135.215 33.255 135.647 33.287C135.647 33.447 135.639 33.631 135.623 33.839C135.607 34.031 135.567 34.215 135.503 34.391C135.103 34.407 134.655 34.487 134.159 34.631C133.679 34.759 133.255 34.927 132.887 35.135ZM129.623 33.767C129.975 33.767 130.335 33.655 130.703 33.431C131.071 33.191 131.375 32.823 131.615 32.327C131.871 31.831 131.999 31.183 131.999 30.383V29.471C131.599 29.519 131.175 29.591 130.727 29.687C130.279 29.767 129.863 29.895 129.479 30.071C129.095 30.247 128.783 30.495 128.543 30.815C128.303 31.119 128.183 31.535 128.183 32.063C128.183 32.655 128.327 33.087 128.615 33.359C128.903 33.631 129.239 33.767 129.623 33.767ZM139.272 29.783V27.119C139.272 26.735 139.232 26.423 139.152 26.183C139.072 25.943 138.904 25.759 138.648 25.631C138.392 25.503 138 25.431 137.472 25.415C137.472 25.239 137.488 25.079 137.52 24.935C137.552 24.791 137.608 24.655 137.688 24.527C138.184 24.495 138.752 24.399 139.392 24.239C140.032 24.079 140.536 23.903 140.904 23.711C141.048 23.759 141.168 23.863 141.264 24.023C141.376 24.167 141.432 24.415 141.432 24.767L139.272 29.783ZM148.536 31.871C148.536 32.703 148.648 33.263 148.872 33.551C149.112 33.823 149.472 33.959 149.952 33.959C150 34.103 150.032 34.255 150.048 34.415C150.064 34.575 150.072 34.767 150.072 34.991C149.72 34.959 149.32 34.935 148.872 34.919C148.424 34.919 147.952 34.919 147.456 34.919C147.136 34.919 146.8 34.919 146.448 34.919C146.096 34.935 145.76 34.943 145.44 34.943C145.136 34.959 144.856 34.975 144.6 34.991C144.6 34.767 144.608 34.575 144.624 34.415C144.64 34.239 144.672 34.087 144.72 33.959C145.296 33.959 145.712 33.815 145.968 33.527C146.24 33.223 146.376 32.671 146.376 31.871V28.223C146.376 27.087 146.168 26.319 145.752 25.919C145.336 25.503 144.8 25.295 144.144 25.295C143.728 25.295 143.312 25.431 142.896 25.703C142.48 25.959 142.128 26.383 141.84 26.975C141.568 27.551 141.432 28.327 141.432 29.303V31.871C141.432 32.671 141.552 33.223 141.792 33.527C142.032 33.815 142.464 33.959 143.088 33.959C143.136 34.103 143.168 34.255 143.184 34.415C143.2 34.575 143.208 34.767 143.208 34.991C142.984 34.975 142.712 34.959 142.392 34.943C142.072 34.943 141.736 34.935 141.384 34.919C141.032 34.919 140.688 34.919 140.352 34.919C140.032 34.919 139.696 34.919 139.344 34.919C138.992 34.935 138.656 34.943 138.336 34.943C138.016 34.959 137.736 34.975 137.496 34.991C137.496 34.767 137.504 34.575 137.52 34.415C137.536 34.239 137.568 34.087 137.616 33.959C138.24 33.959 138.672 33.815 138.912 33.527C139.152 33.223 139.272 32.671 139.272 31.871V27.119L141.432 24.767C141.432 24.959 141.424 25.175 141.408 25.415C141.392 25.655 141.344 25.911 141.264 26.183C141.312 26.103 141.36 26.015 141.408 25.919C141.456 25.807 141.528 25.687 141.624 25.559C141.896 25.191 142.328 24.815 142.92 24.431C143.528 24.031 144.256 23.831 145.104 23.831C145.712 23.831 146.272 23.959 146.784 24.215C147.312 24.455 147.736 24.863 148.056 25.439C148.376 25.999 148.536 26.767 148.536 27.743V31.871ZM160.817 33.047C160.385 33.735 159.849 34.255 159.209 34.607C158.569 34.959 157.793 35.135 156.881 35.135C156.065 35.135 155.273 34.927 154.505 34.511C153.753 34.079 153.129 33.447 152.633 32.615C152.137 31.767 151.889 30.719 151.889 29.471C151.889 28.511 152.081 27.591 152.465 26.711C152.849 25.831 153.409 25.111 154.145 24.551C154.897 23.991 155.809 23.711 156.881 23.711C157.617 23.711 158.289 23.799 158.897 23.975C159.521 24.151 160.057 24.423 160.505 24.791C160.441 25.255 160.393 25.711 160.361 26.159C160.345 26.607 160.337 27.063 160.337 27.527C160.209 27.591 160.033 27.639 159.809 27.671C159.601 27.703 159.409 27.719 159.233 27.719C159.137 26.791 158.865 26.079 158.417 25.583C157.969 25.087 157.393 24.839 156.689 24.839C155.905 24.839 155.281 25.207 154.817 25.943C154.353 26.679 154.121 27.735 154.121 29.111C154.121 29.911 154.249 30.671 154.505 31.391C154.777 32.095 155.169 32.671 155.681 33.119C156.193 33.551 156.817 33.767 157.553 33.767C158.065 33.767 158.545 33.647 158.993 33.407C159.457 33.167 159.865 32.823 160.217 32.375C160.345 32.439 160.465 32.535 160.577 32.663C160.689 32.775 160.769 32.903 160.817 33.047ZM167.711 35.135C166.575 35.135 165.631 34.879 164.879 34.367C164.127 33.855 163.559 33.167 163.175 32.303C162.807 31.423 162.623 30.463 162.623 29.423C162.623 28.399 162.823 27.455 163.223 26.591C163.623 25.727 164.191 25.031 164.927 24.503C165.679 23.975 166.567 23.711 167.591 23.711C168.631 23.711 169.463 23.935 170.087 24.383C170.727 24.831 171.199 25.431 171.503 26.183C171.823 26.935 172.015 27.767 172.079 28.679C172.015 28.999 171.895 29.271 171.719 29.495C171.447 29.495 171.039 29.495 170.495 29.495C169.951 29.495 169.335 29.503 168.647 29.519C167.959 29.519 167.255 29.535 166.535 29.567C165.815 29.583 165.135 29.607 164.495 29.639V28.415H169.583C169.583 27.359 169.391 26.503 169.007 25.847C168.623 25.191 168.079 24.863 167.375 24.863C166.991 24.863 166.615 24.983 166.247 25.223C165.879 25.447 165.575 25.855 165.335 26.447C165.095 27.023 164.975 27.847 164.975 28.919C164.975 29.703 165.071 30.471 165.263 31.223C165.471 31.959 165.823 32.575 166.319 33.071C166.831 33.551 167.551 33.791 168.479 33.791C169.007 33.791 169.527 33.671 170.039 33.431C170.551 33.191 171.007 32.847 171.407 32.399C171.535 32.463 171.655 32.575 171.767 32.735C171.895 32.879 171.967 33.015 171.983 33.143C171.439 33.863 170.807 34.375 170.087 34.679C169.383 34.983 168.591 35.135 167.711 35.135ZM173.894 34.991C173.894 34.831 173.902 34.663 173.918 34.487C173.934 34.295 173.966 34.119 174.014 33.959C174.654 33.959 175.086 33.815 175.31 33.527C175.55 33.223 175.67 32.671 175.67 31.871V21.119C175.67 20.735 175.63 20.423 175.55 20.183C175.486 19.927 175.326 19.735 175.07 19.607C174.814 19.479 174.414 19.415 173.87 19.415C173.87 19.239 173.886 19.079 173.918 18.935C173.95 18.791 174.006 18.655 174.086 18.527C174.326 18.527 174.662 18.487 175.094 18.407C175.542 18.327 175.974 18.223 176.39 18.095C176.806 17.967 177.11 17.839 177.302 17.711C177.446 17.759 177.566 17.855 177.662 17.999C177.774 18.143 177.83 18.367 177.83 18.671V31.871C177.83 32.671 177.934 33.223 178.142 33.527C178.366 33.815 178.734 33.959 179.246 33.959C179.294 34.119 179.326 34.303 179.342 34.511C179.358 34.719 179.366 34.879 179.366 34.991C179.094 34.975 178.806 34.959 178.502 34.943C178.198 34.943 177.886 34.935 177.566 34.919C177.262 34.919 176.958 34.919 176.654 34.919C176.35 34.919 176.03 34.919 175.694 34.919C175.374 34.935 175.062 34.943 174.758 34.943C174.454 34.959 174.166 34.975 173.894 34.991Z" fill="white"/>
<defs>
<linearGradient id="paint0_linear_195_7" x1="145.22" y1="3" x2="145.22" y2="55" gradientUnits="userSpaceOnUse">
<stop stop-opacity="0"/>
<stop offset="1" stop-color="#EE473B"/>
</linearGradient>
<linearGradient id="paint1_linear_195_7" x1="145.22" y1="3" x2="145.22" y2="55" gradientUnits="userSpaceOnUse">
<stop stop-color="#F3F1B9"/>
<stop offset="1" stop-color="#F3F1B9" stop-opacity="0"/>
</linearGradient>
</defs>
</svg>
