<svg width="54" height="54" viewBox="0 0 54 54" fill="none" xmlns="http://www.w3.org/2000/svg">
<path d="M25.5215 2.02539C26.3801 1.32479 27.6199 1.3248 28.4785 2.02539L28.6562 2.18555L31.4072 4.9375C40.3802 6.68745 47.4452 13.753 49.1963 22.7256L51.8145 25.3438C52.729 26.2583 52.7289 27.7417 51.8145 28.6562L49.2295 31.2393C47.5248 40.3488 40.3488 47.5248 31.2393 49.2295L28.6562 51.8145C27.7417 52.7289 26.2583 52.729 25.3438 51.8145L22.7256 49.1963C13.7531 47.4452 6.68745 40.3802 4.9375 31.4072L2.18555 28.6562C1.27107 27.7417 1.27107 26.2583 2.18555 25.3438L4.9707 22.5576C6.76517 13.7215 13.7215 6.76517 22.5576 4.9707L25.3438 2.18555L25.5215 2.02539Z" stroke="#464859" stroke-width="3"/>
<path d="M29.7803 6.8457C30.0511 7.11653 30.3946 7.29006 30.7568 7.35742C38.8706 8.86605 45.2686 15.2652 46.7773 23.3789C46.8447 23.741 47.0193 24.0847 47.29 24.3555L49.9346 27L47.3203 29.6143C47.0803 29.8543 46.916 30.1511 46.835 30.4678L46.8057 30.6045C45.3629 38.7125 39.0431 45.1368 30.9893 46.7334L30.6045 46.8057C30.2832 46.8629 29.9762 47.0037 29.7207 47.2217L29.6143 47.3203L27 49.9346L24.3555 47.29L24.25 47.1924C23.998 46.9769 23.6956 46.8363 23.3789 46.7773C15.5188 45.3158 9.26833 39.2658 7.51367 31.5127L7.35742 30.7568L7.32715 30.6221C7.24504 30.3099 7.08269 30.0173 6.8457 29.7803L4.06543 27L6.87695 24.1885C7.14419 23.9212 7.31746 23.5825 7.38672 23.2256C8.93704 15.2355 15.2355 8.93704 23.2256 7.38672C23.5825 7.31746 23.9212 7.14419 24.1885 6.87695L27 4.06543L29.7803 6.8457Z" fill="#453D54"/>
<path d="M29.7803 6.8457C30.0511 7.11653 30.3946 7.29006 30.7568 7.35742C38.8706 8.86605 45.2686 15.2652 46.7773 23.3789C46.8447 23.741 47.0193 24.0847 47.29 24.3555L49.9346 27L47.3203 29.6143C47.0803 29.8543 46.916 30.1511 46.835 30.4678L46.8057 30.6045C45.3629 38.7125 39.0431 45.1368 30.9893 46.7334L30.6045 46.8057C30.2832 46.8629 29.9762 47.0037 29.7207 47.2217L29.6143 47.3203L27 49.9346L24.3555 47.29L24.25 47.1924C23.998 46.9769 23.6956 46.8363 23.3789 46.7773C15.5188 45.3158 9.26833 39.2658 7.51367 31.5127L7.35742 30.7568L7.32715 30.6221C7.24504 30.3099 7.08269 30.0173 6.8457 29.7803L4.06543 27L6.87695 24.1885C7.14419 23.9212 7.31746 23.5825 7.38672 23.2256C8.93704 15.2355 15.2355 8.93704 23.2256 7.38672C23.5825 7.31746 23.9212 7.14419 24.1885 6.87695L27 4.06543L29.7803 6.8457Z" fill="url(#paint0_linear_219_30)" fill-opacity="0.2"/>
<path d="M29.7803 6.8457C30.0511 7.11653 30.3946 7.29006 30.7568 7.35742C38.8706 8.86605 45.2686 15.2652 46.7773 23.3789C46.8447 23.741 47.0193 24.0847 47.29 24.3555L49.9346 27L47.3203 29.6143C47.0803 29.8543 46.916 30.1511 46.835 30.4678L46.8057 30.6045C45.3629 38.7125 39.0431 45.1368 30.9893 46.7334L30.6045 46.8057C30.2832 46.8629 29.9762 47.0037 29.7207 47.2217L29.6143 47.3203L27 49.9346L24.3555 47.29L24.25 47.1924C23.998 46.9769 23.6956 46.8363 23.3789 46.7773C15.5188 45.3158 9.26833 39.2658 7.51367 31.5127L7.35742 30.7568L7.32715 30.6221C7.24504 30.3099 7.08269 30.0173 6.8457 29.7803L4.06543 27L6.87695 24.1885C7.14419 23.9212 7.31746 23.5825 7.38672 23.2256C8.93704 15.2355 15.2355 8.93704 23.2256 7.38672C23.5825 7.31746 23.9212 7.14419 24.1885 6.87695L27 4.06543L29.7803 6.8457Z" stroke="#C3BFD5" stroke-width="2"/>
<path d="M19.718 17.4518C19.9084 17.2613 20.2345 17.383 20.2538 17.6516C20.2592 17.727 20.2916 17.7979 20.345 17.8514L27.0009 24.5073C27.1731 24.6794 27.4522 24.6794 27.6243 24.5073L34.2802 17.8514C34.3337 17.7979 34.3661 17.727 34.3715 17.6516C34.3907 17.383 34.7168 17.2613 34.9072 17.4518L37.1734 19.718C37.3639 19.9084 37.2423 20.2345 36.9736 20.2538C36.8982 20.2592 36.8273 20.2916 36.7738 20.345L30.118 27.0009C29.9458 27.1731 29.9458 27.4522 30.118 27.6243L36.7735 34.2799C36.827 34.3333 36.8979 34.3658 36.9734 34.3712C37.2422 34.3905 37.3638 34.7169 37.1732 34.9074L34.9074 37.1732C34.7169 37.3638 34.3906 37.2422 34.3712 36.9734C34.3658 36.8979 34.3334 36.827 34.2799 36.7735L27.6243 30.1179C27.4522 29.9458 27.1731 29.9458 27.0009 30.1179L20.345 36.7738C20.2916 36.8273 20.2592 36.8982 20.2538 36.9736C20.2345 37.2423 19.9084 37.3639 19.718 37.1734L17.4518 34.9072C17.2614 34.7168 17.383 34.3907 17.6516 34.3715C17.727 34.3661 17.7979 34.3337 17.8514 34.2802L24.5073 27.6243C24.6794 27.4522 24.6794 27.1731 24.5073 27.0009L17.8514 20.345C17.7979 20.2916 17.727 20.2592 17.6516 20.2538C17.383 20.2345 17.2614 19.9084 17.4518 19.718L19.718 17.4518Z" fill="#F6C893"/>
<defs>
<linearGradient id="paint0_linear_219_30" x1="26.7788" y1="27" x2="27.1189" y2="50.9983" gradientUnits="userSpaceOnUse">
<stop stop-opacity="0"/>
<stop offset="1" stop-color="#313148"/>
</linearGradient>
</defs>
</svg>
