<svg width="60" height="36" viewBox="0 0 60 36" fill="none" xmlns="http://www.w3.org/2000/svg">
<path d="M51.3145 1C52.9552 1 54.0277 2.33998 54.4893 3.4541C54.6802 3.91499 54.9596 4.33455 55.3125 4.6875C55.6654 5.04045 56.085 5.31983 56.5459 5.51074C57.66 5.97228 59 7.04479 59 8.68555V27.3145C59 28.9552 57.66 30.0277 56.5459 30.4893C56.085 30.6802 55.6654 30.9596 55.3125 31.3125C54.9596 31.6654 54.6802 32.085 54.4893 32.5459C54.0277 33.66 52.9552 35 51.3145 35H8.68555C7.04479 35 5.97228 33.66 5.51074 32.5459C5.31983 32.085 5.04045 31.6654 4.6875 31.3125C4.33455 30.9596 3.91498 30.6802 3.4541 30.4893C2.33998 30.0277 1 28.9552 1 27.3145V8.68555C1 7.04479 2.33998 5.97228 3.4541 5.51074C3.91499 5.31983 4.33455 5.04045 4.6875 4.6875C5.04045 4.33455 5.31983 3.91499 5.51074 3.4541C5.97228 2.33998 7.04479 1 8.68555 1H51.3145Z" stroke="#7A7575" stroke-width="2"/>
<path d="M8.68555 2.5H51.3145C52.0557 2.5 52.7366 3.14262 53.1035 4.02832C53.3699 4.67137 53.7599 5.25597 54.252 5.74805C54.744 6.24012 55.3286 6.63011 55.9717 6.89648C56.8574 7.26335 57.5 7.94432 57.5 8.68555V27.3145C57.5 28.0557 56.8574 28.7366 55.9717 29.1035C55.3286 29.3699 54.744 29.7599 54.252 30.252C53.7599 30.744 53.3699 31.3286 53.1035 31.9717C52.7366 32.8574 52.0557 33.5 51.3145 33.5H8.68555C7.94432 33.5 7.26335 32.8574 6.89648 31.9717C6.63011 31.3286 6.24012 30.744 5.74805 30.252C5.25597 29.7599 4.67137 29.3699 4.02832 29.1035C3.14262 28.7366 2.5 28.0557 2.5 27.3145V8.68555C2.5 7.94432 3.14262 7.26335 4.02832 6.89648C4.67137 6.63011 5.25597 6.24012 5.74805 5.74805C6.24012 5.25597 6.63011 4.67137 6.89648 4.02832C7.26335 3.14262 7.94432 2.5 8.68555 2.5Z" fill="#7A7697"/>
<path d="M8.68555 2.5H51.3145C52.0557 2.5 52.7366 3.14262 53.1035 4.02832C53.3699 4.67137 53.7599 5.25597 54.252 5.74805C54.744 6.24012 55.3286 6.63011 55.9717 6.89648C56.8574 7.26335 57.5 7.94432 57.5 8.68555V27.3145C57.5 28.0557 56.8574 28.7366 55.9717 29.1035C55.3286 29.3699 54.744 29.7599 54.252 30.252C53.7599 30.744 53.3699 31.3286 53.1035 31.9717C52.7366 32.8574 52.0557 33.5 51.3145 33.5H8.68555C7.94432 33.5 7.26335 32.8574 6.89648 31.9717C6.63011 31.3286 6.24012 30.744 5.74805 30.252C5.25597 29.7599 4.67137 29.3699 4.02832 29.1035C3.14262 28.7366 2.5 28.0557 2.5 27.3145V8.68555C2.5 7.94432 3.14262 7.26335 4.02832 6.89648C4.67137 6.63011 5.25597 6.24012 5.74805 5.74805C6.24012 5.25597 6.63011 4.67137 6.89648 4.02832C7.26335 3.14262 7.94432 2.5 8.68555 2.5Z" fill="url(#paint0_linear_175_122)" fill-opacity="0.2"/>
<path d="M8.68555 2.5H51.3145C52.0557 2.5 52.7366 3.14262 53.1035 4.02832C53.3699 4.67137 53.7599 5.25597 54.252 5.74805C54.744 6.24012 55.3286 6.63011 55.9717 6.89648C56.8574 7.26335 57.5 7.94432 57.5 8.68555V27.3145C57.5 28.0557 56.8574 28.7366 55.9717 29.1035C55.3286 29.3699 54.744 29.7599 54.252 30.252C53.7599 30.744 53.3699 31.3286 53.1035 31.9717C52.7366 32.8574 52.0557 33.5 51.3145 33.5H8.68555C7.94432 33.5 7.26335 32.8574 6.89648 31.9717C6.63011 31.3286 6.24012 30.744 5.74805 30.252C5.25597 29.7599 4.67137 29.3699 4.02832 29.1035C3.14262 28.7366 2.5 28.0557 2.5 27.3145V8.68555C2.5 7.94432 3.14262 7.26335 4.02832 6.89648C4.67137 6.63011 5.25597 6.24012 5.74805 5.74805C6.24012 5.25597 6.63011 4.67137 6.89648 4.02832C7.26335 3.14262 7.94432 2.5 8.68555 2.5Z" stroke="#C3BFD5"/>
<path d="M17.1923 22.144C16.1363 22.144 15.2083 21.9093 14.4083 21.44C13.619 20.96 13.0003 20.2987 12.5523 19.456C12.1043 18.6133 11.8803 17.6373 11.8803 16.528C11.8803 15.6213 12.0296 14.8267 12.3283 14.144C12.627 13.4507 13.0323 12.8747 13.5443 12.416C14.0563 11.9573 14.6376 11.616 15.2883 11.392C15.939 11.1573 16.611 11.04 17.3043 11.04C17.9336 11.04 18.5363 11.1147 19.1123 11.264C19.699 11.4027 20.275 11.6053 20.8403 11.872C20.7763 12.2347 20.7283 12.6293 20.6963 13.056C20.675 13.4827 20.6643 13.9147 20.6643 14.352C20.5256 14.416 20.339 14.464 20.1043 14.496C19.8696 14.528 19.6456 14.544 19.4323 14.544C19.4216 13.8933 19.331 13.3813 19.1603 13.008C18.9896 12.6347 18.755 12.3733 18.4563 12.224C18.1576 12.0747 17.8056 12 17.4003 12C16.8563 12 16.3923 12.1173 16.0083 12.352C15.6243 12.576 15.315 12.88 15.0803 13.264C14.8456 13.648 14.6696 14.0853 14.5523 14.576C14.4456 15.0667 14.3923 15.5787 14.3923 16.112C14.3923 17.008 14.5256 17.8187 14.7923 18.544C15.0696 19.2693 15.475 19.8453 16.0083 20.272C16.5416 20.688 17.203 20.896 17.9923 20.896C18.4296 20.896 18.8776 20.8267 19.3363 20.688C19.8056 20.5493 20.259 20.352 20.6963 20.096C20.7816 20.1707 20.8563 20.272 20.9203 20.4C20.995 20.528 21.043 20.656 21.0643 20.784C20.563 21.1893 19.9976 21.52 19.3683 21.776C18.7496 22.0213 18.0243 22.144 17.1923 22.144ZM26.1296 22.144C25.2869 22.144 24.5669 21.9947 23.9696 21.696C23.3722 21.3867 22.9189 20.9547 22.6096 20.4C22.3109 19.8347 22.1616 19.1733 22.1616 18.416C22.1616 17.5947 22.3376 16.896 22.6896 16.32C23.0416 15.7333 23.5216 15.2907 24.1296 14.992C24.7482 14.6827 25.4362 14.528 26.1936 14.528C27.0682 14.528 27.7989 14.688 28.3856 15.008C28.9829 15.328 29.4309 15.7707 29.7296 16.336C30.0389 16.8907 30.1936 17.536 30.1936 18.272C30.1936 19.0507 30.0282 19.7333 29.6976 20.32C29.3669 20.896 28.8976 21.344 28.2896 21.664C27.6816 21.984 26.9616 22.144 26.1296 22.144ZM26.3376 21.136C26.8389 21.136 27.2122 20.9013 27.4576 20.432C27.7136 19.952 27.8416 19.3547 27.8416 18.64C27.8416 17.9573 27.7562 17.3813 27.5856 16.912C27.4149 16.4427 27.1909 16.0907 26.9136 15.856C26.6362 15.6213 26.3322 15.504 26.0016 15.504C25.5002 15.504 25.1269 15.7387 24.8816 16.208C24.6362 16.6667 24.5136 17.2427 24.5136 17.936C24.5136 18.5547 24.5829 19.1093 24.7216 19.6C24.8709 20.08 25.0842 20.4587 25.3616 20.736C25.6389 21.0027 25.9642 21.136 26.3376 21.136ZM35.6858 14.528C35.9311 14.528 36.1551 14.5493 36.3578 14.592C36.5711 14.624 36.7951 14.672 37.0298 14.736V16.224C36.8378 15.9893 36.6351 15.808 36.4218 15.68C36.2191 15.5413 35.9631 15.472 35.6538 15.472C35.4511 15.472 35.2325 15.5147 34.9978 15.6C34.7738 15.6747 34.5605 15.8187 34.3578 16.032C34.1551 16.2347 33.9898 16.5333 33.8618 16.928C33.7338 17.312 33.6698 17.808 33.6698 18.416C33.6698 18.9173 33.7338 19.3493 33.8618 19.712C34.0005 20.0747 34.1818 20.3573 34.4058 20.56C34.6298 20.752 34.8858 20.848 35.1738 20.848C35.4511 20.848 35.7178 20.7627 35.9738 20.592C36.2298 20.4107 36.4378 20.1227 36.5978 19.728C36.7685 19.3227 36.8538 18.7893 36.8538 18.128L37.4778 19.76C37.3071 20.176 37.1471 20.5013 36.9978 20.736C36.8485 20.96 36.7045 21.1307 36.5658 21.248C36.4591 21.376 36.2991 21.5093 36.0858 21.648C35.8831 21.7867 35.6431 21.904 35.3658 22C35.0885 22.096 34.7845 22.144 34.4538 22.144C33.8458 22.144 33.3018 22.0267 32.8218 21.792C32.3525 21.5573 31.9845 21.1893 31.7178 20.688C31.4511 20.1867 31.3178 19.5413 31.3178 18.752C31.3178 17.9413 31.4991 17.216 31.8618 16.576C32.2245 15.936 32.7311 15.4347 33.3818 15.072C34.0431 14.7093 34.8111 14.528 35.6858 14.528ZM39.1258 19.328C39.1258 19.6587 39.1471 19.92 39.1898 20.112C39.2325 20.2933 39.3231 20.4213 39.4618 20.496C39.6005 20.5707 39.8031 20.608 40.0698 20.608C40.0911 20.7787 40.0911 20.9547 40.0698 21.136C40.0485 21.3067 40.0005 21.4667 39.9258 21.616C39.5418 21.6267 39.1365 21.68 38.7098 21.776C38.2938 21.8613 37.9098 21.984 37.5578 22.144C37.3871 22.0693 37.2591 21.968 37.1738 21.84C37.0885 21.712 37.0458 21.5093 37.0458 21.232C37.0458 21.0187 37.0671 20.8053 37.1098 20.592C37.1631 20.3787 37.2325 20.128 37.3178 19.84L39.1258 19.328ZM39.1258 12.864V19.92H36.8538V12.864H39.1258ZM38.6618 10.528C38.8005 10.5813 38.9125 10.6773 38.9978 10.816C39.0831 10.944 39.1258 11.1307 39.1258 11.376V13.408H36.8538V13.104C36.8538 12.848 36.8218 12.64 36.7578 12.48C36.7045 12.32 36.5925 12.2027 36.4218 12.128C36.2511 12.0427 35.9951 11.9893 35.6538 11.968C35.6538 11.808 35.6645 11.6533 35.6858 11.504C35.7178 11.344 35.7658 11.1947 35.8298 11.056C36.1925 11.056 36.5605 11.0293 36.9338 10.976C37.3071 10.9227 37.6485 10.8587 37.9578 10.784C38.2778 10.6987 38.5125 10.6133 38.6618 10.528ZM44.9238 22.144C44.0171 22.144 43.2811 21.9787 42.7158 21.648C42.1505 21.3173 41.7345 20.8693 41.4678 20.304C41.2011 19.728 41.0678 19.088 41.0678 18.384C41.0678 17.6267 41.2171 16.96 41.5158 16.384C41.8145 15.808 42.2411 15.3547 42.7958 15.024C43.3611 14.6933 44.0171 14.528 44.7638 14.528C45.5318 14.528 46.1558 14.6773 46.6358 14.976C47.1265 15.264 47.4891 15.6693 47.7238 16.192C47.9585 16.704 48.0918 17.2853 48.1238 17.936C48.0491 18.2453 47.9158 18.496 47.7238 18.688C47.4571 18.688 47.1318 18.6933 46.7478 18.704C46.3638 18.704 45.9478 18.7093 45.4998 18.72C45.0625 18.72 44.6145 18.7307 44.1558 18.752C43.7078 18.7627 43.2811 18.784 42.8758 18.816V17.76H45.9478C45.9478 17.0453 45.8411 16.496 45.6278 16.112C45.4251 15.7173 45.1265 15.52 44.7318 15.52C44.4758 15.52 44.2465 15.6053 44.0438 15.776C43.8411 15.936 43.6811 16.1973 43.5638 16.56C43.4465 16.912 43.3878 17.376 43.3878 17.952C43.3878 18.496 43.4571 18.9973 43.5958 19.456C43.7345 19.9147 43.9638 20.2773 44.2838 20.544C44.6145 20.8107 45.0625 20.944 45.6278 20.944C45.9905 20.944 46.3531 20.8747 46.7158 20.736C47.0785 20.5973 47.3878 20.416 47.6438 20.192C47.7398 20.2453 47.8305 20.352 47.9158 20.512C48.0011 20.672 48.0438 20.832 48.0438 20.992C47.6491 21.3867 47.1958 21.68 46.6838 21.872C46.1718 22.0533 45.5851 22.144 44.9238 22.144Z" fill="#F6C893"/>
<defs>
<linearGradient id="paint0_linear_175_122" x1="29.7419" y1="18" x2="29.8715" y2="34.001" gradientUnits="userSpaceOnUse">
<stop stop-opacity="0"/>
<stop offset="1" stop-color="#5F618A"/>
</linearGradient>
</defs>
</svg>
