<svg width="110" height="30" viewBox="0 0 110 30" fill="none" xmlns="http://www.w3.org/2000/svg">
<path d="M98.416 1C99.8658 1 101.041 2.17526 101.041 3.625V4.16699C101.041 4.51193 101.321 4.79184 101.666 4.79199H102.192C103.471 4.79199 104.508 5.82872 104.508 7.10742C104.508 7.21583 104.599 7.44612 104.946 7.69141C105.627 8.17159 106.211 8.85835 106.683 9.68359C107.599 11.2877 108.083 13.3964 108.083 15.542C108.083 17.6876 107.599 19.7963 106.683 21.4004C106.211 22.2256 105.627 22.9116 104.946 23.3916C104.599 23.6369 104.508 23.8671 104.508 23.9756C104.508 25.2545 103.471 26.292 102.192 26.292H101.396C101.2 26.292 101.041 26.4501 101.041 26.6455C101.041 27.9456 99.9875 28.9998 98.6875 29H10.3955C9.09547 28.9998 8.04199 27.9456 8.04199 26.6455C8.04182 26.4501 7.88298 26.292 7.6875 26.292H7.1748C5.9787 26.292 5.00885 25.3221 5.00879 24.126C5.00879 24.1022 5.00132 24.0457 4.92871 23.9521C4.85248 23.8539 4.72687 23.7472 4.56543 23.6592C3.69714 23.1858 2.96606 22.3903 2.40039 21.4004C1.48383 19.7963 1.00005 17.6876 1 15.542L1.00586 15.1396C1.06243 13.1343 1.54123 11.1874 2.40039 9.68359C2.96604 8.6937 3.69707 7.89743 4.56543 7.42383C4.72677 7.33586 4.8525 7.229 4.92871 7.13086C5.00129 7.03731 5.00879 6.98073 5.00879 6.95703C5.00887 5.76119 5.97799 4.7921 7.17383 4.79199H7.52539C7.81044 4.79183 8.04184 4.56045 8.04199 4.27539V3.625C8.04199 2.17526 9.21724 1 10.667 1H98.416Z" stroke="#7A7575" stroke-width="2"/>
<mask id="path-2-inside-1_180_52" fill="white">
<path d="M100.041 4.05859C100.041 5.01592 100.817 5.79199 101.774 5.79199H102.192C102.918 5.79199 103.508 6.38131 103.508 7.10826C103.508 7.68454 103.899 8.17815 104.37 8.51019C104.905 8.88758 105.397 9.45166 105.813 10.1797C106.626 11.6018 107.083 13.5308 107.083 15.542C107.083 17.5531 106.626 19.4822 105.813 20.9043C105.398 21.6317 104.906 22.1948 104.371 22.5717C103.899 22.9038 103.508 23.3978 103.508 23.9745C103.508 24.7021 102.918 25.292 102.19 25.292H101.395C100.647 25.292 100.041 25.8982 100.041 26.646C100.041 27.3938 99.4348 28 98.687 28H10.396C9.6482 28 9.04199 27.3938 9.04199 26.646C9.04199 25.8982 8.43578 25.292 7.68799 25.292H7.17624C6.53147 25.292 6.00879 24.7693 6.00879 24.1245C6.00879 23.5386 5.55753 23.0587 5.04298 22.7785C4.37983 22.4173 3.76976 21.7796 3.26953 20.9043C2.45692 19.4822 2.00005 17.5531 2 15.542C2 13.5308 2.45689 11.6018 3.26953 10.1797C3.77005 9.30378 4.38035 8.66499 5.04386 8.30341C5.55789 8.02329 6.00879 7.54377 6.00879 6.95837C6.00879 6.3142 6.53099 5.79199 7.17516 5.79199H7.52539C8.36299 5.79199 9.04199 5.11299 9.04199 4.27539V3.896C9.04199 2.84887 9.89086 2 10.938 2H98.145C99.1921 2 100.041 2.84887 100.041 3.896V4.05859Z"/>
</mask>
<path d="M100.041 4.05859C100.041 5.01592 100.817 5.79199 101.774 5.79199H102.192C102.918 5.79199 103.508 6.38131 103.508 7.10826C103.508 7.68454 103.899 8.17815 104.37 8.51019C104.905 8.88758 105.397 9.45166 105.813 10.1797C106.626 11.6018 107.083 13.5308 107.083 15.542C107.083 17.5531 106.626 19.4822 105.813 20.9043C105.398 21.6317 104.906 22.1948 104.371 22.5717C103.899 22.9038 103.508 23.3978 103.508 23.9745C103.508 24.7021 102.918 25.292 102.19 25.292H101.395C100.647 25.292 100.041 25.8982 100.041 26.646C100.041 27.3938 99.4348 28 98.687 28H10.396C9.6482 28 9.04199 27.3938 9.04199 26.646C9.04199 25.8982 8.43578 25.292 7.68799 25.292H7.17624C6.53147 25.292 6.00879 24.7693 6.00879 24.1245C6.00879 23.5386 5.55753 23.0587 5.04298 22.7785C4.37983 22.4173 3.76976 21.7796 3.26953 20.9043C2.45692 19.4822 2.00005 17.5531 2 15.542C2 13.5308 2.45689 11.6018 3.26953 10.1797C3.77005 9.30378 4.38035 8.66499 5.04386 8.30341C5.55789 8.02329 6.00879 7.54377 6.00879 6.95837C6.00879 6.3142 6.53099 5.79199 7.17516 5.79199H7.52539C8.36299 5.79199 9.04199 5.11299 9.04199 4.27539V3.896C9.04199 2.84887 9.89086 2 10.938 2H98.145C99.1921 2 100.041 2.84887 100.041 3.896V4.05859Z" fill="#7A7697"/>
<path d="M100.041 4.05859C100.041 5.01592 100.817 5.79199 101.774 5.79199H102.192C102.918 5.79199 103.508 6.38131 103.508 7.10826C103.508 7.68454 103.899 8.17815 104.37 8.51019C104.905 8.88758 105.397 9.45166 105.813 10.1797C106.626 11.6018 107.083 13.5308 107.083 15.542C107.083 17.5531 106.626 19.4822 105.813 20.9043C105.398 21.6317 104.906 22.1948 104.371 22.5717C103.899 22.9038 103.508 23.3978 103.508 23.9745C103.508 24.7021 102.918 25.292 102.19 25.292H101.395C100.647 25.292 100.041 25.8982 100.041 26.646C100.041 27.3938 99.4348 28 98.687 28H10.396C9.6482 28 9.04199 27.3938 9.04199 26.646C9.04199 25.8982 8.43578 25.292 7.68799 25.292H7.17624C6.53147 25.292 6.00879 24.7693 6.00879 24.1245C6.00879 23.5386 5.55753 23.0587 5.04298 22.7785C4.37983 22.4173 3.76976 21.7796 3.26953 20.9043C2.45692 19.4822 2.00005 17.5531 2 15.542C2 13.5308 2.45689 11.6018 3.26953 10.1797C3.77005 9.30378 4.38035 8.66499 5.04386 8.30341C5.55789 8.02329 6.00879 7.54377 6.00879 6.95837C6.00879 6.3142 6.53099 5.79199 7.17516 5.79199H7.52539C8.36299 5.79199 9.04199 5.11299 9.04199 4.27539V3.896C9.04199 2.84887 9.89086 2 10.938 2H98.145C99.1921 2 100.041 2.84887 100.041 3.896V4.05859Z" fill="url(#paint0_linear_180_52)" fill-opacity="0.2"/>
<path d="M105.813 10.1797L106.682 9.68356L106.682 9.68355L105.813 10.1797ZM107.083 15.542L108.083 15.542L108.083 15.542L107.083 15.542ZM105.813 20.9043L106.682 21.4005L106.682 21.4004L105.813 20.9043ZM3.26953 20.9043L2.40129 21.4004L2.40132 21.4005L3.26953 20.9043ZM2 15.542L1 15.542L1 15.542L2 15.542ZM3.26953 10.1797L2.40129 9.68355L2.40128 9.68356L3.26953 10.1797ZM5.04386 8.30341L4.56534 7.42533L5.04386 8.30341ZM5.04298 22.7785L5.52127 21.9003L5.04298 22.7785ZM104.37 8.51019L103.794 9.32751L104.37 8.51019ZM104.371 22.5717L104.947 23.3892L104.371 22.5717ZM101.774 5.79199V6.79199H102.192V5.79199V4.79199H101.774V5.79199ZM104.37 8.51019L103.794 9.32751C104.184 9.60268 104.585 10.045 104.945 10.6758L105.813 10.1797L106.682 9.68355C106.21 8.85831 105.627 8.17248 104.946 7.69287L104.37 8.51019ZM105.813 10.1797L104.945 10.6758C105.654 11.9161 106.083 13.6656 106.083 15.542L107.083 15.542L108.083 15.542C108.083 13.396 107.598 11.2876 106.682 9.68356L105.813 10.1797ZM107.083 15.542L106.083 15.542C106.083 17.4183 105.654 19.168 104.945 20.4082L105.813 20.9043L106.682 21.4004C107.598 19.7965 108.083 17.6879 108.083 15.542L107.083 15.542ZM105.813 20.9043L104.945 20.4081C104.585 21.0379 104.185 21.4793 103.795 21.7541L104.371 22.5717L104.947 23.3892C105.627 22.9102 106.21 22.2255 106.682 21.4005L105.813 20.9043ZM102.19 25.292V24.292H101.395V25.292V26.292H102.19V25.292ZM98.687 28V27H10.396V28V29H98.687V28ZM7.68799 25.292V24.292H7.17624V25.292V26.292H7.68799V25.292ZM5.04298 22.7785L5.52127 21.9003C5.06254 21.6504 4.57263 21.169 4.13774 20.4081L3.26953 20.9043L2.40132 21.4005C2.96689 22.3901 3.69711 23.1842 4.56468 23.6567L5.04298 22.7785ZM3.26953 20.9043L4.13778 20.4082C3.4291 19.168 3.00005 17.4183 3 15.542L2 15.542L1 15.542C1.00005 17.6879 1.48474 19.7965 2.40129 21.4004L3.26953 20.9043ZM2 15.542L3 15.542C3 13.6656 3.42906 11.9161 4.13778 10.6758L3.26953 10.1797L2.40128 9.68356C1.48472 11.2876 1 13.396 1 15.542L2 15.542ZM3.26953 10.1797L4.13778 10.6758C4.57317 9.91389 5.06344 9.43159 5.52237 9.18149L5.04386 8.30341L4.56534 7.42533C3.69726 7.8984 2.96693 8.69368 2.40129 9.68355L3.26953 10.1797ZM7.17516 5.79199V6.79199H7.52539V5.79199V4.79199H7.17516V5.79199ZM9.04199 4.27539H10.042V3.896H9.04199H8.04199V4.27539H9.04199ZM10.938 2V3H98.145V2V1H10.938V2ZM100.041 3.896H99.041V4.05859H100.041H101.041V3.896H100.041ZM98.145 2V3C98.6399 3 99.041 3.40115 99.041 3.896H100.041H101.041C101.041 2.29658 99.7444 1 98.145 1V2ZM9.04199 3.896H10.042C10.042 3.40115 10.4431 3 10.938 3V2V1C9.33857 1 8.04199 2.29658 8.04199 3.896H9.04199ZM7.52539 5.79199V6.79199C8.91527 6.79199 10.042 5.66527 10.042 4.27539H9.04199H8.04199C8.04199 4.5607 7.8107 4.79199 7.52539 4.79199V5.79199ZM6.00879 6.95837H7.00879C7.00879 6.86648 7.08328 6.79199 7.17516 6.79199V5.79199V4.79199C5.97871 4.79199 5.00879 5.76191 5.00879 6.95837H6.00879ZM5.04386 8.30341L5.52237 9.18149C6.17182 8.82757 7.00879 8.08162 7.00879 6.95837H6.00879H5.00879C5.00879 6.98227 5.00172 7.03866 4.92905 7.13231C4.85276 7.23063 4.72698 7.33725 4.56534 7.42533L5.04386 8.30341ZM10.396 28V27C10.2005 27 10.042 26.8415 10.042 26.646H9.04199H8.04199C8.04199 27.9461 9.09592 29 10.396 29V28ZM100.041 26.646H99.041C99.041 26.8415 98.8825 27 98.687 27V28V29C99.9871 29 101.041 27.9461 101.041 26.646H100.041ZM101.395 25.292V24.292C100.095 24.292 99.041 25.3459 99.041 26.646H100.041H101.041C101.041 26.4505 101.2 26.292 101.395 26.292V25.292ZM103.508 23.9745H102.508C102.508 24.1499 102.366 24.292 102.19 24.292V25.292V26.292C103.47 26.292 104.508 25.2544 104.508 23.9745H103.508ZM6.00879 24.1245H7.00879C7.00879 23.0008 6.17145 22.2544 5.52127 21.9003L5.04298 22.7785L4.56468 23.6567C4.72649 23.7448 4.85243 23.8515 4.92884 23.95C5.00162 24.0438 5.00879 24.1004 5.00879 24.1245H6.00879ZM103.508 7.10826H102.508C102.508 8.15227 103.2 8.909 103.794 9.32751L104.37 8.51019L104.946 7.69287C104.598 7.4473 104.508 7.21682 104.508 7.10826H103.508ZM104.371 22.5717L103.795 21.7541C103.201 22.1729 102.508 22.93 102.508 23.9745H103.508H104.508C104.508 23.8655 104.598 23.6347 104.947 23.3892L104.371 22.5717ZM7.17624 25.292V24.292C7.08376 24.292 7.00879 24.217 7.00879 24.1245H6.00879H5.00879C5.00879 25.3216 5.97919 26.292 7.17624 26.292V25.292ZM102.192 5.79199V6.79199C102.366 6.79199 102.508 6.93359 102.508 7.10826H103.508H104.508C104.508 5.82902 103.471 4.79199 102.192 4.79199V5.79199ZM9.04199 26.646H10.042C10.042 25.3459 8.98807 24.292 7.68799 24.292V25.292V26.292C7.8835 26.292 8.04199 26.4505 8.04199 26.646H9.04199ZM101.774 5.79199V4.79199C101.369 4.79199 101.041 4.46364 101.041 4.05859H100.041H99.041C99.041 5.56821 100.265 6.79199 101.774 6.79199V5.79199Z" fill="#C3BFD5" mask="url(#path-2-inside-1_180_52)"/>
<path d="M37.4395 19.4773C36.4475 19.4773 35.5675 19.2427 34.7995 18.7733C34.0421 18.2933 33.4448 17.632 33.0075 16.7893C32.5701 15.936 32.3515 14.9547 32.3515 13.8453C32.3515 12.928 32.5008 12.128 32.7995 11.4453C33.0981 10.7627 33.4981 10.192 33.9995 9.73334C34.5115 9.27468 35.0821 8.93334 35.7115 8.70934C36.3515 8.48534 37.0128 8.37334 37.6955 8.37334C38.3675 8.37334 38.9808 8.44268 39.5355 8.58134C40.0901 8.72001 40.6608 8.92801 41.2475 9.20534C41.1728 9.57868 41.1248 9.97868 41.1035 10.4053C41.0821 10.8213 41.0715 11.248 41.0715 11.6853C40.9328 11.7387 40.7995 11.776 40.6715 11.7973C40.5435 11.8187 40.3941 11.8293 40.2235 11.8293C40.2021 11.072 40.0901 10.4907 39.8875 10.0853C39.6848 9.68001 39.4075 9.40268 39.0555 9.25334C38.7035 9.10401 38.2928 9.02934 37.8235 9.02934C37.1515 9.02934 36.5755 9.15201 36.0955 9.39734C35.6155 9.64268 35.2208 9.97334 34.9115 10.3893C34.6128 10.7947 34.3888 11.2587 34.2395 11.7813C34.1008 12.304 34.0315 12.848 34.0315 13.4133C34.0315 14.3627 34.1915 15.2267 34.5115 16.0053C34.8421 16.7733 35.3115 17.3813 35.9195 17.8293C36.5275 18.2773 37.2581 18.5013 38.1115 18.5013C38.6235 18.5013 39.1461 18.416 39.6795 18.2453C40.2128 18.0747 40.7035 17.8453 41.1515 17.5573C41.2155 17.6107 41.2741 17.6907 41.3275 17.7973C41.3915 17.8933 41.4288 17.9787 41.4395 18.0533C40.8101 18.544 40.1861 18.9067 39.5675 19.1413C38.9595 19.3653 38.2501 19.4773 37.4395 19.4773ZM45.4606 16.9813C45.4606 17.44 45.5086 17.792 45.6046 18.0373C45.7006 18.272 45.8553 18.4373 46.0686 18.5333C46.2819 18.6187 46.5539 18.672 46.8846 18.6933C46.9166 18.7787 46.9379 18.88 46.9486 18.9973C46.9593 19.104 46.9646 19.232 46.9646 19.3813C46.8046 19.3707 46.6126 19.36 46.3886 19.3493C46.1753 19.3493 45.9459 19.344 45.7006 19.3333C45.4553 19.3333 45.2046 19.3333 44.9486 19.3333C44.5753 19.3333 44.1806 19.3333 43.7646 19.3333C43.3593 19.344 43.0499 19.36 42.8366 19.3813C42.8366 19.232 42.8419 19.104 42.8526 18.9973C42.8633 18.88 42.8846 18.7787 42.9166 18.6933C43.2046 18.672 43.4286 18.624 43.5886 18.5493C43.7486 18.464 43.8606 18.3253 43.9246 18.1333C43.9886 17.9307 44.0206 17.6533 44.0206 17.3013V15.7013H45.4606V16.9813ZM45.4606 14.6453V15.9093H44.0206V14.1333L45.4606 12.5653C45.4606 12.928 45.4286 13.2587 45.3646 13.5573C45.3006 13.8453 45.2419 14.1333 45.1886 14.4213L45.4606 14.6453ZM45.1086 14.5173C45.2259 14.2187 45.3166 13.9733 45.3806 13.7813C45.4446 13.5893 45.5139 13.4293 45.5886 13.3013C45.8233 12.928 46.1006 12.6187 46.4206 12.3733C46.7406 12.128 47.1086 12.0053 47.5246 12.0053C47.9299 12.0053 48.2979 12.1333 48.6286 12.3893C48.6073 12.56 48.5859 12.7573 48.5646 12.9813C48.5433 13.2053 48.5273 13.4293 48.5166 13.6533C48.5166 13.8773 48.5166 14.0853 48.5166 14.2773C48.4206 14.3093 48.2873 14.3413 48.1166 14.3733C47.9566 14.4053 47.7859 14.4213 47.6046 14.4213C47.5833 13.9093 47.4979 13.5733 47.3486 13.4133C47.2099 13.2533 47.0339 13.1733 46.8206 13.1733C46.6393 13.1733 46.4419 13.28 46.2286 13.4933C46.0153 13.696 45.8339 13.968 45.6846 14.3093C45.5353 14.6507 45.4606 15.0293 45.4606 15.4453L45.1086 14.5173ZM44.0206 15.9093V14.1333C44.0206 13.8773 43.9939 13.6693 43.9406 13.5093C43.8873 13.3493 43.7753 13.2267 43.6046 13.1413C43.4339 13.056 43.1726 13.008 42.8206 12.9973C42.8206 12.88 42.8313 12.7733 42.8526 12.6773C42.8739 12.5813 42.9113 12.4907 42.9646 12.4053C43.2953 12.384 43.6739 12.32 44.1006 12.2133C44.5273 12.1067 44.8633 11.9893 45.1086 11.8613C45.2046 11.8933 45.2846 11.9627 45.3486 12.0693C45.4233 12.1653 45.4606 12.3307 45.4606 12.5653L44.0206 15.9093ZM52.9797 19.4773C52.2224 19.4773 51.593 19.3067 51.0917 18.9653C50.5904 18.624 50.2117 18.1653 49.9557 17.5893C49.7104 17.0027 49.5877 16.3627 49.5877 15.6693C49.5877 14.9867 49.721 14.3573 49.9877 13.7813C50.2544 13.2053 50.633 12.7413 51.1237 12.3893C51.625 12.0373 52.217 11.8613 52.8997 11.8613C53.593 11.8613 54.1477 12.0107 54.5637 12.3093C54.9904 12.608 55.305 13.008 55.5077 13.5093C55.721 14.0107 55.849 14.5653 55.8917 15.1733C55.849 15.3867 55.769 15.568 55.6517 15.7173C55.4704 15.7173 55.1984 15.7173 54.8357 15.7173C54.473 15.7173 54.0624 15.7227 53.6037 15.7333C53.145 15.7333 52.6757 15.744 52.1957 15.7653C51.7157 15.776 51.2624 15.792 50.8357 15.8133V14.9973H54.2277C54.2277 14.2933 54.0997 13.7227 53.8437 13.2853C53.5877 12.848 53.225 12.6293 52.7557 12.6293C52.4997 12.6293 52.249 12.7093 52.0037 12.8693C51.7584 13.0187 51.5557 13.2907 51.3957 13.6853C51.2357 14.0693 51.1557 14.6187 51.1557 15.3333C51.1557 15.856 51.2197 16.368 51.3477 16.8693C51.4864 17.36 51.721 17.7707 52.0517 18.1013C52.393 18.4213 52.873 18.5813 53.4917 18.5813C53.8437 18.5813 54.1904 18.5013 54.5317 18.3413C54.873 18.1813 55.177 17.952 55.4437 17.6533C55.529 17.696 55.609 17.7707 55.6837 17.8773C55.769 17.9733 55.817 18.064 55.8277 18.1493C55.465 18.6293 55.0437 18.9707 54.5637 19.1733C54.0944 19.376 53.5664 19.4773 52.9797 19.4773ZM62.0138 19.4773C61.8965 19.424 61.8005 19.328 61.7258 19.1893C61.6618 19.0507 61.6298 18.832 61.6298 18.5333C61.6298 18.4373 61.6352 18.3253 61.6458 18.1973C61.6565 18.0587 61.6778 17.936 61.7098 17.8293H61.7418C61.7098 18 61.6352 18.1867 61.5178 18.3893C61.4112 18.5813 61.2672 18.752 61.0858 18.9013C60.9045 19.0613 60.6752 19.1947 60.3978 19.3013C60.1205 19.3973 59.7845 19.4453 59.3898 19.4453C58.7178 19.4453 58.2058 19.296 57.8538 18.9973C57.5018 18.688 57.3258 18.272 57.3258 17.7493C57.3258 17.3333 57.4218 16.9813 57.6138 16.6933C57.8165 16.3947 58.0725 16.1493 58.3818 15.9573C58.7018 15.7547 59.0432 15.5947 59.4058 15.4773C59.7792 15.36 60.1418 15.2693 60.4938 15.2053C60.8458 15.1413 61.1552 15.088 61.4218 15.0453C61.4218 14.608 61.4112 14.2667 61.3898 14.0213C61.3792 13.776 61.3472 13.584 61.2938 13.4453C61.2512 13.296 61.1818 13.168 61.0858 13.0613C60.9578 12.9013 60.8085 12.784 60.6378 12.7093C60.4778 12.624 60.2965 12.5813 60.0938 12.5813C59.7418 12.5813 59.4645 12.6933 59.2618 12.9173C59.0592 13.1307 58.9152 13.3813 58.8298 13.6693C58.7445 13.9573 58.6965 14.2133 58.6858 14.4373C58.5685 14.4373 58.4192 14.432 58.2378 14.4213C58.0672 14.4 57.9392 14.368 57.8538 14.3253C57.8752 14.0587 57.8805 13.76 57.8698 13.4293C57.8592 13.0987 57.8272 12.816 57.7738 12.5813C58.2112 12.3573 58.6698 12.1813 59.1498 12.0533C59.6405 11.9253 60.0885 11.8613 60.4938 11.8613C60.8885 11.8613 61.2245 11.92 61.5018 12.0373C61.7898 12.144 62.0192 12.288 62.1898 12.4693C62.4672 12.736 62.6485 13.088 62.7338 13.5253C62.8192 13.952 62.8618 14.5227 62.8618 15.2373V16.9973C62.8618 17.296 62.8832 17.536 62.9258 17.7173C62.9792 17.888 63.0752 18.016 63.2138 18.1013C63.3525 18.176 63.5658 18.224 63.8538 18.2453C63.8538 18.352 63.8485 18.4747 63.8378 18.6133C63.8272 18.7413 63.8005 18.864 63.7578 18.9813C63.4912 18.992 63.1925 19.0453 62.8618 19.1413C62.5418 19.2267 62.2592 19.3387 62.0138 19.4773ZM59.8378 18.5653C60.0725 18.5653 60.3125 18.4907 60.5578 18.3413C60.8032 18.1813 61.0058 17.936 61.1658 17.6053C61.3365 17.2747 61.4218 16.8427 61.4218 16.3093V15.7013C61.1552 15.7333 60.8725 15.7813 60.5738 15.8453C60.2752 15.8987 59.9978 15.984 59.7418 16.1013C59.4858 16.2187 59.2778 16.384 59.1178 16.5973C58.9578 16.8 58.8778 17.0773 58.8778 17.4293C58.8778 17.824 58.9738 18.112 59.1658 18.2933C59.3578 18.4747 59.5818 18.5653 59.8378 18.5653ZM67.5882 19.4773C66.9589 19.4773 66.4895 19.3173 66.1802 18.9973C65.8815 18.6667 65.7322 18.1387 65.7322 17.4133V13.0773C65.5722 13.024 65.4069 12.9813 65.2362 12.9493C65.0655 12.9067 64.8469 12.88 64.5802 12.8693C64.5802 12.7307 64.5909 12.6133 64.6122 12.5173C64.6335 12.4107 64.6709 12.2933 64.7242 12.1653H65.7322V10.0533C65.9455 10 66.1535 9.91468 66.3562 9.79734C66.5695 9.68001 66.7562 9.55201 66.9162 9.41334C67.0229 9.45601 67.0922 9.52001 67.1242 9.60534C67.1562 9.69068 67.1722 9.90401 67.1722 10.2453V12.1653H69.2522C69.2522 12.272 69.2415 12.3893 69.2202 12.5173C69.1989 12.6347 69.1615 12.752 69.1082 12.8693C68.7242 12.88 68.3722 12.9067 68.0522 12.9493C67.7322 12.9813 67.4389 13.024 67.1722 13.0773V17.0773C67.1722 17.4293 67.2095 17.7227 67.2842 17.9573C67.3589 18.1813 67.4655 18.3467 67.6042 18.4533C67.7429 18.56 67.9082 18.6133 68.1002 18.6133C68.3242 18.6133 68.5162 18.5813 68.6762 18.5173C68.8469 18.4533 69.0069 18.3573 69.1562 18.2293C69.2949 18.3893 69.3749 18.5653 69.3962 18.7573C69.2255 18.96 68.9642 19.1307 68.6122 19.2693C68.2709 19.408 67.9295 19.4773 67.5882 19.4773ZM73.7453 19.4773C72.988 19.4773 72.3587 19.3067 71.8573 18.9653C71.356 18.624 70.9773 18.1653 70.7213 17.5893C70.476 17.0027 70.3533 16.3627 70.3533 15.6693C70.3533 14.9867 70.4867 14.3573 70.7533 13.7813C71.02 13.2053 71.3987 12.7413 71.8893 12.3893C72.3907 12.0373 72.9827 11.8613 73.6653 11.8613C74.3587 11.8613 74.9133 12.0107 75.3293 12.3093C75.756 12.608 76.0707 13.008 76.2733 13.5093C76.4867 14.0107 76.6147 14.5653 76.6573 15.1733C76.6147 15.3867 76.5347 15.568 76.4173 15.7173C76.236 15.7173 75.964 15.7173 75.6013 15.7173C75.2387 15.7173 74.828 15.7227 74.3693 15.7333C73.9107 15.7333 73.4413 15.744 72.9613 15.7653C72.4813 15.776 72.028 15.792 71.6013 15.8133V14.9973H74.9933C74.9933 14.2933 74.8653 13.7227 74.6093 13.2853C74.3533 12.848 73.9907 12.6293 73.5213 12.6293C73.2653 12.6293 73.0147 12.7093 72.7693 12.8693C72.524 13.0187 72.3213 13.2907 72.1613 13.6853C72.0013 14.0693 71.9213 14.6187 71.9213 15.3333C71.9213 15.856 71.9853 16.368 72.1133 16.8693C72.252 17.36 72.4867 17.7707 72.8173 18.1013C73.1587 18.4213 73.6387 18.5813 74.2573 18.5813C74.6093 18.5813 74.956 18.5013 75.2973 18.3413C75.6387 18.1813 75.9427 17.952 76.2093 17.6533C76.2947 17.696 76.3747 17.7707 76.4493 17.8773C76.5347 17.9733 76.5827 18.064 76.5933 18.1493C76.2307 18.6293 75.8093 18.9707 75.3293 19.1733C74.86 19.376 74.332 19.4773 73.7453 19.4773Z" fill="#F6C893"/>
<defs>
<linearGradient id="paint0_linear_180_52" x1="74.1826" y1="15" x2="74.2155" y2="28.0016" gradientUnits="userSpaceOnUse">
<stop stop-opacity="0"/>
<stop offset="1" stop-color="#5F618A"/>
</linearGradient>
</defs>
</svg>
