<svg width="63" height="36" viewBox="0 0 63 36" fill="none" xmlns="http://www.w3.org/2000/svg">
<path d="M11.2803 2.5H47.7598C48.0138 2.5 48.2197 2.70593 48.2197 2.95996V4.24023C48.2199 5.04636 48.8736 5.70003 49.6797 5.7002H50.6396C50.8937 5.7002 51.0996 5.90611 51.0996 6.16016V6.55664C51.0996 6.90761 51.2264 7.24734 51.4561 7.5127L60.2773 17.6992C60.427 17.8721 60.427 18.1279 60.2773 18.3008L51.4561 28.4873C51.2264 28.7527 51.0996 29.0924 51.0996 29.4434V29.8398C51.0996 30.0939 50.8937 30.2998 50.6396 30.2998H49.6797C48.8736 30.3 48.2199 30.9536 48.2197 31.7598V33.04C48.2197 33.2941 48.0138 33.5 47.7598 33.5H11.2803C11.0262 33.5 10.8203 33.2941 10.8203 33.04V31.7598C10.8202 30.9537 10.1664 30.3 9.36035 30.2998H7.75977C7.50582 30.2997 7.2998 30.0938 7.2998 29.8398V27.7188C7.29962 27.3853 7.03683 27.113 6.70508 27.0986L6.70605 27.0977C5.74549 27.05 4.69476 26.2469 3.85352 24.5645C2.99603 22.8494 2.5 20.4884 2.5 18L2.50586 17.5352C2.56344 15.219 3.04961 13.0434 3.85352 11.4355C4.50093 10.1408 5.28316 9.35344 6.04883 9.04883C6.6276 8.81847 7.29957 8.26772 7.2998 7.44043V6.16016C7.2998 5.90618 7.50582 5.70032 7.75977 5.7002H9.36035C10.1664 5.70001 10.8202 5.04635 10.8203 4.24023V2.95996C10.8203 2.70593 11.0262 2.5 11.2803 2.5Z" fill="#F3F1B9"/>
<path d="M11.2803 2.5H47.7598C48.0138 2.5 48.2197 2.70593 48.2197 2.95996V4.24023C48.2199 5.04636 48.8736 5.70003 49.6797 5.7002H50.6396C50.8937 5.7002 51.0996 5.90611 51.0996 6.16016V6.55664C51.0996 6.90761 51.2264 7.24734 51.4561 7.5127L60.2773 17.6992C60.427 17.8721 60.427 18.1279 60.2773 18.3008L51.4561 28.4873C51.2264 28.7527 51.0996 29.0924 51.0996 29.4434V29.8398C51.0996 30.0939 50.8937 30.2998 50.6396 30.2998H49.6797C48.8736 30.3 48.2199 30.9536 48.2197 31.7598V33.04C48.2197 33.2941 48.0138 33.5 47.7598 33.5H11.2803C11.0262 33.5 10.8203 33.2941 10.8203 33.04V31.7598C10.8202 30.9537 10.1664 30.3 9.36035 30.2998H7.75977C7.50582 30.2997 7.2998 30.0938 7.2998 29.8398V27.7188C7.29962 27.3853 7.03683 27.113 6.70508 27.0986L6.70605 27.0977C5.74549 27.05 4.69476 26.2469 3.85352 24.5645C2.99603 22.8494 2.5 20.4884 2.5 18L2.50586 17.5352C2.56344 15.219 3.04961 13.0434 3.85352 11.4355C4.50093 10.1408 5.28316 9.35344 6.04883 9.04883C6.6276 8.81847 7.29957 8.26772 7.2998 7.44043V6.16016C7.2998 5.90618 7.50582 5.70032 7.75977 5.7002H9.36035C10.1664 5.70001 10.8202 5.04635 10.8203 4.24023V2.95996C10.8203 2.70593 11.0262 2.5 11.2803 2.5Z" fill="url(#paint0_linear_174_34)" fill-opacity="0.2"/>
<path d="M11.2803 2.5H47.7598C48.0138 2.5 48.2197 2.70593 48.2197 2.95996V4.24023C48.2199 5.04636 48.8736 5.70003 49.6797 5.7002H50.6396C50.8937 5.7002 51.0996 5.90611 51.0996 6.16016V6.55664C51.0996 6.90761 51.2264 7.24734 51.4561 7.5127L60.2773 17.6992C60.427 17.8721 60.427 18.1279 60.2773 18.3008L51.4561 28.4873C51.2264 28.7527 51.0996 29.0924 51.0996 29.4434V29.8398C51.0996 30.0939 50.8937 30.2998 50.6396 30.2998H49.6797C48.8736 30.3 48.2199 30.9536 48.2197 31.7598V33.04C48.2197 33.2941 48.0138 33.5 47.7598 33.5H11.2803C11.0262 33.5 10.8203 33.2941 10.8203 33.04V31.7598C10.8202 30.9537 10.1664 30.3 9.36035 30.2998H7.75977C7.50582 30.2997 7.2998 30.0938 7.2998 29.8398V27.7188C7.29962 27.3853 7.03683 27.113 6.70508 27.0986L6.70605 27.0977C5.74549 27.05 4.69476 26.2469 3.85352 24.5645C2.99603 22.8494 2.5 20.4884 2.5 18L2.50586 17.5352C2.56344 15.219 3.04961 13.0434 3.85352 11.4355C4.50093 10.1408 5.28316 9.35344 6.04883 9.04883C6.6276 8.81847 7.29957 8.26772 7.2998 7.44043V6.16016C7.2998 5.90618 7.50582 5.70032 7.75977 5.7002H9.36035C10.1664 5.70001 10.8202 5.04635 10.8203 4.24023V2.95996C10.8203 2.70593 11.0262 2.5 11.2803 2.5Z" stroke="#D2CCC0"/>
<path d="M11.2803 2.5H47.7598C48.0138 2.5 48.2197 2.70593 48.2197 2.95996V4.24023C48.2199 5.04636 48.8736 5.70003 49.6797 5.7002H50.6396C50.8937 5.7002 51.0996 5.90611 51.0996 6.16016V6.55664C51.0996 6.90761 51.2264 7.24734 51.4561 7.5127L60.2773 17.6992C60.427 17.8721 60.427 18.1279 60.2773 18.3008L51.4561 28.4873C51.2264 28.7527 51.0996 29.0924 51.0996 29.4434V29.8398C51.0996 30.0939 50.8937 30.2998 50.6396 30.2998H49.6797C48.8736 30.3 48.2199 30.9536 48.2197 31.7598V33.04C48.2197 33.2941 48.0138 33.5 47.7598 33.5H11.2803C11.0262 33.5 10.8203 33.2941 10.8203 33.04V31.7598C10.8202 30.9537 10.1664 30.3 9.36035 30.2998H7.75977C7.50582 30.2997 7.2998 30.0938 7.2998 29.8398V27.7188C7.29962 27.3853 7.03683 27.113 6.70508 27.0986L6.70605 27.0977C5.74549 27.05 4.69476 26.2469 3.85352 24.5645C2.99603 22.8494 2.5 20.4884 2.5 18L2.50586 17.5352C2.56344 15.219 3.04961 13.0434 3.85352 11.4355C4.50093 10.1408 5.28316 9.35344 6.04883 9.04883C6.6276 8.81847 7.29957 8.26772 7.2998 7.44043V6.16016C7.2998 5.90618 7.50582 5.70032 7.75977 5.7002H9.36035C10.1664 5.70001 10.8202 5.04635 10.8203 4.24023V2.95996C10.8203 2.70593 11.0262 2.5 11.2803 2.5Z" stroke="url(#paint1_linear_174_34)" stroke-opacity="0.2"/>
<path d="M47.7598 1C48.8422 1 49.7197 1.8775 49.7197 2.95996V4.2002H50.6396C51.7221 4.2002 52.5996 5.07768 52.5996 6.16016V6.54199L61.4121 16.7168C62.0497 17.4532 62.0497 18.5468 61.4121 19.2832L52.5996 29.457V29.8398C52.5996 30.9223 51.7221 31.7998 50.6396 31.7998H49.7197V33.04C49.7197 34.1225 48.8422 35 47.7598 35H11.2803C10.1978 35 9.32033 34.1225 9.32031 33.04V31.7998H7.75977C6.6774 31.7997 5.7998 30.9222 5.7998 29.8398V28.4492C4.41664 28.0364 3.29392 26.7997 2.51172 25.2354C1.52623 23.2643 1 20.6613 1 18L1.00586 17.502C1.06724 15.0159 1.5878 12.6125 2.51172 10.7646C3.24555 9.29702 4.25253 8.14923 5.49414 7.65527C5.61813 7.60594 5.71364 7.53546 5.7666 7.47559C5.78839 7.45091 5.79667 7.43478 5.7998 7.42773V6.16016C5.7998 5.07776 6.6774 4.20032 7.75977 4.2002H9.32031V2.95996C9.32033 1.8775 10.1978 1 11.2803 1H47.7598Z" stroke="#C2B28C" stroke-width="2"/>
<path d="M47.7598 1C48.8422 1 49.7197 1.8775 49.7197 2.95996V4.2002H50.6396C51.7221 4.2002 52.5996 5.07768 52.5996 6.16016V6.54199L61.4121 16.7168C62.0497 17.4532 62.0497 18.5468 61.4121 19.2832L52.5996 29.457V29.8398C52.5996 30.9223 51.7221 31.7998 50.6396 31.7998H49.7197V33.04C49.7197 34.1225 48.8422 35 47.7598 35H11.2803C10.1978 35 9.32033 34.1225 9.32031 33.04V31.7998H7.75977C6.6774 31.7997 5.7998 30.9222 5.7998 29.8398V28.4492C4.41664 28.0364 3.29392 26.7997 2.51172 25.2354C1.52623 23.2643 1 20.6613 1 18L1.00586 17.502C1.06724 15.0159 1.5878 12.6125 2.51172 10.7646C3.24555 9.29702 4.25253 8.14923 5.49414 7.65527C5.61813 7.60594 5.71364 7.53546 5.7666 7.47559C5.78839 7.45091 5.79667 7.43478 5.7998 7.42773V6.16016C5.7998 5.07776 6.6774 4.20032 7.75977 4.2002H9.32031V2.95996C9.32033 1.8775 10.1978 1 11.2803 1H47.7598Z" stroke="url(#paint2_linear_174_34)" stroke-opacity="0.2" stroke-width="2"/>
<path d="M18.424 20C18.424 20.7467 18.3867 21.408 18.312 21.984C18.248 22.56 18.1093 23.0773 17.896 23.536C17.6827 24.0053 17.368 24.4373 16.952 24.832C16.5467 25.2267 16.0027 25.6107 15.32 25.984C15.2453 25.9413 15.1867 25.8827 15.144 25.808C15.1013 25.7333 15.0693 25.6533 15.048 25.568C15.4533 25.2267 15.7947 24.8693 16.072 24.496C16.3493 24.1227 16.5573 23.6907 16.696 23.2C16.8453 22.7093 16.92 22.128 16.92 21.456V13.216C16.92 12.8533 16.888 12.576 16.824 12.384C16.76 12.192 16.648 12.0533 16.488 11.968C16.328 11.8827 16.104 11.8347 15.816 11.824C15.784 11.7387 15.7627 11.6373 15.752 11.52C15.7413 11.4027 15.736 11.2747 15.736 11.136C15.896 11.1467 16.0773 11.1573 16.28 11.168C16.4933 11.168 16.7173 11.1733 16.952 11.184C17.1973 11.184 17.4373 11.184 17.672 11.184C18.024 11.184 18.3867 11.1787 18.76 11.168C19.1333 11.1573 19.416 11.1467 19.608 11.136C19.608 11.2747 19.6027 11.4027 19.592 11.52C19.5813 11.6373 19.56 11.7387 19.528 11.824C19.2613 11.8347 19.0427 11.8827 18.872 11.968C18.712 12.0533 18.5947 12.192 18.52 12.384C18.456 12.576 18.424 12.8533 18.424 13.216V20ZM24.5216 22.144C23.7963 22.144 23.1616 21.9893 22.6176 21.68C22.0736 21.36 21.6523 20.9173 21.3536 20.352C21.055 19.776 20.9056 19.104 20.9056 18.336C20.9056 17.6107 21.0603 16.96 21.3696 16.384C21.679 15.808 22.1056 15.3547 22.6496 15.024C23.1936 14.6933 23.8176 14.528 24.5216 14.528C25.279 14.528 25.9243 14.688 26.4576 15.008C27.0016 15.328 27.4176 15.776 27.7056 16.352C27.9936 16.9173 28.1376 17.5787 28.1376 18.336C28.1376 19.0613 27.983 19.712 27.6736 20.288C27.375 20.864 26.9536 21.3173 26.4096 21.648C25.8763 21.9787 25.247 22.144 24.5216 22.144ZM24.6496 21.376C25.2896 21.376 25.7643 21.1147 26.0736 20.592C26.383 20.0587 26.5376 19.3707 26.5376 18.528C26.5376 17.8667 26.4363 17.296 26.2336 16.816C26.0416 16.3253 25.7803 15.952 25.4496 15.696C25.119 15.4293 24.7563 15.296 24.3616 15.296C23.743 15.296 23.279 15.5467 22.9696 16.048C22.671 16.5493 22.5216 17.2 22.5216 18C22.5216 18.7147 22.607 19.328 22.7776 19.84C22.959 20.3413 23.2096 20.7253 23.5296 20.992C23.8496 21.248 24.223 21.376 24.6496 21.376ZM29.3733 22.048C29.3733 21.9413 29.3786 21.8293 29.3893 21.712C29.3999 21.584 29.4213 21.4667 29.4533 21.36C29.8799 21.36 30.1679 21.264 30.3173 21.072C30.4773 20.8693 30.5573 20.5013 30.5573 19.968V16.8C30.5573 16.544 30.5306 16.336 30.4773 16.176C30.4346 16.0053 30.3279 15.8773 30.1573 15.792C29.9866 15.7067 29.7199 15.664 29.3573 15.664C29.3573 15.5467 29.3679 15.44 29.3893 15.344C29.4106 15.248 29.4479 15.1573 29.5013 15.072C29.6613 15.072 29.8853 15.0453 30.1733 14.992C30.4719 14.9387 30.7599 14.8693 31.0373 14.784C31.3146 14.6987 31.5173 14.6133 31.6453 14.528C31.7413 14.56 31.8213 14.624 31.8853 14.72C31.9599 14.816 31.9973 14.9653 31.9973 15.168V19.968C31.9973 20.5013 32.0666 20.8693 32.2053 21.072C32.3546 21.264 32.5999 21.36 32.9413 21.36C32.9733 21.4667 32.9946 21.5893 33.0052 21.728C33.0159 21.8667 33.0213 21.9733 33.0213 22.048C32.8399 22.0373 32.6479 22.0267 32.4453 22.016C32.2426 22.016 32.0346 22.0107 31.8213 22C31.6186 22 31.4159 22 31.2133 22C31.0106 22 30.7973 22 30.5733 22C30.3599 22.0107 30.1519 22.016 29.9493 22.016C29.7466 22.0267 29.5546 22.0373 29.3733 22.048ZM31.1493 12.72C30.8826 12.72 30.6586 12.6293 30.4773 12.448C30.2959 12.2667 30.2053 12.048 30.2053 11.792C30.2053 11.504 30.3013 11.2693 30.4933 11.088C30.6853 10.9067 30.9039 10.816 31.1493 10.816C31.4373 10.816 31.6666 10.9067 31.8373 11.088C32.0186 11.2693 32.1093 11.504 32.1093 11.792C32.1093 12.0373 32.0133 12.256 31.8213 12.448C31.6399 12.6293 31.4159 12.72 31.1493 12.72ZM35.3698 18.576V16.8C35.3698 16.544 35.3431 16.336 35.2898 16.176C35.2364 16.016 35.1244 15.8933 34.9538 15.808C34.7831 15.7227 34.5218 15.6747 34.1698 15.664C34.1698 15.5467 34.1804 15.44 34.2018 15.344C34.2231 15.248 34.2604 15.1573 34.3138 15.072C34.6444 15.0507 35.0231 14.9867 35.4498 14.88C35.8764 14.7733 36.2124 14.656 36.4578 14.528C36.5538 14.56 36.6338 14.6293 36.6978 14.736C36.7724 14.832 36.8098 14.9973 36.8098 15.232L35.3698 18.576ZM41.5458 19.968C41.5458 20.5227 41.6204 20.896 41.7698 21.088C41.9298 21.2693 42.1698 21.36 42.4898 21.36C42.5218 21.456 42.5431 21.5573 42.5538 21.664C42.5644 21.7707 42.5698 21.8987 42.5698 22.048C42.3351 22.0267 42.0684 22.0107 41.7698 22C41.4711 22 41.1564 22 40.8258 22C40.6124 22 40.3884 22 40.1538 22C39.9191 22.0107 39.6951 22.016 39.4818 22.016C39.2791 22.0267 39.0924 22.0373 38.9218 22.048C38.9218 21.8987 38.9271 21.7707 38.9378 21.664C38.9484 21.5467 38.9698 21.4453 39.0018 21.36C39.3858 21.36 39.6631 21.264 39.8338 21.072C40.0151 20.8693 40.1058 20.5013 40.1058 19.968V17.536C40.1058 16.7787 39.9671 16.2667 39.6898 16C39.4124 15.7227 39.0551 15.584 38.6178 15.584C38.3404 15.584 38.0631 15.6747 37.7858 15.856C37.5084 16.0267 37.2738 16.3093 37.0818 16.704C36.9004 17.088 36.8098 17.6053 36.8098 18.256V19.968C36.8098 20.5013 36.8898 20.8693 37.0498 21.072C37.2098 21.264 37.4978 21.36 37.9138 21.36C37.9458 21.456 37.9671 21.5573 37.9778 21.664C37.9884 21.7707 37.9938 21.8987 37.9938 22.048C37.8444 22.0373 37.6631 22.0267 37.4498 22.016C37.2364 22.016 37.0124 22.0107 36.7778 22C36.5431 22 36.3138 22 36.0898 22C35.8764 22 35.6524 22 35.4178 22C35.1831 22.0107 34.9591 22.016 34.7458 22.016C34.5324 22.0267 34.3458 22.0373 34.1858 22.048C34.1858 21.8987 34.1911 21.7707 34.2018 21.664C34.2124 21.5467 34.2338 21.4453 34.2658 21.36C34.6818 21.36 34.9698 21.264 35.1298 21.072C35.2898 20.8693 35.3698 20.5013 35.3698 19.968V16.8L36.8098 15.232C36.8098 15.36 36.8044 15.504 36.7938 15.664C36.7831 15.824 36.7511 15.9947 36.6978 16.176C36.7298 16.1227 36.7618 16.064 36.7938 16C36.8258 15.9253 36.8738 15.8453 36.9378 15.76C37.1191 15.5147 37.4071 15.264 37.8018 15.008C38.2071 14.7413 38.6924 14.608 39.2578 14.608C39.6631 14.608 40.0364 14.6933 40.3778 14.864C40.7298 15.024 41.0124 15.296 41.2258 15.68C41.4391 16.0533 41.5458 16.5653 41.5458 17.216V19.968Z" fill="#683919"/>
<defs>
<linearGradient id="paint0_linear_174_34" x1="31.445" y1="2" x2="31.445" y2="34" gradientUnits="userSpaceOnUse">
<stop stop-opacity="0"/>
<stop offset="1" stop-color="#AF0E03"/>
</linearGradient>
<linearGradient id="paint1_linear_174_34" x1="31.445" y1="2" x2="31.445" y2="34" gradientUnits="userSpaceOnUse">
<stop stop-opacity="0"/>
<stop offset="1" stop-color="#AF0E03"/>
</linearGradient>
<linearGradient id="paint2_linear_174_34" x1="31.445" y1="2" x2="31.445" y2="34" gradientUnits="userSpaceOnUse">
<stop stop-opacity="0"/>
<stop offset="1" stop-color="#EE473B"/>
</linearGradient>
</defs>
</svg>
