<svg width="198" height="52" viewBox="0 0 198 52" fill="none" xmlns="http://www.w3.org/2000/svg">
<path d="M180 1C182.209 1 184 2.79086 184 5V6C184 7.10457 184.895 8 186 8H186.972C188.865 8 190.4 9.53534 190.4 11.4287C190.401 12.0241 190.821 12.6718 191.567 13.1982C192.701 13.9982 193.702 15.1628 194.525 16.6045C196.13 19.412 197 23.1525 197 27C197 30.8475 196.13 34.588 194.525 37.3955C193.702 38.8369 192.702 40.0012 191.568 40.8008C190.822 41.3273 190.4 41.9755 190.4 42.5713C190.4 44.4649 188.865 45.9999 186.972 46H185.5C184.672 46 184 46.6716 184 47.5C184 49.433 182.433 51 180.5 51H17.5C15.567 51 14 49.433 14 47.5C14 46.6716 13.3284 46 12.5 46H11.5527C9.81179 46 8.40039 44.5886 8.40039 42.8477C8.40034 42.3053 7.95461 41.6864 7.1416 41.2432C5.71151 40.4635 4.46396 39.1269 3.47461 37.3955C1.87041 34.588 1 30.8475 1 27L1.00977 26.2803C1.11123 22.6887 1.97064 19.2366 3.47461 16.6045C4.46397 14.8731 5.71142 13.5358 7.1416 12.7559C7.95447 12.3126 8.40039 11.6935 8.40039 11.1514C8.40057 9.411 9.81139 8.00018 11.5518 8H12.2002C13.1942 8 14 7.1942 14 6.2002V5C14 2.79086 15.7909 1 18 1H180Z" stroke="#7A7575" stroke-width="2"/>
<mask id="path-2-inside-1_317_264" fill="white">
<path d="M183 6C183 7.65685 184.343 9 186 9H186.972C188.313 9 189.4 10.0872 189.4 11.4283C189.4 12.4915 190.122 13.4022 190.991 14.0151C191.98 14.7127 192.889 15.7558 193.657 17.1006C195.157 19.7261 196 23.2871 196 27C196 30.7129 195.157 34.2739 193.657 36.8994C192.889 38.2439 191.98 39.2865 190.992 39.9838C190.122 40.5968 189.4 41.5077 189.4 42.5711C189.4 43.9126 188.313 45 186.972 45H185.5C184.119 45 183 46.1193 183 47.5C183 48.8807 181.881 50 180.5 50H17.5C16.1193 50 15 48.8807 15 47.5C15 46.1193 13.8807 45 12.5 45H11.5526C10.364 45 9.40039 44.0364 9.40039 42.8477C9.40039 41.7675 8.56841 40.8826 7.61999 40.3656C6.39446 39.6975 5.26707 38.5169 4.34277 36.8994C2.84256 34.2739 2 30.7129 2 27C2 23.2871 2.84256 19.7261 4.34277 17.1006C5.2672 15.4828 6.39473 14.3017 7.62043 13.6334C8.56859 13.1164 9.40039 12.2317 9.40039 11.1517C9.40039 9.96335 10.3637 9 11.5521 9H12.2002C13.7465 9 15 7.74648 15 6.2002V5C15 3.34315 16.3431 2 18 2H180C181.657 2 183 3.34315 183 5V6Z"/>
</mask>
<path d="M183 6C183 7.65685 184.343 9 186 9H186.972C188.313 9 189.4 10.0872 189.4 11.4283C189.4 12.4915 190.122 13.4022 190.991 14.0151C191.98 14.7127 192.889 15.7558 193.657 17.1006C195.157 19.7261 196 23.2871 196 27C196 30.7129 195.157 34.2739 193.657 36.8994C192.889 38.2439 191.98 39.2865 190.992 39.9838C190.122 40.5968 189.4 41.5077 189.4 42.5711C189.4 43.9126 188.313 45 186.972 45H185.5C184.119 45 183 46.1193 183 47.5C183 48.8807 181.881 50 180.5 50H17.5C16.1193 50 15 48.8807 15 47.5C15 46.1193 13.8807 45 12.5 45H11.5526C10.364 45 9.40039 44.0364 9.40039 42.8477C9.40039 41.7675 8.56841 40.8826 7.61999 40.3656C6.39446 39.6975 5.26707 38.5169 4.34277 36.8994C2.84256 34.2739 2 30.7129 2 27C2 23.2871 2.84256 19.7261 4.34277 17.1006C5.2672 15.4828 6.39473 14.3017 7.62043 13.6334C8.56859 13.1164 9.40039 12.2317 9.40039 11.1517C9.40039 9.96335 10.3637 9 11.5521 9H12.2002C13.7465 9 15 7.74648 15 6.2002V5C15 3.34315 16.3431 2 18 2H180C181.657 2 183 3.34315 183 5V6Z" fill="#7A7697"/>
<path d="M183 6C183 7.65685 184.343 9 186 9H186.972C188.313 9 189.4 10.0872 189.4 11.4283C189.4 12.4915 190.122 13.4022 190.991 14.0151C191.98 14.7127 192.889 15.7558 193.657 17.1006C195.157 19.7261 196 23.2871 196 27C196 30.7129 195.157 34.2739 193.657 36.8994C192.889 38.2439 191.98 39.2865 190.992 39.9838C190.122 40.5968 189.4 41.5077 189.4 42.5711C189.4 43.9126 188.313 45 186.972 45H185.5C184.119 45 183 46.1193 183 47.5C183 48.8807 181.881 50 180.5 50H17.5C16.1193 50 15 48.8807 15 47.5C15 46.1193 13.8807 45 12.5 45H11.5526C10.364 45 9.40039 44.0364 9.40039 42.8477C9.40039 41.7675 8.56841 40.8826 7.61999 40.3656C6.39446 39.6975 5.26707 38.5169 4.34277 36.8994C2.84256 34.2739 2 30.7129 2 27C2 23.2871 2.84256 19.7261 4.34277 17.1006C5.2672 15.4828 6.39473 14.3017 7.62043 13.6334C8.56859 13.1164 9.40039 12.2317 9.40039 11.1517C9.40039 9.96335 10.3637 9 11.5521 9H12.2002C13.7465 9 15 7.74648 15 6.2002V5C15 3.34315 16.3431 2 18 2H180C181.657 2 183 3.34315 183 5V6Z" fill="url(#paint0_linear_317_264)" fill-opacity="0.2"/>
<path d="M193.657 17.1006L195.394 16.1083L195.394 16.1083L193.657 17.1006ZM196 27H198V27H196ZM193.657 36.8994L195.394 37.8917L195.394 37.8917L193.657 36.8994ZM4.34277 36.8994L2.60627 37.8917L2.60629 37.8917L4.34277 36.8994ZM2 27H0V27H2ZM4.34277 17.1006L2.60629 16.1083L2.60627 16.1083L4.34277 17.1006ZM7.62043 13.6334L6.66298 11.8775L7.62043 13.6334ZM190.991 14.0151L189.838 15.6494L190.991 14.0151ZM190.992 39.9838L192.144 41.6182L190.992 39.9838ZM186 9V11H186.972V9V7H186V9ZM190.991 14.0151L189.838 15.6494C190.537 16.1423 191.263 16.9419 191.921 18.0929L193.657 17.1006L195.394 16.1083C194.515 14.5697 193.423 13.2831 192.144 12.3809L190.991 14.0151ZM193.657 17.1006L191.921 18.0928C193.213 20.3543 194 23.5563 194 27H196H198C198 23.0179 197.102 19.0978 195.394 16.1083L193.657 17.1006ZM196 27H194C194 30.4437 193.213 33.6457 191.921 35.9072L193.657 36.8994L195.394 37.8917C197.102 34.9022 198 30.9821 198 27H196ZM193.657 36.8994L191.921 35.9071C191.263 37.0576 190.537 37.8567 189.839 38.3495L190.992 39.9838L192.144 41.6182C193.423 40.7163 194.515 39.4302 195.394 37.8917L193.657 36.8994ZM186.972 45V43H185.5V45V47H186.972V45ZM180.5 50V48H17.5V50V52H180.5V50ZM12.5 45V43H11.5526V45V47H12.5V45ZM7.61999 40.3656L8.5773 38.6096C7.76089 38.1645 6.87344 37.297 6.07926 35.9071L4.34277 36.8994L2.60629 37.8917C3.66069 39.7369 5.02803 41.2305 6.66269 42.1216L7.61999 40.3656ZM4.34277 36.8994L6.07928 35.9072C4.78705 33.6457 4 30.4437 4 27H2H0C0 30.9821 0.898072 34.9022 2.60627 37.8917L4.34277 36.8994ZM2 27H4C4 23.5563 4.78705 20.3543 6.07928 18.0928L4.34277 17.1006L2.60627 16.1083C0.898072 19.0978 1.19209e-07 23.0179 0 27H2ZM4.34277 17.1006L6.07926 18.0929C6.8737 16.7026 7.76137 15.8345 8.57789 15.3893L7.62043 13.6334L6.66298 11.8775C5.0281 12.7689 3.66071 14.2631 2.60629 16.1083L4.34277 17.1006ZM11.5521 9V11H12.2002V9V7H11.5521V9ZM15 6.2002H17V5H15H13V6.2002H15ZM18 2V4H180V2V0H18V2ZM183 5H181V6H183H185V5H183ZM180 2V4C180.552 4 181 4.44771 181 5H183H185C185 2.23858 182.761 0 180 0V2ZM15 5H17C17 4.44772 17.4477 4 18 4V2V0C15.2386 0 13 2.23858 13 5H15ZM12.2002 9V11C14.8511 11 17 8.85105 17 6.2002H15H13C13 6.64192 12.6419 7 12.2002 7V9ZM9.40039 11.1517H11.4004C11.4004 11.0679 11.4683 11 11.5521 11V9V7C9.25917 7 7.40039 8.85878 7.40039 11.1517H9.40039ZM7.62043 13.6334L8.57789 15.3893C9.79662 14.7248 11.4004 13.3072 11.4004 11.1517H9.40039H7.40039C7.40039 11.1541 7.40373 11.2256 7.28578 11.3777C7.1606 11.539 6.94641 11.7229 6.66298 11.8775L7.62043 13.6334ZM17.5 50V48C17.2239 48 17 47.7761 17 47.5H15H13C13 49.9853 15.0147 52 17.5 52V50ZM183 47.5H181C181 47.7761 180.776 48 180.5 48V50V52C182.985 52 185 49.9853 185 47.5H183ZM185.5 45V43C183.015 43 181 45.0147 181 47.5H183H185C185 47.2239 185.224 47 185.5 47V45ZM189.4 42.5711H187.4C187.4 42.808 187.208 43 186.972 43V45V47C189.418 47 191.4 45.0171 191.4 42.5711H189.4ZM9.40039 42.8477H11.4004C11.4004 40.692 9.79643 39.2742 8.5773 38.6096L7.61999 40.3656L6.66269 42.1216C6.9462 42.2762 7.16045 42.4601 7.28568 42.6215C7.40368 42.7736 7.40039 42.8452 7.40039 42.8477H9.40039ZM189.4 11.4283H187.4C187.4 13.4268 188.725 14.8637 189.838 15.6494L190.991 14.0151L192.144 12.3809C191.868 12.1858 191.662 11.9752 191.538 11.7874C191.419 11.6074 191.4 11.4913 191.4 11.4283H189.4ZM190.992 39.9838L189.839 38.3495C188.725 39.1352 187.4 40.5723 187.4 42.5711H189.4H191.4C191.4 42.508 191.419 42.3918 191.538 42.2117C191.663 42.0239 191.868 41.8133 192.144 41.6182L190.992 39.9838ZM11.5526 45V43C11.4686 43 11.4004 42.9318 11.4004 42.8477H9.40039H7.40039C7.40039 45.141 9.25942 47 11.5526 47V45ZM186.972 9V11C187.209 11 187.4 11.1917 187.4 11.4283H189.4H191.4C191.4 8.9826 189.418 7 186.972 7V9ZM15 47.5H17C17 45.0147 14.9853 43 12.5 43V45V47C12.7761 47 13 47.2239 13 47.5H15ZM186 9V7C185.448 7 185 6.55228 185 6H183H181C181 8.76142 183.239 11 186 11V9Z" fill="#C3BFD5" mask="url(#path-2-inside-1_317_264)"/>
<path d="M84.9096 33.144C84.6216 32.68 84.2216 32.088 83.7096 31.368C83.1976 30.632 82.6136 29.856 81.9576 29.04C81.3176 28.224 80.6616 27.448 79.9896 26.712C79.3176 25.976 78.6936 25.36 78.1176 24.864L83.0136 19.728C83.6056 19.12 83.9016 18.648 83.9016 18.312C83.9176 17.96 83.6536 17.768 83.1096 17.736C83.0616 17.576 83.0296 17.408 83.0136 17.232C82.9976 17.056 82.9896 16.88 82.9896 16.704C83.2616 16.72 83.6216 16.736 84.0696 16.752C84.5176 16.768 84.9816 16.776 85.4616 16.776C85.7816 16.776 86.0856 16.776 86.3736 16.776C86.6776 16.76 86.9576 16.752 87.2136 16.752C87.4856 16.736 87.7256 16.72 87.9336 16.704C87.9336 16.864 87.9256 17.04 87.9096 17.232C87.8936 17.424 87.8536 17.592 87.7896 17.736C87.4376 17.752 87.0936 17.824 86.7576 17.952C86.4376 18.064 86.0856 18.264 85.7016 18.552C85.3336 18.84 84.8936 19.264 84.3816 19.824L80.1816 24.288V23.712C80.8536 24.304 81.6136 25.12 82.4616 26.16C83.3256 27.184 84.2456 28.328 85.2216 29.592C85.6216 30.104 85.9736 30.528 86.2776 30.864C86.5816 31.2 86.9256 31.456 87.3096 31.632C87.7096 31.808 88.2216 31.92 88.8456 31.968C88.8456 32.096 88.8376 32.256 88.8216 32.448C88.8056 32.64 88.7736 32.824 88.7256 33C88.4216 33 88.1096 33 87.7896 33C87.4696 33 87.1416 33.008 86.8056 33.024C86.4696 33.04 86.1416 33.056 85.8216 33.072C85.5016 33.088 85.1976 33.112 84.9096 33.144ZM74.4456 33.072C74.4456 32.848 74.4536 32.656 74.4696 32.496C74.4856 32.32 74.5176 32.168 74.5656 32.04C74.9976 32.008 75.3336 31.936 75.5736 31.824C75.8136 31.696 75.9816 31.488 76.0776 31.2C76.1736 30.896 76.2216 30.48 76.2216 29.952V19.824C76.2216 19.28 76.1736 18.864 76.0776 18.576C75.9816 18.288 75.8136 18.08 75.5736 17.952C75.3336 17.824 74.9976 17.752 74.5656 17.736C74.5176 17.608 74.4856 17.456 74.4696 17.28C74.4536 17.104 74.4456 16.912 74.4456 16.704C74.7496 16.72 75.0536 16.736 75.3576 16.752C75.6776 16.752 76.0056 16.76 76.3416 16.776C76.6776 16.776 77.0136 16.776 77.3496 16.776C77.7016 16.776 78.0376 16.776 78.3576 16.776C78.6776 16.76 78.9896 16.752 79.2936 16.752C79.6136 16.736 79.9336 16.72 80.2536 16.704C80.2536 16.912 80.2456 17.104 80.2296 17.28C80.2136 17.456 80.1816 17.608 80.1336 17.736C79.7176 17.752 79.3816 17.824 79.1256 17.952C78.8856 18.08 78.7176 18.288 78.6216 18.576C78.5256 18.864 78.4776 19.28 78.4776 19.824V29.952C78.4776 30.48 78.5256 30.896 78.6216 31.2C78.7176 31.488 78.8856 31.696 79.1256 31.824C79.3816 31.936 79.7176 32.008 80.1336 32.04C80.1816 32.168 80.2136 32.32 80.2296 32.496C80.2456 32.656 80.2536 32.848 80.2536 33.072C79.7736 33.04 79.2856 33.016 78.7896 33C78.2936 33 77.8136 33 77.3496 33C76.8856 33 76.3896 33 75.8616 33C75.3336 33.016 74.8616 33.04 74.4456 33.072ZM94.4543 33.216C93.3183 33.216 92.3743 32.96 91.6223 32.448C90.8703 31.936 90.3023 31.248 89.9183 30.384C89.5503 29.504 89.3663 28.544 89.3663 27.504C89.3663 26.48 89.5663 25.536 89.9663 24.672C90.3663 23.808 90.9343 23.112 91.6703 22.584C92.4223 22.056 93.3103 21.792 94.3343 21.792C95.3743 21.792 96.2063 22.016 96.8303 22.464C97.4703 22.912 97.9423 23.512 98.2463 24.264C98.5663 25.016 98.7583 25.848 98.8223 26.76C98.7583 27.08 98.6383 27.352 98.4623 27.576C98.1903 27.576 97.7823 27.576 97.2383 27.576C96.6943 27.576 96.0783 27.584 95.3903 27.6C94.7023 27.6 93.9983 27.616 93.2783 27.648C92.5583 27.664 91.8783 27.688 91.2383 27.72V26.496H96.3263C96.3263 25.44 96.1343 24.584 95.7503 23.928C95.3663 23.272 94.8223 22.944 94.1183 22.944C93.7343 22.944 93.3583 23.064 92.9903 23.304C92.6223 23.528 92.3183 23.936 92.0783 24.528C91.8383 25.104 91.7183 25.928 91.7183 27C91.7183 27.784 91.8143 28.552 92.0063 29.304C92.2143 30.04 92.5663 30.656 93.0623 31.152C93.5743 31.632 94.2943 31.872 95.2223 31.872C95.7503 31.872 96.2703 31.752 96.7823 31.512C97.2943 31.272 97.7503 30.928 98.1503 30.48C98.2783 30.544 98.3983 30.656 98.5103 30.816C98.6383 30.96 98.7103 31.096 98.7263 31.224C98.1823 31.944 97.5503 32.456 96.8303 32.76C96.1263 33.064 95.3343 33.216 94.4543 33.216ZM105.821 33.216C104.685 33.216 103.741 32.96 102.989 32.448C102.237 31.936 101.669 31.248 101.285 30.384C100.917 29.504 100.733 28.544 100.733 27.504C100.733 26.48 100.933 25.536 101.333 24.672C101.733 23.808 102.301 23.112 103.037 22.584C103.789 22.056 104.677 21.792 105.701 21.792C106.741 21.792 107.573 22.016 108.197 22.464C108.837 22.912 109.309 23.512 109.613 24.264C109.933 25.016 110.125 25.848 110.189 26.76C110.125 27.08 110.005 27.352 109.829 27.576C109.557 27.576 109.149 27.576 108.605 27.576C108.061 27.576 107.445 27.584 106.757 27.6C106.069 27.6 105.365 27.616 104.645 27.648C103.925 27.664 103.245 27.688 102.605 27.72V26.496H107.693C107.693 25.44 107.501 24.584 107.117 23.928C106.733 23.272 106.189 22.944 105.485 22.944C105.101 22.944 104.725 23.064 104.357 23.304C103.989 23.528 103.685 23.936 103.445 24.528C103.205 25.104 103.085 25.928 103.085 27C103.085 27.784 103.181 28.552 103.373 29.304C103.581 30.04 103.933 30.656 104.429 31.152C104.941 31.632 105.661 31.872 106.589 31.872C107.117 31.872 107.637 31.752 108.149 31.512C108.661 31.272 109.117 30.928 109.517 30.48C109.645 30.544 109.765 30.656 109.877 30.816C110.005 30.96 110.077 31.096 110.093 31.224C109.549 31.944 108.917 32.456 108.197 32.76C107.493 33.064 106.701 33.216 105.821 33.216ZM112.029 38.88C112.029 38.656 112.037 38.456 112.053 38.28C112.069 38.12 112.101 37.976 112.149 37.848C112.581 37.816 112.917 37.736 113.157 37.608C113.397 37.496 113.565 37.288 113.661 36.984C113.757 36.696 113.805 36.288 113.805 35.76V25.2C113.805 24.816 113.765 24.504 113.685 24.264C113.605 24.024 113.437 23.84 113.181 23.712C112.925 23.584 112.533 23.512 112.005 23.496C112.005 23.32 112.021 23.16 112.053 23.016C112.085 22.872 112.141 22.736 112.221 22.608C112.717 22.576 113.285 22.48 113.925 22.32C114.565 22.16 115.069 21.984 115.437 21.792C115.581 21.84 115.701 21.944 115.797 22.104C115.909 22.248 115.965 22.496 115.965 22.848C115.965 23.216 115.909 23.568 115.797 23.904C115.701 24.224 115.565 24.656 115.389 25.2L115.965 25.656V35.28C115.965 35.968 116.037 36.488 116.181 36.84C116.325 37.208 116.557 37.456 116.877 37.584C117.197 37.728 117.605 37.816 118.101 37.848C118.149 37.976 118.181 38.12 118.197 38.28C118.213 38.456 118.221 38.656 118.221 38.88C117.981 38.864 117.693 38.848 117.357 38.832C117.037 38.832 116.693 38.824 116.325 38.808C115.957 38.808 115.581 38.808 115.197 38.808C114.637 38.808 114.045 38.808 113.421 38.808C112.813 38.824 112.349 38.848 112.029 38.88ZM117.957 33.216C117.509 33.216 117.109 33.176 116.757 33.096C116.421 33.016 116.045 32.912 115.629 32.784V30.936C115.949 31.272 116.293 31.552 116.661 31.776C117.045 32 117.517 32.112 118.077 32.112C118.413 32.112 118.773 32.048 119.157 31.92C119.557 31.776 119.941 31.536 120.309 31.2C120.677 30.864 120.973 30.392 121.197 29.784C121.437 29.176 121.557 28.392 121.557 27.432C121.557 26.584 121.437 25.856 121.197 25.248C120.973 24.624 120.653 24.144 120.237 23.808C119.837 23.472 119.381 23.304 118.869 23.304C118.405 23.304 117.949 23.456 117.501 23.76C117.053 24.048 116.685 24.528 116.397 25.2C116.109 25.872 115.965 26.768 115.965 27.888L115.269 25.344C115.477 24.832 115.653 24.44 115.797 24.168C115.957 23.896 116.077 23.696 116.157 23.568C116.301 23.328 116.525 23.072 116.829 22.8C117.149 22.512 117.533 22.272 117.981 22.08C118.429 21.888 118.917 21.792 119.445 21.792C120.389 21.792 121.189 21.976 121.845 22.344C122.517 22.712 123.029 23.272 123.381 24.024C123.749 24.776 123.933 25.736 123.933 26.904C123.933 28.088 123.685 29.16 123.189 30.12C122.693 31.08 121.997 31.84 121.101 32.4C120.205 32.944 119.157 33.216 117.957 33.216Z" fill="#F6C893"/>
<defs>
<linearGradient id="paint0_linear_317_264" x1="135.261" y1="26" x2="135.321" y2="50.003" gradientUnits="userSpaceOnUse">
<stop stop-opacity="0"/>
<stop offset="1" stop-color="#5F618A"/>
</linearGradient>
</defs>
</svg>
