<svg width="326" height="58" viewBox="0 0 326 58" fill="none" xmlns="http://www.w3.org/2000/svg">
<path d="M306.62 1.5C308.247 1.50018 309.875 2.70873 309.875 4.55957V6.61035C309.878 6.6134 309.881 6.61789 309.886 6.62207C309.923 6.65505 310.005 6.7002 310.13 6.7002H312.47C314.096 6.7002 315.724 7.90868 315.725 9.75977V11.8115C315.733 11.8279 315.754 11.8632 315.807 11.916C315.932 12.0423 316.153 12.1848 316.437 12.2852C318.579 13.0428 320.39 14.8395 321.737 17.2344C323.535 20.431 324.5 24.6646 324.5 29C324.5 33.3354 323.535 37.569 321.737 40.7656C320.39 43.1605 318.579 44.9572 316.437 45.7148C316.153 45.8152 315.932 45.9577 315.807 46.084C315.755 46.136 315.733 46.1708 315.725 46.1875V48.2402C315.724 50.0913 314.096 51.2998 312.47 51.2998H310.13C310.005 51.2998 309.923 51.3449 309.886 51.3779C309.881 51.3819 309.878 51.3857 309.875 51.3887V53.4404C309.875 55.2913 308.247 56.4998 306.62 56.5H17.625C15.9985 56.4999 14.3704 55.2913 14.3701 53.4404V51.3887C14.3674 51.3857 14.3638 51.3819 14.3594 51.3779C14.3222 51.3449 14.2402 51.2998 14.1152 51.2998H11.7754C10.1488 51.2998 8.52065 50.0913 8.52051 48.2402V45.3584C8.51712 45.3513 8.51088 45.3385 8.49805 45.3203C8.45379 45.2576 8.36248 45.1652 8.21484 45.0771C6.65937 44.1492 5.32229 42.6493 4.2627 40.7656C2.46475 37.569 1.5 33.3354 1.5 29L1.51172 28.1885C1.6243 24.1394 2.57713 20.2312 4.2627 17.2344C5.32222 15.3508 6.65936 13.8509 8.21484 12.9229C8.36245 12.8348 8.45375 12.7425 8.49805 12.6797C8.51122 12.661 8.51716 12.6477 8.52051 12.6406V9.75977C8.52065 7.90868 10.1488 6.7002 11.7754 6.7002H14.1152C14.2402 6.70018 14.3222 6.65505 14.3594 6.62207C14.3641 6.61786 14.3673 6.61341 14.3701 6.61035V4.55957C14.3704 2.70868 15.9985 1.50011 17.625 1.5H306.62Z" stroke="#C2B28C" stroke-width="3"/>
<path d="M306.62 1.5C308.247 1.50018 309.875 2.70873 309.875 4.55957V6.61035C309.878 6.6134 309.881 6.61789 309.886 6.62207C309.923 6.65505 310.005 6.7002 310.13 6.7002H312.47C314.096 6.7002 315.724 7.90868 315.725 9.75977V11.8115C315.733 11.8279 315.754 11.8632 315.807 11.916C315.932 12.0423 316.153 12.1848 316.437 12.2852C318.579 13.0428 320.39 14.8395 321.737 17.2344C323.535 20.431 324.5 24.6646 324.5 29C324.5 33.3354 323.535 37.569 321.737 40.7656C320.39 43.1605 318.579 44.9572 316.437 45.7148C316.153 45.8152 315.932 45.9577 315.807 46.084C315.755 46.136 315.733 46.1708 315.725 46.1875V48.2402C315.724 50.0913 314.096 51.2998 312.47 51.2998H310.13C310.005 51.2998 309.923 51.3449 309.886 51.3779C309.881 51.3819 309.878 51.3857 309.875 51.3887V53.4404C309.875 55.2913 308.247 56.4998 306.62 56.5H17.625C15.9985 56.4999 14.3704 55.2913 14.3701 53.4404V51.3887C14.3674 51.3857 14.3638 51.3819 14.3594 51.3779C14.3222 51.3449 14.2402 51.2998 14.1152 51.2998H11.7754C10.1488 51.2998 8.52065 50.0913 8.52051 48.2402V45.3584C8.51712 45.3513 8.51088 45.3385 8.49805 45.3203C8.45379 45.2576 8.36248 45.1652 8.21484 45.0771C6.65937 44.1492 5.32229 42.6493 4.2627 40.7656C2.46475 37.569 1.5 33.3354 1.5 29L1.51172 28.1885C1.6243 24.1394 2.57713 20.2312 4.2627 17.2344C5.32222 15.3508 6.65936 13.8509 8.21484 12.9229C8.36245 12.8348 8.45375 12.7425 8.49805 12.6797C8.51122 12.661 8.51716 12.6477 8.52051 12.6406V9.75977C8.52065 7.90868 10.1488 6.7002 11.7754 6.7002H14.1152C14.2402 6.70018 14.3222 6.65505 14.3594 6.62207C14.3641 6.61786 14.3673 6.61341 14.3701 6.61035V4.55957C14.3704 2.70868 15.9985 1.50011 17.625 1.5H306.62Z" stroke="url(#paint0_linear_254_30)" stroke-opacity="0.2" stroke-width="3"/>
<path d="M17.625 4H306.62C307.15 4.00017 307.375 4.35775 307.375 4.55957V6.63965C307.375 8.16098 308.722 9.2002 310.13 9.2002H312.47C313.001 9.2002 313.224 9.55793 313.225 9.75977V11.8398C313.225 12.6051 313.588 13.2306 314.033 13.6787C314.475 14.1235 315.042 14.4441 315.604 14.6426C316.991 15.1335 318.396 16.3938 319.559 18.46C321.102 21.2048 322 24.9951 322 29C322 33.0049 321.102 36.7952 319.559 39.54C318.396 41.6062 316.991 42.8665 315.604 43.3574C315.042 43.5559 314.475 43.8765 314.033 44.3213C313.588 44.7694 313.225 45.3949 313.225 46.1602V48.2402C313.224 48.4421 313.001 48.7998 312.47 48.7998H310.13C308.722 48.7998 307.375 49.839 307.375 51.3604V53.4404C307.375 53.6423 307.15 53.9998 306.62 54H17.625C17.0946 53.9999 16.8704 53.6423 16.8701 53.4404V51.3604C16.8701 49.839 15.5228 48.7998 14.1152 48.7998H11.7754C11.2446 48.7998 11.0207 48.4421 11.0205 48.2402V45.332C11.0204 44.2092 10.2508 43.3799 9.49609 42.9297C8.40974 42.2817 7.3485 41.1526 6.44141 39.54C4.89761 36.7952 4 33.0049 4 29L4.01074 28.252C4.11501 24.5255 4.99408 21.0332 6.44141 18.46C7.34859 16.8472 8.40977 15.7174 9.49609 15.0693C10.2507 14.619 11.0205 13.7898 11.0205 12.667V9.75977C11.0207 9.55793 11.2446 9.2002 11.7754 9.2002H14.1152C15.5228 9.20017 16.8701 8.16096 16.8701 6.63965V4.55957C16.8704 4.35773 17.0946 4.0001 17.625 4Z" fill="#F3F1B9"/>
<path d="M17.625 4H306.62C307.15 4.00017 307.375 4.35775 307.375 4.55957V6.63965C307.375 8.16098 308.722 9.2002 310.13 9.2002H312.47C313.001 9.2002 313.224 9.55793 313.225 9.75977V11.8398C313.225 12.6051 313.588 13.2306 314.033 13.6787C314.475 14.1235 315.042 14.4441 315.604 14.6426C316.991 15.1335 318.396 16.3938 319.559 18.46C321.102 21.2048 322 24.9951 322 29C322 33.0049 321.102 36.7952 319.559 39.54C318.396 41.6062 316.991 42.8665 315.604 43.3574C315.042 43.5559 314.475 43.8765 314.033 44.3213C313.588 44.7694 313.225 45.3949 313.225 46.1602V48.2402C313.224 48.4421 313.001 48.7998 312.47 48.7998H310.13C308.722 48.7998 307.375 49.839 307.375 51.3604V53.4404C307.375 53.6423 307.15 53.9998 306.62 54H17.625C17.0946 53.9999 16.8704 53.6423 16.8701 53.4404V51.3604C16.8701 49.839 15.5228 48.7998 14.1152 48.7998H11.7754C11.2446 48.7998 11.0207 48.4421 11.0205 48.2402V45.332C11.0204 44.2092 10.2508 43.3799 9.49609 42.9297C8.40974 42.2817 7.3485 41.1526 6.44141 39.54C4.89761 36.7952 4 33.0049 4 29L4.01074 28.252C4.11501 24.5255 4.99408 21.0332 6.44141 18.46C7.34859 16.8472 8.40977 15.7174 9.49609 15.0693C10.2507 14.619 11.0205 13.7898 11.0205 12.667V9.75977C11.0207 9.55793 11.2446 9.2002 11.7754 9.2002H14.1152C15.5228 9.20017 16.8701 8.16096 16.8701 6.63965V4.55957C16.8704 4.35773 17.0946 4.0001 17.625 4Z" fill="url(#paint1_linear_254_30)" fill-opacity="0.2"/>
<path d="M17.625 4H306.62C307.15 4.00017 307.375 4.35775 307.375 4.55957V6.63965C307.375 8.16098 308.722 9.2002 310.13 9.2002H312.47C313.001 9.2002 313.224 9.55793 313.225 9.75977V11.8398C313.225 12.6051 313.588 13.2306 314.033 13.6787C314.475 14.1235 315.042 14.4441 315.604 14.6426C316.991 15.1335 318.396 16.3938 319.559 18.46C321.102 21.2048 322 24.9951 322 29C322 33.0049 321.102 36.7952 319.559 39.54C318.396 41.6062 316.991 42.8665 315.604 43.3574C315.042 43.5559 314.475 43.8765 314.033 44.3213C313.588 44.7694 313.225 45.3949 313.225 46.1602V48.2402C313.224 48.4421 313.001 48.7998 312.47 48.7998H310.13C308.722 48.7998 307.375 49.839 307.375 51.3604V53.4404C307.375 53.6423 307.15 53.9998 306.62 54H17.625C17.0946 53.9999 16.8704 53.6423 16.8701 53.4404V51.3604C16.8701 49.839 15.5228 48.7998 14.1152 48.7998H11.7754C11.2446 48.7998 11.0207 48.4421 11.0205 48.2402V45.332C11.0204 44.2092 10.2508 43.3799 9.49609 42.9297C8.40974 42.2817 7.3485 41.1526 6.44141 39.54C4.89761 36.7952 4 33.0049 4 29L4.01074 28.252C4.11501 24.5255 4.99408 21.0332 6.44141 18.46C7.34859 16.8472 8.40977 15.7174 9.49609 15.0693C10.2507 14.619 11.0205 13.7898 11.0205 12.667V9.75977C11.0207 9.55793 11.2446 9.2002 11.7754 9.2002H14.1152C15.5228 9.20017 16.8701 8.16096 16.8701 6.63965V4.55957C16.8704 4.35773 17.0946 4.0001 17.625 4Z" stroke="#D2CCC0" stroke-width="2"/>
<path d="M17.625 4H306.62C307.15 4.00017 307.375 4.35775 307.375 4.55957V6.63965C307.375 8.16098 308.722 9.2002 310.13 9.2002H312.47C313.001 9.2002 313.224 9.55793 313.225 9.75977V11.8398C313.225 12.6051 313.588 13.2306 314.033 13.6787C314.475 14.1235 315.042 14.4441 315.604 14.6426C316.991 15.1335 318.396 16.3938 319.559 18.46C321.102 21.2048 322 24.9951 322 29C322 33.0049 321.102 36.7952 319.559 39.54C318.396 41.6062 316.991 42.8665 315.604 43.3574C315.042 43.5559 314.475 43.8765 314.033 44.3213C313.588 44.7694 313.225 45.3949 313.225 46.1602V48.2402C313.224 48.4421 313.001 48.7998 312.47 48.7998H310.13C308.722 48.7998 307.375 49.839 307.375 51.3604V53.4404C307.375 53.6423 307.15 53.9998 306.62 54H17.625C17.0946 53.9999 16.8704 53.6423 16.8701 53.4404V51.3604C16.8701 49.839 15.5228 48.7998 14.1152 48.7998H11.7754C11.2446 48.7998 11.0207 48.4421 11.0205 48.2402V45.332C11.0204 44.2092 10.2508 43.3799 9.49609 42.9297C8.40974 42.2817 7.3485 41.1526 6.44141 39.54C4.89761 36.7952 4 33.0049 4 29L4.01074 28.252C4.11501 24.5255 4.99408 21.0332 6.44141 18.46C7.34859 16.8472 8.40977 15.7174 9.49609 15.0693C10.2507 14.619 11.0205 13.7898 11.0205 12.667V9.75977C11.0207 9.55793 11.2446 9.2002 11.7754 9.2002H14.1152C15.5228 9.20017 16.8701 8.16096 16.8701 6.63965V4.55957C16.8704 4.35773 17.0946 4.0001 17.625 4Z" stroke="url(#paint2_linear_254_30)" stroke-opacity="0.2" stroke-width="2"/>
<path d="M56.5514 36.216C55.0634 36.216 53.7434 35.864 52.5914 35.16C51.4554 34.44 50.5594 33.448 49.9034 32.184C49.2474 30.904 48.9194 29.432 48.9194 27.768C48.9194 26.392 49.1434 25.192 49.5914 24.168C50.0394 23.144 50.6394 22.288 51.3914 21.6C52.1594 20.912 53.0154 20.4 53.9594 20.064C54.9194 19.728 55.9114 19.56 56.9354 19.56C57.9434 19.56 58.8634 19.664 59.6954 19.872C60.5274 20.08 61.3834 20.392 62.2634 20.808C62.1514 21.368 62.0794 21.968 62.0474 22.608C62.0154 23.232 61.9994 23.872 61.9994 24.528C61.7914 24.608 61.5914 24.664 61.3994 24.696C61.2074 24.728 60.9834 24.744 60.7274 24.744C60.6954 23.608 60.5274 22.736 60.2234 22.128C59.9194 21.52 59.5034 21.104 58.9754 20.88C58.4474 20.656 57.8314 20.544 57.1274 20.544C56.1194 20.544 55.2554 20.728 54.5354 21.096C53.8154 21.464 53.2234 21.96 52.7594 22.584C52.3114 23.192 51.9754 23.888 51.7514 24.672C51.5434 25.456 51.4394 26.272 51.4394 27.12C51.4394 28.544 51.6794 29.84 52.1594 31.008C52.6554 32.16 53.3594 33.072 54.2714 33.744C55.1834 34.416 56.2794 34.752 57.5594 34.752C58.3274 34.752 59.1114 34.624 59.9114 34.368C60.7114 34.112 61.4474 33.768 62.1194 33.336C62.2154 33.416 62.3034 33.536 62.3834 33.696C62.4794 33.84 62.5354 33.968 62.5514 34.08C61.6074 34.816 60.6714 35.36 59.7434 35.712C58.8314 36.048 57.7674 36.216 56.5514 36.216ZM70.1431 36.216C69.0551 36.216 68.1031 35.984 67.2871 35.52C66.4711 35.04 65.8391 34.376 65.3911 33.528C64.9431 32.664 64.7191 31.656 64.7191 30.504C64.7191 29.416 64.9511 28.44 65.4151 27.576C65.8791 26.712 66.5191 26.032 67.3351 25.536C68.1511 25.04 69.0871 24.792 70.1431 24.792C71.2791 24.792 72.2471 25.032 73.0471 25.512C73.8631 25.992 74.4871 26.664 74.9191 27.528C75.3511 28.376 75.5671 29.368 75.5671 30.504C75.5671 31.592 75.3351 32.568 74.8711 33.432C74.4231 34.296 73.7911 34.976 72.9751 35.472C72.1751 35.968 71.2311 36.216 70.1431 36.216ZM70.3351 35.064C71.2951 35.064 72.0071 34.672 72.4711 33.888C72.9351 33.088 73.1671 32.056 73.1671 30.792C73.1671 29.8 73.0151 28.944 72.7111 28.224C72.4231 27.488 72.0311 26.928 71.5351 26.544C71.0391 26.144 70.4951 25.944 69.9031 25.944C68.9751 25.944 68.2791 26.32 67.8151 27.072C67.3671 27.824 67.1431 28.8 67.1431 30C67.1431 31.072 67.2711 31.992 67.5271 32.76C67.7991 33.512 68.1751 34.088 68.6551 34.488C69.1351 34.872 69.6951 35.064 70.3351 35.064ZM79.1965 30.864V28.2C79.1965 27.816 79.1565 27.504 79.0765 27.264C78.9965 27.024 78.8285 26.84 78.5725 26.712C78.3165 26.584 77.9245 26.512 77.3965 26.496C77.3965 26.32 77.4125 26.16 77.4445 26.016C77.4765 25.872 77.5325 25.736 77.6125 25.608C78.1085 25.576 78.6765 25.48 79.3165 25.32C79.9565 25.16 80.4605 24.984 80.8285 24.792C80.9725 24.84 81.0925 24.944 81.1885 25.104C81.3005 25.248 81.3565 25.496 81.3565 25.848L79.1965 30.864ZM88.4605 32.952C88.4605 33.784 88.5725 34.344 88.7965 34.632C89.0365 34.904 89.3965 35.04 89.8765 35.04C89.9245 35.184 89.9565 35.336 89.9725 35.496C89.9885 35.656 89.9965 35.848 89.9965 36.072C89.6445 36.04 89.2445 36.016 88.7965 36C88.3485 36 87.8765 36 87.3805 36C87.0605 36 86.7245 36 86.3725 36C86.0205 36.016 85.6845 36.024 85.3645 36.024C85.0605 36.04 84.7805 36.056 84.5245 36.072C84.5245 35.848 84.5325 35.656 84.5485 35.496C84.5645 35.32 84.5965 35.168 84.6445 35.04C85.2205 35.04 85.6365 34.896 85.8925 34.608C86.1645 34.304 86.3005 33.752 86.3005 32.952V29.304C86.3005 28.168 86.0925 27.4 85.6765 27C85.2605 26.584 84.7245 26.376 84.0685 26.376C83.6525 26.376 83.2365 26.512 82.8205 26.784C82.4045 27.04 82.0525 27.464 81.7645 28.056C81.4925 28.632 81.3565 29.408 81.3565 30.384V32.952C81.3565 33.752 81.4765 34.304 81.7165 34.608C81.9565 34.896 82.3885 35.04 83.0125 35.04C83.0605 35.184 83.0925 35.336 83.1085 35.496C83.1245 35.656 83.1325 35.848 83.1325 36.072C82.9085 36.056 82.6365 36.04 82.3165 36.024C81.9965 36.024 81.6605 36.016 81.3085 36C80.9565 36 80.6125 36 80.2765 36C79.9565 36 79.6205 36 79.2685 36C78.9165 36.016 78.5805 36.024 78.2605 36.024C77.9405 36.04 77.6605 36.056 77.4205 36.072C77.4205 35.848 77.4285 35.656 77.4445 35.496C77.4605 35.32 77.4925 35.168 77.5405 35.04C78.1645 35.04 78.5965 34.896 78.8365 34.608C79.0765 34.304 79.1965 33.752 79.1965 32.952V28.2L81.3565 25.848C81.3565 26.04 81.3485 26.256 81.3325 26.496C81.3165 26.736 81.2685 26.992 81.1885 27.264C81.2365 27.184 81.2845 27.096 81.3325 27C81.3805 26.888 81.4525 26.768 81.5485 26.64C81.8205 26.272 82.2525 25.896 82.8445 25.512C83.4525 25.112 84.1805 24.912 85.0285 24.912C85.6365 24.912 86.1965 25.04 86.7085 25.296C87.2365 25.536 87.6605 25.944 87.9805 26.52C88.3005 27.08 88.4605 27.848 88.4605 28.824V32.952ZM95.8449 36.216C94.9009 36.216 94.1969 35.976 93.7329 35.496C93.2849 35 93.0609 34.208 93.0609 33.12V26.616C92.8209 26.536 92.5729 26.472 92.3169 26.424C92.0609 26.36 91.7329 26.32 91.3329 26.304C91.3329 26.096 91.3489 25.92 91.3809 25.776C91.4129 25.616 91.4689 25.44 91.5489 25.248H93.0609V22.08C93.3809 22 93.6929 21.872 93.9969 21.696C94.3169 21.52 94.5969 21.328 94.8369 21.12C94.9969 21.184 95.1009 21.28 95.1489 21.408C95.1969 21.536 95.2209 21.856 95.2209 22.368V25.248H98.3409C98.3409 25.408 98.3249 25.584 98.2929 25.776C98.2609 25.952 98.2049 26.128 98.1249 26.304C97.5489 26.32 97.0209 26.36 96.5409 26.424C96.0609 26.472 95.6209 26.536 95.2209 26.616V32.616C95.2209 33.144 95.2769 33.584 95.3889 33.936C95.5009 34.272 95.6609 34.52 95.8689 34.68C96.0769 34.84 96.3249 34.92 96.6129 34.92C96.9489 34.92 97.2369 34.872 97.4769 34.776C97.7329 34.68 97.9729 34.536 98.1969 34.344C98.4049 34.584 98.5249 34.848 98.5569 35.136C98.3009 35.44 97.9089 35.696 97.3809 35.904C96.8689 36.112 96.3569 36.216 95.8449 36.216ZM100.155 36.072C100.155 35.912 100.163 35.744 100.179 35.568C100.195 35.376 100.227 35.2 100.275 35.04C100.915 35.04 101.347 34.896 101.571 34.608C101.811 34.304 101.931 33.752 101.931 32.952V28.2C101.931 27.816 101.891 27.504 101.811 27.264C101.747 27.008 101.587 26.816 101.331 26.688C101.075 26.56 100.675 26.496 100.131 26.496C100.131 26.32 100.147 26.16 100.179 26.016C100.211 25.872 100.267 25.736 100.347 25.608C100.587 25.608 100.923 25.568 101.355 25.488C101.803 25.408 102.235 25.304 102.651 25.176C103.067 25.048 103.371 24.92 103.563 24.792C103.707 24.84 103.827 24.936 103.923 25.08C104.035 25.224 104.091 25.448 104.091 25.752V32.952C104.091 33.752 104.195 34.304 104.403 34.608C104.627 34.896 104.995 35.04 105.507 35.04C105.555 35.2 105.587 35.384 105.603 35.592C105.619 35.8 105.627 35.96 105.627 36.072C105.355 36.056 105.067 36.04 104.763 36.024C104.459 36.024 104.147 36.016 103.827 36C103.523 36 103.219 36 102.915 36C102.611 36 102.291 36 101.955 36C101.635 36.016 101.323 36.024 101.019 36.024C100.715 36.04 100.427 36.056 100.155 36.072ZM102.819 22.08C102.419 22.08 102.083 21.944 101.811 21.672C101.539 21.4 101.403 21.072 101.403 20.688C101.403 20.256 101.547 19.904 101.835 19.632C102.123 19.36 102.451 19.224 102.819 19.224C103.251 19.224 103.595 19.36 103.851 19.632C104.123 19.904 104.259 20.256 104.259 20.688C104.259 21.056 104.115 21.384 103.827 21.672C103.555 21.944 103.219 22.08 102.819 22.08ZM109.15 30.864V28.2C109.15 27.816 109.11 27.504 109.03 27.264C108.95 27.024 108.782 26.84 108.526 26.712C108.27 26.584 107.878 26.512 107.35 26.496C107.35 26.32 107.366 26.16 107.398 26.016C107.43 25.872 107.486 25.736 107.566 25.608C108.062 25.576 108.63 25.48 109.27 25.32C109.91 25.16 110.414 24.984 110.782 24.792C110.926 24.84 111.046 24.944 111.142 25.104C111.254 25.248 111.31 25.496 111.31 25.848L109.15 30.864ZM118.414 32.952C118.414 33.784 118.526 34.344 118.75 34.632C118.99 34.904 119.35 35.04 119.83 35.04C119.878 35.184 119.91 35.336 119.926 35.496C119.942 35.656 119.95 35.848 119.95 36.072C119.598 36.04 119.198 36.016 118.75 36C118.302 36 117.83 36 117.334 36C117.014 36 116.678 36 116.326 36C115.974 36.016 115.638 36.024 115.318 36.024C115.014 36.04 114.734 36.056 114.478 36.072C114.478 35.848 114.486 35.656 114.502 35.496C114.518 35.32 114.55 35.168 114.598 35.04C115.174 35.04 115.59 34.896 115.846 34.608C116.118 34.304 116.254 33.752 116.254 32.952V29.304C116.254 28.168 116.046 27.4 115.63 27C115.214 26.584 114.678 26.376 114.022 26.376C113.606 26.376 113.19 26.512 112.774 26.784C112.358 27.04 112.006 27.464 111.718 28.056C111.446 28.632 111.31 29.408 111.31 30.384V32.952C111.31 33.752 111.43 34.304 111.67 34.608C111.91 34.896 112.342 35.04 112.966 35.04C113.014 35.184 113.046 35.336 113.062 35.496C113.078 35.656 113.086 35.848 113.086 36.072C112.862 36.056 112.59 36.04 112.27 36.024C111.95 36.024 111.614 36.016 111.262 36C110.91 36 110.566 36 110.23 36C109.91 36 109.574 36 109.222 36C108.87 36.016 108.534 36.024 108.214 36.024C107.894 36.04 107.614 36.056 107.374 36.072C107.374 35.848 107.382 35.656 107.398 35.496C107.414 35.32 107.446 35.168 107.494 35.04C108.118 35.04 108.55 34.896 108.79 34.608C109.03 34.304 109.15 33.752 109.15 32.952V28.2L111.31 25.848C111.31 26.04 111.302 26.256 111.286 26.496C111.27 26.736 111.222 26.992 111.142 27.264C111.19 27.184 111.238 27.096 111.286 27C111.334 26.888 111.406 26.768 111.502 26.64C111.774 26.272 112.206 25.896 112.798 25.512C113.406 25.112 114.134 24.912 114.982 24.912C115.59 24.912 116.15 25.04 116.662 25.296C117.19 25.536 117.614 25.944 117.934 26.52C118.254 27.08 118.414 27.848 118.414 28.824V32.952ZM126.206 36.096C125.134 36.096 124.294 35.784 123.686 35.16C123.078 34.536 122.774 33.424 122.774 31.824V28.2C122.774 27.64 122.694 27.224 122.534 26.952C122.374 26.664 121.926 26.512 121.19 26.496C121.19 26.32 121.198 26.168 121.214 26.04C121.246 25.896 121.294 25.752 121.358 25.608C121.854 25.576 122.39 25.48 122.966 25.32C123.558 25.16 124.038 24.984 124.406 24.792C124.55 24.84 124.67 24.944 124.766 25.104C124.878 25.248 124.934 25.496 124.934 25.848V31.296C124.934 32.368 125.078 33.192 125.366 33.768C125.67 34.344 126.19 34.632 126.926 34.632C127.726 34.632 128.39 34.296 128.918 33.624C129.462 32.952 129.734 31.92 129.734 30.528V28.08C129.734 27.52 129.63 27.104 129.422 26.832C129.23 26.544 128.734 26.392 127.934 26.376C127.934 26.2 127.942 26.048 127.958 25.92C127.974 25.776 128.022 25.632 128.102 25.488C128.726 25.456 129.334 25.376 129.926 25.248C130.534 25.104 131.014 24.952 131.366 24.792C131.51 24.84 131.63 24.944 131.726 25.104C131.838 25.248 131.894 25.496 131.894 25.848V32.808L130.022 33.696C129.942 33.904 129.83 34.112 129.686 34.32C129.542 34.512 129.382 34.696 129.206 34.872C128.79 35.288 128.35 35.6 127.886 35.808C127.422 36 126.862 36.096 126.206 36.096ZM130.502 36.216C130.342 36.136 130.198 36.024 130.07 35.88C129.958 35.72 129.902 35.368 129.902 34.824C129.902 34.648 129.91 34.4 129.926 34.08C129.958 33.76 130.03 33.312 130.142 32.736H131.894C131.894 33.104 131.926 33.416 131.99 33.672C132.054 33.912 132.19 34.088 132.398 34.2C132.622 34.312 132.95 34.368 133.382 34.368C133.382 34.528 133.374 34.712 133.358 34.92C133.342 35.112 133.302 35.296 133.238 35.472C132.838 35.488 132.374 35.568 131.846 35.712C131.318 35.84 130.87 36.008 130.502 36.216ZM140.401 36.216C139.265 36.216 138.321 35.96 137.569 35.448C136.817 34.936 136.249 34.248 135.865 33.384C135.497 32.504 135.313 31.544 135.313 30.504C135.313 29.48 135.513 28.536 135.913 27.672C136.313 26.808 136.881 26.112 137.617 25.584C138.369 25.056 139.257 24.792 140.281 24.792C141.321 24.792 142.153 25.016 142.777 25.464C143.417 25.912 143.889 26.512 144.193 27.264C144.513 28.016 144.705 28.848 144.769 29.76C144.705 30.08 144.585 30.352 144.409 30.576C144.137 30.576 143.729 30.576 143.185 30.576C142.641 30.576 142.025 30.584 141.337 30.6C140.649 30.6 139.945 30.616 139.225 30.648C138.505 30.664 137.825 30.688 137.185 30.72V29.496H142.273C142.273 28.44 142.081 27.584 141.697 26.928C141.313 26.272 140.769 25.944 140.065 25.944C139.681 25.944 139.305 26.064 138.937 26.304C138.569 26.528 138.265 26.936 138.025 27.528C137.785 28.104 137.665 28.928 137.665 30C137.665 30.784 137.761 31.552 137.953 32.304C138.161 33.04 138.513 33.656 139.009 34.152C139.521 34.632 140.241 34.872 141.169 34.872C141.697 34.872 142.217 34.752 142.729 34.512C143.241 34.272 143.697 33.928 144.097 33.48C144.225 33.544 144.345 33.656 144.457 33.816C144.585 33.96 144.657 34.096 144.673 34.224C144.129 34.944 143.497 35.456 142.777 35.76C142.073 36.064 141.281 36.216 140.401 36.216ZM154.958 36.216C154.686 35.448 154.414 34.696 154.142 33.96C153.886 33.208 153.614 32.472 153.326 31.752C153.054 31.016 152.774 30.288 152.486 29.568C152.214 28.848 151.934 28.128 151.646 27.408C151.47 26.96 151.286 26.64 151.094 26.448C150.918 26.256 150.654 26.104 150.302 25.992C150.238 25.832 150.198 25.656 150.182 25.464C150.166 25.272 150.158 25.104 150.158 24.96C150.478 24.976 150.814 24.992 151.166 25.008C151.534 25.008 151.982 25.008 152.51 25.008C153.038 25.008 153.51 25 153.926 24.984C154.342 24.968 154.75 24.952 155.15 24.936C155.15 25.096 155.142 25.28 155.126 25.488C155.11 25.696 155.078 25.864 155.03 25.992C154.582 26.04 154.262 26.12 154.07 26.232C153.894 26.344 153.806 26.496 153.806 26.688C153.822 26.88 153.886 27.128 153.998 27.432C154.366 28.36 154.75 29.376 155.15 30.48C155.55 31.584 155.91 32.608 156.23 33.552L155.918 33.576L159.23 25.008C159.358 24.976 159.51 24.952 159.686 24.936C159.862 24.92 160.03 24.912 160.19 24.912C160.718 26.128 161.294 27.504 161.918 29.04C162.558 30.576 163.174 32.104 163.766 33.624H163.43L164.942 29.088C165.198 28.304 165.31 27.704 165.278 27.288C165.262 26.856 165.142 26.544 164.918 26.352C164.694 26.16 164.382 26.04 163.982 25.992C163.918 25.816 163.862 25.64 163.814 25.464C163.782 25.272 163.766 25.096 163.766 24.936C164.07 24.952 164.414 24.968 164.798 24.984C165.182 25 165.55 25.008 165.902 25.008C166.334 25.008 166.726 25 167.078 24.984C167.43 24.968 167.742 24.952 168.014 24.936C168.014 25.144 167.998 25.328 167.966 25.488C167.95 25.648 167.902 25.816 167.822 25.992C167.582 26.056 167.374 26.176 167.198 26.352C167.038 26.512 166.87 26.8 166.694 27.216C166.534 27.632 166.318 28.232 166.046 29.016L163.622 36C163.526 36.048 163.422 36.088 163.31 36.12C163.198 36.152 163.078 36.176 162.95 36.192C162.822 36.208 162.678 36.216 162.518 36.216C162.15 35.256 161.75 34.272 161.318 33.264C160.902 32.24 160.486 31.232 160.07 30.24C159.654 29.248 159.246 28.312 158.846 27.432L159.59 27.024L156.014 36C155.934 36.048 155.846 36.088 155.75 36.12C155.654 36.152 155.542 36.176 155.414 36.192C155.286 36.208 155.134 36.216 154.958 36.216ZM169.272 36.072C169.272 35.912 169.28 35.744 169.296 35.568C169.312 35.376 169.344 35.2 169.392 35.04C170.032 35.04 170.464 34.896 170.688 34.608C170.928 34.304 171.048 33.752 171.048 32.952V28.2C171.048 27.816 171.008 27.504 170.928 27.264C170.864 27.008 170.704 26.816 170.448 26.688C170.192 26.56 169.792 26.496 169.248 26.496C169.248 26.32 169.264 26.16 169.296 26.016C169.328 25.872 169.384 25.736 169.464 25.608C169.704 25.608 170.04 25.568 170.472 25.488C170.92 25.408 171.352 25.304 171.768 25.176C172.184 25.048 172.488 24.92 172.68 24.792C172.824 24.84 172.944 24.936 173.04 25.08C173.152 25.224 173.208 25.448 173.208 25.752V32.952C173.208 33.752 173.312 34.304 173.52 34.608C173.744 34.896 174.112 35.04 174.624 35.04C174.672 35.2 174.704 35.384 174.72 35.592C174.736 35.8 174.744 35.96 174.744 36.072C174.472 36.056 174.184 36.04 173.88 36.024C173.576 36.024 173.264 36.016 172.944 36C172.64 36 172.336 36 172.032 36C171.728 36 171.408 36 171.072 36C170.752 36.016 170.44 36.024 170.136 36.024C169.832 36.04 169.544 36.056 169.272 36.072ZM171.936 22.08C171.536 22.08 171.2 21.944 170.928 21.672C170.656 21.4 170.52 21.072 170.52 20.688C170.52 20.256 170.664 19.904 170.952 19.632C171.24 19.36 171.568 19.224 171.936 19.224C172.368 19.224 172.712 19.36 172.968 19.632C173.24 19.904 173.376 20.256 173.376 20.688C173.376 21.056 173.232 21.384 172.944 21.672C172.672 21.944 172.336 22.08 171.936 22.08ZM180.595 36.216C179.651 36.216 178.947 35.976 178.483 35.496C178.035 35 177.811 34.208 177.811 33.12V26.616C177.571 26.536 177.323 26.472 177.067 26.424C176.811 26.36 176.483 26.32 176.083 26.304C176.083 26.096 176.099 25.92 176.131 25.776C176.163 25.616 176.219 25.44 176.299 25.248H177.811V22.08C178.131 22 178.443 21.872 178.747 21.696C179.067 21.52 179.347 21.328 179.587 21.12C179.747 21.184 179.851 21.28 179.899 21.408C179.947 21.536 179.971 21.856 179.971 22.368V25.248H183.091C183.091 25.408 183.075 25.584 183.043 25.776C183.011 25.952 182.955 26.128 182.875 26.304C182.299 26.32 181.771 26.36 181.291 26.424C180.811 26.472 180.371 26.536 179.971 26.616V32.616C179.971 33.144 180.027 33.584 180.139 33.936C180.251 34.272 180.411 34.52 180.619 34.68C180.827 34.84 181.075 34.92 181.363 34.92C181.699 34.92 181.987 34.872 182.227 34.776C182.483 34.68 182.723 34.536 182.947 34.344C183.155 34.584 183.275 34.848 183.307 35.136C183.051 35.44 182.659 35.696 182.131 35.904C181.619 36.112 181.107 36.216 180.595 36.216ZM195.921 32.952C195.921 33.784 196.033 34.344 196.257 34.632C196.497 34.904 196.857 35.04 197.337 35.04C197.385 35.184 197.417 35.336 197.433 35.496C197.449 35.656 197.457 35.848 197.457 36.072C197.105 36.04 196.705 36.016 196.257 36C195.809 36 195.337 36 194.841 36C194.521 36 194.185 36 193.833 36C193.481 36.016 193.145 36.024 192.825 36.024C192.521 36.04 192.241 36.056 191.985 36.072C191.985 35.848 191.993 35.656 192.009 35.496C192.025 35.32 192.057 35.168 192.105 35.04C192.681 35.04 193.097 34.896 193.353 34.608C193.625 34.304 193.761 33.752 193.761 32.952V29.304C193.761 28.168 193.553 27.4 193.137 27C192.721 26.584 192.185 26.376 191.529 26.376C191.113 26.376 190.697 26.512 190.281 26.784C189.865 27.04 189.513 27.464 189.225 28.056C188.953 28.632 188.817 29.408 188.817 30.384V32.952C188.817 33.752 188.937 34.304 189.177 34.608C189.417 34.896 189.849 35.04 190.473 35.04C190.521 35.184 190.553 35.336 190.569 35.496C190.585 35.656 190.593 35.848 190.593 36.072C190.369 36.056 190.097 36.04 189.777 36.024C189.457 36.024 189.121 36.016 188.769 36C188.417 36 188.073 36 187.737 36C187.417 36 187.081 36 186.729 36C186.377 36.016 186.041 36.024 185.721 36.024C185.401 36.04 185.121 36.056 184.881 36.072C184.881 35.848 184.889 35.656 184.905 35.496C184.921 35.32 184.953 35.168 185.001 35.04C185.625 35.04 186.057 34.896 186.297 34.608C186.537 34.304 186.657 33.752 186.657 32.952V28.2L188.817 25.848C188.817 26.04 188.809 26.256 188.793 26.496C188.777 26.736 188.729 26.992 188.649 27.264C188.697 27.184 188.745 27.096 188.793 27C188.841 26.888 188.913 26.768 189.009 26.64C189.281 26.272 189.713 25.896 190.305 25.512C190.913 25.112 191.641 24.912 192.489 24.912C193.097 24.912 193.657 25.04 194.169 25.296C194.697 25.536 195.121 25.944 195.441 26.52C195.761 27.08 195.921 27.848 195.921 28.824V32.952ZM186.657 22.2C186.657 21.816 186.617 21.504 186.537 21.264C186.473 21.008 186.313 20.816 186.057 20.688C185.801 20.56 185.401 20.496 184.857 20.496C184.857 20.32 184.873 20.16 184.905 20.016C184.937 19.872 184.993 19.736 185.073 19.608C185.313 19.608 185.649 19.568 186.081 19.488C186.529 19.408 186.961 19.304 187.377 19.176C187.793 19.048 188.097 18.92 188.289 18.792C188.433 18.84 188.553 18.936 188.649 19.08C188.761 19.224 188.817 19.448 188.817 19.752V23.088H186.657V22.2ZM186.657 22.2H188.817V25.848L186.657 28.56V22.2ZM211.854 36.216C210.286 36.216 208.902 35.864 207.702 35.16C206.518 34.456 205.598 33.464 204.942 32.184C204.286 30.904 203.958 29.4 203.958 27.672C203.958 26.328 204.19 25.152 204.654 24.144C205.118 23.12 205.742 22.272 206.526 21.6C207.326 20.928 208.222 20.424 209.214 20.088C210.206 19.736 211.23 19.56 212.286 19.56C213.438 19.56 214.51 19.664 215.502 19.872C216.494 20.08 217.342 20.352 218.046 20.688C217.934 21.248 217.862 21.832 217.83 22.44C217.798 23.048 217.782 23.704 217.782 24.408C217.59 24.472 217.39 24.528 217.182 24.576C216.99 24.608 216.766 24.624 216.51 24.624C216.478 23.504 216.278 22.656 215.91 22.08C215.542 21.488 215.062 21.088 214.47 20.88C213.878 20.656 213.214 20.544 212.478 20.544C211.118 20.544 209.99 20.856 209.094 21.48C208.214 22.104 207.558 22.92 207.126 23.928C206.71 24.92 206.502 25.992 206.502 27.144C206.502 28.6 206.718 29.928 207.15 31.128C207.582 32.312 208.23 33.264 209.094 33.984C209.958 34.688 211.038 35.04 212.334 35.04C212.814 35.04 213.238 35.016 213.606 34.968C213.99 34.92 214.374 34.816 214.758 34.656C215.03 34.528 215.23 34.352 215.358 34.128C215.502 33.888 215.574 33.464 215.574 32.856V31.656C215.574 30.92 215.526 30.392 215.43 30.072C215.35 29.736 215.158 29.52 214.854 29.424C214.566 29.328 214.118 29.272 213.51 29.256C213.462 29.128 213.422 28.96 213.39 28.752C213.374 28.544 213.366 28.344 213.366 28.152C213.67 28.168 214.11 28.184 214.686 28.2C215.262 28.216 215.798 28.224 216.294 28.224C216.79 28.224 217.318 28.224 217.878 28.224C218.438 28.208 218.846 28.192 219.102 28.176C219.102 28.32 219.094 28.496 219.078 28.704C219.062 28.912 219.022 29.096 218.958 29.256C218.638 29.272 218.398 29.328 218.238 29.424C218.078 29.52 217.966 29.736 217.902 30.072C217.854 30.408 217.83 30.936 217.83 31.656V32.736C217.83 33.072 217.846 33.376 217.878 33.648C217.926 33.92 218.014 34.176 218.142 34.416C217.454 34.912 216.574 35.336 215.502 35.688C214.43 36.04 213.214 36.216 211.854 36.216ZM227.057 36.216C225.969 36.216 225.017 35.984 224.201 35.52C223.385 35.04 222.753 34.376 222.305 33.528C221.857 32.664 221.633 31.656 221.633 30.504C221.633 29.416 221.865 28.44 222.329 27.576C222.793 26.712 223.433 26.032 224.249 25.536C225.065 25.04 226.001 24.792 227.057 24.792C228.193 24.792 229.161 25.032 229.961 25.512C230.777 25.992 231.401 26.664 231.833 27.528C232.265 28.376 232.481 29.368 232.481 30.504C232.481 31.592 232.249 32.568 231.785 33.432C231.337 34.296 230.705 34.976 229.889 35.472C229.089 35.968 228.145 36.216 227.057 36.216ZM227.249 35.064C228.209 35.064 228.921 34.672 229.385 33.888C229.849 33.088 230.081 32.056 230.081 30.792C230.081 29.8 229.929 28.944 229.625 28.224C229.337 27.488 228.945 26.928 228.449 26.544C227.953 26.144 227.409 25.944 226.817 25.944C225.889 25.944 225.193 26.32 224.729 27.072C224.281 27.824 224.057 28.8 224.057 30C224.057 31.072 224.185 31.992 224.441 32.76C224.713 33.512 225.089 34.088 225.569 34.488C226.049 34.872 226.609 35.064 227.249 35.064ZM239.831 36.216C238.743 36.216 237.791 35.984 236.975 35.52C236.159 35.04 235.527 34.376 235.079 33.528C234.631 32.664 234.407 31.656 234.407 30.504C234.407 29.416 234.639 28.44 235.103 27.576C235.567 26.712 236.207 26.032 237.023 25.536C237.839 25.04 238.775 24.792 239.831 24.792C240.967 24.792 241.935 25.032 242.735 25.512C243.551 25.992 244.175 26.664 244.607 27.528C245.039 28.376 245.255 29.368 245.255 30.504C245.255 31.592 245.023 32.568 244.559 33.432C244.111 34.296 243.479 34.976 242.663 35.472C241.863 35.968 240.919 36.216 239.831 36.216ZM240.023 35.064C240.983 35.064 241.695 34.672 242.159 33.888C242.623 33.088 242.855 32.056 242.855 30.792C242.855 29.8 242.703 28.944 242.399 28.224C242.111 27.488 241.719 26.928 241.223 26.544C240.727 26.144 240.183 25.944 239.591 25.944C238.663 25.944 237.967 26.32 237.503 27.072C237.055 27.824 236.831 28.8 236.831 30C236.831 31.072 236.959 31.992 237.215 32.76C237.487 33.512 237.863 34.088 238.343 34.488C238.823 34.872 239.383 35.064 240.023 35.064ZM251.38 41.976C250.404 41.976 249.604 41.848 248.98 41.592C248.372 41.352 247.924 40.992 247.636 40.512C247.348 40.032 247.204 39.44 247.204 38.736C247.204 38.128 247.364 37.6 247.684 37.152C248.02 36.704 248.484 36.352 249.076 36.096L250.276 36.192C249.892 36.48 249.628 36.784 249.484 37.104C249.34 37.424 249.268 37.8 249.268 38.232C249.268 39.048 249.468 39.664 249.868 40.08C250.284 40.496 250.98 40.704 251.956 40.704C253.012 40.704 253.836 40.44 254.428 39.912C255.036 39.384 255.34 38.776 255.34 38.088C255.34 37.672 255.236 37.344 255.028 37.104C254.836 36.864 254.452 36.688 253.876 36.576C253.316 36.464 252.484 36.408 251.38 36.408C250.66 36.408 250.068 36.368 249.604 36.288C249.156 36.224 248.796 36.112 248.524 35.952C248.268 35.776 248.084 35.56 247.972 35.304C247.876 35.048 247.828 34.736 247.828 34.368C247.828 33.84 247.98 33.328 248.284 32.832C248.604 32.32 249.012 31.864 249.508 31.464L250.396 32.088C250.076 32.36 249.844 32.616 249.7 32.856C249.572 33.096 249.508 33.304 249.508 33.48C249.508 33.768 249.58 33.984 249.724 34.128C249.884 34.272 250.212 34.368 250.708 34.416C251.204 34.464 251.964 34.488 252.988 34.488C254.06 34.488 254.908 34.576 255.532 34.752C256.172 34.928 256.628 35.208 256.9 35.592C257.188 35.976 257.332 36.496 257.332 37.152C257.332 37.696 257.18 38.248 256.876 38.808C256.588 39.384 256.18 39.904 255.652 40.368C255.124 40.848 254.492 41.232 253.756 41.52C253.036 41.824 252.244 41.976 251.38 41.976ZM251.956 32.664C251.204 32.664 250.492 32.52 249.82 32.232C249.148 31.944 248.604 31.512 248.188 30.936C247.788 30.36 247.588 29.64 247.588 28.776C247.588 28.04 247.748 27.376 248.068 26.784C248.388 26.176 248.868 25.696 249.508 25.344C250.164 24.976 250.964 24.792 251.908 24.792C252.708 24.792 253.38 24.928 253.924 25.2C254.484 25.456 254.94 25.792 255.292 26.208C255.644 26.608 255.9 27.032 256.06 27.48C256.22 27.912 256.3 28.296 256.3 28.632C256.3 29.368 256.132 30.048 255.796 30.672C255.476 31.28 254.988 31.768 254.332 32.136C253.692 32.488 252.9 32.664 251.956 32.664ZM252.244 31.56C252.772 31.56 253.204 31.344 253.54 30.912C253.876 30.464 254.044 29.824 254.044 28.992C254.044 28.144 253.836 27.416 253.42 26.808C253.004 26.184 252.42 25.872 251.668 25.872C251.028 25.872 250.556 26.144 250.252 26.688C249.948 27.216 249.796 27.808 249.796 28.464C249.796 29.456 250.012 30.224 250.444 30.768C250.876 31.296 251.476 31.56 252.244 31.56ZM257.524 26.496C257.268 26.432 256.956 26.368 256.588 26.304C256.236 26.24 255.884 26.184 255.532 26.136C255.196 26.088 254.908 26.056 254.668 26.04L252.988 25.008H257.356C257.42 25.216 257.46 25.456 257.476 25.728C257.508 25.984 257.524 26.24 257.524 26.496ZM259.342 36.072C259.342 35.912 259.35 35.744 259.366 35.568C259.382 35.376 259.414 35.2 259.462 35.04C260.102 35.04 260.534 34.896 260.758 34.608C260.998 34.304 261.118 33.752 261.118 32.952V22.2C261.118 21.816 261.078 21.504 260.998 21.264C260.934 21.008 260.774 20.816 260.518 20.688C260.262 20.56 259.862 20.496 259.318 20.496C259.318 20.32 259.334 20.16 259.366 20.016C259.398 19.872 259.454 19.736 259.534 19.608C259.774 19.608 260.11 19.568 260.542 19.488C260.99 19.408 261.422 19.304 261.838 19.176C262.254 19.048 262.558 18.92 262.75 18.792C262.894 18.84 263.014 18.936 263.11 19.08C263.222 19.224 263.278 19.448 263.278 19.752V32.952C263.278 33.752 263.382 34.304 263.59 34.608C263.814 34.896 264.182 35.04 264.694 35.04C264.742 35.2 264.774 35.384 264.79 35.592C264.806 35.8 264.814 35.96 264.814 36.072C264.542 36.056 264.254 36.04 263.95 36.024C263.646 36.024 263.334 36.016 263.014 36C262.71 36 262.406 36 262.102 36C261.798 36 261.478 36 261.142 36C260.822 36.016 260.51 36.024 260.206 36.024C259.902 36.04 259.614 36.056 259.342 36.072ZM271.698 36.216C270.562 36.216 269.618 35.96 268.866 35.448C268.114 34.936 267.546 34.248 267.162 33.384C266.794 32.504 266.61 31.544 266.61 30.504C266.61 29.48 266.81 28.536 267.21 27.672C267.61 26.808 268.178 26.112 268.914 25.584C269.666 25.056 270.554 24.792 271.578 24.792C272.618 24.792 273.45 25.016 274.074 25.464C274.714 25.912 275.186 26.512 275.49 27.264C275.81 28.016 276.002 28.848 276.066 29.76C276.002 30.08 275.882 30.352 275.706 30.576C275.434 30.576 275.026 30.576 274.482 30.576C273.938 30.576 273.322 30.584 272.634 30.6C271.946 30.6 271.242 30.616 270.522 30.648C269.802 30.664 269.122 30.688 268.482 30.72V29.496H273.57C273.57 28.44 273.378 27.584 272.994 26.928C272.61 26.272 272.066 25.944 271.362 25.944C270.978 25.944 270.602 26.064 270.234 26.304C269.866 26.528 269.562 26.936 269.322 27.528C269.082 28.104 268.962 28.928 268.962 30C268.962 30.784 269.058 31.552 269.25 32.304C269.458 33.04 269.81 33.656 270.306 34.152C270.818 34.632 271.538 34.872 272.466 34.872C272.994 34.872 273.514 34.752 274.026 34.512C274.538 34.272 274.994 33.928 275.394 33.48C275.522 33.544 275.642 33.656 275.754 33.816C275.882 33.96 275.954 34.096 275.97 34.224C275.426 34.944 274.794 35.456 274.074 35.76C273.37 36.064 272.578 36.216 271.698 36.216Z" fill="#683919"/>
<defs>
<linearGradient id="paint0_linear_254_30" x1="163" y1="3" x2="163" y2="55" gradientUnits="userSpaceOnUse">
<stop stop-opacity="0"/>
<stop offset="1" stop-color="#EE473B"/>
</linearGradient>
<linearGradient id="paint1_linear_254_30" x1="163" y1="3" x2="163" y2="55" gradientUnits="userSpaceOnUse">
<stop stop-opacity="0"/>
<stop offset="1" stop-color="#EE473B"/>
</linearGradient>
<linearGradient id="paint2_linear_254_30" x1="163" y1="3" x2="163" y2="55" gradientUnits="userSpaceOnUse">
<stop stop-opacity="0"/>
<stop offset="1" stop-color="#EE473B"/>
</linearGradient>
</defs>
</svg>
