<svg width="291" height="58" viewBox="0 0 291 58" fill="none" xmlns="http://www.w3.org/2000/svg">
<path d="M272.88 1.5C274.57 1.5 275.94 2.86977 275.94 4.55957V6.63965C275.94 6.67278 275.967 6.70018 276 6.7002H278.08C279.77 6.70023 281.14 8.06991 281.14 9.75977V11.8398C281.14 11.8415 281.14 11.8481 281.147 11.8662C281.156 11.8873 281.178 11.9271 281.225 11.9805C281.326 12.0947 281.499 12.2193 281.716 12.3057C283.694 13.0926 285.312 14.9283 286.497 17.2988C288.088 20.4804 288.94 24.6899 288.94 29C288.94 33.3101 288.088 37.5196 286.497 40.7012C285.312 43.0717 283.694 44.9074 281.716 45.6943C281.499 45.7807 281.326 45.9053 281.225 46.0195C281.178 46.0729 281.156 46.1127 281.147 46.1338C281.14 46.1519 281.14 46.1585 281.14 46.1602V48.2402C281.14 49.9301 279.77 51.2998 278.08 51.2998H276C275.967 51.2998 275.94 51.3272 275.94 51.3604V53.4404C275.94 55.1302 274.57 56.5 272.88 56.5H16C14.3101 56.5 12.9407 55.1302 12.9404 53.4404V51.3604C12.9404 51.3272 12.913 51.2998 12.8799 51.2998H10.7998C9.10998 51.2997 7.74036 49.9301 7.74023 48.2402V45.332C7.74023 45.3307 7.73959 45.326 7.73633 45.3154C7.73265 45.3035 7.72471 45.2817 7.70605 45.252C7.66654 45.1889 7.59248 45.108 7.48242 45.0342C6.06927 44.0857 4.87867 42.5718 3.94336 40.7012C2.35264 37.5196 1.5 33.3101 1.5 29L1.50977 28.1934C1.60921 24.1677 2.45205 20.2816 3.94336 17.2988C4.8787 15.4281 6.06909 13.9135 7.48242 12.9648C7.59251 12.891 7.66652 12.8101 7.70605 12.7471C7.72435 12.7178 7.73259 12.6965 7.73633 12.6846C7.73974 12.6735 7.74023 12.6681 7.74023 12.667V9.75977C7.74036 8.06995 9.10998 6.7003 10.7998 6.7002H12.8799C12.913 6.7002 12.9404 6.67279 12.9404 6.63965V4.55957C12.9407 2.86978 14.3102 1.5 16 1.5H272.88Z" stroke="#C2B28C" stroke-width="3"/>
<path d="M272.88 1.5C274.57 1.5 275.94 2.86977 275.94 4.55957V6.63965C275.94 6.67278 275.967 6.70018 276 6.7002H278.08C279.77 6.70023 281.14 8.06991 281.14 9.75977V11.8398C281.14 11.8415 281.14 11.8481 281.147 11.8662C281.156 11.8873 281.178 11.9271 281.225 11.9805C281.326 12.0947 281.499 12.2193 281.716 12.3057C283.694 13.0926 285.312 14.9283 286.497 17.2988C288.088 20.4804 288.94 24.6899 288.94 29C288.94 33.3101 288.088 37.5196 286.497 40.7012C285.312 43.0717 283.694 44.9074 281.716 45.6943C281.499 45.7807 281.326 45.9053 281.225 46.0195C281.178 46.0729 281.156 46.1127 281.147 46.1338C281.14 46.1519 281.14 46.1585 281.14 46.1602V48.2402C281.14 49.9301 279.77 51.2998 278.08 51.2998H276C275.967 51.2998 275.94 51.3272 275.94 51.3604V53.4404C275.94 55.1302 274.57 56.5 272.88 56.5H16C14.3101 56.5 12.9407 55.1302 12.9404 53.4404V51.3604C12.9404 51.3272 12.913 51.2998 12.8799 51.2998H10.7998C9.10998 51.2997 7.74036 49.9301 7.74023 48.2402V45.332C7.74023 45.3307 7.73959 45.326 7.73633 45.3154C7.73265 45.3035 7.72471 45.2817 7.70605 45.252C7.66654 45.1889 7.59248 45.108 7.48242 45.0342C6.06927 44.0857 4.87867 42.5718 3.94336 40.7012C2.35264 37.5196 1.5 33.3101 1.5 29L1.50977 28.1934C1.60921 24.1677 2.45205 20.2816 3.94336 17.2988C4.8787 15.4281 6.06909 13.9135 7.48242 12.9648C7.59251 12.891 7.66652 12.8101 7.70605 12.7471C7.72435 12.7178 7.73259 12.6965 7.73633 12.6846C7.73974 12.6735 7.74023 12.6681 7.74023 12.667V9.75977C7.74036 8.06995 9.10998 6.7003 10.7998 6.7002H12.8799C12.913 6.7002 12.9404 6.67279 12.9404 6.63965V4.55957C12.9407 2.86978 14.3102 1.5 16 1.5H272.88Z" stroke="url(#paint0_linear_191_2)" stroke-opacity="0.2" stroke-width="3"/>
<path d="M16 4H272.88C273.189 4 273.44 4.2505 273.44 4.55957V6.63965C273.44 8.05348 274.586 9.20018 276 9.2002H278.08C278.389 9.20023 278.64 9.45061 278.64 9.75977V11.8398C278.64 13.2964 279.819 14.2418 280.792 14.6289C281.977 15.1003 283.22 16.3345 284.261 18.417C285.638 21.1718 286.44 24.9781 286.44 29C286.44 33.0219 285.638 36.8282 284.261 39.583C283.22 41.6655 281.977 42.8997 280.792 43.3711C279.819 43.7582 278.64 44.7036 278.64 46.1602V48.2402C278.64 48.5494 278.389 48.7998 278.08 48.7998H276C274.586 48.7998 273.44 49.9465 273.44 51.3604V53.4404C273.44 53.7495 273.189 54 272.88 54H16C15.6909 54 15.4407 53.7495 15.4404 53.4404V51.3604C15.4404 49.9465 14.2937 48.7998 12.8799 48.7998H10.7998C10.4907 48.7997 10.2404 48.5493 10.2402 48.2402V45.332C10.2402 44.2661 9.58521 43.434 8.87598 42.958C7.9308 42.3237 6.98929 41.2042 6.17871 39.583C4.80146 36.8282 4 33.0218 4 29L4.00977 28.249C4.10283 24.5067 4.88749 20.9997 6.17871 18.417C6.98942 16.7956 7.93078 15.6754 8.87598 15.041C9.58515 14.565 10.2402 13.733 10.2402 12.667V9.75977C10.2404 9.45066 10.4907 9.2003 10.7998 9.2002H12.8799C14.2937 9.2002 15.4404 8.0535 15.4404 6.63965V4.55957C15.4407 4.25049 15.6909 4 16 4Z" fill="#F3F1B9"/>
<path d="M16 4H272.88C273.189 4 273.44 4.2505 273.44 4.55957V6.63965C273.44 8.05348 274.586 9.20018 276 9.2002H278.08C278.389 9.20023 278.64 9.45061 278.64 9.75977V11.8398C278.64 13.2964 279.819 14.2418 280.792 14.6289C281.977 15.1003 283.22 16.3345 284.261 18.417C285.638 21.1718 286.44 24.9781 286.44 29C286.44 33.0219 285.638 36.8282 284.261 39.583C283.22 41.6655 281.977 42.8997 280.792 43.3711C279.819 43.7582 278.64 44.7036 278.64 46.1602V48.2402C278.64 48.5494 278.389 48.7998 278.08 48.7998H276C274.586 48.7998 273.44 49.9465 273.44 51.3604V53.4404C273.44 53.7495 273.189 54 272.88 54H16C15.6909 54 15.4407 53.7495 15.4404 53.4404V51.3604C15.4404 49.9465 14.2937 48.7998 12.8799 48.7998H10.7998C10.4907 48.7997 10.2404 48.5493 10.2402 48.2402V45.332C10.2402 44.2661 9.58521 43.434 8.87598 42.958C7.9308 42.3237 6.98929 41.2042 6.17871 39.583C4.80146 36.8282 4 33.0218 4 29L4.00977 28.249C4.10283 24.5067 4.88749 20.9997 6.17871 18.417C6.98942 16.7956 7.93078 15.6754 8.87598 15.041C9.58515 14.565 10.2402 13.733 10.2402 12.667V9.75977C10.2404 9.45066 10.4907 9.2003 10.7998 9.2002H12.8799C14.2937 9.2002 15.4404 8.0535 15.4404 6.63965V4.55957C15.4407 4.25049 15.6909 4 16 4Z" fill="url(#paint1_linear_191_2)" fill-opacity="0.2"/>
<path d="M16 4H272.88C273.189 4 273.44 4.2505 273.44 4.55957V6.63965C273.44 8.05348 274.586 9.20018 276 9.2002H278.08C278.389 9.20023 278.64 9.45061 278.64 9.75977V11.8398C278.64 13.2964 279.819 14.2418 280.792 14.6289C281.977 15.1003 283.22 16.3345 284.261 18.417C285.638 21.1718 286.44 24.9781 286.44 29C286.44 33.0219 285.638 36.8282 284.261 39.583C283.22 41.6655 281.977 42.8997 280.792 43.3711C279.819 43.7582 278.64 44.7036 278.64 46.1602V48.2402C278.64 48.5494 278.389 48.7998 278.08 48.7998H276C274.586 48.7998 273.44 49.9465 273.44 51.3604V53.4404C273.44 53.7495 273.189 54 272.88 54H16C15.6909 54 15.4407 53.7495 15.4404 53.4404V51.3604C15.4404 49.9465 14.2937 48.7998 12.8799 48.7998H10.7998C10.4907 48.7997 10.2404 48.5493 10.2402 48.2402V45.332C10.2402 44.2661 9.58521 43.434 8.87598 42.958C7.9308 42.3237 6.98929 41.2042 6.17871 39.583C4.80146 36.8282 4 33.0218 4 29L4.00977 28.249C4.10283 24.5067 4.88749 20.9997 6.17871 18.417C6.98942 16.7956 7.93078 15.6754 8.87598 15.041C9.58515 14.565 10.2402 13.733 10.2402 12.667V9.75977C10.2404 9.45066 10.4907 9.2003 10.7998 9.2002H12.8799C14.2937 9.2002 15.4404 8.0535 15.4404 6.63965V4.55957C15.4407 4.25049 15.6909 4 16 4Z" stroke="#D2CCC0" stroke-width="2"/>
<path d="M16 4H272.88C273.189 4 273.44 4.2505 273.44 4.55957V6.63965C273.44 8.05348 274.586 9.20018 276 9.2002H278.08C278.389 9.20023 278.64 9.45061 278.64 9.75977V11.8398C278.64 13.2964 279.819 14.2418 280.792 14.6289C281.977 15.1003 283.22 16.3345 284.261 18.417C285.638 21.1718 286.44 24.9781 286.44 29C286.44 33.0219 285.638 36.8282 284.261 39.583C283.22 41.6655 281.977 42.8997 280.792 43.3711C279.819 43.7582 278.64 44.7036 278.64 46.1602V48.2402C278.64 48.5494 278.389 48.7998 278.08 48.7998H276C274.586 48.7998 273.44 49.9465 273.44 51.3604V53.4404C273.44 53.7495 273.189 54 272.88 54H16C15.6909 54 15.4407 53.7495 15.4404 53.4404V51.3604C15.4404 49.9465 14.2937 48.7998 12.8799 48.7998H10.7998C10.4907 48.7997 10.2404 48.5493 10.2402 48.2402V45.332C10.2402 44.2661 9.58521 43.434 8.87598 42.958C7.9308 42.3237 6.98929 41.2042 6.17871 39.583C4.80146 36.8282 4 33.0218 4 29L4.00977 28.249C4.10283 24.5067 4.88749 20.9997 6.17871 18.417C6.98942 16.7956 7.93078 15.6754 8.87598 15.041C9.58515 14.565 10.2402 13.733 10.2402 12.667V9.75977C10.2404 9.45066 10.4907 9.2003 10.7998 9.2002H12.8799C14.2937 9.2002 15.4404 8.0535 15.4404 6.63965V4.55957C15.4407 4.25049 15.6909 4 16 4Z" stroke="url(#paint2_linear_191_2)" stroke-opacity="0.2" stroke-width="2"/>
<path d="M100.292 36.144L89.0604 21.48C88.8364 21.192 88.6204 21.008 88.4124 20.928C88.2044 20.832 87.9004 20.768 87.5004 20.736C87.4524 20.56 87.4204 20.376 87.4044 20.184C87.3884 19.992 87.3804 19.832 87.3804 19.704C87.5404 19.72 87.7164 19.736 87.9084 19.752C88.1164 19.752 88.3244 19.76 88.5324 19.776C88.7564 19.776 88.9644 19.776 89.1564 19.776C89.4604 19.776 89.7484 19.768 90.0204 19.752C90.3084 19.736 90.5564 19.72 90.7644 19.704L100.34 32.4L100.292 36.144ZM87.3804 36.072C87.3804 35.864 87.3884 35.68 87.4044 35.52C87.4204 35.344 87.4524 35.184 87.5004 35.04C87.9324 35.04 88.2684 34.936 88.5084 34.728C88.7484 34.52 88.9164 34.16 89.0124 33.648C89.1084 33.12 89.1564 32.408 89.1564 31.512V21.36H90.3804V31.512C90.3804 32.408 90.4284 33.12 90.5244 33.648C90.6204 34.16 90.7884 34.52 91.0284 34.728C91.2684 34.936 91.6044 35.04 92.0364 35.04C92.0844 35.184 92.1164 35.336 92.1324 35.496C92.1484 35.656 92.1564 35.848 92.1564 36.072C91.9164 36.056 91.6524 36.04 91.3644 36.024C91.0924 36.024 90.8204 36.016 90.5484 36C90.2764 36 90.0204 36 89.7804 36C89.5564 36 89.2924 36 88.9884 36C88.6844 36.016 88.3884 36.024 88.1004 36.024C87.8284 36.04 87.5884 36.056 87.3804 36.072ZM100.292 36.144L100.1 33.744V24.144C100.1 23.264 100.052 22.584 99.9564 22.104C99.8604 21.608 99.6924 21.256 99.4524 21.048C99.2124 20.84 98.8764 20.736 98.4444 20.736C98.3964 20.464 98.3644 20.264 98.3484 20.136C98.3324 19.992 98.3244 19.848 98.3244 19.704C98.5644 19.72 98.8124 19.736 99.0684 19.752C99.3244 19.752 99.5804 19.76 99.8364 19.776C100.108 19.776 100.356 19.776 100.58 19.776C100.916 19.776 101.3 19.768 101.732 19.752C102.164 19.736 102.54 19.72 102.86 19.704C102.86 19.864 102.852 20.032 102.836 20.208C102.82 20.384 102.788 20.56 102.74 20.736C102.388 20.736 102.108 20.84 101.9 21.048C101.692 21.256 101.54 21.608 101.444 22.104C101.364 22.584 101.324 23.264 101.324 24.144V36C101.196 36.048 101.036 36.08 100.844 36.096C100.652 36.128 100.468 36.144 100.292 36.144ZM109.897 36.216C108.761 36.216 107.817 35.96 107.065 35.448C106.313 34.936 105.745 34.248 105.361 33.384C104.993 32.504 104.809 31.544 104.809 30.504C104.809 29.48 105.009 28.536 105.409 27.672C105.809 26.808 106.377 26.112 107.113 25.584C107.865 25.056 108.753 24.792 109.777 24.792C110.817 24.792 111.649 25.016 112.273 25.464C112.913 25.912 113.385 26.512 113.689 27.264C114.009 28.016 114.201 28.848 114.265 29.76C114.201 30.08 114.081 30.352 113.905 30.576C113.633 30.576 113.225 30.576 112.681 30.576C112.137 30.576 111.521 30.584 110.833 30.6C110.145 30.6 109.441 30.616 108.721 30.648C108.001 30.664 107.321 30.688 106.681 30.72V29.496H111.769C111.769 28.44 111.577 27.584 111.193 26.928C110.809 26.272 110.265 25.944 109.561 25.944C109.177 25.944 108.801 26.064 108.433 26.304C108.065 26.528 107.761 26.936 107.521 27.528C107.281 28.104 107.161 28.928 107.161 30C107.161 30.784 107.257 31.552 107.449 32.304C107.657 33.04 108.009 33.656 108.505 34.152C109.017 34.632 109.737 34.872 110.665 34.872C111.193 34.872 111.713 34.752 112.225 34.512C112.737 34.272 113.193 33.928 113.593 33.48C113.721 33.544 113.841 33.656 113.953 33.816C114.081 33.96 114.153 34.096 114.169 34.224C113.625 34.944 112.993 35.456 112.273 35.76C111.569 36.064 110.777 36.216 109.897 36.216ZM121.264 31.248L120.088 32.976C119.592 33.712 119.384 34.24 119.464 34.56C119.56 34.88 119.84 35.04 120.304 35.04C120.352 35.152 120.384 35.304 120.4 35.496C120.432 35.688 120.448 35.872 120.448 36.048C120 36.016 119.528 36 119.032 36C118.536 36 118.168 36 117.928 36C117.752 36 117.496 36 117.16 36C116.84 36 116.432 36.016 115.936 36.048C115.936 35.872 115.944 35.696 115.96 35.52C115.976 35.328 116.016 35.168 116.08 35.04C116.368 35.024 116.64 34.96 116.896 34.848C117.152 34.72 117.424 34.504 117.712 34.2C118.016 33.896 118.368 33.464 118.768 32.904L120.52 30.456L121.264 31.248ZM122.464 33.552C122.256 33.216 122.024 32.864 121.768 32.496C121.512 32.112 121.248 31.728 120.976 31.344L120.616 30.816C120.264 30.304 119.912 29.808 119.56 29.328C119.208 28.848 118.896 28.424 118.624 28.056C118.176 27.448 117.824 27 117.568 26.712C117.312 26.408 117.096 26.208 116.92 26.112C116.744 26 116.528 25.936 116.272 25.92C116.208 25.792 116.16 25.648 116.128 25.488C116.112 25.312 116.104 25.136 116.104 24.96C116.456 24.976 116.848 24.992 117.28 25.008C117.712 25.008 118.16 25.008 118.624 25.008C119.088 25.008 119.56 25.008 120.04 25.008C120.536 24.992 120.984 24.976 121.384 24.96C121.384 25.12 121.368 25.288 121.336 25.464C121.32 25.64 121.296 25.792 121.264 25.92C120.704 25.936 120.376 26.064 120.28 26.304C120.2 26.544 120.408 27.008 120.904 27.696C121.048 27.888 121.224 28.128 121.432 28.416C121.656 28.704 121.896 29.024 122.152 29.376L122.44 29.76C122.856 30.32 123.28 30.896 123.712 31.488C124.16 32.08 124.536 32.608 124.84 33.072C125.192 33.568 125.48 33.96 125.704 34.248C125.928 34.536 126.128 34.736 126.304 34.848C126.496 34.96 126.696 35.024 126.904 35.04C126.968 35.2 127 35.36 127 35.52C127.016 35.664 127.024 35.84 127.024 36.048C126.528 36.016 126.088 36 125.704 36C125.32 36 124.92 36 124.504 36C124.296 36 124.08 36 123.856 36C123.632 36 123.4 36 123.16 36C122.936 36 122.704 36 122.464 36C122.224 36.016 121.984 36.032 121.744 36.048C121.744 35.84 121.744 35.656 121.744 35.496C121.76 35.336 121.792 35.184 121.84 35.04C122.4 35.024 122.736 34.912 122.848 34.704C122.96 34.48 122.832 34.096 122.464 33.552ZM121.624 29.736L122.944 27.696C123.36 27.056 123.552 26.608 123.52 26.352C123.488 26.08 123.208 25.936 122.68 25.92C122.616 25.776 122.576 25.624 122.56 25.464C122.544 25.288 122.536 25.12 122.536 24.96C122.84 24.976 123.152 24.992 123.472 25.008C123.792 25.008 124.192 25.008 124.672 25.008C125.152 25.008 125.544 25.008 125.848 25.008C126.152 24.992 126.432 24.976 126.688 24.96C126.688 25.12 126.672 25.288 126.64 25.464C126.608 25.64 126.576 25.792 126.544 25.92C126.304 25.936 126.088 25.984 125.896 26.064C125.704 26.144 125.496 26.304 125.272 26.544C125.064 26.768 124.792 27.112 124.456 27.576L122.344 30.552L121.624 29.736ZM132.724 36.216C131.78 36.216 131.076 35.976 130.612 35.496C130.164 35 129.94 34.208 129.94 33.12V26.616C129.7 26.536 129.452 26.472 129.196 26.424C128.94 26.36 128.612 26.32 128.212 26.304C128.212 26.096 128.228 25.92 128.26 25.776C128.292 25.616 128.348 25.44 128.428 25.248H129.94V22.08C130.26 22 130.572 21.872 130.876 21.696C131.196 21.52 131.476 21.328 131.716 21.12C131.876 21.184 131.98 21.28 132.028 21.408C132.076 21.536 132.1 21.856 132.1 22.368V25.248H135.22C135.22 25.408 135.204 25.584 135.172 25.776C135.14 25.952 135.084 26.128 135.004 26.304C134.428 26.32 133.9 26.36 133.42 26.424C132.94 26.472 132.5 26.536 132.1 26.616V32.616C132.1 33.144 132.156 33.584 132.268 33.936C132.38 34.272 132.54 34.52 132.748 34.68C132.956 34.84 133.204 34.92 133.492 34.92C133.828 34.92 134.116 34.872 134.356 34.776C134.612 34.68 134.852 34.536 135.076 34.344C135.284 34.584 135.404 34.848 135.436 35.136C135.18 35.44 134.788 35.696 134.26 35.904C133.748 36.112 133.236 36.216 132.724 36.216ZM149.687 36.216C148.119 36.216 146.735 35.864 145.535 35.16C144.351 34.456 143.431 33.464 142.775 32.184C142.119 30.904 141.791 29.4 141.791 27.672C141.791 26.328 142.023 25.152 142.487 24.144C142.951 23.12 143.575 22.272 144.359 21.6C145.159 20.928 146.055 20.424 147.047 20.088C148.039 19.736 149.063 19.56 150.119 19.56C151.271 19.56 152.343 19.664 153.335 19.872C154.327 20.08 155.175 20.352 155.879 20.688C155.767 21.248 155.695 21.832 155.663 22.44C155.631 23.048 155.615 23.704 155.615 24.408C155.423 24.472 155.223 24.528 155.015 24.576C154.823 24.608 154.599 24.624 154.343 24.624C154.311 23.504 154.111 22.656 153.743 22.08C153.375 21.488 152.895 21.088 152.303 20.88C151.711 20.656 151.047 20.544 150.311 20.544C148.951 20.544 147.823 20.856 146.927 21.48C146.047 22.104 145.391 22.92 144.959 23.928C144.543 24.92 144.335 25.992 144.335 27.144C144.335 28.6 144.551 29.928 144.983 31.128C145.415 32.312 146.063 33.264 146.927 33.984C147.791 34.688 148.871 35.04 150.167 35.04C150.647 35.04 151.071 35.016 151.439 34.968C151.823 34.92 152.207 34.816 152.591 34.656C152.863 34.528 153.063 34.352 153.191 34.128C153.335 33.888 153.407 33.464 153.407 32.856V31.656C153.407 30.92 153.359 30.392 153.263 30.072C153.183 29.736 152.991 29.52 152.687 29.424C152.399 29.328 151.951 29.272 151.343 29.256C151.295 29.128 151.255 28.96 151.223 28.752C151.207 28.544 151.199 28.344 151.199 28.152C151.503 28.168 151.943 28.184 152.519 28.2C153.095 28.216 153.631 28.224 154.127 28.224C154.623 28.224 155.151 28.224 155.711 28.224C156.271 28.208 156.679 28.192 156.935 28.176C156.935 28.32 156.927 28.496 156.911 28.704C156.895 28.912 156.855 29.096 156.791 29.256C156.471 29.272 156.231 29.328 156.071 29.424C155.911 29.52 155.799 29.736 155.735 30.072C155.687 30.408 155.663 30.936 155.663 31.656V32.736C155.663 33.072 155.679 33.376 155.711 33.648C155.759 33.92 155.847 34.176 155.975 34.416C155.287 34.912 154.407 35.336 153.335 35.688C152.263 36.04 151.047 36.216 149.687 36.216ZM166.737 36.216C166.561 36.136 166.417 35.992 166.305 35.784C166.209 35.576 166.161 35.248 166.161 34.8C166.161 34.656 166.169 34.488 166.185 34.296C166.201 34.088 166.233 33.904 166.281 33.744H166.329C166.281 34 166.169 34.28 165.993 34.584C165.833 34.872 165.617 35.128 165.345 35.352C165.073 35.592 164.729 35.792 164.313 35.952C163.897 36.096 163.393 36.168 162.801 36.168C161.793 36.168 161.025 35.944 160.497 35.496C159.969 35.032 159.705 34.408 159.705 33.624C159.705 33 159.849 32.472 160.137 32.04C160.441 31.592 160.825 31.224 161.289 30.936C161.769 30.632 162.281 30.392 162.825 30.216C163.385 30.04 163.929 29.904 164.457 29.808C164.985 29.712 165.449 29.632 165.849 29.568C165.849 28.912 165.833 28.4 165.801 28.032C165.785 27.664 165.737 27.376 165.657 27.168C165.593 26.944 165.489 26.752 165.345 26.592C165.153 26.352 164.929 26.176 164.673 26.064C164.433 25.936 164.161 25.872 163.857 25.872C163.329 25.872 162.913 26.04 162.609 26.376C162.305 26.696 162.089 27.072 161.961 27.504C161.833 27.936 161.761 28.32 161.745 28.656C161.569 28.656 161.345 28.648 161.073 28.632C160.817 28.6 160.625 28.552 160.497 28.488C160.529 28.088 160.537 27.64 160.521 27.144C160.505 26.648 160.457 26.224 160.377 25.872C161.033 25.536 161.721 25.272 162.441 25.08C163.177 24.888 163.849 24.792 164.457 24.792C165.049 24.792 165.553 24.88 165.969 25.056C166.401 25.216 166.745 25.432 167.001 25.704C167.417 26.104 167.689 26.632 167.817 27.288C167.945 27.928 168.009 28.784 168.009 29.856V32.496C168.009 32.944 168.041 33.304 168.105 33.576C168.185 33.832 168.329 34.024 168.537 34.152C168.745 34.264 169.065 34.336 169.497 34.368C169.497 34.528 169.489 34.712 169.473 34.92C169.457 35.112 169.417 35.296 169.353 35.472C168.953 35.488 168.505 35.568 168.009 35.712C167.529 35.84 167.105 36.008 166.737 36.216ZM163.473 34.848C163.825 34.848 164.185 34.736 164.553 34.512C164.921 34.272 165.225 33.904 165.465 33.408C165.721 32.912 165.849 32.264 165.849 31.464V30.552C165.449 30.6 165.025 30.672 164.577 30.768C164.129 30.848 163.713 30.976 163.329 31.152C162.945 31.328 162.633 31.576 162.393 31.896C162.153 32.2 162.033 32.616 162.033 33.144C162.033 33.736 162.177 34.168 162.465 34.44C162.753 34.712 163.089 34.848 163.473 34.848ZM171.346 36.072C171.346 35.848 171.354 35.656 171.37 35.496C171.386 35.32 171.418 35.168 171.466 35.04C172.106 35.008 172.538 34.856 172.762 34.584C173.002 34.296 173.122 33.752 173.122 32.952V28.2C173.122 27.816 173.082 27.504 173.002 27.264C172.922 27.024 172.754 26.84 172.498 26.712C172.242 26.584 171.85 26.512 171.322 26.496C171.322 26.32 171.338 26.16 171.37 26.016C171.402 25.872 171.458 25.736 171.538 25.608C171.81 25.592 172.146 25.544 172.546 25.464C172.962 25.368 173.362 25.264 173.746 25.152C174.13 25.024 174.426 24.904 174.634 24.792C174.778 24.84 174.898 24.936 174.994 25.08C175.106 25.224 175.162 25.448 175.162 25.752C175.162 26.008 175.146 26.304 175.114 26.64C175.098 26.976 175.05 27.472 174.97 28.128L174.73 28.152C174.954 27.544 175.114 27.136 175.21 26.928C175.322 26.72 175.402 26.584 175.45 26.52C175.706 26.152 176.13 25.776 176.722 25.392C177.33 24.992 178.05 24.792 178.882 24.792C179.554 24.792 180.17 24.944 180.73 25.248C181.29 25.552 181.698 26.072 181.954 26.808C182.018 27 182.05 27.264 182.05 27.6H181.978C182.122 27.2 182.282 26.88 182.458 26.64C182.73 26.272 183.162 25.896 183.754 25.512C184.346 25.112 185.058 24.912 185.89 24.912C186.498 24.912 187.058 25.04 187.57 25.296C188.082 25.536 188.49 25.944 188.794 26.52C189.114 27.08 189.274 27.848 189.274 28.824V32.952C189.274 33.496 189.322 33.92 189.418 34.224C189.53 34.512 189.69 34.712 189.898 34.824C190.122 34.936 190.394 35.008 190.714 35.04C190.762 35.184 190.794 35.336 190.81 35.496C190.826 35.656 190.834 35.848 190.834 36.072C190.482 36.04 190.074 36.016 189.61 36C189.162 36 188.698 36 188.218 36C187.898 36 187.57 36 187.234 36C186.898 36.016 186.57 36.024 186.25 36.024C185.93 36.04 185.634 36.056 185.362 36.072C185.362 35.848 185.37 35.656 185.386 35.496C185.402 35.32 185.434 35.168 185.482 35.04C185.914 35.008 186.25 34.936 186.49 34.824C186.73 34.696 186.898 34.488 186.994 34.2C187.09 33.896 187.138 33.48 187.138 32.952V29.304C187.138 28.168 186.93 27.4 186.514 27C186.114 26.584 185.586 26.376 184.93 26.376C184.53 26.376 184.122 26.512 183.706 26.784C183.29 27.04 182.946 27.464 182.674 28.056C182.402 28.632 182.266 29.408 182.266 30.384V32.952C182.266 33.784 182.394 34.336 182.65 34.608C182.906 34.864 183.338 35.008 183.946 35.04C183.994 35.184 184.026 35.336 184.042 35.496C184.058 35.656 184.066 35.848 184.066 36.072C183.666 36.04 183.202 36.016 182.674 36C182.162 36 181.674 36 181.21 36C180.746 36 180.258 36 179.746 36C179.25 36.016 178.786 36.04 178.354 36.072C178.354 35.848 178.362 35.656 178.378 35.496C178.394 35.32 178.426 35.168 178.474 35.04C178.906 35.008 179.242 34.936 179.482 34.824C179.722 34.696 179.89 34.488 179.986 34.2C180.082 33.896 180.13 33.48 180.13 32.952V29.184C180.13 28.048 179.922 27.28 179.506 26.88C179.106 26.464 178.578 26.256 177.922 26.256C177.522 26.256 177.114 26.392 176.698 26.664C176.282 26.92 175.938 27.344 175.666 27.936C175.394 28.512 175.258 29.288 175.258 30.264V32.952C175.258 33.752 175.378 34.296 175.618 34.584C175.858 34.856 176.298 35.008 176.938 35.04C176.986 35.184 177.018 35.336 177.034 35.496C177.05 35.656 177.058 35.848 177.058 36.072C176.786 36.056 176.482 36.04 176.146 36.024C175.81 36.024 175.474 36.016 175.138 36C174.802 36 174.49 36 174.202 36C173.93 36 173.618 36 173.266 36C172.914 36.016 172.57 36.024 172.234 36.024C171.898 36.04 171.602 36.056 171.346 36.072ZM197.741 36.216C196.605 36.216 195.661 35.96 194.909 35.448C194.157 34.936 193.589 34.248 193.205 33.384C192.837 32.504 192.653 31.544 192.653 30.504C192.653 29.48 192.853 28.536 193.253 27.672C193.653 26.808 194.221 26.112 194.957 25.584C195.709 25.056 196.597 24.792 197.621 24.792C198.661 24.792 199.493 25.016 200.117 25.464C200.757 25.912 201.229 26.512 201.533 27.264C201.853 28.016 202.045 28.848 202.109 29.76C202.045 30.08 201.925 30.352 201.749 30.576C201.477 30.576 201.069 30.576 200.525 30.576C199.981 30.576 199.365 30.584 198.677 30.6C197.989 30.6 197.285 30.616 196.565 30.648C195.845 30.664 195.165 30.688 194.525 30.72V29.496H199.613C199.613 28.44 199.421 27.584 199.037 26.928C198.653 26.272 198.109 25.944 197.405 25.944C197.021 25.944 196.645 26.064 196.277 26.304C195.909 26.528 195.605 26.936 195.365 27.528C195.125 28.104 195.005 28.928 195.005 30C195.005 30.784 195.101 31.552 195.293 32.304C195.501 33.04 195.853 33.656 196.349 34.152C196.861 34.632 197.581 34.872 198.509 34.872C199.037 34.872 199.557 34.752 200.069 34.512C200.581 34.272 201.037 33.928 201.437 33.48C201.565 33.544 201.685 33.656 201.797 33.816C201.925 33.96 201.997 34.096 202.013 34.224C201.469 34.944 200.837 35.456 200.117 35.76C199.413 36.064 198.621 36.216 197.741 36.216Z" fill="#683919"/>
<defs>
<linearGradient id="paint0_linear_191_2" x1="145.22" y1="3" x2="145.22" y2="55" gradientUnits="userSpaceOnUse">
<stop stop-opacity="0"/>
<stop offset="1" stop-color="#EE473B"/>
</linearGradient>
<linearGradient id="paint1_linear_191_2" x1="145.22" y1="3" x2="145.22" y2="55" gradientUnits="userSpaceOnUse">
<stop stop-opacity="0"/>
<stop offset="1" stop-color="#EE473B"/>
</linearGradient>
<linearGradient id="paint2_linear_191_2" x1="145.22" y1="3" x2="145.22" y2="55" gradientUnits="userSpaceOnUse">
<stop stop-opacity="0"/>
<stop offset="1" stop-color="#EE473B"/>
</linearGradient>
</defs>
</svg>
