<svg width="37" height="36" viewBox="0 0 37 36" fill="none" xmlns="http://www.w3.org/2000/svg">
<mask id="path-1-outside-1_175_92" maskUnits="userSpaceOnUse" x="0.885742" y="0" width="36" height="36" fill="black">
<rect fill="white" x="0.885742" width="36" height="36"/>
<path d="M18.8857 2C22.0554 2 25.009 2.92274 27.4946 4.51283C27.8388 4.73303 28.2357 4.86133 28.6443 4.86133H29.9219C31.0264 4.86133 31.9219 5.75676 31.9219 6.86133V8.08168C31.9219 8.49795 32.055 8.90175 32.2829 9.25005C33.9286 11.7646 34.8857 14.7705 34.8857 18C34.8857 21.2293 33.9284 24.2346 32.2829 26.749C32.055 27.0973 31.9219 27.5011 31.9219 27.9173V29.0361C31.9219 30.1407 31.0264 31.0361 29.9219 31.0361H28.803C28.3868 31.0361 27.983 31.1692 27.6347 31.3971C25.1204 33.0426 22.115 34 18.8857 34C15.6565 34 12.6511 33.0426 10.1367 31.3971C9.78845 31.1692 9.38469 31.0361 8.96845 31.0361H7.74707C6.6425 31.0361 5.74707 30.1407 5.74707 29.0361V27.7585C5.74707 27.3499 5.61877 26.9531 5.39857 26.6089C3.80848 24.1232 2.88574 21.1696 2.88574 18C2.88574 14.6017 3.94631 11.4517 5.75291 8.86056C5.75417 8.85876 5.7517 8.8567 5.75015 8.85825C5.74901 8.85939 5.74707 8.85858 5.74707 8.85698V6.0329C5.74707 5.38586 6.2716 4.86133 6.91864 4.86133H9.74272C9.74433 4.86133 9.74513 4.86327 9.74399 4.8644C9.74244 4.86596 9.7445 4.86843 9.7463 4.86717C12.3374 3.06057 15.4875 2 18.8857 2Z"/>
</mask>
<path d="M9.74399 4.8644L8.32978 3.45019L9.74399 4.8644ZM9.7463 4.86717L8.60243 3.22657L9.7463 4.86717ZM5.39857 26.6089L3.71381 27.6866L5.39857 26.6089ZM10.1367 31.3971L11.2319 29.7237L10.1367 31.3971ZM32.2829 26.749L30.6094 25.6538L32.2829 26.749ZM5.75015 8.85825L4.33593 7.44404L5.75015 8.85825ZM32.2829 9.25005L33.9564 8.15482L32.2829 9.25005ZM5.75291 8.86056L4.11231 7.71669L5.75291 8.86056ZM27.4946 4.51283L26.4168 6.19759L27.4946 4.51283ZM18.8857 2V4C21.6616 4 24.2429 4.80691 26.4168 6.19759L27.4946 4.51283L28.5724 2.82807C25.775 1.03856 22.4491 0 18.8857 0V2ZM28.6443 4.86133V6.86133H29.9219V4.86133V2.86133H28.6443V4.86133ZM31.9219 6.86133H29.9219V8.08168H31.9219H33.9219V6.86133H31.9219ZM32.2829 9.25005L30.6095 10.3453C32.0487 12.5443 32.8857 15.1714 32.8857 18H34.8857H36.8857C36.8857 14.3695 35.8086 10.9848 33.9564 8.15482L32.2829 9.25005ZM34.8857 18H32.8857C32.8857 20.8282 32.0485 23.4548 30.6094 25.6538L32.2829 26.749L33.9564 27.8442C35.8082 25.0145 36.8857 21.6304 36.8857 18H34.8857ZM31.9219 27.9173H29.9219V29.0361H31.9219H33.9219V27.9173H31.9219ZM29.9219 31.0361V29.0361H28.803V31.0361V33.0361H29.9219V31.0361ZM27.6347 31.3971L26.5396 29.7237C24.3405 31.1628 21.7139 32 18.8857 32V34V36C22.5161 36 25.9002 34.9225 28.7299 33.0706L27.6347 31.3971ZM18.8857 34V32C16.0575 32 13.431 31.1628 11.2319 29.7237L10.1367 31.3971L9.04155 33.0706C11.8712 34.9225 15.2554 36 18.8857 36V34ZM8.96845 31.0361V29.0361H7.74707V31.0361V33.0361H8.96845V31.0361ZM5.74707 29.0361H7.74707V27.7585H5.74707H3.74707V29.0361H5.74707ZM5.39857 26.6089L7.08333 25.5311C5.69265 23.3572 4.88574 20.7759 4.88574 18H2.88574H0.885742C0.885742 21.5634 1.92431 24.8893 3.71381 27.6866L5.39857 26.6089ZM2.88574 18H4.88574C4.88574 15.0244 5.81296 12.2713 7.39351 10.0044L5.75291 8.86056L4.11231 7.71669C2.07966 10.632 0.885742 14.179 0.885742 18H2.88574ZM5.74707 8.85698H7.74707V6.0329H5.74707H3.74707V8.85698H5.74707ZM6.91864 4.86133V6.86133H9.74272V4.86133V2.86133H6.91864V4.86133ZM9.7463 4.86717L10.8902 6.50777C13.1571 4.92722 15.9102 4 18.8857 4V2V0C15.0648 0 11.5178 1.19391 8.60243 3.22657L9.7463 4.86717ZM9.74399 4.8644L8.32978 3.45019C6.6319 5.14807 8.85139 7.92927 10.8902 6.50777L9.7463 4.86717L8.60243 3.22657C10.6376 1.80759 12.853 4.58385 11.1582 6.27862L9.74399 4.8644ZM9.74272 4.86133V6.86133C7.96244 6.86133 7.07104 4.70893 8.32978 3.45019L9.74399 4.8644L11.1582 6.27862C12.4192 5.0176 11.5262 2.86133 9.74272 2.86133V4.86133ZM5.74707 6.0329H7.74707C7.74707 6.49043 7.37617 6.86133 6.91864 6.86133V4.86133V2.86133C5.16703 2.86133 3.74707 4.28129 3.74707 6.0329H5.74707ZM5.74707 27.7585H7.74707C7.74707 26.9286 7.48713 26.1623 7.08333 25.5311L5.39857 26.6089L3.71381 27.6866C3.75042 27.7439 3.74707 27.7712 3.74707 27.7585H5.74707ZM7.74707 31.0361V29.0361L7.74707 29.0361H5.74707H3.74707C3.74707 31.2453 5.53793 33.0361 7.74707 33.0361V31.0361ZM10.1367 31.3971L11.2319 29.7237C10.5934 29.3058 9.81385 29.0361 8.96845 29.0361V31.0361V33.0361C8.95553 33.0361 8.98353 33.0327 9.04155 33.0706L10.1367 31.3971ZM28.803 31.0361V29.0361C27.9576 29.0361 27.1781 29.3058 26.5396 29.7237L27.6347 31.3971L28.7299 33.0706C28.788 33.0327 28.816 33.0361 28.803 33.0361V31.0361ZM32.2829 26.749L30.6094 25.6538C30.1915 26.2924 29.9219 27.0719 29.9219 27.9173H31.9219H33.9219C33.9219 27.9302 33.9184 27.9022 33.9564 27.8442L32.2829 26.749ZM5.75015 8.85825L4.33593 7.44404C5.59473 6.18524 7.74707 7.07678 7.74707 8.85698H5.74707H3.74707C3.74707 10.6404 5.90329 11.5335 7.16436 10.2725L5.75015 8.85825ZM31.9219 8.08168H29.9219C29.9219 8.92715 30.1916 9.70672 30.6095 10.3453L32.2829 9.25005L33.9564 8.15482C33.9184 8.09677 33.9219 8.06874 33.9219 8.08168H31.9219ZM5.75291 8.86056L7.39351 10.0044C8.81352 7.96778 6.03566 5.74432 4.33593 7.44404L5.75015 8.85825L7.16436 10.2725C5.46775 11.9691 2.69482 9.74973 4.11231 7.71669L5.75291 8.86056ZM29.9219 4.86133V6.86133L29.9219 6.86133H31.9219H33.9219C33.9219 4.65219 32.131 2.86133 29.9219 2.86133V4.86133ZM31.9219 29.0361H29.9219L29.9219 29.0361V31.0361V33.0361C32.131 33.0361 33.9219 31.2453 33.9219 29.0361H31.9219ZM27.4946 4.51283L26.4168 6.19759C27.0481 6.60139 27.8144 6.86133 28.6443 6.86133V4.86133V2.86133C28.6569 2.86133 28.6296 2.86468 28.5724 2.82807L27.4946 4.51283Z" fill="#7A7575" mask="url(#path-1-outside-1_175_92)"/>
<mask id="path-3-inside-2_175_92" fill="white">
<path d="M18.8857 2C22.0554 2 25.009 2.92274 27.4946 4.51283C27.8388 4.73303 28.2357 4.86133 28.6443 4.86133H29.9219C31.0264 4.86133 31.9219 5.75676 31.9219 6.86133V8.08168C31.9219 8.49795 32.055 8.90175 32.2829 9.25005C33.9286 11.7646 34.8857 14.7705 34.8857 18C34.8857 21.2293 33.9284 24.2346 32.2829 26.749C32.055 27.0973 31.9219 27.5011 31.9219 27.9173V29.0361C31.9219 30.1407 31.0264 31.0361 29.9219 31.0361H28.803C28.3868 31.0361 27.983 31.1692 27.6347 31.3971C25.1204 33.0426 22.115 34 18.8857 34C15.6565 34 12.6511 33.0426 10.1367 31.3971C9.78845 31.1692 9.38469 31.0361 8.96845 31.0361H7.74707C6.6425 31.0361 5.74707 30.1407 5.74707 29.0361V27.7585C5.74707 27.3499 5.61877 26.9531 5.39857 26.6089C3.80848 24.1232 2.88574 21.1696 2.88574 18C2.88574 14.6017 3.94631 11.4517 5.75291 8.86056C5.75417 8.85876 5.7517 8.8567 5.75015 8.85825C5.74901 8.85939 5.74707 8.85858 5.74707 8.85698V6.0329C5.74707 5.38586 6.2716 4.86133 6.91864 4.86133H9.74272C9.74433 4.86133 9.74513 4.86327 9.74399 4.8644C9.74244 4.86596 9.7445 4.86843 9.7463 4.86717C12.3374 3.06057 15.4875 2 18.8857 2Z"/>
</mask>
<path d="M18.8857 2C22.0554 2 25.009 2.92274 27.4946 4.51283C27.8388 4.73303 28.2357 4.86133 28.6443 4.86133H29.9219C31.0264 4.86133 31.9219 5.75676 31.9219 6.86133V8.08168C31.9219 8.49795 32.055 8.90175 32.2829 9.25005C33.9286 11.7646 34.8857 14.7705 34.8857 18C34.8857 21.2293 33.9284 24.2346 32.2829 26.749C32.055 27.0973 31.9219 27.5011 31.9219 27.9173V29.0361C31.9219 30.1407 31.0264 31.0361 29.9219 31.0361H28.803C28.3868 31.0361 27.983 31.1692 27.6347 31.3971C25.1204 33.0426 22.115 34 18.8857 34C15.6565 34 12.6511 33.0426 10.1367 31.3971C9.78845 31.1692 9.38469 31.0361 8.96845 31.0361H7.74707C6.6425 31.0361 5.74707 30.1407 5.74707 29.0361V27.7585C5.74707 27.3499 5.61877 26.9531 5.39857 26.6089C3.80848 24.1232 2.88574 21.1696 2.88574 18C2.88574 14.6017 3.94631 11.4517 5.75291 8.86056C5.75417 8.85876 5.7517 8.8567 5.75015 8.85825C5.74901 8.85939 5.74707 8.85858 5.74707 8.85698V6.0329C5.74707 5.38586 6.2716 4.86133 6.91864 4.86133H9.74272C9.74433 4.86133 9.74513 4.86327 9.74399 4.8644C9.74244 4.86596 9.7445 4.86843 9.7463 4.86717C12.3374 3.06057 15.4875 2 18.8857 2Z" fill="#7A7697"/>
<path d="M18.8857 2C22.0554 2 25.009 2.92274 27.4946 4.51283C27.8388 4.73303 28.2357 4.86133 28.6443 4.86133H29.9219C31.0264 4.86133 31.9219 5.75676 31.9219 6.86133V8.08168C31.9219 8.49795 32.055 8.90175 32.2829 9.25005C33.9286 11.7646 34.8857 14.7705 34.8857 18C34.8857 21.2293 33.9284 24.2346 32.2829 26.749C32.055 27.0973 31.9219 27.5011 31.9219 27.9173V29.0361C31.9219 30.1407 31.0264 31.0361 29.9219 31.0361H28.803C28.3868 31.0361 27.983 31.1692 27.6347 31.3971C25.1204 33.0426 22.115 34 18.8857 34C15.6565 34 12.6511 33.0426 10.1367 31.3971C9.78845 31.1692 9.38469 31.0361 8.96845 31.0361H7.74707C6.6425 31.0361 5.74707 30.1407 5.74707 29.0361V27.7585C5.74707 27.3499 5.61877 26.9531 5.39857 26.6089C3.80848 24.1232 2.88574 21.1696 2.88574 18C2.88574 14.6017 3.94631 11.4517 5.75291 8.86056C5.75417 8.85876 5.7517 8.8567 5.75015 8.85825C5.74901 8.85939 5.74707 8.85858 5.74707 8.85698V6.0329C5.74707 5.38586 6.2716 4.86133 6.91864 4.86133H9.74272C9.74433 4.86133 9.74513 4.86327 9.74399 4.8644C9.74244 4.86596 9.7445 4.86843 9.7463 4.86717C12.3374 3.06057 15.4875 2 18.8857 2Z" fill="url(#paint0_linear_175_92)" fill-opacity="0.2"/>
<path d="M9.74399 4.8644L9.03689 4.1573L9.74399 4.8644ZM9.7463 4.86717L9.17437 4.04687L9.7463 4.86717ZM5.39857 26.6089L4.55619 27.1477L5.39857 26.6089ZM10.1367 31.3971L10.6843 30.5604L10.1367 31.3971ZM32.2829 26.749L31.4461 26.2014L32.2829 26.749ZM5.75015 8.85825L5.04304 8.15115L5.75015 8.85825ZM32.2829 9.25005L33.1197 8.70244L32.2829 9.25005ZM5.75291 8.86056L4.93261 8.28863L5.75291 8.86056ZM27.4946 4.51283L26.9557 5.35521L27.4946 4.51283ZM18.8857 2V3C21.8585 3 24.626 3.86482 26.9557 5.35521L27.4946 4.51283L28.0335 3.67045C25.392 1.98065 22.2522 1 18.8857 1V2ZM28.6443 4.86133V5.86133H29.9219V4.86133V3.86133H28.6443V4.86133ZM31.9219 6.86133H30.9219V8.08168H31.9219H32.9219V6.86133H31.9219ZM32.2829 9.25005L31.4462 9.79767C32.9887 12.1545 33.8857 14.9709 33.8857 18H34.8857H35.8857C35.8857 14.57 34.8686 11.3747 33.1197 8.70244L32.2829 9.25005ZM34.8857 18H33.8857C33.8857 21.0287 32.9885 23.8447 31.4461 26.2014L32.2829 26.749L33.1196 27.2966C34.8683 24.6246 35.8857 21.4298 35.8857 18H34.8857ZM31.9219 27.9173H30.9219V29.0361H31.9219H32.9219V27.9173H31.9219ZM29.9219 31.0361V30.0361H28.803V31.0361V32.0361H29.9219V31.0361ZM27.6347 31.3971L27.0871 30.5604C24.7304 32.1027 21.9145 33 18.8857 33V34V35C22.3156 35 25.5103 33.9826 28.1823 32.2339L27.6347 31.3971ZM18.8857 34V33C15.857 33 13.041 32.1027 10.6843 30.5604L10.1367 31.3971L9.58914 32.2339C12.2612 33.9826 15.4559 35 18.8857 35V34ZM8.96845 31.0361V30.0361H7.74707V31.0361V32.0361H8.96845V31.0361ZM5.74707 29.0361H6.74707V27.7585H5.74707H4.74707V29.0361H5.74707ZM5.39857 26.6089L6.24095 26.07C4.75057 23.7402 3.88574 20.9728 3.88574 18H2.88574H1.88574C1.88574 21.3665 2.86639 24.5063 4.55619 27.1477L5.39857 26.6089ZM2.88574 18H3.88574C3.88574 14.8131 4.87963 11.8615 6.57321 9.4325L5.75291 8.86056L4.93261 8.28863C3.01298 11.0419 1.88574 14.3904 1.88574 18H2.88574ZM5.74707 8.85698H6.74707V6.0329H5.74707H4.74707V8.85698H5.74707ZM6.91864 4.86133V5.86133H9.74272V4.86133V3.86133H6.91864V4.86133ZM9.7463 4.86717L10.3182 5.68747C12.7472 3.99389 15.6988 3 18.8857 3V2V1C15.2761 1 11.9276 2.12724 9.17437 4.04687L9.7463 4.86717ZM9.74399 4.8644L9.03689 4.1573C8.18717 5.00702 9.29794 6.39885 10.3182 5.68747L9.7463 4.86717L9.17437 4.04687C10.1911 3.33801 11.2977 4.7249 10.4511 5.57151L9.74399 4.8644ZM9.74272 4.86133V5.86133C8.85338 5.86133 8.40808 4.7861 9.03689 4.1573L9.74399 4.8644L10.4511 5.57151C11.0822 4.94044 10.6353 3.86133 9.74272 3.86133V4.86133ZM5.74707 6.0329H6.74707C6.74707 5.93814 6.82389 5.86133 6.91864 5.86133V4.86133V3.86133C5.71932 3.86133 4.74707 4.83357 4.74707 6.0329H5.74707ZM5.74707 27.7585H6.74707C6.74707 27.1393 6.55295 26.5577 6.24095 26.07L5.39857 26.6089L4.55619 27.1477C4.6846 27.3485 4.74707 27.5606 4.74707 27.7585H5.74707ZM7.74707 31.0361V30.0361C7.19479 30.0361 6.74707 29.5884 6.74707 29.0361H5.74707H4.74707C4.74707 30.693 6.09022 32.0361 7.74707 32.0361V31.0361ZM10.1367 31.3971L10.6843 30.5604C10.1909 30.2375 9.59927 30.0361 8.96845 30.0361V31.0361V32.0361C9.17011 32.0361 9.38599 32.1009 9.58914 32.2339L10.1367 31.3971ZM28.803 31.0361V30.0361C28.1722 30.0361 27.5806 30.2375 27.0871 30.5604L27.6347 31.3971L28.1823 32.2339C28.3855 32.1009 28.6014 32.0361 28.803 32.0361V31.0361ZM32.2829 26.749L31.4461 26.2014C31.1232 26.6948 30.9219 27.2865 30.9219 27.9173H31.9219H32.9219C32.9219 27.7156 32.9867 27.4997 33.1196 27.2966L32.2829 26.749ZM5.75015 8.85825L5.04304 8.15115C5.67187 7.52231 6.74707 7.96768 6.74707 8.85698H5.74707H4.74707C4.74707 9.74949 5.82615 10.1965 6.45725 9.56536L5.75015 8.85825ZM31.9219 8.08168H30.9219C30.9219 8.71255 31.1233 9.30423 31.4462 9.79767L32.2829 9.25005L33.1197 8.70244C32.9867 8.49926 32.9219 8.28335 32.9219 8.08168H31.9219ZM5.75291 8.86056L6.57321 9.4325C7.28384 8.41327 5.89368 7.30051 5.04304 8.15115L5.75015 8.85825L6.45725 9.56536C5.60973 10.4129 4.22449 9.30424 4.93261 8.28863L5.75291 8.86056ZM29.9219 4.86133V5.86133C30.4742 5.86133 30.9219 6.30904 30.9219 6.86133H31.9219H32.9219C32.9219 5.20447 31.5787 3.86133 29.9219 3.86133V4.86133ZM31.9219 29.0361H30.9219C30.9219 29.5884 30.4742 30.0361 29.9219 30.0361V31.0361V32.0361C31.5787 32.0361 32.9219 30.693 32.9219 29.0361H31.9219ZM27.4946 4.51283L26.9557 5.35521C27.4434 5.66721 28.025 5.86133 28.6443 5.86133V4.86133V3.86133C28.4463 3.86133 28.2342 3.79885 28.0335 3.67045L27.4946 4.51283Z" fill="#C3BFD5" mask="url(#path-3-inside-2_175_92)"/>
<path d="M18.9154 11.1429C20.9002 11.1429 22.8039 11.9319 24.2074 13.3352C24.491 13.6188 24.953 13.6571 25.2563 13.3947C25.7297 12.985 26.475 13.3132 26.475 13.9393V18.5887C26.475 18.6094 26.4581 18.6263 26.4374 18.6263H26.4003C26.4 18.6263 26.3998 18.6265 26.3998 18.6267C26.3998 18.627 26.3996 18.6272 26.3993 18.6272H22.5624C22.5621 18.6272 22.5619 18.627 22.5619 18.6267C22.5619 18.6265 22.5617 18.6263 22.5614 18.6263H21.4931C20.707 18.6263 20.3429 17.6501 20.937 17.1353C21.2701 16.8468 21.3308 16.3476 21.0366 16.0195C20.5159 15.4389 19.9034 14.9376 19.2152 14.5403C17.4964 13.5481 15.4535 13.2787 13.5365 13.7923C13.4055 13.8274 13.3033 13.6756 13.3948 13.5755C13.4694 13.4939 13.5459 13.4137 13.6244 13.3352C15.0277 11.9319 16.9309 11.1431 18.9154 11.1429Z" fill="#F6C893"/>
<path d="M18.6738 24.4642C16.6891 24.4642 14.7853 23.6752 13.3818 22.2718C13.0982 21.9882 12.6362 21.9499 12.333 22.2124C11.8595 22.6221 11.1143 22.2939 11.1143 21.6678V17.0184C11.1143 16.9976 11.1311 16.9808 11.1519 16.9808H11.189C11.1892 16.9808 11.1895 16.9806 11.1895 16.9803C11.1895 16.98 11.1897 16.9798 11.1899 16.9798H15.0269C15.0271 16.9798 15.0273 16.98 15.0273 16.9803C15.0273 16.9806 15.0276 16.9808 15.0278 16.9808H16.0962C16.8823 16.9808 17.2463 17.957 16.6522 18.4717C16.3192 18.7602 16.2585 19.2595 16.5526 19.5875C17.0733 20.1682 17.6858 20.6694 18.374 21.0667C20.0928 22.059 22.1357 22.3283 24.0527 21.8148C24.1837 21.7797 24.2861 21.9316 24.1948 22.0318C24.1204 22.1134 24.0442 22.1935 23.9658 22.2718C22.5625 23.6751 20.6584 24.464 18.6738 24.4642Z" fill="#F6C893"/>
<defs>
<linearGradient id="paint0_linear_175_92" x1="18.7383" y1="18" x2="18.965" y2="33.9989" gradientUnits="userSpaceOnUse">
<stop stop-opacity="0"/>
<stop offset="1" stop-color="#5F618A"/>
</linearGradient>
</defs>
</svg>
