<svg width="208" height="41" viewBox="0 0 208 41" fill="none" xmlns="http://www.w3.org/2000/svg">
<mask id="path-1-inside-1_314_46" fill="white">
<path d="M196.899 4.88135C196.899 6.22188 197.986 7.30859 199.327 7.30859H199.538C200.762 7.30859 201.754 8.30049 201.754 9.52406C201.754 10.3315 202.216 11.0549 202.804 11.6079C203.322 12.0938 203.8 12.7127 204.223 13.4521C205.36 15.4432 206 18.1433 206 20.959C206 23.7748 205.36 26.4757 204.223 28.4668C203.8 29.2058 203.322 29.8238 202.805 30.3092C202.216 30.862 201.754 31.5856 201.754 32.3932C201.754 33.6171 200.762 34.6094 199.538 34.6094H198.795C197.748 34.6094 196.899 35.4582 196.899 36.5054C196.899 37.5525 196.051 38.4014 195.003 38.4014H13.7544C12.7073 38.4014 11.8584 37.5525 11.8584 36.5054C11.8584 35.4582 11.0095 34.6094 9.9624 34.6094H9.24593C8.3437 34.6094 7.6123 33.878 7.6123 32.9757C7.6123 32.1559 6.98089 31.4843 6.26093 31.0921C5.33221 30.5862 4.47789 29.6926 3.77734 28.4668C2.63958 26.4757 2 23.7748 2 20.959C2.00002 18.1433 2.63966 15.4432 3.77734 13.4521C4.47793 12.2261 5.33223 11.3321 6.26097 10.826C6.98087 10.4336 7.6123 9.76207 7.6123 8.94221C7.6123 8.03999 8.3437 7.30859 9.24592 7.30859H9.73535C10.9079 7.30859 11.8584 6.35807 11.8584 5.18555V4.6543C11.8584 3.18837 13.0468 2 14.5127 2H194.245C195.711 2 196.899 3.18837 196.899 4.6543V4.88135Z"/>
</mask>
<path d="M196.899 4.88135C196.899 6.22188 197.986 7.30859 199.327 7.30859H199.538C200.762 7.30859 201.754 8.30049 201.754 9.52406C201.754 10.3315 202.216 11.0549 202.804 11.6079C203.322 12.0938 203.8 12.7127 204.223 13.4521C205.36 15.4432 206 18.1433 206 20.959C206 23.7748 205.36 26.4757 204.223 28.4668C203.8 29.2058 203.322 29.8238 202.805 30.3092C202.216 30.862 201.754 31.5856 201.754 32.3932C201.754 33.6171 200.762 34.6094 199.538 34.6094H198.795C197.748 34.6094 196.899 35.4582 196.899 36.5054C196.899 37.5525 196.051 38.4014 195.003 38.4014H13.7544C12.7073 38.4014 11.8584 37.5525 11.8584 36.5054C11.8584 35.4582 11.0095 34.6094 9.9624 34.6094H9.24593C8.3437 34.6094 7.6123 33.878 7.6123 32.9757C7.6123 32.1559 6.98089 31.4843 6.26093 31.0921C5.33221 30.5862 4.47789 29.6926 3.77734 28.4668C2.63958 26.4757 2 23.7748 2 20.959C2.00002 18.1433 2.63966 15.4432 3.77734 13.4521C4.47793 12.2261 5.33223 11.3321 6.26097 10.826C6.98087 10.4336 7.6123 9.76207 7.6123 8.94221C7.6123 8.03999 8.3437 7.30859 9.24592 7.30859H9.73535C10.9079 7.30859 11.8584 6.35807 11.8584 5.18555V4.6543C11.8584 3.18837 13.0468 2 14.5127 2H194.245C195.711 2 196.899 3.18837 196.899 4.6543V4.88135Z" fill="#453D54"/>
<path d="M196.899 4.88135C196.899 6.22188 197.986 7.30859 199.327 7.30859H199.538C200.762 7.30859 201.754 8.30049 201.754 9.52406C201.754 10.3315 202.216 11.0549 202.804 11.6079C203.322 12.0938 203.8 12.7127 204.223 13.4521C205.36 15.4432 206 18.1433 206 20.959C206 23.7748 205.36 26.4757 204.223 28.4668C203.8 29.2058 203.322 29.8238 202.805 30.3092C202.216 30.862 201.754 31.5856 201.754 32.3932C201.754 33.6171 200.762 34.6094 199.538 34.6094H198.795C197.748 34.6094 196.899 35.4582 196.899 36.5054C196.899 37.5525 196.051 38.4014 195.003 38.4014H13.7544C12.7073 38.4014 11.8584 37.5525 11.8584 36.5054C11.8584 35.4582 11.0095 34.6094 9.9624 34.6094H9.24593C8.3437 34.6094 7.6123 33.878 7.6123 32.9757C7.6123 32.1559 6.98089 31.4843 6.26093 31.0921C5.33221 30.5862 4.47789 29.6926 3.77734 28.4668C2.63958 26.4757 2 23.7748 2 20.959C2.00002 18.1433 2.63966 15.4432 3.77734 13.4521C4.47793 12.2261 5.33223 11.3321 6.26097 10.826C6.98087 10.4336 7.6123 9.76207 7.6123 8.94221C7.6123 8.03999 8.3437 7.30859 9.24592 7.30859H9.73535C10.9079 7.30859 11.8584 6.35807 11.8584 5.18555V4.6543C11.8584 3.18837 13.0468 2 14.5127 2H194.245C195.711 2 196.899 3.18837 196.899 4.6543V4.88135Z" fill="url(#paint0_linear_314_46)" fill-opacity="0.2"/>
<path d="M204.223 13.4521L205.959 12.4599L205.959 12.4599L204.223 13.4521ZM206 20.959H208V20.959L206 20.959ZM204.223 28.4668L205.959 29.4591L205.959 29.4591L204.223 28.4668ZM3.77734 28.4668L2.04086 29.4591L2.0409 29.4591L3.77734 28.4668ZM2 20.959L0 20.959V20.959H2ZM3.77734 13.4521L2.04086 12.4599L2.04084 12.4599L3.77734 13.4521ZM6.26097 10.826L7.21806 12.5821L6.26097 10.826ZM6.26093 31.0921L7.2177 29.3358L6.26093 31.0921ZM202.804 11.6079L204.174 10.1505L202.804 11.6079ZM202.805 30.3092L204.174 31.7672L202.805 30.3092ZM199.327 7.30859V9.30859H199.538V7.30859V5.30859H199.327V7.30859ZM202.804 11.6079L201.435 13.0653C201.785 13.3947 202.146 13.8492 202.486 14.4444L204.223 13.4521L205.959 12.4599C205.454 11.5761 204.858 10.793 204.174 10.1505L202.804 11.6079ZM204.223 13.4521L202.486 14.4444C203.416 16.0718 204 18.4129 204 20.959L206 20.959L208 20.959C208 17.8737 207.305 14.8146 205.959 12.4599L204.223 13.4521ZM206 20.959H204C204 23.5053 203.416 25.8472 202.486 27.4745L204.223 28.4668L205.959 29.4591C207.305 27.1042 208 24.0443 208 20.959H206ZM204.223 28.4668L202.486 27.4744C202.147 28.0685 201.786 28.5221 201.436 28.8512L202.805 30.3092L204.174 31.7672C204.857 31.1255 205.454 30.3431 205.959 29.4591L204.223 28.4668ZM199.538 34.6094V32.6094H198.795V34.6094V36.6094H199.538V34.6094ZM195.003 38.4014V36.4014H13.7544V38.4014V40.4014H195.003V38.4014ZM9.9624 34.6094V32.6094H9.24593V34.6094V36.6094H9.9624V34.6094ZM6.26093 31.0921L7.2177 29.3358C6.69796 29.0527 6.08384 28.4719 5.51379 27.4744L3.77734 28.4668L2.0409 29.4591C2.87193 30.9133 3.96647 32.1197 5.30415 32.8484L6.26093 31.0921ZM3.77734 28.4668L5.51383 27.4745C4.58395 25.8472 4 23.5053 4 20.959H2H0C-2.38419e-07 24.0443 0.695205 27.1042 2.04086 29.4591L3.77734 28.4668ZM2 20.959L4 20.959C4.00002 18.4129 4.58397 16.0718 5.51385 14.4444L3.77734 13.4521L2.04084 12.4599C0.695347 14.8146 2.03848e-05 17.8737 0 20.959L2 20.959ZM3.77734 13.4521L5.51383 14.4444C6.08408 13.4465 6.6983 12.8654 7.21806 12.5821L6.26097 10.826L5.30389 9.06984C3.96616 9.7989 2.87178 11.0058 2.04086 12.4599L3.77734 13.4521ZM9.24592 7.30859V9.30859H9.73535V7.30859V5.30859H9.24592V7.30859ZM11.8584 5.18555H13.8584V4.6543H11.8584H9.8584V5.18555H11.8584ZM14.5127 2V4H194.245V2V0H14.5127V2ZM196.899 4.6543H194.899V4.88135H196.899H198.899V4.6543H196.899ZM194.245 2V4C194.606 4 194.899 4.29294 194.899 4.6543H196.899H198.899C198.899 2.0838 196.816 0 194.245 0V2ZM11.8584 4.6543H13.8584C13.8584 4.29294 14.1513 4 14.5127 4V2V0C11.9422 0 9.8584 2.0838 9.8584 4.6543H11.8584ZM9.73535 7.30859V9.30859C12.0124 9.30859 13.8584 7.46264 13.8584 5.18555H11.8584H9.8584C9.8584 5.2535 9.80331 5.30859 9.73535 5.30859V7.30859ZM7.6123 8.94221H9.6123C9.6123 9.14456 9.44827 9.30859 9.24592 9.30859V7.30859V5.30859C7.23913 5.30859 5.6123 6.93542 5.6123 8.94221H7.6123ZM6.26097 10.826L7.21806 12.5821C8.2088 12.0421 9.6123 10.8377 9.6123 8.94221H7.6123H5.6123C5.6123 8.81458 5.66573 8.76778 5.62649 8.81835C5.60637 8.84427 5.56964 8.88428 5.51121 8.93198C5.45317 8.97935 5.3828 9.02684 5.30389 9.06984L6.26097 10.826ZM13.7544 38.4014V36.4014C13.8118 36.4014 13.8584 36.4479 13.8584 36.5054H11.8584H9.8584C9.8584 38.6571 11.6027 40.4014 13.7544 40.4014V38.4014ZM196.899 36.5054H194.899C194.899 36.4479 194.946 36.4014 195.003 36.4014V38.4014V40.4014C197.155 40.4014 198.899 38.6571 198.899 36.5054H196.899ZM198.795 34.6094V32.6094C196.644 32.6094 194.899 34.3537 194.899 36.5054H196.899H198.899C198.899 36.5628 198.853 36.6094 198.795 36.6094V34.6094ZM201.754 32.3932H199.754C199.754 32.5126 199.657 32.6094 199.538 32.6094V34.6094V36.6094C201.866 36.6094 203.754 34.7217 203.754 32.3932H201.754ZM7.6123 32.9757H9.6123C9.6123 31.0802 8.20881 29.8758 7.2177 29.3358L6.26093 31.0921L5.30415 32.8484C5.38302 32.8914 5.45334 32.9388 5.51134 32.9862C5.56974 33.0338 5.60644 33.0738 5.62653 33.0997C5.66572 33.1502 5.6123 33.1034 5.6123 32.9757H7.6123ZM201.754 9.52406H199.754C199.754 11.1083 200.644 12.3224 201.435 13.0653L202.804 11.6079L204.174 10.1505C204 9.98725 203.885 9.83464 203.819 9.71262C203.756 9.5962 203.754 9.53729 203.754 9.52406H201.754ZM202.805 30.3092L201.436 28.8512C200.644 29.5944 199.754 30.8087 199.754 32.3932H201.754H203.754C203.754 32.3798 203.756 32.3209 203.819 32.2046C203.885 32.0827 204 31.9302 204.174 31.7672L202.805 30.3092ZM9.24593 34.6094V32.6094C9.44827 32.6094 9.6123 32.7734 9.6123 32.9757H7.6123H5.6123C5.6123 34.9825 7.23913 36.6094 9.24593 36.6094V34.6094ZM199.538 7.30859V9.30859C199.657 9.30859 199.754 9.40506 199.754 9.52406H201.754H203.754C203.754 7.19592 201.867 5.30859 199.538 5.30859V7.30859ZM11.8584 36.5054H13.8584C13.8584 34.3537 12.1141 32.6094 9.9624 32.6094V34.6094V36.6094C9.90496 36.6094 9.8584 36.5628 9.8584 36.5054H11.8584ZM199.327 7.30859V5.30859C199.091 5.30859 198.899 5.11731 198.899 4.88135H196.899H194.899C194.899 7.32645 196.882 9.30859 199.327 9.30859V7.30859Z" fill="#C3BFD5" mask="url(#path-1-inside-1_314_46)"/>
<path d="M42.4647 24.0027C41.4727 24.0027 40.5927 23.7681 39.8247 23.2987C39.0673 22.8187 38.47 22.1574 38.0327 21.3147C37.5953 20.4614 37.3767 19.4801 37.3767 18.3707C37.3767 17.4534 37.526 16.6534 37.8247 15.9707C38.1233 15.2881 38.5233 14.7174 39.0247 14.2587C39.5367 13.8001 40.1073 13.4587 40.7367 13.2347C41.3767 13.0107 42.038 12.8987 42.7207 12.8987C43.3927 12.8987 44.006 12.9681 44.5607 13.1067C45.1153 13.2454 45.686 13.4534 46.2727 13.7307C46.198 14.1041 46.15 14.5041 46.1287 14.9307C46.1073 15.3467 46.0967 15.7734 46.0967 16.2107C45.958 16.2641 45.8247 16.3014 45.6967 16.3227C45.5687 16.3441 45.4193 16.3547 45.2487 16.3547C45.2273 15.5974 45.1153 15.0161 44.9127 14.6107C44.71 14.2054 44.4327 13.9281 44.0807 13.7787C43.7287 13.6294 43.318 13.5547 42.8487 13.5547C42.1767 13.5547 41.6007 13.6774 41.1207 13.9227C40.6407 14.1681 40.246 14.4987 39.9367 14.9147C39.638 15.3201 39.414 15.7841 39.2647 16.3067C39.126 16.8294 39.0567 17.3734 39.0567 17.9387C39.0567 18.8881 39.2167 19.7521 39.5367 20.5307C39.8673 21.2987 40.3367 21.9067 40.9447 22.3547C41.5527 22.8027 42.2833 23.0267 43.1367 23.0267C43.6487 23.0267 44.1713 22.9414 44.7047 22.7707C45.238 22.6001 45.7287 22.3707 46.1767 22.0827C46.2407 22.1361 46.2993 22.2161 46.3527 22.3227C46.4167 22.4187 46.454 22.5041 46.4647 22.5787C45.8353 23.0694 45.2113 23.4321 44.5927 23.6667C43.9847 23.8907 43.2753 24.0027 42.4647 24.0027ZM47.8458 23.9067C47.8458 23.8001 47.8511 23.6881 47.8618 23.5707C47.8725 23.4427 47.8938 23.3254 47.9258 23.2187C48.3525 23.2187 48.6405 23.1227 48.7898 22.9307C48.9498 22.7281 49.0298 22.3601 49.0298 21.8267V14.6587C49.0298 14.4027 49.0031 14.1947 48.9498 14.0347C48.9071 13.8641 48.8005 13.7361 48.6298 13.6507C48.4591 13.5654 48.1925 13.5227 47.8298 13.5227C47.8298 13.4054 47.8405 13.2987 47.8618 13.2027C47.8831 13.1067 47.9205 13.0161 47.9738 12.9307C48.1338 12.9307 48.3578 12.9041 48.6458 12.8507C48.9445 12.7974 49.2325 12.7281 49.5098 12.6427C49.7871 12.5574 49.9898 12.4721 50.1178 12.3867C50.2138 12.4187 50.2938 12.4827 50.3578 12.5787C50.4325 12.6747 50.4698 12.8241 50.4698 13.0267V21.8267C50.4698 22.3601 50.5391 22.7281 50.6778 22.9307C50.8271 23.1227 51.0725 23.2187 51.4138 23.2187C51.4458 23.3254 51.4671 23.4481 51.4778 23.5867C51.4885 23.7254 51.4938 23.8321 51.4938 23.9067C51.3125 23.8961 51.1205 23.8854 50.9178 23.8747C50.7151 23.8747 50.5071 23.8694 50.2938 23.8587C50.0911 23.8587 49.8885 23.8587 49.6858 23.8587C49.4831 23.8587 49.2698 23.8587 49.0458 23.8587C48.8325 23.8694 48.6245 23.8747 48.4218 23.8747C48.2191 23.8854 48.0271 23.8961 47.8458 23.9067ZM57.5391 24.0027C57.4217 23.9494 57.3257 23.8534 57.2511 23.7147C57.1871 23.5761 57.1551 23.3574 57.1551 23.0587C57.1551 22.9627 57.1604 22.8507 57.1711 22.7227C57.1817 22.5841 57.2031 22.4614 57.2351 22.3547H57.2671C57.2351 22.5254 57.1604 22.7121 57.0431 22.9147C56.9364 23.1067 56.7924 23.2774 56.6111 23.4267C56.4297 23.5867 56.2004 23.7201 55.9231 23.8267C55.6457 23.9227 55.3097 23.9707 54.9151 23.9707C54.2431 23.9707 53.7311 23.8214 53.3791 23.5227C53.0271 23.2134 52.8511 22.7974 52.8511 22.2747C52.8511 21.8587 52.9471 21.5067 53.1391 21.2187C53.3417 20.9201 53.5977 20.6747 53.9071 20.4827C54.2271 20.2801 54.5684 20.1201 54.9311 20.0027C55.3044 19.8854 55.6671 19.7947 56.0191 19.7307C56.3711 19.6667 56.6804 19.6134 56.9471 19.5707C56.9471 19.1334 56.9364 18.7921 56.9151 18.5467C56.9044 18.3014 56.8724 18.1094 56.8191 17.9707C56.7764 17.8214 56.7071 17.6934 56.6111 17.5867C56.4831 17.4267 56.3337 17.3094 56.1631 17.2347C56.0031 17.1494 55.8217 17.1067 55.6191 17.1067C55.2671 17.1067 54.9897 17.2187 54.7871 17.4427C54.5844 17.6561 54.4404 17.9067 54.3551 18.1947C54.2697 18.4827 54.2217 18.7387 54.2111 18.9627C54.0937 18.9627 53.9444 18.9574 53.7631 18.9467C53.5924 18.9254 53.4644 18.8934 53.3791 18.8507C53.4004 18.5841 53.4057 18.2854 53.3951 17.9547C53.3844 17.6241 53.3524 17.3414 53.2991 17.1067C53.7364 16.8827 54.1951 16.7067 54.6751 16.5787C55.1657 16.4507 55.6137 16.3867 56.0191 16.3867C56.4137 16.3867 56.7497 16.4454 57.0271 16.5627C57.3151 16.6694 57.5444 16.8134 57.7151 16.9947C57.9924 17.2614 58.1737 17.6134 58.2591 18.0507C58.3444 18.4774 58.3871 19.0481 58.3871 19.7627V21.5227C58.3871 21.8214 58.4084 22.0614 58.4511 22.2427C58.5044 22.4134 58.6004 22.5414 58.7391 22.6267C58.8777 22.7014 59.0911 22.7494 59.3791 22.7707C59.3791 22.8774 59.3737 23.0001 59.3631 23.1387C59.3524 23.2667 59.3257 23.3894 59.2831 23.5067C59.0164 23.5174 58.7177 23.5707 58.3871 23.6667C58.0671 23.7521 57.7844 23.8641 57.5391 24.0027ZM55.3631 23.0907C55.5977 23.0907 55.8377 23.0161 56.0831 22.8667C56.3284 22.7067 56.5311 22.4614 56.6911 22.1307C56.8617 21.8001 56.9471 21.3681 56.9471 20.8347V20.2267C56.6804 20.2587 56.3977 20.3067 56.0991 20.3707C55.8004 20.4241 55.5231 20.5094 55.2671 20.6267C55.0111 20.7441 54.8031 20.9094 54.6431 21.1227C54.4831 21.3254 54.4031 21.6027 54.4031 21.9547C54.4031 22.3494 54.4991 22.6374 54.6911 22.8187C54.8831 23.0001 55.1071 23.0907 55.3631 23.0907ZM60.6118 23.9067C60.6118 23.8001 60.6171 23.6881 60.6278 23.5707C60.6385 23.4427 60.6598 23.3254 60.6918 23.2187C61.1185 23.2187 61.4065 23.1227 61.5558 22.9307C61.7158 22.7281 61.7958 22.3601 61.7958 21.8267V18.6587C61.7958 18.4027 61.7691 18.1947 61.7158 18.0347C61.6731 17.8641 61.5665 17.7361 61.3958 17.6507C61.2251 17.5654 60.9585 17.5227 60.5958 17.5227C60.5958 17.4054 60.6065 17.2987 60.6278 17.2027C60.6491 17.1067 60.6865 17.0161 60.7398 16.9307C60.8998 16.9307 61.1238 16.9041 61.4118 16.8507C61.7105 16.7974 61.9985 16.7281 62.2758 16.6427C62.5531 16.5574 62.7558 16.4721 62.8838 16.3867C62.9798 16.4187 63.0598 16.4827 63.1238 16.5787C63.1985 16.6747 63.2358 16.8241 63.2358 17.0267V21.8267C63.2358 22.3601 63.3051 22.7281 63.4438 22.9307C63.5931 23.1227 63.8385 23.2187 64.1798 23.2187C64.2118 23.3254 64.2331 23.4481 64.2438 23.5867C64.2545 23.7254 64.2598 23.8321 64.2598 23.9067C64.0785 23.8961 63.8865 23.8854 63.6838 23.8747C63.4811 23.8747 63.2731 23.8694 63.0598 23.8587C62.8571 23.8587 62.6545 23.8587 62.4518 23.8587C62.2491 23.8587 62.0358 23.8587 61.8118 23.8587C61.5985 23.8694 61.3905 23.8747 61.1878 23.8747C60.9851 23.8854 60.7931 23.8961 60.6118 23.9067ZM62.3878 14.5787C62.1211 14.5787 61.8971 14.4881 61.7158 14.3067C61.5345 14.1254 61.4438 13.9067 61.4438 13.6507C61.4438 13.3627 61.5398 13.1281 61.7318 12.9467C61.9238 12.7654 62.1425 12.6747 62.3878 12.6747C62.6758 12.6747 62.9051 12.7654 63.0758 12.9467C63.2571 13.1281 63.3478 13.3627 63.3478 13.6507C63.3478 13.8961 63.2518 14.1147 63.0598 14.3067C62.8785 14.4881 62.6545 14.5787 62.3878 14.5787ZM65.4243 23.9067C65.4243 23.7574 65.4296 23.6294 65.4403 23.5227C65.451 23.4054 65.4723 23.3041 65.5043 23.2187C65.931 23.1974 66.219 23.0961 66.3683 22.9147C66.5283 22.7227 66.6083 22.3601 66.6083 21.8267V18.6587C66.6083 18.4027 66.5816 18.1947 66.5283 18.0347C66.475 17.8747 66.363 17.7521 66.1923 17.6667C66.0216 17.5814 65.7603 17.5334 65.4083 17.5227C65.4083 17.4054 65.419 17.2987 65.4403 17.2027C65.4616 17.1067 65.499 17.0161 65.5523 16.9307C65.7336 16.9201 65.9576 16.8881 66.2243 16.8347C66.5016 16.7707 66.7683 16.7014 67.0243 16.6267C67.2803 16.5414 67.4776 16.4614 67.6163 16.3867C67.7123 16.4187 67.7923 16.4827 67.8563 16.5787C67.931 16.6747 67.9683 16.8241 67.9683 17.0267C67.9683 17.1974 67.9576 17.3947 67.9363 17.6187C67.9256 17.8427 67.8936 18.1734 67.8403 18.6107L67.6803 18.6267C67.8296 18.2214 67.9363 17.9494 68.0003 17.8107C68.075 17.6721 68.1283 17.5814 68.1603 17.5387C68.331 17.2934 68.6136 17.0427 69.0083 16.7867C69.4136 16.5201 69.8936 16.3867 70.4483 16.3867C70.8963 16.3867 71.307 16.4881 71.6803 16.6907C72.0536 16.8934 72.3256 17.2401 72.4963 17.7307C72.539 17.8587 72.5603 18.0347 72.5603 18.2587H72.5123C72.6083 17.9921 72.715 17.7787 72.8323 17.6187C73.0136 17.3734 73.3016 17.1227 73.6963 16.8667C74.091 16.6001 74.5656 16.4667 75.1203 16.4667C75.5256 16.4667 75.899 16.5521 76.2403 16.7227C76.5816 16.8827 76.8536 17.1547 77.0563 17.5387C77.2696 17.9121 77.3763 18.4241 77.3763 19.0747V21.8267C77.3763 22.1894 77.4083 22.4721 77.4723 22.6747C77.547 22.8667 77.6536 23.0001 77.7923 23.0747C77.9416 23.1494 78.123 23.1974 78.3363 23.2187C78.3683 23.3147 78.3896 23.4161 78.4003 23.5227C78.411 23.6294 78.4163 23.7574 78.4163 23.9067C78.1816 23.8854 77.9096 23.8694 77.6003 23.8587C77.3016 23.8587 76.9923 23.8587 76.6723 23.8587C76.459 23.8587 76.2403 23.8587 76.0163 23.8587C75.7923 23.8694 75.5736 23.8747 75.3603 23.8747C75.147 23.8854 74.9496 23.8961 74.7683 23.9067C74.7683 23.7574 74.7736 23.6294 74.7843 23.5227C74.795 23.4054 74.8163 23.3041 74.8483 23.2187C75.1363 23.1974 75.3603 23.1494 75.5203 23.0747C75.6803 22.9894 75.7923 22.8507 75.8563 22.6587C75.9203 22.4561 75.9523 22.1787 75.9523 21.8267V19.3947C75.9523 18.6374 75.8136 18.1254 75.5363 17.8587C75.2696 17.5814 74.9176 17.4427 74.4803 17.4427C74.2136 17.4427 73.9416 17.5334 73.6643 17.7147C73.387 17.8854 73.1576 18.1681 72.9763 18.5627C72.795 18.9467 72.7043 19.4641 72.7043 20.1147V21.8267C72.7043 22.3814 72.7896 22.7494 72.9603 22.9307C73.131 23.1014 73.419 23.1974 73.8243 23.2187C73.8563 23.3147 73.8776 23.4161 73.8883 23.5227C73.899 23.6294 73.9043 23.7574 73.9043 23.9067C73.6376 23.8854 73.3283 23.8694 72.9763 23.8587C72.635 23.8587 72.3096 23.8587 72.0003 23.8587C71.691 23.8587 71.3656 23.8587 71.0243 23.8587C70.6936 23.8694 70.3843 23.8854 70.0963 23.9067C70.0963 23.7574 70.1016 23.6294 70.1123 23.5227C70.123 23.4054 70.1443 23.3041 70.1763 23.2187C70.4643 23.1974 70.6883 23.1494 70.8483 23.0747C71.0083 22.9894 71.1203 22.8507 71.1843 22.6587C71.2483 22.4561 71.2803 22.1787 71.2803 21.8267V19.3147C71.2803 18.5574 71.1416 18.0454 70.8643 17.7787C70.5976 17.5014 70.2456 17.3627 69.8083 17.3627C69.5416 17.3627 69.2696 17.4534 68.9923 17.6347C68.715 17.8054 68.4856 18.0881 68.3043 18.4827C68.123 18.8667 68.0323 19.3841 68.0323 20.0347V21.8267C68.0323 22.3601 68.1123 22.7227 68.2723 22.9147C68.4323 23.0961 68.7256 23.1974 69.1523 23.2187C69.1843 23.3147 69.2056 23.4161 69.2163 23.5227C69.227 23.6294 69.2323 23.7574 69.2323 23.9067C69.051 23.8961 68.8483 23.8854 68.6243 23.8747C68.4003 23.8747 68.1763 23.8694 67.9523 23.8587C67.7283 23.8587 67.5203 23.8587 67.3283 23.8587C67.147 23.8587 66.939 23.8587 66.7043 23.8587C66.4696 23.8694 66.2403 23.8747 66.0163 23.8747C65.7923 23.8854 65.595 23.8961 65.4243 23.9067ZM87.5473 19.6347V21.2507C87.5473 21.8161 87.574 22.2321 87.6273 22.4987C87.6806 22.7547 87.7926 22.9254 87.9633 23.0107C88.1446 23.0961 88.4166 23.1654 88.7793 23.2187C88.8113 23.3147 88.8326 23.4214 88.8433 23.5387C88.8646 23.6561 88.8753 23.7787 88.8753 23.9067C88.5233 23.8961 88.1713 23.8854 87.8193 23.8747C87.4673 23.8641 87.142 23.8587 86.8433 23.8587C86.6086 23.8587 86.3473 23.8587 86.0593 23.8587C85.782 23.8694 85.5153 23.8747 85.2593 23.8747C85.014 23.8747 84.8166 23.8801 84.6673 23.8907C84.6673 23.7734 84.6726 23.6561 84.6833 23.5387C84.7046 23.4214 84.7313 23.3147 84.7633 23.2187C85.1473 23.1867 85.43 23.1334 85.6113 23.0587C85.7926 22.9734 85.91 22.8134 85.9633 22.5787C86.0166 22.3334 86.0433 21.9601 86.0433 21.4587V19.6347H87.5473ZM87.4193 19.9547H86.1713L83.3873 14.6107C83.2166 14.2801 83.0513 14.0454 82.8913 13.9067C82.7313 13.7574 82.502 13.6774 82.2033 13.6667C82.1606 13.5494 82.134 13.4374 82.1233 13.3307C82.1126 13.2241 82.1073 13.1174 82.1073 13.0107C82.2566 13.0107 82.422 13.0161 82.6033 13.0267C82.7846 13.0267 82.9713 13.0321 83.1633 13.0427C83.366 13.0427 83.5686 13.0427 83.7713 13.0427C83.974 13.0427 84.2086 13.0427 84.4753 13.0427C84.7526 13.0427 85.0193 13.0427 85.2753 13.0427C85.542 13.0321 85.7553 13.0214 85.9153 13.0107C85.9153 13.1281 85.91 13.2347 85.8993 13.3307C85.8886 13.4161 85.8673 13.5174 85.8353 13.6347C85.4193 13.6774 85.1793 13.7947 85.1153 13.9867C85.062 14.1681 85.1526 14.4881 85.3873 14.9467C85.6753 15.5014 85.9846 16.1254 86.3153 16.8187C86.6566 17.5121 86.9926 18.2321 87.3233 18.9787H87.1953C87.5366 18.2214 87.8566 17.5227 88.1553 16.8827C88.4646 16.2427 88.742 15.6774 88.9873 15.1867C89.2753 14.6214 89.382 14.2427 89.3073 14.0507C89.2326 13.8587 88.982 13.7307 88.5553 13.6667C88.5233 13.5494 88.4966 13.4427 88.4753 13.3467C88.454 13.2401 88.4433 13.1281 88.4433 13.0107C88.6353 13.0214 88.886 13.0321 89.1953 13.0427C89.5046 13.0427 89.7766 13.0427 90.0113 13.0427C90.2566 13.0427 90.502 13.0427 90.7473 13.0427C90.9926 13.0321 91.206 13.0214 91.3873 13.0107C91.3873 13.1174 91.382 13.2187 91.3713 13.3147C91.3606 13.4107 91.3446 13.5174 91.3233 13.6347C91.0353 13.7094 90.7633 13.8801 90.5073 14.1467C90.2513 14.4134 89.9846 14.8187 89.7073 15.3627L87.4193 19.9547ZM94.6039 24.0027C93.8786 24.0027 93.2439 23.8481 92.6999 23.5387C92.1559 23.2187 91.7346 22.7761 91.4359 22.2107C91.1373 21.6347 90.9879 20.9627 90.9879 20.1947C90.9879 19.4694 91.1426 18.8187 91.4519 18.2427C91.7613 17.6667 92.1879 17.2134 92.7319 16.8827C93.2759 16.5521 93.8999 16.3867 94.6039 16.3867C95.3613 16.3867 96.0066 16.5467 96.5399 16.8667C97.0839 17.1867 97.4999 17.6347 97.7879 18.2107C98.0759 18.7761 98.2199 19.4374 98.2199 20.1947C98.2199 20.9201 98.0653 21.5707 97.7559 22.1467C97.4573 22.7227 97.0359 23.1761 96.4919 23.5067C95.9586 23.8374 95.3293 24.0027 94.6039 24.0027ZM94.7319 23.2347C95.3719 23.2347 95.8466 22.9734 96.1559 22.4507C96.4653 21.9174 96.6199 21.2294 96.6199 20.3867C96.6199 19.7254 96.5186 19.1547 96.3159 18.6747C96.1239 18.1841 95.8626 17.8107 95.5319 17.5547C95.2013 17.2881 94.8386 17.1547 94.4439 17.1547C93.8253 17.1547 93.3613 17.4054 93.0519 17.9067C92.7533 18.4081 92.6039 19.0587 92.6039 19.8587C92.6039 20.5734 92.6893 21.1867 92.8599 21.6987C93.0413 22.2001 93.2919 22.5841 93.6119 22.8507C93.9319 23.1067 94.3053 23.2347 94.7319 23.2347ZM102.464 23.9227C101.749 23.9227 101.189 23.7147 100.784 23.2987C100.378 22.8827 100.176 22.1414 100.176 21.0747V18.6587C100.176 18.2854 100.122 18.0081 100.016 17.8267C99.9089 17.6347 99.6102 17.5334 99.1196 17.5227C99.1196 17.4054 99.1249 17.3041 99.1356 17.2187C99.1569 17.1227 99.1889 17.0267 99.2316 16.9307C99.5622 16.9094 99.9196 16.8454 100.304 16.7387C100.698 16.6321 101.018 16.5147 101.264 16.3867C101.36 16.4187 101.44 16.4881 101.504 16.5947C101.578 16.6907 101.616 16.8561 101.616 17.0907V20.7227C101.616 21.4374 101.712 21.9867 101.904 22.3707C102.106 22.7547 102.453 22.9467 102.944 22.9467C103.477 22.9467 103.92 22.7227 104.272 22.2747C104.634 21.8267 104.816 21.1387 104.816 20.2107V18.5787C104.816 18.2054 104.746 17.9281 104.608 17.7467C104.48 17.5547 104.149 17.4534 103.616 17.4427C103.616 17.3254 103.621 17.2241 103.632 17.1387C103.642 17.0427 103.674 16.9467 103.728 16.8507C104.144 16.8294 104.549 16.7761 104.944 16.6907C105.349 16.5947 105.669 16.4934 105.904 16.3867C106 16.4187 106.08 16.4881 106.144 16.5947C106.218 16.6907 106.256 16.8561 106.256 17.0907V21.7307L105.008 22.3227C104.954 22.4614 104.88 22.6001 104.784 22.7387C104.688 22.8667 104.581 22.9894 104.464 23.1067C104.186 23.3841 103.893 23.5921 103.584 23.7307C103.274 23.8587 102.901 23.9227 102.464 23.9227ZM105.328 24.0027C105.221 23.9494 105.125 23.8747 105.04 23.7787C104.965 23.6721 104.928 23.4374 104.928 23.0747C104.928 22.9574 104.933 22.7921 104.944 22.5787C104.965 22.3654 105.013 22.0667 105.088 21.6827H106.256C106.256 21.9281 106.277 22.1361 106.32 22.3067C106.362 22.4667 106.453 22.5841 106.592 22.6587C106.741 22.7334 106.96 22.7707 107.248 22.7707C107.248 22.8774 107.242 23.0001 107.232 23.1387C107.221 23.2667 107.194 23.3894 107.152 23.5067C106.885 23.5174 106.576 23.5707 106.224 23.6667C105.872 23.7521 105.573 23.8641 105.328 24.0027ZM111.111 21.5067C111.111 21.9654 111.159 22.3174 111.255 22.5627C111.351 22.7974 111.505 22.9627 111.719 23.0587C111.932 23.1441 112.204 23.1974 112.535 23.2187C112.567 23.3041 112.588 23.4054 112.599 23.5227C112.609 23.6294 112.615 23.7574 112.615 23.9067C112.455 23.8961 112.263 23.8854 112.039 23.8747C111.825 23.8747 111.596 23.8694 111.351 23.8587C111.105 23.8587 110.855 23.8587 110.599 23.8587C110.225 23.8587 109.831 23.8587 109.415 23.8587C109.009 23.8694 108.7 23.8854 108.487 23.9067C108.487 23.7574 108.492 23.6294 108.503 23.5227C108.513 23.4054 108.535 23.3041 108.567 23.2187C108.855 23.1974 109.079 23.1494 109.239 23.0747C109.399 22.9894 109.511 22.8507 109.575 22.6587C109.639 22.4561 109.671 22.1787 109.671 21.8267V20.2267H111.111V21.5067ZM111.111 19.1707V20.4347H109.671V18.6587L111.111 17.0907C111.111 17.4534 111.079 17.7841 111.015 18.0827C110.951 18.3707 110.892 18.6587 110.839 18.9467L111.111 19.1707ZM110.759 19.0427C110.876 18.7441 110.967 18.4987 111.031 18.3067C111.095 18.1147 111.164 17.9547 111.239 17.8267C111.473 17.4534 111.751 17.1441 112.071 16.8987C112.391 16.6534 112.759 16.5307 113.175 16.5307C113.58 16.5307 113.948 16.6587 114.279 16.9147C114.257 17.0854 114.236 17.2827 114.215 17.5067C114.193 17.7307 114.177 17.9547 114.167 18.1787C114.167 18.4027 114.167 18.6107 114.167 18.8027C114.071 18.8347 113.937 18.8667 113.767 18.8987C113.607 18.9307 113.436 18.9467 113.255 18.9467C113.233 18.4347 113.148 18.0987 112.999 17.9387C112.86 17.7787 112.684 17.6987 112.471 17.6987C112.289 17.6987 112.092 17.8054 111.879 18.0187C111.665 18.2214 111.484 18.4934 111.335 18.8347C111.185 19.1761 111.111 19.5547 111.111 19.9707L110.759 19.0427ZM109.671 20.4347V18.6587C109.671 18.4027 109.644 18.1947 109.591 18.0347C109.537 17.8747 109.425 17.7521 109.255 17.6667C109.084 17.5814 108.823 17.5334 108.471 17.5227C108.471 17.4054 108.481 17.2987 108.503 17.2027C108.524 17.1067 108.561 17.0161 108.615 16.9307C108.945 16.9094 109.324 16.8454 109.751 16.7387C110.177 16.6321 110.513 16.5147 110.759 16.3867C110.855 16.4187 110.935 16.4881 110.999 16.5947C111.073 16.6907 111.111 16.8561 111.111 17.0907L109.671 20.4347ZM125.753 24.0027C125.54 23.6507 125.364 23.3574 125.225 23.1227C125.086 22.8774 124.964 22.6534 124.857 22.4507C124.75 22.2374 124.628 22.0081 124.489 21.7627C124.286 21.3787 124.089 21.0321 123.897 20.7227C123.705 20.4134 123.481 20.0987 123.225 19.7787C122.98 19.4587 122.67 19.1067 122.297 18.7227L122.713 18.9307C122.436 18.9414 122.18 18.9467 121.945 18.9467C121.71 18.9467 121.486 18.9414 121.273 18.9307V18.1787C121.422 18.2001 121.561 18.2161 121.689 18.2267C121.817 18.2374 121.95 18.2427 122.089 18.2427C122.676 18.2427 123.204 18.1627 123.673 18.0027C124.142 17.8321 124.516 17.5707 124.793 17.2187C125.07 16.8667 125.209 16.4134 125.209 15.8587C125.209 15.2294 125.006 14.7174 124.601 14.3227C124.206 13.9174 123.529 13.7147 122.569 13.7147C122.324 13.7147 122.105 13.7254 121.913 13.7467C121.721 13.7681 121.518 13.8054 121.305 13.8587L121.385 13.6827V21.8267C121.385 22.1787 121.417 22.4561 121.481 22.6587C121.545 22.8507 121.652 22.9894 121.801 23.0747C121.961 23.1494 122.174 23.1974 122.441 23.2187C122.473 23.3147 122.494 23.4267 122.505 23.5547C122.516 23.6721 122.521 23.7894 122.521 23.9067C122.297 23.8854 122.062 23.8694 121.817 23.8587C121.572 23.8587 121.342 23.8587 121.129 23.8587C120.926 23.8587 120.756 23.8587 120.617 23.8587C120.34 23.8587 120.009 23.8587 119.625 23.8587C119.252 23.8694 118.942 23.8854 118.697 23.9067C118.697 23.7894 118.702 23.6721 118.713 23.5547C118.724 23.4374 118.745 23.3254 118.777 23.2187C119.065 23.1974 119.289 23.1494 119.449 23.0747C119.609 22.9894 119.721 22.8507 119.785 22.6587C119.849 22.4561 119.881 22.1787 119.881 21.8267V15.0747C119.881 14.7121 119.849 14.4347 119.785 14.2427C119.721 14.0401 119.609 13.8961 119.449 13.8107C119.289 13.7254 119.065 13.6827 118.777 13.6827C118.745 13.5761 118.724 13.4694 118.713 13.3627C118.702 13.2561 118.697 13.1387 118.697 13.0107C118.857 13.0214 119.124 13.0321 119.497 13.0427C119.87 13.0427 120.244 13.0427 120.617 13.0427C121.054 13.0427 121.497 13.0374 121.945 13.0267C122.393 13.0161 122.841 13.0107 123.289 13.0107C124.1 13.0107 124.761 13.1281 125.273 13.3627C125.785 13.5974 126.164 13.9174 126.409 14.3227C126.654 14.7281 126.777 15.1867 126.777 15.6987C126.777 16.1894 126.66 16.6374 126.425 17.0427C126.19 17.4374 125.854 17.7734 125.417 18.0507C124.99 18.3174 124.478 18.5201 123.881 18.6587L123.961 18.4667C124.26 18.7761 124.51 19.0694 124.713 19.3467C124.926 19.6241 125.145 19.9387 125.369 20.2907C125.593 20.6427 125.86 21.0854 126.169 21.6187C126.393 21.9921 126.59 22.2907 126.761 22.5147C126.942 22.7281 127.15 22.8881 127.385 22.9947C127.62 23.0907 127.934 23.1494 128.329 23.1707C128.329 23.2987 128.324 23.4161 128.313 23.5227C128.313 23.6294 128.297 23.7414 128.265 23.8587C127.87 23.8587 127.449 23.8641 127.001 23.8747C126.564 23.8961 126.148 23.9387 125.753 24.0027ZM132.458 24.0027C131.701 24.0027 131.071 23.8321 130.57 23.4907C130.069 23.1494 129.69 22.6907 129.434 22.1147C129.189 21.5281 129.066 20.8881 129.066 20.1947C129.066 19.5121 129.199 18.8827 129.466 18.3067C129.733 17.7307 130.111 17.2667 130.602 16.9147C131.103 16.5627 131.695 16.3867 132.378 16.3867C133.071 16.3867 133.626 16.5361 134.042 16.8347C134.469 17.1334 134.783 17.5334 134.986 18.0347C135.199 18.5361 135.327 19.0907 135.37 19.6987C135.327 19.9121 135.247 20.0934 135.13 20.2427C134.949 20.2427 134.677 20.2427 134.314 20.2427C133.951 20.2427 133.541 20.2481 133.082 20.2587C132.623 20.2587 132.154 20.2694 131.674 20.2907C131.194 20.3014 130.741 20.3174 130.314 20.3387V19.5227H133.706C133.706 18.8187 133.578 18.2481 133.322 17.8107C133.066 17.3734 132.703 17.1547 132.234 17.1547C131.978 17.1547 131.727 17.2347 131.482 17.3947C131.237 17.5441 131.034 17.8161 130.874 18.2107C130.714 18.5947 130.634 19.1441 130.634 19.8587C130.634 20.3814 130.698 20.8934 130.826 21.3947C130.965 21.8854 131.199 22.2961 131.53 22.6267C131.871 22.9467 132.351 23.1067 132.97 23.1067C133.322 23.1067 133.669 23.0267 134.01 22.8667C134.351 22.7067 134.655 22.4774 134.922 22.1787C135.007 22.2214 135.087 22.2961 135.162 22.4027C135.247 22.4987 135.295 22.5894 135.306 22.6747C134.943 23.1547 134.522 23.4961 134.042 23.6987C133.573 23.9014 133.045 24.0027 132.458 24.0027ZM139.288 24.0027C139.107 23.4907 138.925 22.9894 138.744 22.4987C138.573 21.9974 138.392 21.5067 138.2 21.0267C138.019 20.5361 137.832 20.0507 137.64 19.5707C137.459 19.0907 137.272 18.6107 137.08 18.1307C136.963 17.8321 136.84 17.6187 136.712 17.4907C136.595 17.3627 136.419 17.2614 136.184 17.1867C136.141 17.0801 136.115 16.9627 136.104 16.8347C136.093 16.7067 136.088 16.5947 136.088 16.4987C136.301 16.5094 136.525 16.5201 136.76 16.5307C137.005 16.5307 137.304 16.5307 137.656 16.5307C138.008 16.5307 138.323 16.5254 138.6 16.5147C138.877 16.5041 139.149 16.4934 139.416 16.4827C139.416 16.5894 139.411 16.7121 139.4 16.8507C139.389 16.9894 139.368 17.1014 139.336 17.1867C139.037 17.2187 138.824 17.2721 138.696 17.3467C138.579 17.4214 138.52 17.5227 138.52 17.6507C138.531 17.7787 138.573 17.9441 138.648 18.1467C138.893 18.7654 139.149 19.4427 139.416 20.1787C139.683 20.9147 139.923 21.5974 140.136 22.2267L139.928 22.2427L142.136 16.5307C142.221 16.5094 142.323 16.4934 142.44 16.4827C142.557 16.4721 142.669 16.4667 142.776 16.4667C143.128 17.2774 143.512 18.1947 143.928 19.2187C144.355 20.2427 144.765 21.2614 145.16 22.2747H144.936L145.944 19.2507C146.115 18.7281 146.189 18.3281 146.168 18.0507C146.157 17.7627 146.077 17.5547 145.928 17.4267C145.779 17.2987 145.571 17.2187 145.304 17.1867C145.261 17.0694 145.224 16.9521 145.192 16.8347C145.171 16.7067 145.16 16.5894 145.16 16.4827C145.363 16.4934 145.592 16.5041 145.848 16.5147C146.104 16.5254 146.349 16.5307 146.584 16.5307C146.872 16.5307 147.133 16.5254 147.368 16.5147C147.603 16.5041 147.811 16.4934 147.992 16.4827C147.992 16.6214 147.981 16.7441 147.96 16.8507C147.949 16.9574 147.917 17.0694 147.864 17.1867C147.704 17.2294 147.565 17.3094 147.448 17.4267C147.341 17.5334 147.229 17.7254 147.112 18.0027C147.005 18.2801 146.861 18.6801 146.68 19.2027L145.064 23.8587C145 23.8907 144.931 23.9174 144.856 23.9387C144.781 23.9601 144.701 23.9761 144.616 23.9867C144.531 23.9974 144.435 24.0027 144.328 24.0027C144.083 23.3627 143.816 22.7067 143.528 22.0347C143.251 21.3521 142.973 20.6801 142.696 20.0187C142.419 19.3574 142.147 18.7334 141.88 18.1467L142.376 17.8747L139.992 23.8587C139.939 23.8907 139.88 23.9174 139.816 23.9387C139.752 23.9601 139.677 23.9761 139.592 23.9867C139.507 23.9974 139.405 24.0027 139.288 24.0027ZM153.727 24.0027C153.609 23.9494 153.513 23.8534 153.439 23.7147C153.375 23.5761 153.343 23.3574 153.343 23.0587C153.343 22.9627 153.348 22.8507 153.359 22.7227C153.369 22.5841 153.391 22.4614 153.423 22.3547H153.455C153.423 22.5254 153.348 22.7121 153.231 22.9147C153.124 23.1067 152.98 23.2774 152.799 23.4267C152.617 23.5867 152.388 23.7201 152.111 23.8267C151.833 23.9227 151.497 23.9707 151.103 23.9707C150.431 23.9707 149.919 23.8214 149.567 23.5227C149.215 23.2134 149.039 22.7974 149.039 22.2747C149.039 21.8587 149.135 21.5067 149.327 21.2187C149.529 20.9201 149.785 20.6747 150.095 20.4827C150.415 20.2801 150.756 20.1201 151.119 20.0027C151.492 19.8854 151.855 19.7947 152.207 19.7307C152.559 19.6667 152.868 19.6134 153.135 19.5707C153.135 19.1334 153.124 18.7921 153.103 18.5467C153.092 18.3014 153.06 18.1094 153.007 17.9707C152.964 17.8214 152.895 17.6934 152.799 17.5867C152.671 17.4267 152.521 17.3094 152.351 17.2347C152.191 17.1494 152.009 17.1067 151.807 17.1067C151.455 17.1067 151.177 17.2187 150.975 17.4427C150.772 17.6561 150.628 17.9067 150.543 18.1947C150.457 18.4827 150.409 18.7387 150.399 18.9627C150.281 18.9627 150.132 18.9574 149.951 18.9467C149.78 18.9254 149.652 18.8934 149.567 18.8507C149.588 18.5841 149.593 18.2854 149.583 17.9547C149.572 17.6241 149.54 17.3414 149.487 17.1067C149.924 16.8827 150.383 16.7067 150.863 16.5787C151.353 16.4507 151.801 16.3867 152.207 16.3867C152.601 16.3867 152.937 16.4454 153.215 16.5627C153.503 16.6694 153.732 16.8134 153.903 16.9947C154.18 17.2614 154.361 17.6134 154.447 18.0507C154.532 18.4774 154.575 19.0481 154.575 19.7627V21.5227C154.575 21.8214 154.596 22.0614 154.639 22.2427C154.692 22.4134 154.788 22.5414 154.927 22.6267C155.065 22.7014 155.279 22.7494 155.567 22.7707C155.567 22.8774 155.561 23.0001 155.551 23.1387C155.54 23.2667 155.513 23.3894 155.471 23.5067C155.204 23.5174 154.905 23.5707 154.575 23.6667C154.255 23.7521 153.972 23.8641 153.727 24.0027ZM151.551 23.0907C151.785 23.0907 152.025 23.0161 152.271 22.8667C152.516 22.7067 152.719 22.4614 152.879 22.1307C153.049 21.8001 153.135 21.3681 153.135 20.8347V20.2267C152.868 20.2587 152.585 20.3067 152.287 20.3707C151.988 20.4241 151.711 20.5094 151.455 20.6267C151.199 20.7441 150.991 20.9094 150.831 21.1227C150.671 21.3254 150.591 21.6027 150.591 21.9547C150.591 22.3494 150.687 22.6374 150.879 22.8187C151.071 23.0001 151.295 23.0907 151.551 23.0907ZM159.423 21.5067C159.423 21.9654 159.471 22.3174 159.567 22.5627C159.663 22.7974 159.818 22.9627 160.031 23.0587C160.245 23.1441 160.517 23.1974 160.847 23.2187C160.879 23.3041 160.901 23.4054 160.911 23.5227C160.922 23.6294 160.927 23.7574 160.927 23.9067C160.767 23.8961 160.575 23.8854 160.351 23.8747C160.138 23.8747 159.909 23.8694 159.663 23.8587C159.418 23.8587 159.167 23.8587 158.911 23.8587C158.538 23.8587 158.143 23.8587 157.727 23.8587C157.322 23.8694 157.013 23.8854 156.799 23.9067C156.799 23.7574 156.805 23.6294 156.815 23.5227C156.826 23.4054 156.847 23.3041 156.879 23.2187C157.167 23.1974 157.391 23.1494 157.551 23.0747C157.711 22.9894 157.823 22.8507 157.887 22.6587C157.951 22.4561 157.983 22.1787 157.983 21.8267V20.2267H159.423V21.5067ZM159.423 19.1707V20.4347H157.983V18.6587L159.423 17.0907C159.423 17.4534 159.391 17.7841 159.327 18.0827C159.263 18.3707 159.205 18.6587 159.151 18.9467L159.423 19.1707ZM159.071 19.0427C159.189 18.7441 159.279 18.4987 159.343 18.3067C159.407 18.1147 159.477 17.9547 159.551 17.8267C159.786 17.4534 160.063 17.1441 160.383 16.8987C160.703 16.6534 161.071 16.5307 161.487 16.5307C161.893 16.5307 162.261 16.6587 162.591 16.9147C162.57 17.0854 162.549 17.2827 162.527 17.5067C162.506 17.7307 162.49 17.9547 162.479 18.1787C162.479 18.4027 162.479 18.6107 162.479 18.8027C162.383 18.8347 162.25 18.8667 162.079 18.8987C161.919 18.9307 161.749 18.9467 161.567 18.9467C161.546 18.4347 161.461 18.0987 161.311 17.9387C161.173 17.7787 160.997 17.6987 160.783 17.6987C160.602 17.6987 160.405 17.8054 160.191 18.0187C159.978 18.2214 159.797 18.4934 159.647 18.8347C159.498 19.1761 159.423 19.5547 159.423 19.9707L159.071 19.0427ZM157.983 20.4347V18.6587C157.983 18.4027 157.957 18.1947 157.903 18.0347C157.85 17.8747 157.738 17.7521 157.567 17.6667C157.397 17.5814 157.135 17.5334 156.783 17.5227C156.783 17.4054 156.794 17.2987 156.815 17.2027C156.837 17.1067 156.874 17.0161 156.927 16.9307C157.258 16.9094 157.637 16.8454 158.063 16.7387C158.49 16.6321 158.826 16.5147 159.071 16.3867C159.167 16.4187 159.247 16.4881 159.311 16.5947C159.386 16.6907 159.423 16.8561 159.423 17.0907L157.983 20.4347ZM167.534 16.3867C167.844 16.3867 168.11 16.4134 168.334 16.4667C168.569 16.5201 168.82 16.5894 169.086 16.6747V17.9067C168.873 17.6827 168.638 17.4961 168.382 17.3467C168.137 17.1974 167.828 17.1227 167.454 17.1227C167.23 17.1227 166.985 17.1707 166.718 17.2667C166.462 17.3521 166.212 17.5067 165.966 17.7307C165.721 17.9547 165.518 18.2694 165.358 18.6747C165.209 19.0801 165.134 19.6027 165.134 20.2427C165.134 20.9254 165.236 21.4694 165.438 21.8747C165.641 22.2694 165.881 22.5574 166.158 22.7387C166.436 22.9094 166.692 22.9947 166.926 22.9947C167.246 22.9947 167.55 22.8987 167.838 22.7067C168.137 22.5041 168.382 22.1787 168.574 21.7307C168.766 21.2827 168.862 20.6854 168.862 19.9387L169.326 21.6347C169.188 21.9761 169.065 22.2374 168.958 22.4187C168.862 22.6001 168.788 22.7334 168.734 22.8187C168.638 22.9787 168.484 23.1494 168.27 23.3307C168.068 23.5121 167.817 23.6721 167.518 23.8107C167.23 23.9387 166.905 24.0027 166.542 24.0027C165.924 24.0027 165.39 23.8801 164.942 23.6347C164.494 23.3787 164.148 22.9894 163.902 22.4667C163.668 21.9441 163.55 21.2721 163.55 20.4507C163.55 19.7041 163.716 19.0267 164.046 18.4187C164.377 17.8001 164.841 17.3094 165.438 16.9467C166.036 16.5734 166.734 16.3867 167.534 16.3867ZM170.302 21.6827C170.302 21.9281 170.324 22.1361 170.366 22.3067C170.409 22.4667 170.5 22.5841 170.638 22.6587C170.788 22.7334 171.006 22.7707 171.294 22.7707C171.294 22.8774 171.289 23.0001 171.278 23.1387C171.268 23.2667 171.241 23.3894 171.198 23.5067C170.932 23.5174 170.622 23.5707 170.27 23.6667C169.918 23.7521 169.62 23.8641 169.374 24.0027C169.268 23.9494 169.172 23.8747 169.086 23.7787C169.012 23.6721 168.974 23.4374 168.974 23.0747C168.974 22.8614 168.99 22.6747 169.022 22.5147C169.065 22.3441 169.124 22.0667 169.198 21.6827H170.302ZM170.302 14.6587V21.8267H168.862V14.6587H170.302ZM169.95 12.3867C170.046 12.4187 170.126 12.4827 170.19 12.5787C170.265 12.6747 170.302 12.8241 170.302 13.0267V15.2507H168.862V14.6587C168.862 14.4027 168.836 14.1947 168.782 14.0347C168.74 13.8641 168.633 13.7361 168.462 13.6507C168.292 13.5654 168.025 13.5227 167.662 13.5227C167.662 13.4054 167.673 13.2987 167.694 13.2027C167.716 13.1067 167.753 13.0161 167.806 12.9307C167.966 12.9307 168.19 12.9041 168.478 12.8507C168.766 12.7974 169.049 12.7281 169.326 12.6427C169.614 12.5574 169.822 12.4721 169.95 12.3867Z" fill="#F3F1B9"/>
<path d="M194.625 1C196.434 1.00025 197.899 2.46676 197.899 4.27539V5.0332C197.899 5.73742 198.471 6.30859 199.175 6.30859H199.539C201.314 6.30859 202.754 7.74743 202.754 9.52246C202.754 9.94108 203.001 10.4193 203.488 10.877C204.089 11.4415 204.628 12.1439 205.092 12.9561C206.333 15.129 207 18.0089 207 20.959C207 23.9093 206.333 26.7898 205.092 28.9629C204.628 29.7748 204.09 30.4758 203.489 31.04C203.002 31.4976 202.754 31.9757 202.754 32.3945C202.754 34.1699 201.314 35.6091 199.539 35.6094H198.796C198.301 35.6094 197.899 36.0111 197.899 36.5059C197.899 38.105 196.603 39.4013 195.004 39.4014H13.7549C12.1556 39.4014 10.8586 38.1051 10.8584 36.5059C10.8584 36.0111 10.4577 35.6094 9.96289 35.6094H9.24414C7.79055 35.6092 6.61234 34.4311 6.6123 32.9775C6.6123 32.6961 6.3671 32.291 5.7832 31.9727C4.6494 31.3545 3.67413 30.3032 2.9082 28.9629C1.6665 26.7898 1 23.9093 1 20.959L1.00781 20.4072C1.08556 17.6519 1.74421 14.9933 2.9082 12.9561C3.67419 11.6156 4.64921 10.5628 5.7832 9.94434C6.36689 9.62607 6.61224 9.22165 6.6123 8.94043C6.6123 7.48694 7.79065 6.30859 9.24414 6.30859H9.73535C10.3556 6.30859 10.8583 5.80579 10.8584 5.18555V4.27539C10.8584 2.46662 12.325 1.00002 14.1338 1H194.625Z" stroke="#464859" stroke-width="2"/>
<defs>
<linearGradient id="paint0_linear_314_46" x1="103.06" y1="20.2007" x2="103.106" y2="38.4037" gradientUnits="userSpaceOnUse">
<stop stop-opacity="0"/>
<stop offset="1" stop-color="#313148"/>
</linearGradient>
</defs>
</svg>
