<svg width="291" height="58" viewBox="0 0 291 58" fill="none" xmlns="http://www.w3.org/2000/svg">
<path d="M272.88 1.5C274.57 1.5 275.94 2.86977 275.94 4.55957V6.63965C275.94 6.67278 275.967 6.70018 276 6.7002H278.08C279.77 6.70023 281.14 8.06991 281.14 9.75977V11.8398C281.14 11.8415 281.14 11.8481 281.147 11.8662C281.156 11.8873 281.178 11.9271 281.225 11.9805C281.326 12.0947 281.499 12.2193 281.716 12.3057C283.694 13.0926 285.312 14.9283 286.497 17.2988C288.088 20.4804 288.94 24.6899 288.94 29C288.94 33.3101 288.088 37.5196 286.497 40.7012C285.312 43.0717 283.694 44.9074 281.716 45.6943C281.499 45.7807 281.326 45.9053 281.225 46.0195C281.178 46.0729 281.156 46.1127 281.147 46.1338C281.14 46.1519 281.14 46.1585 281.14 46.1602V48.2402C281.14 49.9301 279.77 51.2998 278.08 51.2998H276C275.967 51.2998 275.94 51.3272 275.94 51.3604V53.4404C275.94 55.1302 274.57 56.5 272.88 56.5H16C14.3101 56.5 12.9407 55.1302 12.9404 53.4404V51.3604C12.9404 51.3272 12.913 51.2998 12.8799 51.2998H10.7998C9.10998 51.2997 7.74036 49.9301 7.74023 48.2402V45.332C7.74023 45.3307 7.73959 45.326 7.73633 45.3154C7.73265 45.3035 7.72471 45.2817 7.70605 45.252C7.66654 45.1889 7.59248 45.108 7.48242 45.0342C6.06927 44.0857 4.87867 42.5718 3.94336 40.7012C2.35264 37.5196 1.5 33.3101 1.5 29L1.50977 28.1934C1.60921 24.1677 2.45205 20.2816 3.94336 17.2988C4.8787 15.4281 6.06909 13.9135 7.48242 12.9648C7.59251 12.891 7.66652 12.8101 7.70605 12.7471C7.72435 12.7178 7.73259 12.6965 7.73633 12.6846C7.73974 12.6735 7.74023 12.6681 7.74023 12.667V9.75977C7.74036 8.06995 9.10998 6.7003 10.7998 6.7002H12.8799C12.913 6.7002 12.9404 6.67279 12.9404 6.63965V4.55957C12.9407 2.86978 14.3102 1.5 16 1.5H272.88Z" stroke="#C2B28C" stroke-width="3"/>
<path d="M272.88 1.5C274.57 1.5 275.94 2.86977 275.94 4.55957V6.63965C275.94 6.67278 275.967 6.70018 276 6.7002H278.08C279.77 6.70023 281.14 8.06991 281.14 9.75977V11.8398C281.14 11.8415 281.14 11.8481 281.147 11.8662C281.156 11.8873 281.178 11.9271 281.225 11.9805C281.326 12.0947 281.499 12.2193 281.716 12.3057C283.694 13.0926 285.312 14.9283 286.497 17.2988C288.088 20.4804 288.94 24.6899 288.94 29C288.94 33.3101 288.088 37.5196 286.497 40.7012C285.312 43.0717 283.694 44.9074 281.716 45.6943C281.499 45.7807 281.326 45.9053 281.225 46.0195C281.178 46.0729 281.156 46.1127 281.147 46.1338C281.14 46.1519 281.14 46.1585 281.14 46.1602V48.2402C281.14 49.9301 279.77 51.2998 278.08 51.2998H276C275.967 51.2998 275.94 51.3272 275.94 51.3604V53.4404C275.94 55.1302 274.57 56.5 272.88 56.5H16C14.3101 56.5 12.9407 55.1302 12.9404 53.4404V51.3604C12.9404 51.3272 12.913 51.2998 12.8799 51.2998H10.7998C9.10998 51.2997 7.74036 49.9301 7.74023 48.2402V45.332C7.74023 45.3307 7.73959 45.326 7.73633 45.3154C7.73265 45.3035 7.72471 45.2817 7.70605 45.252C7.66654 45.1889 7.59248 45.108 7.48242 45.0342C6.06927 44.0857 4.87867 42.5718 3.94336 40.7012C2.35264 37.5196 1.5 33.3101 1.5 29L1.50977 28.1934C1.60921 24.1677 2.45205 20.2816 3.94336 17.2988C4.8787 15.4281 6.06909 13.9135 7.48242 12.9648C7.59251 12.891 7.66652 12.8101 7.70605 12.7471C7.72435 12.7178 7.73259 12.6965 7.73633 12.6846C7.73974 12.6735 7.74023 12.6681 7.74023 12.667V9.75977C7.74036 8.06995 9.10998 6.7003 10.7998 6.7002H12.8799C12.913 6.7002 12.9404 6.67279 12.9404 6.63965V4.55957C12.9407 2.86978 14.3102 1.5 16 1.5H272.88Z" stroke="url(#paint0_linear_191_2)" stroke-opacity="0.2" stroke-width="3"/>
<path d="M16 4H272.88C273.189 4 273.44 4.2505 273.44 4.55957V6.63965C273.44 8.05348 274.586 9.20018 276 9.2002H278.08C278.389 9.20023 278.64 9.45061 278.64 9.75977V11.8398C278.64 13.2964 279.819 14.2418 280.792 14.6289C281.977 15.1003 283.22 16.3345 284.261 18.417C285.638 21.1718 286.44 24.9781 286.44 29C286.44 33.0219 285.638 36.8282 284.261 39.583C283.22 41.6655 281.977 42.8997 280.792 43.3711C279.819 43.7582 278.64 44.7036 278.64 46.1602V48.2402C278.64 48.5494 278.389 48.7998 278.08 48.7998H276C274.586 48.7998 273.44 49.9465 273.44 51.3604V53.4404C273.44 53.7495 273.189 54 272.88 54H16C15.6909 54 15.4407 53.7495 15.4404 53.4404V51.3604C15.4404 49.9465 14.2937 48.7998 12.8799 48.7998H10.7998C10.4907 48.7997 10.2404 48.5493 10.2402 48.2402V45.332C10.2402 44.2661 9.58521 43.434 8.87598 42.958C7.9308 42.3237 6.98929 41.2042 6.17871 39.583C4.80146 36.8282 4 33.0218 4 29L4.00977 28.249C4.10283 24.5067 4.88749 20.9997 6.17871 18.417C6.98942 16.7956 7.93078 15.6754 8.87598 15.041C9.58515 14.565 10.2402 13.733 10.2402 12.667V9.75977C10.2404 9.45066 10.4907 9.2003 10.7998 9.2002H12.8799C14.2937 9.2002 15.4404 8.0535 15.4404 6.63965V4.55957C15.4407 4.25049 15.6909 4 16 4Z" fill="#F3F1B9"/>
<path d="M16 4H272.88C273.189 4 273.44 4.2505 273.44 4.55957V6.63965C273.44 8.05348 274.586 9.20018 276 9.2002H278.08C278.389 9.20023 278.64 9.45061 278.64 9.75977V11.8398C278.64 13.2964 279.819 14.2418 280.792 14.6289C281.977 15.1003 283.22 16.3345 284.261 18.417C285.638 21.1718 286.44 24.9781 286.44 29C286.44 33.0219 285.638 36.8282 284.261 39.583C283.22 41.6655 281.977 42.8997 280.792 43.3711C279.819 43.7582 278.64 44.7036 278.64 46.1602V48.2402C278.64 48.5494 278.389 48.7998 278.08 48.7998H276C274.586 48.7998 273.44 49.9465 273.44 51.3604V53.4404C273.44 53.7495 273.189 54 272.88 54H16C15.6909 54 15.4407 53.7495 15.4404 53.4404V51.3604C15.4404 49.9465 14.2937 48.7998 12.8799 48.7998H10.7998C10.4907 48.7997 10.2404 48.5493 10.2402 48.2402V45.332C10.2402 44.2661 9.58521 43.434 8.87598 42.958C7.9308 42.3237 6.98929 41.2042 6.17871 39.583C4.80146 36.8282 4 33.0218 4 29L4.00977 28.249C4.10283 24.5067 4.88749 20.9997 6.17871 18.417C6.98942 16.7956 7.93078 15.6754 8.87598 15.041C9.58515 14.565 10.2402 13.733 10.2402 12.667V9.75977C10.2404 9.45066 10.4907 9.2003 10.7998 9.2002H12.8799C14.2937 9.2002 15.4404 8.0535 15.4404 6.63965V4.55957C15.4407 4.25049 15.6909 4 16 4Z" fill="url(#paint1_linear_191_2)" fill-opacity="0.2"/>
<path d="M16 4H272.88C273.189 4 273.44 4.2505 273.44 4.55957V6.63965C273.44 8.05348 274.586 9.20018 276 9.2002H278.08C278.389 9.20023 278.64 9.45061 278.64 9.75977V11.8398C278.64 13.2964 279.819 14.2418 280.792 14.6289C281.977 15.1003 283.22 16.3345 284.261 18.417C285.638 21.1718 286.44 24.9781 286.44 29C286.44 33.0219 285.638 36.8282 284.261 39.583C283.22 41.6655 281.977 42.8997 280.792 43.3711C279.819 43.7582 278.64 44.7036 278.64 46.1602V48.2402C278.64 48.5494 278.389 48.7998 278.08 48.7998H276C274.586 48.7998 273.44 49.9465 273.44 51.3604V53.4404C273.44 53.7495 273.189 54 272.88 54H16C15.6909 54 15.4407 53.7495 15.4404 53.4404V51.3604C15.4404 49.9465 14.2937 48.7998 12.8799 48.7998H10.7998C10.4907 48.7997 10.2404 48.5493 10.2402 48.2402V45.332C10.2402 44.2661 9.58521 43.434 8.87598 42.958C7.9308 42.3237 6.98929 41.2042 6.17871 39.583C4.80146 36.8282 4 33.0218 4 29L4.00977 28.249C4.10283 24.5067 4.88749 20.9997 6.17871 18.417C6.98942 16.7956 7.93078 15.6754 8.87598 15.041C9.58515 14.565 10.2402 13.733 10.2402 12.667V9.75977C10.2404 9.45066 10.4907 9.2003 10.7998 9.2002H12.8799C14.2937 9.2002 15.4404 8.0535 15.4404 6.63965V4.55957C15.4407 4.25049 15.6909 4 16 4Z" stroke="#D2CCC0" stroke-width="2"/>
<path d="M16 4H272.88C273.189 4 273.44 4.2505 273.44 4.55957V6.63965C273.44 8.05348 274.586 9.20018 276 9.2002H278.08C278.389 9.20023 278.64 9.45061 278.64 9.75977V11.8398C278.64 13.2964 279.819 14.2418 280.792 14.6289C281.977 15.1003 283.22 16.3345 284.261 18.417C285.638 21.1718 286.44 24.9781 286.44 29C286.44 33.0219 285.638 36.8282 284.261 39.583C283.22 41.6655 281.977 42.8997 280.792 43.3711C279.819 43.7582 278.64 44.7036 278.64 46.1602V48.2402C278.64 48.5494 278.389 48.7998 278.08 48.7998H276C274.586 48.7998 273.44 49.9465 273.44 51.3604V53.4404C273.44 53.7495 273.189 54 272.88 54H16C15.6909 54 15.4407 53.7495 15.4404 53.4404V51.3604C15.4404 49.9465 14.2937 48.7998 12.8799 48.7998H10.7998C10.4907 48.7997 10.2404 48.5493 10.2402 48.2402V45.332C10.2402 44.2661 9.58521 43.434 8.87598 42.958C7.9308 42.3237 6.98929 41.2042 6.17871 39.583C4.80146 36.8282 4 33.0218 4 29L4.00977 28.249C4.10283 24.5067 4.88749 20.9997 6.17871 18.417C6.98942 16.7956 7.93078 15.6754 8.87598 15.041C9.58515 14.565 10.2402 13.733 10.2402 12.667V9.75977C10.2404 9.45066 10.4907 9.2003 10.7998 9.2002H12.8799C14.2937 9.2002 15.4404 8.0535 15.4404 6.63965V4.55957C15.4407 4.25049 15.6909 4 16 4Z" stroke="url(#paint2_linear_191_2)" stroke-opacity="0.2" stroke-width="2"/>
<path d="M124.814 36.216C123.822 36.216 122.95 36.08 122.198 35.808C121.462 35.52 120.71 35.144 119.942 34.68C120.038 34.072 120.094 33.464 120.11 32.856C120.142 32.248 120.158 31.72 120.158 31.272C120.334 31.224 120.542 31.192 120.782 31.176C121.022 31.144 121.246 31.128 121.454 31.128C121.502 31.944 121.646 32.648 121.886 33.24C122.142 33.816 122.534 34.264 123.062 34.584C123.606 34.904 124.302 35.064 125.15 35.064C126.254 35.064 127.038 34.824 127.502 34.344C127.982 33.848 128.222 33.256 128.222 32.568C128.222 31.864 128.03 31.288 127.646 30.84C127.262 30.376 126.766 29.984 126.158 29.664C125.55 29.344 124.902 29.032 124.214 28.728C123.542 28.424 122.902 28.072 122.294 27.672C121.686 27.272 121.19 26.776 120.806 26.184C120.422 25.576 120.23 24.808 120.23 23.88C120.23 22.984 120.422 22.216 120.806 21.576C121.206 20.92 121.766 20.424 122.486 20.088C123.206 19.736 124.062 19.56 125.054 19.56C125.614 19.56 126.142 19.608 126.638 19.704C127.15 19.8 127.614 19.928 128.03 20.088C128.446 20.248 128.79 20.424 129.062 20.616C129.062 21.08 129.07 21.616 129.086 22.224C129.102 22.832 129.142 23.352 129.206 23.784C129.03 23.848 128.814 23.904 128.558 23.952C128.318 23.984 128.086 24 127.862 24C127.702 23.072 127.494 22.368 127.238 21.888C126.982 21.408 126.67 21.08 126.302 20.904C125.934 20.712 125.51 20.616 125.03 20.616C124.182 20.616 123.518 20.824 123.038 21.24C122.558 21.656 122.318 22.24 122.318 22.992C122.318 23.696 122.51 24.28 122.894 24.744C123.278 25.208 123.774 25.608 124.382 25.944C124.99 26.28 125.63 26.608 126.302 26.928C126.974 27.232 127.614 27.584 128.222 27.984C128.83 28.368 129.326 28.848 129.71 29.424C130.094 30 130.286 30.728 130.286 31.608C130.286 32.408 130.094 33.16 129.71 33.864C129.326 34.568 128.734 35.136 127.934 35.568C127.134 36 126.094 36.216 124.814 36.216ZM137.6 36.216C136.464 36.216 135.52 35.96 134.768 35.448C134.016 34.936 133.448 34.248 133.064 33.384C132.696 32.504 132.512 31.544 132.512 30.504C132.512 29.48 132.712 28.536 133.112 27.672C133.512 26.808 134.08 26.112 134.816 25.584C135.568 25.056 136.456 24.792 137.48 24.792C138.52 24.792 139.352 25.016 139.976 25.464C140.616 25.912 141.088 26.512 141.392 27.264C141.712 28.016 141.904 28.848 141.968 29.76C141.904 30.08 141.784 30.352 141.608 30.576C141.336 30.576 140.928 30.576 140.384 30.576C139.84 30.576 139.224 30.584 138.536 30.6C137.848 30.6 137.144 30.616 136.424 30.648C135.704 30.664 135.024 30.688 134.384 30.72V29.496H139.472C139.472 28.44 139.28 27.584 138.896 26.928C138.512 26.272 137.968 25.944 137.264 25.944C136.88 25.944 136.504 26.064 136.136 26.304C135.768 26.528 135.464 26.936 135.224 27.528C134.984 28.104 134.864 28.928 134.864 30C134.864 30.784 134.96 31.552 135.152 32.304C135.36 33.04 135.712 33.656 136.208 34.152C136.72 34.632 137.44 34.872 138.368 34.872C138.896 34.872 139.416 34.752 139.928 34.512C140.44 34.272 140.896 33.928 141.296 33.48C141.424 33.544 141.544 33.656 141.656 33.816C141.784 33.96 141.856 34.096 141.872 34.224C141.328 34.944 140.696 35.456 139.976 35.76C139.272 36.064 138.48 36.216 137.6 36.216ZM145.583 30.864V28.2C145.583 27.816 145.543 27.504 145.463 27.264C145.383 27.024 145.215 26.84 144.959 26.712C144.703 26.584 144.311 26.512 143.783 26.496C143.783 26.32 143.799 26.16 143.831 26.016C143.863 25.872 143.919 25.736 143.999 25.608C144.495 25.576 145.063 25.48 145.703 25.32C146.343 25.16 146.847 24.984 147.215 24.792C147.359 24.84 147.479 24.944 147.575 25.104C147.687 25.248 147.743 25.496 147.743 25.848L145.583 30.864ZM154.847 32.952C154.847 33.784 154.959 34.344 155.183 34.632C155.423 34.904 155.783 35.04 156.263 35.04C156.311 35.184 156.343 35.336 156.359 35.496C156.375 35.656 156.383 35.848 156.383 36.072C156.031 36.04 155.631 36.016 155.183 36C154.735 36 154.263 36 153.767 36C153.447 36 153.111 36 152.759 36C152.407 36.016 152.071 36.024 151.751 36.024C151.447 36.04 151.167 36.056 150.911 36.072C150.911 35.848 150.919 35.656 150.935 35.496C150.951 35.32 150.983 35.168 151.031 35.04C151.607 35.04 152.023 34.896 152.279 34.608C152.551 34.304 152.687 33.752 152.687 32.952V29.304C152.687 28.168 152.479 27.4 152.063 27C151.647 26.584 151.111 26.376 150.455 26.376C150.039 26.376 149.623 26.512 149.207 26.784C148.791 27.04 148.439 27.464 148.151 28.056C147.879 28.632 147.743 29.408 147.743 30.384V32.952C147.743 33.752 147.863 34.304 148.103 34.608C148.343 34.896 148.775 35.04 149.399 35.04C149.447 35.184 149.479 35.336 149.495 35.496C149.511 35.656 149.519 35.848 149.519 36.072C149.295 36.056 149.023 36.04 148.703 36.024C148.383 36.024 148.047 36.016 147.695 36C147.343 36 146.999 36 146.663 36C146.343 36 146.007 36 145.655 36C145.303 36.016 144.967 36.024 144.647 36.024C144.327 36.04 144.047 36.056 143.807 36.072C143.807 35.848 143.815 35.656 143.831 35.496C143.847 35.32 143.879 35.168 143.927 35.04C144.551 35.04 144.983 34.896 145.223 34.608C145.463 34.304 145.583 33.752 145.583 32.952V28.2L147.743 25.848C147.743 26.04 147.735 26.256 147.719 26.496C147.703 26.736 147.655 26.992 147.575 27.264C147.623 27.184 147.671 27.096 147.719 27C147.767 26.888 147.839 26.768 147.935 26.64C148.207 26.272 148.639 25.896 149.231 25.512C149.839 25.112 150.567 24.912 151.415 24.912C152.023 24.912 152.583 25.04 153.095 25.296C153.623 25.536 154.047 25.944 154.367 26.52C154.687 27.08 154.847 27.848 154.847 28.824V32.952ZM164.176 24.792C164.64 24.792 165.04 24.832 165.376 24.912C165.728 24.992 166.104 25.096 166.504 25.224V27.072C166.184 26.736 165.832 26.456 165.448 26.232C165.08 26.008 164.616 25.896 164.056 25.896C163.72 25.896 163.352 25.968 162.952 26.112C162.568 26.24 162.192 26.472 161.824 26.808C161.456 27.144 161.152 27.616 160.912 28.224C160.688 28.832 160.576 29.616 160.576 30.576C160.576 31.6 160.728 32.416 161.032 33.024C161.336 33.616 161.696 34.048 162.112 34.32C162.528 34.576 162.912 34.704 163.264 34.704C163.744 34.704 164.2 34.56 164.632 34.272C165.08 33.968 165.448 33.48 165.736 32.808C166.024 32.136 166.168 31.24 166.168 30.12L166.864 32.664C166.656 33.176 166.472 33.568 166.312 33.84C166.168 34.112 166.056 34.312 165.976 34.44C165.832 34.68 165.6 34.936 165.28 35.208C164.976 35.48 164.6 35.72 164.152 35.928C163.72 36.12 163.232 36.216 162.688 36.216C161.76 36.216 160.96 36.032 160.288 35.664C159.616 35.28 159.096 34.696 158.728 33.912C158.376 33.128 158.2 32.12 158.2 30.888C158.2 29.768 158.448 28.752 158.944 27.84C159.44 26.912 160.136 26.176 161.032 25.632C161.928 25.072 162.976 24.792 164.176 24.792ZM168.328 32.736C168.328 33.104 168.36 33.416 168.424 33.672C168.488 33.912 168.624 34.088 168.832 34.2C169.056 34.312 169.384 34.368 169.816 34.368C169.816 34.528 169.808 34.712 169.792 34.92C169.776 35.112 169.736 35.296 169.672 35.472C169.272 35.488 168.808 35.568 168.28 35.712C167.752 35.84 167.304 36.008 166.936 36.216C166.776 36.136 166.632 36.024 166.504 35.88C166.392 35.72 166.336 35.368 166.336 34.824C166.336 34.504 166.36 34.224 166.408 33.984C166.472 33.728 166.56 33.312 166.672 32.736H168.328ZM168.328 22.2V32.952H166.168V22.2H168.328ZM167.8 18.792C167.944 18.84 168.064 18.936 168.16 19.08C168.272 19.224 168.328 19.448 168.328 19.752V23.088H166.168V22.2C166.168 21.816 166.128 21.504 166.048 21.264C165.984 21.008 165.824 20.816 165.568 20.688C165.312 20.56 164.912 20.496 164.368 20.496C164.368 20.32 164.384 20.16 164.416 20.016C164.448 19.872 164.504 19.736 164.584 19.608C164.824 19.608 165.16 19.568 165.592 19.488C166.024 19.408 166.448 19.304 166.864 19.176C167.296 19.048 167.608 18.92 167.8 18.792Z" fill="#683919"/>
<defs>
<linearGradient id="paint0_linear_191_2" x1="145.22" y1="3" x2="145.22" y2="55" gradientUnits="userSpaceOnUse">
<stop stop-opacity="0"/>
<stop offset="1" stop-color="#EE473B"/>
</linearGradient>
<linearGradient id="paint1_linear_191_2" x1="145.22" y1="3" x2="145.22" y2="55" gradientUnits="userSpaceOnUse">
<stop stop-opacity="0"/>
<stop offset="1" stop-color="#EE473B"/>
</linearGradient>
<linearGradient id="paint2_linear_191_2" x1="145.22" y1="3" x2="145.22" y2="55" gradientUnits="userSpaceOnUse">
<stop stop-opacity="0"/>
<stop offset="1" stop-color="#EE473B"/>
</linearGradient>
</defs>
</svg>
