<svg width="291" height="58" viewBox="0 0 291 58" fill="none" xmlns="http://www.w3.org/2000/svg">
<path d="M272.88 1.5C274.57 1.5 275.94 2.86978 275.94 4.55957V6.63965C275.94 6.67278 275.967 6.70018 276 6.7002H278.08C279.77 6.70023 281.14 8.0699 281.14 9.75977V11.8398C281.14 11.8415 281.14 11.8481 281.147 11.8662C281.156 11.8872 281.178 11.9271 281.225 11.9805C281.326 12.0947 281.499 12.2193 281.716 12.3057C283.694 13.0926 285.312 14.9283 286.497 17.2988C288.088 20.4804 288.94 24.6899 288.94 29C288.94 33.3101 288.088 37.5196 286.497 40.7012C285.312 43.0717 283.694 44.9074 281.716 45.6943C281.499 45.7807 281.326 45.9053 281.225 46.0195C281.178 46.0729 281.156 46.1128 281.147 46.1338C281.14 46.1519 281.14 46.1585 281.14 46.1602V48.2402C281.14 49.9301 279.77 51.2998 278.08 51.2998H276C275.967 51.2998 275.94 51.3272 275.94 51.3604V53.4404C275.94 55.1302 274.57 56.5 272.88 56.5H16C14.3101 56.5 12.9407 55.1302 12.9404 53.4404V51.3604C12.9404 51.3272 12.913 51.2998 12.8799 51.2998H10.7998C9.10998 51.2997 7.74036 49.9301 7.74023 48.2402V45.332C7.74023 45.3307 7.73959 45.326 7.73633 45.3154C7.73265 45.3035 7.72471 45.2817 7.70605 45.252C7.66654 45.1889 7.59247 45.108 7.48242 45.0342C6.06927 44.0857 4.87867 42.5718 3.94336 40.7012C2.35264 37.5196 1.5 33.3101 1.5 29L1.50977 28.1934C1.60921 24.1677 2.45205 20.2816 3.94336 17.2988C4.8787 15.4281 6.06909 13.9135 7.48242 12.9648C7.59251 12.891 7.66652 12.8101 7.70605 12.7471C7.72435 12.7178 7.73259 12.6965 7.73633 12.6846C7.73974 12.6735 7.74023 12.6681 7.74023 12.667V9.75977C7.74036 8.06995 9.10998 6.7003 10.7998 6.7002H12.8799C12.913 6.7002 12.9404 6.67279 12.9404 6.63965V4.55957C12.9407 2.86978 14.3102 1.5 16 1.5H272.88Z" stroke="#C2B28C" stroke-width="3"/>
<path d="M272.88 1.5C274.57 1.5 275.94 2.86978 275.94 4.55957V6.63965C275.94 6.67278 275.967 6.70018 276 6.7002H278.08C279.77 6.70023 281.14 8.0699 281.14 9.75977V11.8398C281.14 11.8415 281.14 11.8481 281.147 11.8662C281.156 11.8872 281.178 11.9271 281.225 11.9805C281.326 12.0947 281.499 12.2193 281.716 12.3057C283.694 13.0926 285.312 14.9283 286.497 17.2988C288.088 20.4804 288.94 24.6899 288.94 29C288.94 33.3101 288.088 37.5196 286.497 40.7012C285.312 43.0717 283.694 44.9074 281.716 45.6943C281.499 45.7807 281.326 45.9053 281.225 46.0195C281.178 46.0729 281.156 46.1128 281.147 46.1338C281.14 46.1519 281.14 46.1585 281.14 46.1602V48.2402C281.14 49.9301 279.77 51.2998 278.08 51.2998H276C275.967 51.2998 275.94 51.3272 275.94 51.3604V53.4404C275.94 55.1302 274.57 56.5 272.88 56.5H16C14.3101 56.5 12.9407 55.1302 12.9404 53.4404V51.3604C12.9404 51.3272 12.913 51.2998 12.8799 51.2998H10.7998C9.10998 51.2997 7.74036 49.9301 7.74023 48.2402V45.332C7.74023 45.3307 7.73959 45.326 7.73633 45.3154C7.73265 45.3035 7.72471 45.2817 7.70605 45.252C7.66654 45.1889 7.59247 45.108 7.48242 45.0342C6.06927 44.0857 4.87867 42.5718 3.94336 40.7012C2.35264 37.5196 1.5 33.3101 1.5 29L1.50977 28.1934C1.60921 24.1677 2.45205 20.2816 3.94336 17.2988C4.8787 15.4281 6.06909 13.9135 7.48242 12.9648C7.59251 12.891 7.66652 12.8101 7.70605 12.7471C7.72435 12.7178 7.73259 12.6965 7.73633 12.6846C7.73974 12.6735 7.74023 12.6681 7.74023 12.667V9.75977C7.74036 8.06995 9.10998 6.7003 10.7998 6.7002H12.8799C12.913 6.7002 12.9404 6.67279 12.9404 6.63965V4.55957C12.9407 2.86978 14.3102 1.5 16 1.5H272.88Z" stroke="url(#paint0_linear_191_2)" stroke-opacity="0.2" stroke-width="3"/>
<path d="M16 4H272.88C273.189 4 273.44 4.25049 273.44 4.55957V6.63965C273.44 8.05349 274.586 9.20018 276 9.2002H278.08C278.389 9.20023 278.64 9.45061 278.64 9.75977V11.8398C278.64 13.2964 279.819 14.2418 280.792 14.6289C281.903 15.0708 283.065 16.1829 284.063 18.0361L284.261 18.417C285.638 21.1718 286.44 24.9781 286.44 29C286.44 33.0219 285.638 36.8282 284.261 39.583C283.22 41.6655 281.977 42.8997 280.792 43.3711C279.819 43.7582 278.64 44.7036 278.64 46.1602V48.2402C278.64 48.5494 278.389 48.7998 278.08 48.7998H276C274.586 48.7998 273.44 49.9465 273.44 51.3604V53.4404C273.44 53.7495 273.189 54 272.88 54H16C15.6909 54 15.4407 53.7495 15.4404 53.4404V51.3604C15.4404 49.9465 14.2937 48.7998 12.8799 48.7998H10.7998C10.4907 48.7997 10.2404 48.5493 10.2402 48.2402V45.332C10.2402 44.2661 9.58521 43.434 8.87598 42.958C7.9308 42.3236 6.98929 41.2042 6.17871 39.583C4.80146 36.8282 4 33.0218 4 29L4.00977 28.249C4.10283 24.5067 4.88749 20.9997 6.17871 18.417C6.98942 16.7956 7.93078 15.6754 8.87598 15.041C9.58515 14.565 10.2402 13.733 10.2402 12.667V9.75977C10.2404 9.45066 10.4907 9.2003 10.7998 9.2002H12.8799C14.2937 9.2002 15.4404 8.0535 15.4404 6.63965V4.55957C15.4407 4.25049 15.6909 4 16 4Z" fill="#F3F1B9"/>
<path d="M16 4H272.88C273.189 4 273.44 4.25049 273.44 4.55957V6.63965C273.44 8.05349 274.586 9.20018 276 9.2002H278.08C278.389 9.20023 278.64 9.45061 278.64 9.75977V11.8398C278.64 13.2964 279.819 14.2418 280.792 14.6289C281.903 15.0708 283.065 16.1829 284.063 18.0361L284.261 18.417C285.638 21.1718 286.44 24.9781 286.44 29C286.44 33.0219 285.638 36.8282 284.261 39.583C283.22 41.6655 281.977 42.8997 280.792 43.3711C279.819 43.7582 278.64 44.7036 278.64 46.1602V48.2402C278.64 48.5494 278.389 48.7998 278.08 48.7998H276C274.586 48.7998 273.44 49.9465 273.44 51.3604V53.4404C273.44 53.7495 273.189 54 272.88 54H16C15.6909 54 15.4407 53.7495 15.4404 53.4404V51.3604C15.4404 49.9465 14.2937 48.7998 12.8799 48.7998H10.7998C10.4907 48.7997 10.2404 48.5493 10.2402 48.2402V45.332C10.2402 44.2661 9.58521 43.434 8.87598 42.958C7.9308 42.3236 6.98929 41.2042 6.17871 39.583C4.80146 36.8282 4 33.0218 4 29L4.00977 28.249C4.10283 24.5067 4.88749 20.9997 6.17871 18.417C6.98942 16.7956 7.93078 15.6754 8.87598 15.041C9.58515 14.565 10.2402 13.733 10.2402 12.667V9.75977C10.2404 9.45066 10.4907 9.2003 10.7998 9.2002H12.8799C14.2937 9.2002 15.4404 8.0535 15.4404 6.63965V4.55957C15.4407 4.25049 15.6909 4 16 4Z" fill="url(#paint1_linear_191_2)" fill-opacity="0.2"/>
<path d="M16 4H272.88C273.189 4 273.44 4.25049 273.44 4.55957V6.63965C273.44 8.05349 274.586 9.20018 276 9.2002H278.08C278.389 9.20023 278.64 9.45061 278.64 9.75977V11.8398C278.64 13.2964 279.819 14.2418 280.792 14.6289C281.903 15.0708 283.065 16.1829 284.063 18.0361L284.261 18.417C285.638 21.1718 286.44 24.9781 286.44 29C286.44 33.0219 285.638 36.8282 284.261 39.583C283.22 41.6655 281.977 42.8997 280.792 43.3711C279.819 43.7582 278.64 44.7036 278.64 46.1602V48.2402C278.64 48.5494 278.389 48.7998 278.08 48.7998H276C274.586 48.7998 273.44 49.9465 273.44 51.3604V53.4404C273.44 53.7495 273.189 54 272.88 54H16C15.6909 54 15.4407 53.7495 15.4404 53.4404V51.3604C15.4404 49.9465 14.2937 48.7998 12.8799 48.7998H10.7998C10.4907 48.7997 10.2404 48.5493 10.2402 48.2402V45.332C10.2402 44.2661 9.58521 43.434 8.87598 42.958C7.9308 42.3236 6.98929 41.2042 6.17871 39.583C4.80146 36.8282 4 33.0218 4 29L4.00977 28.249C4.10283 24.5067 4.88749 20.9997 6.17871 18.417C6.98942 16.7956 7.93078 15.6754 8.87598 15.041C9.58515 14.565 10.2402 13.733 10.2402 12.667V9.75977C10.2404 9.45066 10.4907 9.2003 10.7998 9.2002H12.8799C14.2937 9.2002 15.4404 8.0535 15.4404 6.63965V4.55957C15.4407 4.25049 15.6909 4 16 4Z" stroke="#D2CCC0" stroke-width="2"/>
<path d="M16 4H272.88C273.189 4 273.44 4.25049 273.44 4.55957V6.63965C273.44 8.05349 274.586 9.20018 276 9.2002H278.08C278.389 9.20023 278.64 9.45061 278.64 9.75977V11.8398C278.64 13.2964 279.819 14.2418 280.792 14.6289C281.903 15.0708 283.065 16.1829 284.063 18.0361L284.261 18.417C285.638 21.1718 286.44 24.9781 286.44 29C286.44 33.0219 285.638 36.8282 284.261 39.583C283.22 41.6655 281.977 42.8997 280.792 43.3711C279.819 43.7582 278.64 44.7036 278.64 46.1602V48.2402C278.64 48.5494 278.389 48.7998 278.08 48.7998H276C274.586 48.7998 273.44 49.9465 273.44 51.3604V53.4404C273.44 53.7495 273.189 54 272.88 54H16C15.6909 54 15.4407 53.7495 15.4404 53.4404V51.3604C15.4404 49.9465 14.2937 48.7998 12.8799 48.7998H10.7998C10.4907 48.7997 10.2404 48.5493 10.2402 48.2402V45.332C10.2402 44.2661 9.58521 43.434 8.87598 42.958C7.9308 42.3236 6.98929 41.2042 6.17871 39.583C4.80146 36.8282 4 33.0218 4 29L4.00977 28.249C4.10283 24.5067 4.88749 20.9997 6.17871 18.417C6.98942 16.7956 7.93078 15.6754 8.87598 15.041C9.58515 14.565 10.2402 13.733 10.2402 12.667V9.75977C10.2404 9.45066 10.4907 9.2003 10.7998 9.2002H12.8799C14.2937 9.2002 15.4404 8.0535 15.4404 6.63965V4.55957C15.4407 4.25049 15.6909 4 16 4Z" stroke="url(#paint2_linear_191_2)" stroke-opacity="0.2" stroke-width="2"/>
<defs>
<linearGradient id="paint0_linear_191_2" x1="145.22" y1="3" x2="145.22" y2="55" gradientUnits="userSpaceOnUse">
<stop stop-opacity="0"/>
<stop offset="1" stop-color="#EE473B"/>
</linearGradient>
<linearGradient id="paint1_linear_191_2" x1="145.22" y1="3" x2="145.22" y2="55" gradientUnits="userSpaceOnUse">
<stop stop-opacity="0"/>
<stop offset="1" stop-color="#EE473B"/>
</linearGradient>
<linearGradient id="paint2_linear_191_2" x1="145.22" y1="3" x2="145.22" y2="55" gradientUnits="userSpaceOnUse">
<stop stop-opacity="0"/>
<stop offset="1" stop-color="#EE473B"/>
</linearGradient>
</defs>
</svg>
