<svg width="64" height="80" viewBox="0 0 64 80" fill="none" xmlns="http://www.w3.org/2000/svg">
<path d="M50 24L24 40L50 56V80H48.7861C48.022 76.8807 46.9016 73.8217 45.4326 70.8662C42.4174 64.8 37.9982 59.2874 32.4268 54.6445C26.8552 50.0016 20.2405 46.3184 12.9609 43.8057C8.78467 42.3641 4.43617 41.3251 0 40.7002V39.2988C4.43613 38.6739 8.78471 37.6359 12.9609 36.1943C20.2405 33.6816 26.8552 29.9984 32.4268 25.3555C37.9982 20.7126 42.4174 15.2 45.4326 9.13379C46.9016 6.17833 48.022 3.11927 48.7861 0H50V24ZM64 40L51 48L38 40L51 32L64 40Z" fill="#534C42"/>
</svg>
