<svg width="37" height="42" viewBox="0 0 37 42" fill="none" xmlns="http://www.w3.org/2000/svg">
<path fill-rule="evenodd" clip-rule="evenodd" d="M9.15161 11.4984C10.2938 11.6311 11.4286 11.6366 12.5398 11.5118C14.8206 11.2556 16.9588 10.4575 18.8314 9.1638C20.7039 7.87004 22.2746 6.10536 23.4538 3.97108C24.1302 2.74666 24.67 1.41385 25.0653 1.01353e-05L25.5655 0.175138C25.6159 1.7451 25.8171 3.33744 26.1689 4.92203C26.3852 5.89668 26.6575 6.86179 26.9818 7.8104L29.278 5.51414C29.5775 5.21496 30.1369 5.28865 30.5273 5.67909L36.1841 11.3359C36.5746 11.7264 36.6483 12.2857 36.3491 12.5852L9.83709 39.0972C9.80137 39.1329 9.75635 39.1592 9.70551 39.1742L0.668268 41.8475C0.324997 41.949 -0.0857773 41.5382 0.0157135 41.195L2.68899 32.1577C2.70408 32.1069 2.73033 32.0619 2.76602 32.0261L24.1275 10.6647L26.5247 13.0619L24.382 8.15971L17.6643 14.905L9.10452 11.9067L9.15161 11.4984ZM2.72322 39.14L7.74397 37.6548L4.20843 34.1193L2.72322 39.14Z" fill="#534C42"/>
</svg>
