<svg width="52" height="59" viewBox="0 0 52 59" fill="none" xmlns="http://www.w3.org/2000/svg">
<path fill-rule="evenodd" clip-rule="evenodd" d="M12.8122 16.0978C14.4113 16.2836 16 16.2912 17.5556 16.1165C20.7488 15.7578 23.7423 14.6406 26.364 12.8293C28.9855 11.018 31.1844 8.54749 32.8352 5.5595C33.7823 3.84531 34.5379 1.97937 35.0914 -3.94874e-07L35.7917 0.245179C35.8622 2.44313 36.1439 4.67241 36.6364 6.89083C36.9393 8.25534 37.3204 9.60649 37.7744 10.9345L40.9892 7.71979C41.4084 7.30092 42.1915 7.4041 42.7382 7.95071L50.6578 15.8703C51.2044 16.4169 51.3075 17.2 50.8887 17.6193L13.7719 54.7361C13.7219 54.786 13.6588 54.8228 13.5877 54.8439L0.935528 58.5865C0.454948 58.7286 -0.120136 58.1535 0.021951 57.6729L3.76454 45.0208C3.78566 44.9496 3.82242 44.8866 3.87238 44.8366L33.7784 14.9306L37.1345 18.2866L34.1348 11.4236L24.73 20.867L12.7463 16.6693L12.8122 16.0978ZM3.81246 54.796L10.8415 52.7167L5.89176 47.767L3.81246 54.796Z" fill="#534C42"/>
</svg>
