<svg width="57" height="57" viewBox="0 0 57 57" fill="none" xmlns="http://www.w3.org/2000/svg">
<path d="M15.9782 12.3061C16.2868 11.9975 16.8151 12.1946 16.8463 12.6299C16.8551 12.752 16.9076 12.867 16.9942 12.9536L27.7792 23.7386C28.0581 24.0176 28.5104 24.0176 28.7893 23.7386L39.5744 12.9536C39.661 12.867 39.7135 12.752 39.7222 12.6299C39.7534 12.1946 40.2818 11.9975 40.5904 12.3061L44.2625 15.9782C44.571 16.2868 44.374 16.8152 43.9387 16.8463C43.8165 16.8551 43.7016 16.9076 43.615 16.9942L32.83 27.7792C32.551 28.0582 32.551 28.5104 32.83 28.7894L43.6144 39.5739C43.7011 39.6605 43.8161 39.713 43.9383 39.7218C44.3738 39.7532 44.5709 40.2819 44.2621 40.5907L40.5907 44.2622C40.2819 44.5709 39.7532 44.3739 39.7218 43.9383C39.713 43.8161 39.6605 43.7011 39.5738 43.6145L28.7893 32.83C28.5104 32.551 28.0581 32.551 27.7792 32.83L16.9942 43.615C16.9076 43.7016 16.8551 43.8166 16.8463 43.9387C16.8151 44.374 16.2868 44.5711 15.9782 44.2625L12.3061 40.5904C11.9975 40.2818 12.1946 39.7534 12.6298 39.7223C12.752 39.7135 12.8669 39.661 12.9536 39.5744L23.7386 28.7894C24.0175 28.5104 24.0175 28.0582 23.7386 27.7792L12.9536 16.9942C12.8669 16.9076 12.752 16.8551 12.6298 16.8463C12.1946 16.8152 11.9975 16.2868 12.3061 15.9782L15.9782 12.3061Z" fill="#B9AE9C"/>
</svg>
