<svg width="56" height="56" viewBox="0 0 56 56" fill="none" xmlns="http://www.w3.org/2000/svg">
<path d="M15.8175 12.1823C16.123 11.8768 16.6461 12.072 16.6768 12.503C16.6855 12.624 16.7374 12.7378 16.8232 12.8236L27.2927 23.2931C27.6832 23.6836 28.3164 23.6836 28.7069 23.2931L39.1764 12.8236C39.2621 12.7378 39.3141 12.624 39.3228 12.5031C39.3537 12.0721 39.8769 11.8771 40.1824 12.1826L43.8176 15.8178C44.1231 16.1233 43.9281 16.6465 43.4971 16.6774C43.3762 16.6861 43.2624 16.7381 43.1767 16.8238L32.7071 27.2933C32.3166 27.6839 32.3166 28.317 32.7071 28.7076L43.1751 39.1755C43.261 39.2614 43.3749 39.3134 43.496 39.3221C43.9273 39.353 44.1226 39.8767 43.8168 40.1825L40.1824 43.8169C39.8769 44.1224 39.3537 43.9274 39.3228 43.4964C39.3141 43.3755 39.2621 43.2617 39.1764 43.1759L28.7076 32.7071C28.317 32.3166 27.6839 32.3166 27.2934 32.7071L16.8238 43.1766C16.7381 43.2624 16.6861 43.3762 16.6774 43.4971C16.6465 43.9281 16.1233 44.1231 15.8178 43.8176L12.1826 40.1824C11.8771 39.8769 12.0722 39.3537 12.5031 39.3228C12.6241 39.3141 12.7378 39.2621 12.8236 39.1764L23.2931 28.7069C23.6836 28.3163 23.6836 27.6832 23.2931 27.2926L12.8228 16.8224C12.7371 16.7367 12.6234 16.6848 12.5025 16.6761C12.072 16.6454 11.877 16.1228 12.1822 15.8176L15.8175 12.1823Z" fill="#534C42"/>
</svg>
