<svg width="104" height="104" viewBox="0 0 104 104" fill="none" xmlns="http://www.w3.org/2000/svg">
<path d="M88.0127 4C88.2089 4.78449 88.4636 5.55508 88.7744 6.30566V6.30664C89.6026 8.30586 90.8165 10.1231 92.3467 11.6533C93.8769 13.1835 95.6941 14.3974 97.6934 15.2256H97.6943C98.4448 15.5364 99.2156 15.7901 100 15.9863V88.0127C99.2155 88.2089 98.4449 88.4636 97.6943 88.7744H97.6934C95.6941 89.6026 93.8769 90.8165 92.3467 92.3467C90.8165 93.8769 89.6026 95.6941 88.7744 97.6934V97.6943C88.4636 98.4449 88.2089 99.2155 88.0127 100H15.9873C15.7911 99.2155 15.5364 98.4449 15.2256 97.6943V97.6934C14.3974 95.6941 13.1835 93.8769 11.6533 92.3467C10.1231 90.8165 8.30586 89.6026 6.30664 88.7744H6.30566C5.55508 88.4636 4.78449 88.2089 4 88.0127V15.9863C4.78441 15.7901 5.55515 15.5364 6.30566 15.2256H6.30664C8.30586 14.3974 10.1231 13.1835 11.6533 11.6533C13.1835 10.1231 14.3974 8.30586 15.2256 6.30664V6.30566C15.5364 5.55508 15.7911 4.78449 15.9873 4H88.0127Z" stroke="#E1CECE" stroke-width="8"/>
</svg>
