<svg width="297" height="297" viewBox="0 0 297 297" fill="none" xmlns="http://www.w3.org/2000/svg">
<path d="M99 8H198C201.283 8 204.535 8.64618 207.567 9.90234C210.601 11.1588 213.357 13.0011 215.678 15.3223C217.999 17.6435 219.841 20.3993 221.098 23.4326C222.16 25.998 222.786 28.72 222.954 31.4854C223.258 36.5006 227.362 41 233 41H256V64C256 69.6381 260.499 73.7417 265.515 74.0459C268.28 74.2137 271.002 74.8397 273.567 75.9023C276.601 77.1588 279.357 79.0011 281.678 81.3223C283.999 83.6435 285.841 86.3993 287.098 89.4326C288.354 92.4653 289 95.7166 289 99V198C289 201.283 288.354 204.535 287.098 207.567C285.841 210.601 283.999 213.357 281.678 215.678C279.357 217.999 276.601 219.841 273.567 221.098C271.162 222.094 268.619 222.706 266.032 222.917L265.515 222.954C260.499 223.258 256 227.362 256 233V256H233C227.538 256 223.517 260.222 222.994 265.046L222.954 265.515C222.786 268.28 222.16 271.002 221.098 273.567C219.841 276.601 217.999 279.357 215.678 281.678C213.357 283.999 210.601 285.841 207.567 287.098C204.535 288.354 201.283 289 198 289H99L98.3848 288.992C95.3111 288.917 92.2758 288.275 89.4326 287.098C86.3993 285.841 83.6435 283.999 81.3223 281.678C79.0011 279.357 77.1588 276.601 75.9023 273.567C74.9061 271.162 74.2939 268.619 74.083 266.032L74.0459 265.515L74.0059 265.046C73.4832 260.222 69.4619 256 64 256H41V233C41 227.362 36.5006 223.258 31.4854 222.954C28.72 222.786 25.998 222.16 23.4326 221.098C20.3993 219.841 17.6435 217.999 15.3223 215.678C13.0011 213.357 11.1588 210.601 9.90234 207.567C8.64618 204.535 8 201.283 8 198V99C8 95.7166 8.64618 92.4653 9.90234 89.4326C11.1588 86.3993 13.0011 83.6435 15.3223 81.3223C17.6435 79.0011 20.3993 77.1588 23.4326 75.9023C25.998 74.8397 28.72 74.2137 31.4854 74.0459C36.5006 73.7417 41 69.6381 41 64V41H64C69.6381 41 73.7417 36.5006 74.0459 31.4854C74.2137 28.72 74.8397 25.998 75.9023 23.4326C77.1588 20.3993 79.0011 17.6435 81.3223 15.3223C83.6435 13.0011 86.3993 11.1588 89.4326 9.90234C92.2758 8.7247 95.3111 8.08344 98.3848 8.00781L99 8Z" fill="#E7E4DD" stroke="#B9AE9C" stroke-width="16"/>
<path d="M99 6H198C201.546 6 205.057 6.69793 208.333 8.05469C211.609 9.41165 214.586 11.4003 217.093 13.9072C219.6 16.4142 221.588 19.3911 222.945 22.667C224.093 25.4378 224.769 28.3776 224.95 31.3643C225.195 35.4014 228.495 39 233 39H258V64C258 68.5047 261.599 71.8049 265.636 72.0498C268.622 72.231 271.562 72.907 274.333 74.0547C277.609 75.4116 280.586 77.4003 283.093 79.9072C285.6 82.4142 287.588 85.3911 288.945 88.667C290.302 91.9425 291 95.454 291 99V198C291 201.546 290.302 205.057 288.945 208.333C287.588 211.609 285.6 214.586 283.093 217.093C280.586 219.6 277.609 221.588 274.333 222.945C271.735 224.021 268.989 224.683 266.195 224.911L265.636 224.95C261.599 225.195 258 228.495 258 233V258H233C228.636 258 225.403 261.377 224.982 265.259L224.95 265.636C224.769 268.622 224.093 271.562 222.945 274.333C221.588 277.609 219.6 280.586 217.093 283.093C214.586 285.6 211.609 287.588 208.333 288.945C205.057 290.302 201.546 291 198 291H99L98.3359 290.992C95.0162 290.911 91.7379 290.217 88.667 288.945C85.3911 287.588 82.4142 285.6 79.9072 283.093C77.4003 280.586 75.4116 277.609 74.0547 274.333C72.9787 271.735 72.3167 268.989 72.0889 266.195L72.0498 265.636L72.0176 265.259C71.5973 261.377 68.3641 258 64 258H39V233C39 228.495 35.4014 225.195 31.3643 224.95C28.3776 224.769 25.4378 224.093 22.667 222.945C19.3911 221.588 16.4142 219.6 13.9072 217.093C11.4003 214.586 9.41165 211.609 8.05469 208.333C6.69793 205.057 6 201.546 6 198V99C6 95.454 6.69793 91.9425 8.05469 88.667C9.41165 85.3911 11.4003 82.4142 13.9072 79.9072C16.4142 77.4003 19.3911 75.4116 22.667 74.0547C25.4378 72.907 28.3776 72.231 31.3643 72.0498C35.4014 71.8049 39 68.5047 39 64V39H64C68.5047 39 71.8049 35.4014 72.0498 31.3643C72.231 28.3776 72.907 25.4378 74.0547 22.667C75.4116 19.3911 77.4003 16.4142 79.9072 13.9072C82.4142 11.4003 85.3911 9.41165 88.667 8.05469C91.7379 6.78268 95.0162 6.08945 98.3359 6.00781L99 6Z" stroke="#ECE5DC" stroke-width="12"/>
<path d="M99 4H198C201.809 4 205.58 4.74972 209.099 6.20703C212.617 7.66447 215.814 9.80051 218.507 12.4932C221.199 15.1858 223.336 18.383 224.793 21.9014C226.026 24.8776 226.752 28.0354 226.946 31.2432C227.132 34.3021 229.629 37 233 37H260V64C260 67.3713 262.698 69.8681 265.757 70.0537C268.965 70.2483 272.122 70.9742 275.099 72.207C278.617 73.6645 281.814 75.8005 284.507 78.4932C287.199 81.1858 289.336 84.383 290.793 87.9014C292.25 91.4196 293 95.1915 293 99V198C293 201.809 292.25 205.58 290.793 209.099C289.336 212.617 287.199 215.814 284.507 218.507C281.814 221.199 278.617 223.336 275.099 224.793C272.308 225.949 269.358 226.66 266.357 226.904L265.757 226.946C262.698 227.132 260 229.629 260 233V260H233C229.734 260 227.289 262.532 226.971 265.471L226.946 265.757C226.752 268.965 226.026 272.122 224.793 275.099C223.336 278.617 221.199 281.814 218.507 284.507C215.814 287.199 212.617 289.336 209.099 290.793C205.58 292.25 201.809 293 198 293H99L98.2861 292.991C94.7209 292.903 91.1997 292.159 87.9014 290.793C84.383 289.336 81.1858 287.199 78.4932 284.507C75.8005 281.814 73.6645 278.617 72.207 275.099C71.0513 272.308 70.3404 269.358 70.0957 266.357L70.0537 265.757L70.0293 265.471C69.7109 262.532 67.2659 260 64 260H37V233C37 229.629 34.3021 227.132 31.2432 226.946C28.0354 226.752 24.8776 226.026 21.9014 224.793C18.383 223.336 15.1858 221.199 12.4932 218.507C9.80051 215.814 7.66447 212.617 6.20703 209.099C4.74972 205.58 4 201.809 4 198V99C4 95.1915 4.74972 91.4196 6.20703 87.9014C7.66447 84.383 9.80051 81.1858 12.4932 78.4932C15.1858 75.8005 18.383 73.6645 21.9014 72.207C24.8776 70.9742 28.0354 70.2483 31.2432 70.0537C34.3021 69.8681 37 67.3713 37 64V37H64C67.3713 37 69.8681 34.3021 70.0537 31.2432C70.2483 28.0354 70.9742 24.8776 72.207 21.9014C73.6645 18.383 75.8005 15.1858 78.4932 12.4932C81.1858 9.80051 84.383 7.66447 87.9014 6.20703C91.1997 4.84084 94.7209 4.09654 98.2861 4.00879L99 4Z" stroke="#B9AE9C" stroke-width="8"/>
</svg>
