<svg width="181" height="46" viewBox="0 0 181 46" fill="none" xmlns="http://www.w3.org/2000/svg">
<mask id="path-1-outside-1_178_30" maskUnits="userSpaceOnUse" x="0" y="0" width="181" height="46" fill="black">
<rect fill="white" width="181" height="46"/>
<path d="M90.5 3C101.991 3 113.368 4.03478 123.984 6.04492C132.61 7.67832 140.595 9.93316 147.645 12.7128C148.121 12.9007 148.629 13 149.141 13H171.037C172.121 13 172.966 13.9114 173.381 14.9131C173.632 15.5197 174.001 16.0709 174.465 16.5352C174.929 16.9995 175.48 17.3679 176.087 17.6191C177.089 18.034 178 18.879 178 19.9632V39C178 41.2091 176.209 43 174 43H7C4.79086 43 3 41.2091 3 39V19.9632C3 18.879 3.91136 18.034 4.91309 17.6191C5.51971 17.3679 6.07086 16.9995 6.53516 16.5352C6.99943 16.0709 7.36788 15.5197 7.61914 14.9131C8.03401 13.9113 8.87896 13 9.9632 13H31.859C32.3714 13 32.8786 12.9007 33.3553 12.7128C40.4049 9.93316 48.3895 7.67832 57.0156 6.04492C67.6315 4.03478 79.0095 3 90.5 3Z"/>
</mask>
<path d="M90.5 3C101.991 3 113.368 4.03478 123.984 6.04492C132.61 7.67832 140.595 9.93316 147.645 12.7128C148.121 12.9007 148.629 13 149.141 13H171.037C172.121 13 172.966 13.9114 173.381 14.9131C173.632 15.5197 174.001 16.0709 174.465 16.5352C174.929 16.9995 175.48 17.3679 176.087 17.6191C177.089 18.034 178 18.879 178 19.9632V39C178 41.2091 176.209 43 174 43H7C4.79086 43 3 41.2091 3 39V19.9632C3 18.879 3.91136 18.034 4.91309 17.6191C5.51971 17.3679 6.07086 16.9995 6.53516 16.5352C6.99943 16.0709 7.36788 15.5197 7.61914 14.9131C8.03401 13.9113 8.87896 13 9.9632 13H31.859C32.3714 13 32.8786 12.9007 33.3553 12.7128C40.4049 9.93316 48.3895 7.67832 57.0156 6.04492C67.6315 4.03478 79.0095 3 90.5 3Z" fill="#4A4959"/>
<path d="M90.5 3L90.5 0L90.5 0L90.5 3ZM123.984 6.04492L124.543 3.0973L124.543 3.0973L123.984 6.04492ZM173.381 14.9131L170.609 16.061L170.609 16.0611L173.381 14.9131ZM174.465 16.5352L172.343 18.6564L172.344 18.6565L174.465 16.5352ZM176.087 17.6191L174.939 20.3908L174.939 20.3908L176.087 17.6191ZM4.91309 17.6191L6.06106 20.3908L6.06114 20.3908L4.91309 17.6191ZM6.53516 16.5352L8.65648 18.6565L8.65651 18.6564L6.53516 16.5352ZM7.61914 14.9131L10.3908 16.0611L10.3908 16.061L7.61914 14.9131ZM57.0156 6.04492L56.4575 3.0973L56.4575 3.0973L57.0156 6.04492ZM33.3553 12.7128L34.4557 15.5037L33.3553 12.7128ZM147.645 12.7128L146.544 15.5037L147.645 12.7128ZM90.5 3L90.5 6C101.815 6 113.006 7.01936 123.426 8.99254L123.984 6.04492L124.543 3.0973C113.731 1.05019 102.166 0 90.5 0L90.5 3ZM123.984 6.04492L123.426 8.99254C131.894 10.5959 139.694 12.8025 146.544 15.5037L147.645 12.7128L148.745 9.92188C141.497 7.0638 133.327 4.76073 124.543 3.0973L123.984 6.04492ZM149.141 13V16H171.037V13V10H149.141V13ZM173.381 14.9131L170.609 16.0611C171.011 17.0321 171.601 17.9139 172.343 18.6564L174.465 16.5352L176.586 14.4139C176.4 14.2278 176.253 14.0073 176.152 13.765L173.381 14.9131ZM174.465 16.5352L172.344 18.6565C173.086 19.3991 173.968 19.9886 174.939 20.3908L176.087 17.6191L177.235 14.8475C176.993 14.7471 176.772 14.5998 176.586 14.4138L174.465 16.5352ZM178 19.9632H175V39H178H181V19.9632H178ZM174 43V40H7V43V46H174V43ZM3 39H6V19.9632H3H0V39H3ZM4.91309 17.6191L6.06114 20.3908C7.0321 19.9886 7.91388 19.3991 8.65648 18.6565L6.53516 16.5352L4.41383 14.4138C4.22784 14.5998 4.00733 14.7471 3.76503 14.8475L4.91309 17.6191ZM6.53516 16.5352L8.65651 18.6564C9.39903 17.9139 9.98859 17.0321 10.3908 16.0611L7.61914 14.9131L4.8475 13.765C4.74716 14.0073 4.59983 14.2278 4.4138 14.4139L6.53516 16.5352ZM9.9632 13V16H31.859V13V10H9.9632V13ZM33.3553 12.7128L34.4557 15.5037C41.3063 12.8025 49.1063 10.5959 57.5738 8.99254L57.0156 6.04492L56.4575 3.0973C47.6728 4.76073 39.5035 7.06381 32.2549 9.92188L33.3553 12.7128ZM57.0156 6.04492L57.5738 8.99254C67.9944 7.01936 79.185 6 90.5 6L90.5 3L90.5 0C78.834 2.33116e-07 67.2686 1.05019 56.4575 3.0973L57.0156 6.04492ZM31.859 13V16C32.7594 16 33.6392 15.8256 34.4557 15.5037L33.3553 12.7128L32.2549 9.92188C32.1179 9.97586 31.9834 10 31.859 10V13ZM3 19.9632H6C6 20.1221 5.96489 20.2633 5.91958 20.37C5.87695 20.4705 5.83405 20.5209 5.82669 20.5292C5.81977 20.537 5.83511 20.5184 5.88304 20.4856C5.93019 20.4535 5.99158 20.4196 6.06106 20.3908L4.91309 17.6191L3.76511 14.8475C2.30523 15.4521 0 17.0806 0 19.9632H3ZM7 43V40C6.44772 40 6 39.5523 6 39H3H0C0 42.866 3.134 46 7 46V43ZM178 39H175C175 39.5523 174.552 40 174 40V43V46C177.866 46 181 42.866 181 39H178ZM7.61914 14.9131L10.3908 16.061C10.4196 15.9915 10.4535 15.9302 10.4856 15.883C10.5184 15.8351 10.537 15.8198 10.5292 15.8267C10.5209 15.8341 10.4704 15.877 10.37 15.9196C10.2633 15.9649 10.1221 16 9.9632 16V13V10C7.0806 10 5.45211 12.3052 4.84744 13.7652L7.61914 14.9131ZM171.037 13V16C170.878 16 170.737 15.9649 170.63 15.9196C170.53 15.877 170.479 15.8341 170.471 15.8267C170.463 15.8198 170.482 15.8351 170.514 15.883C170.547 15.9302 170.58 15.9915 170.609 16.061L173.381 14.9131L176.153 13.7652C175.548 12.3052 173.919 10 171.037 10V13ZM176.087 17.6191L174.939 20.3908C175.008 20.4196 175.07 20.4535 175.117 20.4856C175.165 20.5184 175.18 20.537 175.173 20.5292C175.166 20.5209 175.123 20.4705 175.08 20.37C175.035 20.2633 175 20.1221 175 19.9632H178H181C181 17.0806 178.695 15.4521 177.235 14.8475L176.087 17.6191ZM147.645 12.7128L146.544 15.5037C147.361 15.8256 148.241 16 149.141 16V13V10C149.017 10 148.882 9.97586 148.745 9.92188L147.645 12.7128Z" fill="#453D54" mask="url(#path-1-outside-1_178_30)"/>
<mask id="path-3-inside-2_178_30" fill="white">
<path d="M90.5 3C101.991 3 113.368 4.03478 123.984 6.04492C132.61 7.67832 140.595 9.93316 147.645 12.7128C148.121 12.9007 148.629 13 149.141 13H171.037C172.121 13 172.966 13.9114 173.381 14.9131C173.632 15.5197 174.001 16.0709 174.465 16.5352C174.929 16.9995 175.48 17.3679 176.087 17.6191C177.089 18.034 178 18.879 178 19.9632V39C178 41.2091 176.209 43 174 43H7C4.79086 43 3 41.2091 3 39V19.9632C3 18.879 3.91136 18.034 4.91309 17.6191C5.51971 17.3679 6.07086 16.9995 6.53516 16.5352C6.99943 16.0709 7.36788 15.5197 7.61914 14.9131C8.03401 13.9113 8.87896 13 9.9632 13H31.859C32.3714 13 32.8786 12.9007 33.3553 12.7128C40.4049 9.93316 48.3895 7.67832 57.0156 6.04492C67.6315 4.03478 79.0095 3 90.5 3Z"/>
</mask>
<path d="M90.5 3C101.991 3 113.368 4.03478 123.984 6.04492C132.61 7.67832 140.595 9.93316 147.645 12.7128C148.121 12.9007 148.629 13 149.141 13H171.037C172.121 13 172.966 13.9114 173.381 14.9131C173.632 15.5197 174.001 16.0709 174.465 16.5352C174.929 16.9995 175.48 17.3679 176.087 17.6191C177.089 18.034 178 18.879 178 19.9632V39C178 41.2091 176.209 43 174 43H7C4.79086 43 3 41.2091 3 39V19.9632C3 18.879 3.91136 18.034 4.91309 17.6191C5.51971 17.3679 6.07086 16.9995 6.53516 16.5352C6.99943 16.0709 7.36788 15.5197 7.61914 14.9131C8.03401 13.9113 8.87896 13 9.9632 13H31.859C32.3714 13 32.8786 12.9007 33.3553 12.7128C40.4049 9.93316 48.3895 7.67832 57.0156 6.04492C67.6315 4.03478 79.0095 3 90.5 3Z" fill="#4A4959"/>
<path d="M90.5 3L90.5 1L90.5 1L90.5 3ZM123.984 6.04492L124.356 4.07984L124.356 4.07984L123.984 6.04492ZM173.381 14.9131L171.533 15.6784L171.533 15.6785L173.381 14.9131ZM174.465 16.5352L173.051 17.9494L173.051 17.9494L174.465 16.5352ZM176.087 17.6191L175.322 19.4669L175.322 19.4669L176.087 17.6191ZM4.91309 17.6191L5.6784 19.4669L5.67845 19.4669L4.91309 17.6191ZM6.53516 16.5352L7.94937 17.9494L7.94939 17.9493L6.53516 16.5352ZM7.61914 14.9131L9.4669 15.6785L9.46694 15.6784L7.61914 14.9131ZM57.0156 6.04492L56.6435 4.07984L56.6435 4.07984L57.0156 6.04492ZM33.3553 12.7128L34.0889 14.5734L33.3553 12.7128ZM147.645 12.7128L146.911 14.5734L147.645 12.7128ZM90.5 3L90.5 5C101.874 5 113.127 6.0245 123.612 8.01L123.984 6.04492L124.356 4.07984C113.61 2.04505 102.108 1 90.5 1L90.5 3ZM123.984 6.04492L123.612 8.01C132.133 9.62338 139.994 11.8461 146.911 14.5734L147.645 12.7128L148.378 10.8522C141.196 8.02026 133.088 5.73326 124.356 4.07984L123.984 6.04492ZM149.141 13V15H171.037V13V11H149.141V13ZM173.381 14.9131L171.533 15.6785C171.885 16.528 172.401 17.2996 173.051 17.9494L174.465 16.5352L175.879 15.121C175.6 14.8422 175.379 14.5114 175.229 14.1477L173.381 14.9131ZM174.465 16.5352L173.051 17.9494C173.7 18.5992 174.472 19.115 175.322 19.4669L176.087 17.6191L176.852 15.7714C176.489 15.6207 176.158 15.3997 175.879 15.1209L174.465 16.5352ZM178 19.9632H176V39H178H180V19.9632H178ZM174 43V41H7V43V45H174V43ZM3 39H5V19.9632H3H1V39H3ZM4.91309 17.6191L5.67845 19.4669C6.52797 19.115 7.29954 18.5992 7.94937 17.9494L6.53516 16.5352L5.12094 15.1209C4.84218 15.3997 4.51146 15.6207 4.14772 15.7714L4.91309 17.6191ZM6.53516 16.5352L7.94939 17.9493C8.59916 17.2996 9.11502 16.528 9.4669 15.6785L7.61914 14.9131L5.77138 14.1477C5.62073 14.5114 5.39969 14.8422 5.12092 15.121L6.53516 16.5352ZM9.9632 13V15H31.859V13V11H9.9632V13ZM33.3553 12.7128L34.0889 14.5734C41.0058 11.8461 48.8674 9.62338 57.3877 8.01L57.0156 6.04492L56.6435 4.07984C47.9117 5.73326 39.8039 8.02026 32.6217 10.8522L33.3553 12.7128ZM57.0156 6.04492L57.3877 8.01C67.8735 6.0245 79.1265 5 90.5 5L90.5 3L90.5 1C78.8925 1 67.3895 2.04506 56.6435 4.07984L57.0156 6.04492ZM31.859 13V15C32.63 15 33.3857 14.8506 34.0889 14.5734L33.3553 12.7128L32.6217 10.8522C32.3715 10.9508 32.1128 11 31.859 11V13ZM3 19.9632H5C5 20.0151 4.9715 19.9866 5.07809 19.8662C5.19472 19.7345 5.40435 19.5804 5.6784 19.4669L4.91309 17.6191L4.14777 15.7714C2.84061 16.3128 1 17.68 1 19.9632H3ZM7 43V41C5.89543 41 5 40.1046 5 39H3H1C1 42.3137 3.68629 45 7 45V43ZM178 39H176C176 40.1046 175.105 41 174 41V43V45C177.314 45 180 42.3137 180 39H178ZM7.61914 14.9131L9.46694 15.6784C9.58043 15.4043 9.73451 15.1947 9.8662 15.0781C9.98655 14.9715 10.0151 15 9.9632 15V13V11C7.68005 11 6.31274 12.8406 5.77134 14.1478L7.61914 14.9131ZM171.037 13V15C170.985 15 171.013 14.9715 171.134 15.0781C171.265 15.1947 171.42 15.4043 171.533 15.6784L173.381 14.9131L175.229 14.1478C174.687 12.8406 173.32 11 171.037 11V13ZM176.087 17.6191L175.322 19.4669C175.596 19.5804 175.805 19.7345 175.922 19.8662C176.029 19.9866 176 20.0151 176 19.9632H178H180C180 17.68 178.159 16.3128 176.852 15.7714L176.087 17.6191ZM147.645 12.7128L146.911 14.5734C147.614 14.8506 148.37 15 149.141 15V13V11C148.887 11 148.629 10.9508 148.378 10.8522L147.645 12.7128Z" fill="#C3BFD5" mask="url(#path-3-inside-2_178_30)"/>
<path d="M90.5 3L90.5 1L90.5 1L90.5 3ZM123.984 6.04492L124.356 4.07984L124.356 4.07984L123.984 6.04492ZM173.381 14.9131L171.533 15.6784L171.533 15.6785L173.381 14.9131ZM174.465 16.5352L173.051 17.9494L173.051 17.9494L174.465 16.5352ZM176.087 17.6191L175.322 19.4669L175.322 19.4669L176.087 17.6191ZM4.91309 17.6191L5.6784 19.4669L5.67845 19.4669L4.91309 17.6191ZM6.53516 16.5352L7.94937 17.9494L7.94939 17.9493L6.53516 16.5352ZM7.61914 14.9131L9.4669 15.6785L9.46694 15.6784L7.61914 14.9131ZM57.0156 6.04492L56.6435 4.07984L56.6435 4.07984L57.0156 6.04492ZM33.3553 12.7128L34.0889 14.5734L33.3553 12.7128ZM147.645 12.7128L146.911 14.5734L147.645 12.7128ZM90.5 3L90.5 5C101.874 5 113.127 6.0245 123.612 8.01L123.984 6.04492L124.356 4.07984C113.61 2.04505 102.108 1 90.5 1L90.5 3ZM123.984 6.04492L123.612 8.01C132.133 9.62338 139.994 11.8461 146.911 14.5734L147.645 12.7128L148.378 10.8522C141.196 8.02026 133.088 5.73326 124.356 4.07984L123.984 6.04492ZM149.141 13V15H171.037V13V11H149.141V13ZM173.381 14.9131L171.533 15.6785C171.885 16.528 172.401 17.2996 173.051 17.9494L174.465 16.5352L175.879 15.121C175.6 14.8422 175.379 14.5114 175.229 14.1477L173.381 14.9131ZM174.465 16.5352L173.051 17.9494C173.7 18.5992 174.472 19.115 175.322 19.4669L176.087 17.6191L176.852 15.7714C176.489 15.6207 176.158 15.3997 175.879 15.1209L174.465 16.5352ZM178 19.9632H176V39H178H180V19.9632H178ZM174 43V41H7V43V45H174V43ZM3 39H5V19.9632H3H1V39H3ZM4.91309 17.6191L5.67845 19.4669C6.52797 19.115 7.29954 18.5992 7.94937 17.9494L6.53516 16.5352L5.12094 15.1209C4.84218 15.3997 4.51146 15.6207 4.14772 15.7714L4.91309 17.6191ZM6.53516 16.5352L7.94939 17.9493C8.59916 17.2996 9.11502 16.528 9.4669 15.6785L7.61914 14.9131L5.77138 14.1477C5.62073 14.5114 5.39969 14.8422 5.12092 15.121L6.53516 16.5352ZM9.9632 13V15H31.859V13V11H9.9632V13ZM33.3553 12.7128L34.0889 14.5734C41.0058 11.8461 48.8674 9.62338 57.3877 8.01L57.0156 6.04492L56.6435 4.07984C47.9117 5.73326 39.8039 8.02026 32.6217 10.8522L33.3553 12.7128ZM57.0156 6.04492L57.3877 8.01C67.8735 6.0245 79.1265 5 90.5 5L90.5 3L90.5 1C78.8925 1 67.3895 2.04506 56.6435 4.07984L57.0156 6.04492ZM31.859 13V15C32.63 15 33.3857 14.8506 34.0889 14.5734L33.3553 12.7128L32.6217 10.8522C32.3715 10.9508 32.1128 11 31.859 11V13ZM3 19.9632H5C5 20.0151 4.9715 19.9866 5.07809 19.8662C5.19472 19.7345 5.40435 19.5804 5.6784 19.4669L4.91309 17.6191L4.14777 15.7714C2.84061 16.3128 1 17.68 1 19.9632H3ZM7 43V41C5.89543 41 5 40.1046 5 39H3H1C1 42.3137 3.68629 45 7 45V43ZM178 39H176C176 40.1046 175.105 41 174 41V43V45C177.314 45 180 42.3137 180 39H178ZM7.61914 14.9131L9.46694 15.6784C9.58043 15.4043 9.73451 15.1947 9.8662 15.0781C9.98655 14.9715 10.0151 15 9.9632 15V13V11C7.68005 11 6.31274 12.8406 5.77134 14.1478L7.61914 14.9131ZM171.037 13V15C170.985 15 171.013 14.9715 171.134 15.0781C171.265 15.1947 171.42 15.4043 171.533 15.6784L173.381 14.9131L175.229 14.1478C174.687 12.8406 173.32 11 171.037 11V13ZM176.087 17.6191L175.322 19.4669C175.596 19.5804 175.805 19.7345 175.922 19.8662C176.029 19.9866 176 20.0151 176 19.9632H178H180C180 17.68 178.159 16.3128 176.852 15.7714L176.087 17.6191ZM147.645 12.7128L146.911 14.5734C147.614 14.8506 148.37 15 149.141 15V13V11C148.887 11 148.629 10.9508 148.378 10.8522L147.645 12.7128Z" fill="#C3BFD5" mask="url(#path-3-inside-2_178_30)"/>
<path d="M39.6548 31.662C38.5388 31.662 37.5488 31.398 36.6848 30.87C35.8328 30.33 35.1608 29.586 34.6688 28.638C34.1768 27.678 33.9308 26.574 33.9308 25.326C33.9308 24.294 34.0988 23.394 34.4348 22.626C34.7708 21.858 35.2208 21.216 35.7848 20.7C36.3608 20.184 37.0028 19.8 37.7108 19.548C38.4308 19.296 39.1748 19.17 39.9428 19.17C40.6988 19.17 41.3888 19.248 42.0128 19.404C42.6368 19.56 43.2788 19.794 43.9388 20.106C43.8548 20.526 43.8008 20.976 43.7768 21.456C43.7528 21.924 43.7408 22.404 43.7408 22.896C43.5848 22.956 43.4348 22.998 43.2908 23.022C43.1468 23.046 42.9788 23.058 42.7868 23.058C42.7628 22.206 42.6368 21.552 42.4088 21.096C42.1808 20.64 41.8688 20.328 41.4728 20.16C41.0768 19.992 40.6148 19.908 40.0868 19.908C39.3308 19.908 38.6828 20.046 38.1428 20.322C37.6028 20.598 37.1588 20.97 36.8108 21.438C36.4748 21.894 36.2228 22.416 36.0548 23.004C35.8988 23.592 35.8208 24.204 35.8208 24.84C35.8208 25.908 36.0008 26.88 36.3608 27.756C36.7328 28.62 37.2608 29.304 37.9448 29.808C38.6288 30.312 39.4508 30.564 40.4108 30.564C40.9868 30.564 41.5748 30.468 42.1748 30.276C42.7748 30.084 43.3268 29.826 43.8308 29.502C43.9028 29.562 43.9688 29.652 44.0288 29.772C44.1008 29.88 44.1428 29.976 44.1548 30.06C43.4468 30.612 42.7448 31.02 42.0488 31.284C41.3648 31.536 40.5668 31.662 39.6548 31.662ZM48.6785 28.854C48.6785 29.37 48.7325 29.766 48.8405 30.042C48.9485 30.306 49.1225 30.492 49.3625 30.6C49.6025 30.696 49.9085 30.756 50.2805 30.78C50.3165 30.876 50.3405 30.99 50.3525 31.122C50.3645 31.242 50.3705 31.386 50.3705 31.554C50.1905 31.542 49.9745 31.53 49.7225 31.518C49.4825 31.518 49.2245 31.512 48.9485 31.5C48.6725 31.5 48.3905 31.5 48.1025 31.5C47.6825 31.5 47.2385 31.5 46.7705 31.5C46.3145 31.512 45.9665 31.53 45.7265 31.554C45.7265 31.386 45.7325 31.242 45.7445 31.122C45.7565 30.99 45.7805 30.876 45.8165 30.78C46.1405 30.756 46.3925 30.702 46.5725 30.618C46.7525 30.522 46.8785 30.366 46.9505 30.15C47.0225 29.922 47.0585 29.61 47.0585 29.214V27.414H48.6785V28.854ZM48.6785 26.226V27.648H47.0585V25.65L48.6785 23.886C48.6785 24.294 48.6425 24.666 48.5705 25.002C48.4985 25.326 48.4325 25.65 48.3725 25.974L48.6785 26.226ZM48.2825 26.082C48.4145 25.746 48.5165 25.47 48.5885 25.254C48.6605 25.038 48.7385 24.858 48.8225 24.714C49.0865 24.294 49.3985 23.946 49.7585 23.67C50.1185 23.394 50.5325 23.256 51.0005 23.256C51.4565 23.256 51.8705 23.4 52.2425 23.688C52.2185 23.88 52.1945 24.102 52.1705 24.354C52.1465 24.606 52.1285 24.858 52.1165 25.11C52.1165 25.362 52.1165 25.596 52.1165 25.812C52.0085 25.848 51.8585 25.884 51.6665 25.92C51.4865 25.956 51.2945 25.974 51.0905 25.974C51.0665 25.398 50.9705 25.02 50.8025 24.84C50.6465 24.66 50.4485 24.57 50.2085 24.57C50.0045 24.57 49.7825 24.69 49.5425 24.93C49.3025 25.158 49.0985 25.464 48.9305 25.848C48.7625 26.232 48.6785 26.658 48.6785 27.126L48.2825 26.082ZM47.0585 27.648V25.65C47.0585 25.362 47.0285 25.128 46.9685 24.948C46.9085 24.768 46.7825 24.63 46.5905 24.534C46.3985 24.438 46.1045 24.384 45.7085 24.372C45.7085 24.24 45.7205 24.12 45.7445 24.012C45.7685 23.904 45.8105 23.802 45.8705 23.706C46.2425 23.682 46.6685 23.61 47.1485 23.49C47.6285 23.37 48.0065 23.238 48.2825 23.094C48.3905 23.13 48.4805 23.208 48.5525 23.328C48.6365 23.436 48.6785 23.622 48.6785 23.886L47.0585 27.648ZM57.1376 31.662C56.2856 31.662 55.5776 31.47 55.0136 31.086C54.4496 30.702 54.0236 30.186 53.7356 29.538C53.4596 28.878 53.3216 28.158 53.3216 27.378C53.3216 26.61 53.4716 25.902 53.7716 25.254C54.0716 24.606 54.4976 24.084 55.0496 23.688C55.6136 23.292 56.2796 23.094 57.0476 23.094C57.8276 23.094 58.4516 23.262 58.9196 23.598C59.3996 23.934 59.7536 24.384 59.9816 24.948C60.2216 25.512 60.3656 26.136 60.4136 26.82C60.3656 27.06 60.2756 27.264 60.1436 27.432C59.9396 27.432 59.6336 27.432 59.2256 27.432C58.8176 27.432 58.3556 27.438 57.8396 27.45C57.3236 27.45 56.7956 27.462 56.2556 27.486C55.7156 27.498 55.2056 27.516 54.7256 27.54V26.622H58.5416C58.5416 25.83 58.3976 25.188 58.1096 24.696C57.8216 24.204 57.4136 23.958 56.8856 23.958C56.5976 23.958 56.3156 24.048 56.0396 24.228C55.7636 24.396 55.5356 24.702 55.3556 25.146C55.1756 25.578 55.0856 26.196 55.0856 27C55.0856 27.588 55.1576 28.164 55.3016 28.728C55.4576 29.28 55.7216 29.742 56.0936 30.114C56.4776 30.474 57.0176 30.654 57.7136 30.654C58.1096 30.654 58.4996 30.564 58.8836 30.384C59.2676 30.204 59.6096 29.946 59.9096 29.61C60.0056 29.658 60.0956 29.742 60.1796 29.862C60.2756 29.97 60.3296 30.072 60.3416 30.168C59.9336 30.708 59.4596 31.092 58.9196 31.32C58.3916 31.548 57.7976 31.662 57.1376 31.662ZM67.301 31.662C67.169 31.602 67.061 31.494 66.977 31.338C66.905 31.182 66.869 30.936 66.869 30.6C66.869 30.492 66.875 30.366 66.887 30.222C66.899 30.066 66.923 29.928 66.959 29.808H66.995C66.959 30 66.875 30.21 66.743 30.438C66.623 30.654 66.461 30.846 66.257 31.014C66.053 31.194 65.795 31.344 65.483 31.464C65.171 31.572 64.793 31.626 64.349 31.626C63.593 31.626 63.017 31.458 62.621 31.122C62.225 30.774 62.027 30.306 62.027 29.718C62.027 29.25 62.135 28.854 62.351 28.53C62.579 28.194 62.867 27.918 63.215 27.702C63.575 27.474 63.959 27.294 64.367 27.162C64.787 27.03 65.195 26.928 65.591 26.856C65.987 26.784 66.335 26.724 66.635 26.676C66.635 26.184 66.623 25.8 66.599 25.524C66.587 25.248 66.551 25.032 66.491 24.876C66.443 24.708 66.365 24.564 66.257 24.444C66.113 24.264 65.945 24.132 65.753 24.048C65.573 23.952 65.369 23.904 65.141 23.904C64.745 23.904 64.433 24.03 64.205 24.282C63.977 24.522 63.815 24.804 63.719 25.128C63.623 25.452 63.569 25.74 63.557 25.992C63.425 25.992 63.257 25.986 63.053 25.974C62.861 25.95 62.717 25.914 62.621 25.866C62.645 25.566 62.651 25.23 62.639 24.858C62.627 24.486 62.591 24.168 62.531 23.904C63.023 23.652 63.539 23.454 64.079 23.31C64.631 23.166 65.135 23.094 65.591 23.094C66.035 23.094 66.413 23.16 66.725 23.292C67.049 23.412 67.307 23.574 67.499 23.778C67.811 24.078 68.015 24.474 68.111 24.966C68.207 25.446 68.255 26.088 68.255 26.892V28.872C68.255 29.208 68.279 29.478 68.327 29.682C68.387 29.874 68.495 30.018 68.651 30.114C68.807 30.198 69.047 30.252 69.371 30.276C69.371 30.396 69.365 30.534 69.353 30.69C69.341 30.834 69.311 30.972 69.263 31.104C68.963 31.116 68.627 31.176 68.255 31.284C67.895 31.38 67.577 31.506 67.301 31.662ZM64.853 30.636C65.117 30.636 65.387 30.552 65.663 30.384C65.939 30.204 66.167 29.928 66.347 29.556C66.539 29.184 66.635 28.698 66.635 28.098V27.414C66.335 27.45 66.017 27.504 65.681 27.576C65.345 27.636 65.033 27.732 64.745 27.864C64.457 27.996 64.223 28.182 64.043 28.422C63.863 28.65 63.773 28.962 63.773 29.358C63.773 29.802 63.881 30.126 64.097 30.33C64.313 30.534 64.565 30.636 64.853 30.636ZM73.5721 31.662C72.8641 31.662 72.3361 31.482 71.9881 31.122C71.6521 30.75 71.4841 30.156 71.4841 29.34V24.462C71.3041 24.402 71.1181 24.354 70.9261 24.318C70.7341 24.27 70.4881 24.24 70.1881 24.228C70.1881 24.072 70.2001 23.94 70.2241 23.832C70.2481 23.712 70.2901 23.58 70.3501 23.436H71.4841V21.06C71.7241 21 71.9581 20.904 72.1861 20.772C72.4261 20.64 72.6361 20.496 72.8161 20.34C72.9361 20.388 73.0141 20.46 73.0501 20.556C73.0861 20.652 73.1041 20.892 73.1041 21.276V23.436H75.4441C75.4441 23.556 75.4321 23.688 75.4081 23.832C75.3841 23.964 75.3421 24.096 75.2821 24.228C74.8501 24.24 74.4541 24.27 74.0941 24.318C73.7341 24.354 73.4041 24.402 73.1041 24.462V28.962C73.1041 29.358 73.1461 29.688 73.2301 29.952C73.3141 30.204 73.4341 30.39 73.5901 30.51C73.7461 30.63 73.9321 30.69 74.1481 30.69C74.4001 30.69 74.6161 30.654 74.7961 30.582C74.9881 30.51 75.1681 30.402 75.3361 30.258C75.4921 30.438 75.5821 30.636 75.6061 30.852C75.4141 31.08 75.1201 31.272 74.7241 31.428C74.3401 31.584 73.9561 31.662 73.5721 31.662ZM80.4989 31.662C79.6469 31.662 78.9389 31.47 78.3749 31.086C77.8109 30.702 77.3849 30.186 77.0969 29.538C76.8209 28.878 76.6829 28.158 76.6829 27.378C76.6829 26.61 76.8329 25.902 77.1329 25.254C77.4329 24.606 77.8589 24.084 78.4109 23.688C78.9749 23.292 79.6409 23.094 80.4089 23.094C81.1889 23.094 81.8129 23.262 82.2809 23.598C82.7609 23.934 83.1149 24.384 83.3429 24.948C83.5829 25.512 83.7269 26.136 83.7749 26.82C83.7269 27.06 83.6369 27.264 83.5049 27.432C83.3009 27.432 82.9949 27.432 82.5869 27.432C82.1789 27.432 81.7169 27.438 81.2009 27.45C80.6849 27.45 80.1569 27.462 79.6169 27.486C79.0769 27.498 78.5669 27.516 78.0869 27.54V26.622H81.9029C81.9029 25.83 81.7589 25.188 81.4709 24.696C81.1829 24.204 80.7749 23.958 80.2469 23.958C79.9589 23.958 79.6769 24.048 79.4009 24.228C79.1249 24.396 78.8969 24.702 78.7169 25.146C78.5369 25.578 78.4469 26.196 78.4469 27C78.4469 27.588 78.5189 28.164 78.6629 28.728C78.8189 29.28 79.0829 29.742 79.4549 30.114C79.8389 30.474 80.3789 30.654 81.0749 30.654C81.4709 30.654 81.8609 30.564 82.2449 30.384C82.6289 30.204 82.9709 29.946 83.2709 29.61C83.3669 29.658 83.4569 29.742 83.5409 29.862C83.6369 29.97 83.6909 30.072 83.7029 30.168C83.2949 30.708 82.8209 31.092 82.2809 31.32C81.7529 31.548 81.1589 31.662 80.4989 31.662ZM94.2658 31.662C94.1338 31.602 94.0258 31.494 93.9418 31.338C93.8698 31.182 93.8338 30.936 93.8338 30.6C93.8338 30.492 93.8398 30.366 93.8518 30.222C93.8638 30.066 93.8878 29.928 93.9238 29.808H93.9598C93.9238 30 93.8398 30.21 93.7078 30.438C93.5878 30.654 93.4258 30.846 93.2218 31.014C93.0178 31.194 92.7598 31.344 92.4478 31.464C92.1358 31.572 91.7578 31.626 91.3138 31.626C90.5578 31.626 89.9818 31.458 89.5858 31.122C89.1898 30.774 88.9918 30.306 88.9918 29.718C88.9918 29.25 89.0998 28.854 89.3158 28.53C89.5438 28.194 89.8318 27.918 90.1798 27.702C90.5398 27.474 90.9238 27.294 91.3318 27.162C91.7518 27.03 92.1598 26.928 92.5558 26.856C92.9518 26.784 93.2998 26.724 93.5998 26.676C93.5998 26.184 93.5878 25.8 93.5638 25.524C93.5518 25.248 93.5158 25.032 93.4558 24.876C93.4078 24.708 93.3298 24.564 93.2218 24.444C93.0778 24.264 92.9098 24.132 92.7178 24.048C92.5378 23.952 92.3338 23.904 92.1058 23.904C91.7098 23.904 91.3978 24.03 91.1698 24.282C90.9418 24.522 90.7798 24.804 90.6838 25.128C90.5878 25.452 90.5338 25.74 90.5218 25.992C90.3898 25.992 90.2218 25.986 90.0178 25.974C89.8258 25.95 89.6818 25.914 89.5858 25.866C89.6098 25.566 89.6158 25.23 89.6038 24.858C89.5918 24.486 89.5558 24.168 89.4958 23.904C89.9878 23.652 90.5038 23.454 91.0438 23.31C91.5958 23.166 92.0998 23.094 92.5558 23.094C92.9998 23.094 93.3778 23.16 93.6898 23.292C94.0138 23.412 94.2718 23.574 94.4638 23.778C94.7758 24.078 94.9798 24.474 95.0758 24.966C95.1718 25.446 95.2198 26.088 95.2198 26.892V28.872C95.2198 29.208 95.2438 29.478 95.2918 29.682C95.3518 29.874 95.4598 30.018 95.6158 30.114C95.7718 30.198 96.0118 30.252 96.3358 30.276C96.3358 30.396 96.3298 30.534 96.3178 30.69C96.3058 30.834 96.2758 30.972 96.2278 31.104C95.9278 31.116 95.5918 31.176 95.2198 31.284C94.8598 31.38 94.5418 31.506 94.2658 31.662ZM91.8178 30.636C92.0818 30.636 92.3518 30.552 92.6278 30.384C92.9038 30.204 93.1318 29.928 93.3118 29.556C93.5038 29.184 93.5998 28.698 93.5998 28.098V27.414C93.2998 27.45 92.9818 27.504 92.6458 27.576C92.3098 27.636 91.9978 27.732 91.7098 27.864C91.4218 27.996 91.1878 28.182 91.0078 28.422C90.8278 28.65 90.7378 28.962 90.7378 29.358C90.7378 29.802 90.8458 30.126 91.0618 30.33C91.2778 30.534 91.5298 30.636 91.8178 30.636ZM109.606 31.662C109.366 31.266 109.168 30.936 109.012 30.672C108.856 30.396 108.718 30.144 108.598 29.916C108.478 29.676 108.34 29.418 108.184 29.142C107.956 28.71 107.734 28.32 107.518 27.972C107.302 27.624 107.05 27.27 106.762 26.91C106.486 26.55 106.138 26.154 105.718 25.722L106.186 25.956C105.874 25.968 105.586 25.974 105.322 25.974C105.058 25.974 104.806 25.968 104.566 25.956V25.11C104.734 25.134 104.89 25.152 105.034 25.164C105.178 25.176 105.328 25.182 105.484 25.182C106.144 25.182 106.738 25.092 107.266 24.912C107.794 24.72 108.214 24.426 108.526 24.03C108.838 23.634 108.994 23.124 108.994 22.5C108.994 21.792 108.766 21.216 108.31 20.772C107.866 20.316 107.104 20.088 106.024 20.088C105.748 20.088 105.502 20.1 105.286 20.124C105.07 20.148 104.842 20.19 104.602 20.25L104.692 20.052V29.214C104.692 29.61 104.728 29.922 104.8 30.15C104.872 30.366 104.992 30.522 105.16 30.618C105.34 30.702 105.58 30.756 105.88 30.78C105.916 30.888 105.94 31.014 105.952 31.158C105.964 31.29 105.97 31.422 105.97 31.554C105.718 31.53 105.454 31.512 105.178 31.5C104.902 31.5 104.644 31.5 104.404 31.5C104.176 31.5 103.984 31.5 103.828 31.5C103.516 31.5 103.144 31.5 102.712 31.5C102.292 31.512 101.944 31.53 101.668 31.554C101.668 31.422 101.674 31.29 101.686 31.158C101.698 31.026 101.722 30.9 101.758 30.78C102.082 30.756 102.334 30.702 102.514 30.618C102.694 30.522 102.82 30.366 102.892 30.15C102.964 29.922 103 29.61 103 29.214V21.618C103 21.21 102.964 20.898 102.892 20.682C102.82 20.454 102.694 20.292 102.514 20.196C102.334 20.1 102.082 20.052 101.758 20.052C101.722 19.932 101.698 19.812 101.686 19.692C101.674 19.572 101.668 19.44 101.668 19.296C101.848 19.308 102.148 19.32 102.568 19.332C102.988 19.332 103.408 19.332 103.828 19.332C104.32 19.332 104.818 19.326 105.322 19.314C105.826 19.302 106.33 19.296 106.834 19.296C107.746 19.296 108.49 19.428 109.066 19.692C109.642 19.956 110.068 20.316 110.344 20.772C110.62 21.228 110.758 21.744 110.758 22.32C110.758 22.872 110.626 23.376 110.362 23.832C110.098 24.276 109.72 24.654 109.228 24.966C108.748 25.266 108.172 25.494 107.5 25.65L107.59 25.434C107.926 25.782 108.208 26.112 108.436 26.424C108.676 26.736 108.922 27.09 109.174 27.486C109.426 27.882 109.726 28.38 110.074 28.98C110.326 29.4 110.548 29.736 110.74 29.988C110.944 30.228 111.178 30.408 111.442 30.528C111.706 30.636 112.06 30.702 112.504 30.726C112.504 30.87 112.498 31.002 112.486 31.122C112.486 31.242 112.468 31.368 112.432 31.5C111.988 31.5 111.514 31.506 111.01 31.518C110.518 31.542 110.05 31.59 109.606 31.662ZM117.401 31.662C116.585 31.662 115.871 31.488 115.259 31.14C114.647 30.78 114.173 30.282 113.837 29.646C113.501 28.998 113.333 28.242 113.333 27.378C113.333 26.562 113.507 25.83 113.855 25.182C114.203 24.534 114.683 24.024 115.295 23.652C115.907 23.28 116.609 23.094 117.401 23.094C118.253 23.094 118.979 23.274 119.579 23.634C120.191 23.994 120.659 24.498 120.983 25.146C121.307 25.782 121.469 26.526 121.469 27.378C121.469 28.194 121.295 28.926 120.947 29.574C120.611 30.222 120.137 30.732 119.525 31.104C118.925 31.476 118.217 31.662 117.401 31.662ZM117.545 30.798C118.265 30.798 118.799 30.504 119.147 29.916C119.495 29.316 119.669 28.542 119.669 27.594C119.669 26.85 119.555 26.208 119.327 25.668C119.111 25.116 118.817 24.696 118.445 24.408C118.073 24.108 117.665 23.958 117.221 23.958C116.525 23.958 116.003 24.24 115.655 24.804C115.319 25.368 115.151 26.1 115.151 27C115.151 27.804 115.247 28.494 115.439 29.07C115.643 29.634 115.925 30.066 116.285 30.366C116.645 30.654 117.065 30.798 117.545 30.798ZM126.981 31.662C126.165 31.662 125.451 31.488 124.839 31.14C124.227 30.78 123.753 30.282 123.417 29.646C123.081 28.998 122.913 28.242 122.913 27.378C122.913 26.562 123.087 25.83 123.435 25.182C123.783 24.534 124.263 24.024 124.875 23.652C125.487 23.28 126.189 23.094 126.981 23.094C127.833 23.094 128.559 23.274 129.159 23.634C129.771 23.994 130.239 24.498 130.563 25.146C130.887 25.782 131.049 26.526 131.049 27.378C131.049 28.194 130.875 28.926 130.527 29.574C130.191 30.222 129.717 30.732 129.105 31.104C128.505 31.476 127.797 31.662 126.981 31.662ZM127.125 30.798C127.845 30.798 128.379 30.504 128.727 29.916C129.075 29.316 129.249 28.542 129.249 27.594C129.249 26.85 129.135 26.208 128.907 25.668C128.691 25.116 128.397 24.696 128.025 24.408C127.653 24.108 127.245 23.958 126.801 23.958C126.105 23.958 125.583 24.24 125.235 24.804C124.899 25.368 124.731 26.1 124.731 27C124.731 27.804 124.827 28.494 125.019 29.07C125.223 29.634 125.505 30.066 125.865 30.366C126.225 30.654 126.645 30.798 127.125 30.798ZM132.439 31.554C132.439 31.386 132.445 31.242 132.457 31.122C132.469 30.99 132.493 30.876 132.529 30.78C133.009 30.756 133.333 30.642 133.501 30.438C133.681 30.222 133.771 29.814 133.771 29.214V25.65C133.771 25.362 133.741 25.128 133.681 24.948C133.621 24.768 133.495 24.63 133.303 24.534C133.111 24.438 132.817 24.384 132.421 24.372C132.421 24.24 132.433 24.12 132.457 24.012C132.481 23.904 132.523 23.802 132.583 23.706C132.787 23.694 133.039 23.658 133.339 23.598C133.651 23.526 133.951 23.448 134.239 23.364C134.527 23.268 134.749 23.178 134.905 23.094C135.013 23.13 135.103 23.202 135.175 23.31C135.259 23.418 135.301 23.586 135.301 23.814C135.301 24.006 135.289 24.228 135.265 24.48C135.253 24.732 135.217 25.104 135.157 25.596L134.977 25.614C135.145 25.158 135.265 24.852 135.337 24.696C135.421 24.54 135.481 24.438 135.517 24.39C135.709 24.114 136.027 23.832 136.471 23.544C136.927 23.244 137.467 23.094 138.091 23.094C138.595 23.094 139.057 23.208 139.477 23.436C139.897 23.664 140.203 24.054 140.395 24.606C140.443 24.75 140.467 24.948 140.467 25.2H140.413C140.521 24.9 140.641 24.66 140.773 24.48C140.977 24.204 141.301 23.922 141.745 23.634C142.189 23.334 142.723 23.184 143.347 23.184C143.803 23.184 144.223 23.28 144.607 23.472C144.991 23.652 145.297 23.958 145.525 24.39C145.765 24.81 145.885 25.386 145.885 26.118V29.214C145.885 29.622 145.921 29.94 145.993 30.168C146.077 30.384 146.197 30.534 146.353 30.618C146.521 30.702 146.725 30.756 146.965 30.78C147.001 30.888 147.025 31.002 147.037 31.122C147.049 31.242 147.055 31.386 147.055 31.554C146.791 31.53 146.485 31.512 146.137 31.5C145.801 31.5 145.453 31.5 145.093 31.5C144.853 31.5 144.607 31.5 144.355 31.5C144.103 31.512 143.857 31.518 143.617 31.518C143.377 31.53 143.155 31.542 142.951 31.554C142.951 31.386 142.957 31.242 142.969 31.122C142.981 30.99 143.005 30.876 143.041 30.78C143.365 30.756 143.617 30.702 143.797 30.618C143.977 30.522 144.103 30.366 144.175 30.15C144.247 29.922 144.283 29.61 144.283 29.214V26.478C144.283 25.626 144.127 25.05 143.815 24.75C143.515 24.438 143.119 24.282 142.627 24.282C142.327 24.282 142.021 24.384 141.709 24.588C141.397 24.78 141.139 25.098 140.935 25.542C140.731 25.974 140.629 26.556 140.629 27.288V29.214C140.629 29.838 140.725 30.252 140.917 30.456C141.109 30.648 141.433 30.756 141.889 30.78C141.925 30.888 141.949 31.002 141.961 31.122C141.973 31.242 141.979 31.386 141.979 31.554C141.679 31.53 141.331 31.512 140.935 31.5C140.551 31.5 140.185 31.5 139.837 31.5C139.489 31.5 139.123 31.5 138.739 31.5C138.367 31.512 138.019 31.53 137.695 31.554C137.695 31.386 137.701 31.242 137.713 31.122C137.725 30.99 137.749 30.876 137.785 30.78C138.109 30.756 138.361 30.702 138.541 30.618C138.721 30.522 138.847 30.366 138.919 30.15C138.991 29.922 139.027 29.61 139.027 29.214V26.388C139.027 25.536 138.871 24.96 138.559 24.66C138.259 24.348 137.863 24.192 137.371 24.192C137.071 24.192 136.765 24.294 136.453 24.498C136.141 24.69 135.883 25.008 135.679 25.452C135.475 25.884 135.373 26.466 135.373 27.198V29.214C135.373 29.814 135.463 30.222 135.643 30.438C135.823 30.642 136.153 30.756 136.633 30.78C136.669 30.888 136.693 31.002 136.705 31.122C136.717 31.242 136.723 31.386 136.723 31.554C136.519 31.542 136.291 31.53 136.039 31.518C135.787 31.518 135.535 31.512 135.283 31.5C135.031 31.5 134.797 31.5 134.581 31.5C134.377 31.5 134.143 31.5 133.879 31.5C133.615 31.512 133.357 31.518 133.105 31.518C132.853 31.53 132.631 31.542 132.439 31.554Z" fill="#F6C893"/>
</svg>
