<svg width="300" height="38" viewBox="0 0 300 38" fill="none" xmlns="http://www.w3.org/2000/svg">
<mask id="path-1-outside-1_180_47" maskUnits="userSpaceOnUse" x="0" y="0" width="300" height="38" fill="black">
<rect fill="white" width="300" height="38"/>
<path d="M291 3.4165C291 4.19882 291.634 4.83301 292.417 4.83301H293.266C293.892 4.83301 294.399 5.3404 294.399 5.96631C294.399 6.59221 294.907 7.09961 295.533 7.09961H296.1C297.039 7.09961 297.8 7.86081 297.8 8.7998V30.333C297.8 31.272 297.039 32.0332 296.1 32.0332H295.533C294.907 32.0332 294.399 32.5406 294.399 33.1665C294.399 33.7924 293.892 34.2998 293.266 34.2998H291.85C291.381 34.2998 291 34.6804 291 35.1499C291 35.6194 290.619 36 290.15 36H9.64991C9.18041 36 8.7998 35.6194 8.7998 35.1499C8.7998 34.6804 8.4192 34.2998 7.94971 34.2998H6.53369C5.90779 34.2998 5.40039 33.7924 5.40039 33.1665C5.40039 32.5406 4.89299 32.0332 4.26709 32.0332H3.7002C2.7612 32.0332 2 31.272 2 30.333V8.79981C2 7.86081 2.7612 7.09961 3.7002 7.09961H4.26709C4.89299 7.09961 5.40039 6.59221 5.40039 5.96631C5.40039 5.3404 5.90779 4.83301 6.53369 4.83301H7.3833C8.16561 4.83301 8.7998 4.19882 8.7998 3.4165C8.7998 2.63419 9.434 2 10.2163 2H289.584C290.366 2 291 2.63419 291 3.4165Z"/>
</mask>
<path d="M291 3.4165C291 4.19882 291.634 4.83301 292.417 4.83301H293.266C293.892 4.83301 294.399 5.3404 294.399 5.96631C294.399 6.59221 294.907 7.09961 295.533 7.09961H296.1C297.039 7.09961 297.8 7.86081 297.8 8.7998V30.333C297.8 31.272 297.039 32.0332 296.1 32.0332H295.533C294.907 32.0332 294.399 32.5406 294.399 33.1665C294.399 33.7924 293.892 34.2998 293.266 34.2998H291.85C291.381 34.2998 291 34.6804 291 35.1499C291 35.6194 290.619 36 290.15 36H9.64991C9.18041 36 8.7998 35.6194 8.7998 35.1499C8.7998 34.6804 8.4192 34.2998 7.94971 34.2998H6.53369C5.90779 34.2998 5.40039 33.7924 5.40039 33.1665C5.40039 32.5406 4.89299 32.0332 4.26709 32.0332H3.7002C2.7612 32.0332 2 31.272 2 30.333V8.79981C2 7.86081 2.7612 7.09961 3.7002 7.09961H4.26709C4.89299 7.09961 5.40039 6.59221 5.40039 5.96631C5.40039 5.3404 5.90779 4.83301 6.53369 4.83301H7.3833C8.16561 4.83301 8.7998 4.19882 8.7998 3.4165C8.7998 2.63419 9.434 2 10.2163 2H289.584C290.366 2 291 2.63419 291 3.4165Z" fill="#E1D9CE"/>
<path d="M292.417 4.83301V6.83301H293.266V4.83301V2.83301H292.417V4.83301ZM295.533 7.09961V9.09961H296.1V7.09961V5.09961H295.533V7.09961ZM297.8 8.7998H295.8V30.333H297.8H299.8V8.7998H297.8ZM296.1 32.0332V30.0332H295.533V32.0332V34.0332H296.1V32.0332ZM293.266 34.2998V32.2998H291.85V34.2998V36.2998H293.266V34.2998ZM290.15 36V34H9.64991V36V38H290.15V36ZM7.94971 34.2998V32.2998H6.53369V34.2998V36.2998H7.94971V34.2998ZM4.26709 32.0332V30.0332H3.7002V32.0332V34.0332H4.26709V32.0332ZM2 30.333H4V8.79981H2H0V30.333H2ZM3.7002 7.09961V9.09961H4.26709V7.09961V5.09961H3.7002V7.09961ZM6.53369 4.83301V6.83301H7.3833V4.83301V2.83301H6.53369V4.83301ZM10.2163 2V4H289.584V2V0H10.2163V2ZM289.584 2V4C289.261 4 289 3.73875 289 3.4165H291H293C293 1.52963 291.47 0 289.584 0V2ZM8.7998 3.4165H10.7998C10.7998 3.73876 10.5386 4 10.2163 4V2V0C8.32943 0 6.7998 1.52962 6.7998 3.4165H8.7998ZM7.3833 4.83301V6.83301C9.27018 6.83301 10.7998 5.30339 10.7998 3.4165H8.7998H6.7998C6.7998 3.09425 7.06104 2.83301 7.3833 2.83301V4.83301ZM5.40039 5.96631H7.40039C7.40039 6.44497 7.01236 6.83301 6.53369 6.83301V4.83301V2.83301C4.80322 2.83301 3.40039 4.23583 3.40039 5.96631H5.40039ZM4.26709 7.09961V9.09961C5.99756 9.09961 7.40039 7.69678 7.40039 5.96631H5.40039H3.40039C3.40039 5.48764 3.78842 5.09961 4.26709 5.09961V7.09961ZM2 8.79981H4C4 8.96538 3.86577 9.09961 3.7002 9.09961V7.09961V5.09961C1.65663 5.09961 0 6.75624 0 8.79981H2ZM3.7002 32.0332V30.0332C3.86577 30.0332 4 30.1674 4 30.333H2H0C0 32.3766 1.65663 34.0332 3.7002 34.0332V32.0332ZM5.40039 33.1665H7.40039C7.40039 31.436 5.99756 30.0332 4.26709 30.0332V32.0332V34.0332C3.78843 34.0332 3.40039 33.6452 3.40039 33.1665H5.40039ZM6.53369 34.2998V32.2998C7.01236 32.2998 7.40039 32.6878 7.40039 33.1665H5.40039H3.40039C3.40039 34.897 4.80322 36.2998 6.53369 36.2998V34.2998ZM8.7998 35.1499H10.7998C10.7998 33.5758 9.52377 32.2998 7.94971 32.2998V34.2998V36.2998C7.31463 36.2998 6.7998 35.785 6.7998 35.1499H8.7998ZM9.64991 36V34C10.285 34 10.7998 34.5148 10.7998 35.1499H8.7998H6.7998C6.7998 36.724 8.07587 38 9.64991 38V36ZM291 35.1499H289C289 34.5148 289.515 34 290.15 34V36V38C291.724 38 293 36.724 293 35.1499H291ZM291.85 34.2998V32.2998C290.276 32.2998 289 33.5758 289 35.1499H291H293C293 35.785 292.485 36.2998 291.85 36.2998V34.2998ZM294.399 33.1665H292.399C292.399 32.6878 292.787 32.2998 293.266 32.2998V34.2998V36.2998C294.997 36.2998 296.399 34.897 296.399 33.1665H294.399ZM295.533 32.0332V30.0332C293.802 30.0332 292.399 31.436 292.399 33.1665H294.399H296.399C296.399 33.6452 296.011 34.0332 295.533 34.0332V32.0332ZM297.8 30.333H295.8C295.8 30.1674 295.934 30.0332 296.1 30.0332V32.0332V34.0332C298.143 34.0332 299.8 32.3766 299.8 30.333H297.8ZM296.1 7.09961V9.09961C295.934 9.09961 295.8 8.96538 295.8 8.7998H297.8H299.8C299.8 6.75624 298.143 5.09961 296.1 5.09961V7.09961ZM294.399 5.96631H292.399C292.399 7.69678 293.802 9.09961 295.533 9.09961V7.09961V5.09961C296.011 5.09961 296.399 5.48764 296.399 5.96631H294.399ZM293.266 4.83301V6.83301C292.787 6.83301 292.399 6.44497 292.399 5.96631H294.399H296.399C296.399 4.23583 294.997 2.83301 293.266 2.83301V4.83301ZM292.417 4.83301V2.83301C292.739 2.83301 293 3.09425 293 3.4165H291H289C289 5.30339 290.53 6.83301 292.417 6.83301V4.83301Z" fill="#B5B09D" mask="url(#path-1-outside-1_180_47)"/>
</svg>
