<svg width="816" height="553" viewBox="0 0 816 553" fill="none" xmlns="http://www.w3.org/2000/svg">
<path d="M408 4C461.173 4 510.718 11.922 552.171 25.5859C593.565 39.2303 627.172 58.6957 648.158 81.9941C649.886 83.9125 652.228 85 654.601 85H717.086C725.565 85.0002 731.747 91.5437 734.371 98.252C735.484 101.097 736.993 103.919 738.904 106.688C743.542 113.406 750.443 119.655 759.347 124.997C768.245 130.336 778.89 134.617 790.696 137.551C793.181 138.168 795.706 138.723 798.264 139.214C805.937 140.687 812 147.261 812 155.406V533C812 541.837 804.837 549 796 549H20C11.1634 549 4 541.837 4 533V155.406C4 147.261 10.063 140.687 17.7363 139.214C20.294 138.723 22.8188 138.168 25.3037 137.551C37.1096 134.617 47.7554 130.336 56.6533 124.997C65.5569 119.655 72.4584 113.406 77.0957 106.688C79.0073 103.919 80.5163 101.097 81.6289 98.252C84.2527 91.5437 90.4354 85.0002 98.9141 85H161.399C163.772 85 166.114 83.9125 167.842 81.9941C188.828 58.6957 222.435 39.2303 263.829 25.5859C305.282 11.922 354.827 4 408 4Z" stroke="#E7E4DD" stroke-width="8"/>
<mask id="path-2-inside-1_314_208" fill="white">
<path d="M408 8C513.585 8 604.47 39.4686 645.187 84.6712C647.602 87.3525 650.992 89 654.6 89H717.086C723.326 89 728.373 93.8974 730.646 99.7092C731.879 102.861 733.538 105.956 735.612 108.961C740.638 116.24 748.003 122.855 757.289 128.427C766.575 133.998 777.599 138.417 789.731 141.433C792.288 142.068 794.883 142.638 797.51 143.142C803.465 144.285 808 149.343 808 155.406V533C808 539.627 802.627 545 796 545H20C13.3726 545 8 539.627 8 533V155.406C8 149.343 12.5354 144.285 18.49 143.142C21.1169 142.638 23.7121 142.068 26.2686 141.433C38.401 138.417 49.4251 133.998 58.7109 128.427C67.9967 122.855 75.3622 116.24 80.3877 108.961C82.4624 105.956 84.1213 102.861 85.3541 99.7092C87.6272 93.8974 92.6739 89 98.9145 89H161.4C165.008 89 168.398 87.3525 170.813 84.6712C211.53 39.4686 302.415 8 408 8Z"/>
</mask>
<path d="M408 8C513.585 8 604.47 39.4686 645.187 84.6712C647.602 87.3525 650.992 89 654.6 89H717.086C723.326 89 728.373 93.8974 730.646 99.7092C731.879 102.861 733.538 105.956 735.612 108.961C740.638 116.24 748.003 122.855 757.289 128.427C766.575 133.998 777.599 138.417 789.731 141.433C792.288 142.068 794.883 142.638 797.51 143.142C803.465 144.285 808 149.343 808 155.406V533C808 539.627 802.627 545 796 545H20C13.3726 545 8 539.627 8 533V155.406C8 149.343 12.5354 144.285 18.49 143.142C21.1169 142.638 23.7121 142.068 26.2686 141.433C38.401 138.417 49.4251 133.998 58.7109 128.427C67.9967 122.855 75.3622 116.24 80.3877 108.961C82.4624 105.956 84.1213 102.861 85.3541 99.7092C87.6272 93.8974 92.6739 89 98.9145 89H161.4C165.008 89 168.398 87.3525 170.813 84.6712C211.53 39.4686 302.415 8 408 8Z" fill="#E7E4DD"/>
<path d="M735.612 108.961L732.321 111.233V111.233L735.612 108.961ZM757.289 128.427L755.231 131.857V131.857L757.289 128.427ZM789.731 141.433L788.767 145.315V145.315L789.731 141.433ZM26.2686 141.433L27.2333 145.315H27.2333L26.2686 141.433ZM58.7109 128.427L60.7689 131.857V131.857L58.7109 128.427ZM80.3877 108.961L83.6795 111.233V111.233L80.3877 108.961ZM170.813 84.6712L167.841 81.9941L170.813 84.6712ZM85.3541 99.7092L81.6289 98.2523L85.3541 99.7092ZM730.646 99.7092L734.371 98.2523L730.646 99.7092ZM797.51 143.142L798.264 139.214L797.51 143.142ZM645.187 84.6712L642.214 87.3483L645.187 84.6712ZM408 8V12C460.412 12 509.102 19.8125 549.667 33.1836C590.291 46.5742 622.484 65.4442 642.214 87.3483L645.187 84.6712L648.159 81.9941C627.172 58.6956 593.565 39.2301 552.171 25.5857C510.718 11.9218 461.173 4 408 4V8ZM654.6 89V93H717.086V89V85H654.6V89ZM730.646 99.7092L726.921 101.166C728.274 104.626 730.083 107.992 732.321 111.233L735.612 108.961L738.904 106.688C736.992 103.919 735.484 101.097 734.371 98.2523L730.646 99.7092ZM735.612 108.961L732.321 111.233C737.734 119.075 745.563 126.056 755.231 131.857L757.289 128.427L759.347 124.997C750.443 119.655 743.541 113.406 738.904 106.688L735.612 108.961ZM757.289 128.427L755.231 131.857C764.905 137.661 776.308 142.218 788.767 145.315L789.731 141.433L790.696 137.551C778.89 134.617 768.245 130.336 759.347 124.997L757.289 128.427ZM789.731 141.433L788.767 145.315C791.394 145.968 794.06 146.553 796.756 147.071L797.51 143.142L798.264 139.214C795.706 138.723 793.181 138.168 790.696 137.551L789.731 141.433ZM808 155.406H804V533H808H812V155.406H808ZM796 545V541H20V545V549H796V545ZM8 533H12V155.406H8H4V533H8ZM18.49 143.142L19.244 147.071C21.9401 146.553 24.6056 145.968 27.2333 145.315L26.2686 141.433L25.3038 137.551C22.8186 138.168 20.2937 138.723 17.7359 139.214L18.49 143.142ZM26.2686 141.433L27.2333 145.315C39.6924 142.218 51.0953 137.661 60.7689 131.857L58.7109 128.427L56.653 124.997C47.755 130.336 37.1097 134.617 25.3038 137.551L26.2686 141.433ZM58.7109 128.427L60.7689 131.857C70.4368 126.056 78.2659 119.075 83.6795 111.233L80.3877 108.961L77.0959 106.688C72.4586 113.406 65.5567 119.655 56.653 124.997L58.7109 128.427ZM80.3877 108.961L83.6795 111.233C85.9172 107.992 87.7263 104.626 89.0793 101.166L85.3541 99.7092L81.6289 98.2523C80.5163 101.097 79.0076 103.919 77.0959 106.688L80.3877 108.961ZM98.9145 89V93H161.4V89V85H98.9145V89ZM170.813 84.6712L173.786 87.3483C193.516 65.4443 225.709 46.5742 266.333 33.1836C306.898 19.8125 355.588 12 408 12V8V4C354.827 4 305.282 11.9218 263.829 25.5857C222.435 39.2301 188.828 58.6956 167.841 81.9941L170.813 84.6712ZM161.4 89V93C166.244 93 170.683 90.7924 173.786 87.3483L170.813 84.6712L167.841 81.9941C166.113 83.9125 163.772 85 161.4 85V89ZM8 155.406H12C12 151.425 15.0083 147.884 19.244 147.071L18.49 143.142L17.7359 139.214C10.0626 140.687 4 147.261 4 155.406H8ZM20 545V541C15.5817 541 12 537.418 12 533H8H4C4 541.837 11.1634 549 20 549V545ZM808 533H804C804 537.418 800.418 541 796 541V545V549C804.837 549 812 541.837 812 533H808ZM85.3541 99.7092L89.0793 101.166C91.0018 96.2509 94.9123 93 98.9145 93V89V85C90.4355 85 84.2527 91.5438 81.6289 98.2523L85.3541 99.7092ZM717.086 89V93C721.088 93 724.998 96.2509 726.921 101.166L730.646 99.7092L734.371 98.2523C731.747 91.5438 725.565 85 717.086 85V89ZM797.51 143.142L796.756 147.071C800.992 147.884 804 151.425 804 155.406H808H812C812 147.261 805.937 140.687 798.264 139.214L797.51 143.142ZM645.187 84.6712L642.214 87.3483C645.317 90.7924 649.756 93 654.6 93V89V85C652.228 85 649.887 83.9125 648.159 81.9941L645.187 84.6712Z" fill="#B9AE9C" mask="url(#path-2-inside-1_314_208)"/>
<path d="M153.819 160.324C151.587 160.324 149.607 159.796 147.879 158.74C146.175 157.66 144.831 156.172 143.847 154.276C142.863 152.356 142.371 150.148 142.371 147.652C142.371 145.588 142.707 143.788 143.379 142.252C144.051 140.716 144.951 139.432 146.079 138.4C147.231 137.368 148.515 136.6 149.931 136.096C151.371 135.592 152.859 135.34 154.395 135.34C155.907 135.34 157.287 135.496 158.535 135.808C159.783 136.12 161.067 136.588 162.387 137.212C162.219 138.052 162.111 138.952 162.063 139.912C162.015 140.848 161.991 141.808 161.991 142.792C161.679 142.912 161.379 142.996 161.091 143.044C160.803 143.092 160.467 143.116 160.083 143.116C160.035 141.412 159.783 140.104 159.327 139.192C158.871 138.28 158.247 137.656 157.455 137.32C156.663 136.984 155.739 136.816 154.683 136.816C153.171 136.816 151.875 137.092 150.795 137.644C149.715 138.196 148.827 138.94 148.131 139.876C147.459 140.788 146.955 141.832 146.619 143.008C146.307 144.184 146.151 145.408 146.151 146.68C146.151 148.816 146.511 150.76 147.231 152.512C147.975 154.24 149.031 155.608 150.399 156.616C151.767 157.624 153.411 158.128 155.331 158.128C156.483 158.128 157.659 157.936 158.859 157.552C160.059 157.168 161.163 156.652 162.171 156.004C162.315 156.124 162.447 156.304 162.567 156.544C162.711 156.76 162.795 156.952 162.819 157.12C161.403 158.224 159.999 159.04 158.607 159.568C157.239 160.072 155.643 160.324 153.819 160.324ZM182.487 155.428C182.487 156.676 182.655 157.516 182.991 157.948C183.351 158.356 183.891 158.56 184.611 158.56C184.683 158.776 184.731 159.004 184.755 159.244C184.779 159.484 184.791 159.772 184.791 160.108C184.263 160.06 183.663 160.024 182.991 160C182.319 160 181.611 160 180.867 160C180.387 160 179.883 160 179.355 160C178.827 160.024 178.323 160.036 177.843 160.036C177.387 160.06 176.967 160.084 176.583 160.108C176.583 159.772 176.595 159.484 176.619 159.244C176.643 158.98 176.691 158.752 176.763 158.56C177.627 158.56 178.251 158.344 178.635 157.912C179.043 157.456 179.247 156.628 179.247 155.428V149.956C179.247 148.252 178.935 147.1 178.311 146.5C177.687 145.876 176.883 145.564 175.899 145.564C175.275 145.564 174.651 145.768 174.027 146.176C173.403 146.56 172.875 147.196 172.443 148.084C172.035 148.948 171.831 150.112 171.831 151.576V155.428C171.831 156.628 172.011 157.456 172.371 157.912C172.731 158.344 173.379 158.56 174.315 158.56C174.387 158.776 174.435 159.004 174.459 159.244C174.483 159.484 174.495 159.772 174.495 160.108C174.159 160.084 173.751 160.06 173.271 160.036C172.791 160.036 172.287 160.024 171.759 160C171.231 160 170.715 160 170.211 160C169.731 160 169.227 160 168.699 160C168.171 160.024 167.667 160.036 167.187 160.036C166.707 160.06 166.287 160.084 165.927 160.108C165.927 159.772 165.939 159.484 165.963 159.244C165.987 158.98 166.035 158.752 166.107 158.56C167.043 158.56 167.691 158.344 168.051 157.912C168.411 157.456 168.591 156.628 168.591 155.428V148.3L171.831 144.772C171.831 145.06 171.819 145.384 171.795 145.744C171.771 146.104 171.699 146.488 171.579 146.896C171.651 146.776 171.723 146.644 171.795 146.5C171.867 146.332 171.975 146.152 172.119 145.96C172.527 145.408 173.175 144.844 174.063 144.268C174.975 143.668 176.067 143.368 177.339 143.368C178.251 143.368 179.091 143.56 179.859 143.944C180.651 144.304 181.287 144.916 181.767 145.78C182.247 146.62 182.487 147.772 182.487 149.236V155.428ZM168.591 139.3C168.591 138.724 168.531 138.256 168.411 137.896C168.315 137.512 168.075 137.224 167.691 137.032C167.307 136.84 166.707 136.744 165.891 136.744C165.891 136.48 165.915 136.24 165.963 136.024C166.011 135.808 166.095 135.604 166.215 135.412C166.575 135.412 167.079 135.352 167.727 135.232C168.399 135.112 169.047 134.956 169.671 134.764C170.295 134.572 170.751 134.38 171.039 134.188C171.255 134.26 171.435 134.404 171.579 134.62C171.747 134.836 171.831 135.172 171.831 135.628V140.632H168.591V139.3ZM168.591 139.3H171.831V144.772L168.591 148.84V139.3ZM195.652 160.324C194.02 160.324 192.592 159.976 191.368 159.28C190.144 158.56 189.196 157.564 188.524 156.292C187.852 154.996 187.516 153.484 187.516 151.756C187.516 150.124 187.864 148.66 188.56 147.364C189.256 146.068 190.216 145.048 191.44 144.304C192.664 143.56 194.068 143.188 195.652 143.188C197.356 143.188 198.808 143.548 200.008 144.268C201.232 144.988 202.168 145.996 202.816 147.292C203.464 148.564 203.788 150.052 203.788 151.756C203.788 153.388 203.44 154.852 202.744 156.148C202.072 157.444 201.124 158.464 199.9 159.208C198.7 159.952 197.284 160.324 195.652 160.324ZM195.94 158.596C197.38 158.596 198.448 158.008 199.144 156.832C199.84 155.632 200.188 154.084 200.188 152.188C200.188 150.7 199.96 149.416 199.504 148.336C199.072 147.232 198.484 146.392 197.74 145.816C196.996 145.216 196.18 144.916 195.292 144.916C193.9 144.916 192.856 145.48 192.16 146.608C191.488 147.736 191.152 149.2 191.152 151C191.152 152.608 191.344 153.988 191.728 155.14C192.136 156.268 192.7 157.132 193.42 157.732C194.14 158.308 194.98 158.596 195.94 158.596ZM214.812 160.324C213.18 160.324 211.752 159.976 210.528 159.28C209.304 158.56 208.356 157.564 207.684 156.292C207.012 154.996 206.676 153.484 206.676 151.756C206.676 150.124 207.024 148.66 207.72 147.364C208.416 146.068 209.376 145.048 210.6 144.304C211.824 143.56 213.228 143.188 214.812 143.188C216.516 143.188 217.968 143.548 219.168 144.268C220.392 144.988 221.328 145.996 221.976 147.292C222.624 148.564 222.948 150.052 222.948 151.756C222.948 153.388 222.6 154.852 221.904 156.148C221.232 157.444 220.284 158.464 219.06 159.208C217.86 159.952 216.444 160.324 214.812 160.324ZM215.1 158.596C216.54 158.596 217.608 158.008 218.304 156.832C219 155.632 219.348 154.084 219.348 152.188C219.348 150.7 219.12 149.416 218.664 148.336C218.232 147.232 217.644 146.392 216.9 145.816C216.156 145.216 215.34 144.916 214.452 144.916C213.06 144.916 212.016 145.48 211.32 146.608C210.648 147.736 210.312 149.2 210.312 151C210.312 152.608 210.504 153.988 210.888 155.14C211.296 156.268 211.86 157.132 212.58 157.732C213.3 158.308 214.14 158.596 215.1 158.596ZM237.176 144.448C237.152 145.024 237.128 145.636 237.104 146.284C237.104 146.932 237.152 147.568 237.248 148.192C237.008 148.336 236.732 148.444 236.42 148.516C236.108 148.588 235.784 148.624 235.448 148.624C235.4 147.952 235.196 147.316 234.836 146.716C234.5 146.116 234.044 145.624 233.468 145.24C232.892 144.856 232.208 144.664 231.416 144.664C230.672 144.664 230.072 144.844 229.616 145.204C229.184 145.564 228.968 146.044 228.968 146.644C228.968 147.052 229.052 147.412 229.22 147.724C229.412 148.036 229.808 148.372 230.408 148.732C231.032 149.068 231.98 149.488 233.252 149.992C234.548 150.472 235.568 150.952 236.312 151.432C237.056 151.912 237.584 152.452 237.896 153.052C238.208 153.652 238.364 154.384 238.364 155.248C238.364 156.256 238.076 157.144 237.5 157.912C236.924 158.68 236.132 159.28 235.124 159.712C234.14 160.12 233.024 160.324 231.776 160.324C230.336 160.324 229.184 160.216 228.32 160C227.48 159.76 226.652 159.424 225.836 158.992C225.884 158.608 225.908 158.14 225.908 157.588C225.932 157.036 225.944 156.484 225.944 155.932C225.944 155.38 225.92 154.912 225.872 154.528C226.064 154.384 226.328 154.288 226.664 154.24C227.024 154.168 227.384 154.132 227.744 154.132C227.936 155.644 228.404 156.772 229.148 157.516C229.892 158.26 230.888 158.632 232.136 158.632C233.12 158.632 233.876 158.416 234.404 157.984C234.956 157.552 235.232 157 235.232 156.328C235.232 155.896 235.124 155.524 234.908 155.212C234.716 154.9 234.344 154.588 233.792 154.276C233.24 153.964 232.424 153.592 231.344 153.16C230.048 152.632 229.004 152.14 228.212 151.684C227.444 151.228 226.88 150.688 226.52 150.064C226.184 149.44 226.016 148.648 226.016 147.688C226.016 146.92 226.208 146.26 226.592 145.708C226.976 145.132 227.468 144.664 228.068 144.304C228.692 143.92 229.352 143.644 230.048 143.476C230.744 143.284 231.392 143.188 231.992 143.188C233.072 143.188 234.02 143.296 234.836 143.512C235.652 143.728 236.432 144.04 237.176 144.448ZM248.867 160.324C247.163 160.324 245.747 159.94 244.619 159.172C243.491 158.404 242.639 157.372 242.063 156.076C241.511 154.756 241.235 153.316 241.235 151.756C241.235 150.22 241.535 148.804 242.135 147.508C242.735 146.212 243.587 145.168 244.691 144.376C245.819 143.584 247.151 143.188 248.687 143.188C250.247 143.188 251.495 143.524 252.431 144.196C253.391 144.868 254.099 145.768 254.555 146.896C255.035 148.024 255.323 149.272 255.419 150.64C255.323 151.12 255.143 151.528 254.879 151.864C254.471 151.864 253.859 151.864 253.043 151.864C252.227 151.864 251.303 151.876 250.271 151.9C249.239 151.9 248.183 151.924 247.103 151.972C246.023 151.996 245.003 152.032 244.043 152.08V150.244H251.675C251.675 148.66 251.387 147.376 250.811 146.392C250.235 145.408 249.419 144.916 248.363 144.916C247.787 144.916 247.223 145.096 246.671 145.456C246.119 145.792 245.663 146.404 245.303 147.292C244.943 148.156 244.763 149.392 244.763 151C244.763 152.176 244.907 153.328 245.195 154.456C245.507 155.56 246.035 156.484 246.779 157.228C247.547 157.948 248.627 158.308 250.019 158.308C250.811 158.308 251.591 158.128 252.359 157.768C253.127 157.408 253.811 156.892 254.411 156.22C254.603 156.316 254.783 156.484 254.951 156.724C255.143 156.94 255.251 157.144 255.275 157.336C254.459 158.416 253.511 159.184 252.431 159.64C251.375 160.096 250.187 160.324 248.867 160.324ZM271.541 160.324C270.125 160.324 269.069 159.964 268.373 159.244C267.701 158.5 267.365 157.312 267.365 155.68V145.924C267.005 145.804 266.633 145.708 266.249 145.636C265.865 145.54 265.373 145.48 264.773 145.456C264.773 145.144 264.797 144.88 264.845 144.664C264.893 144.424 264.977 144.16 265.097 143.872H267.365V139.12C267.845 139 268.313 138.808 268.769 138.544C269.249 138.28 269.669 137.992 270.029 137.68C270.269 137.776 270.425 137.92 270.497 138.112C270.569 138.304 270.605 138.784 270.605 139.552V143.872H275.285C275.285 144.112 275.261 144.376 275.213 144.664C275.165 144.928 275.081 145.192 274.961 145.456C274.097 145.48 273.305 145.54 272.585 145.636C271.865 145.708 271.205 145.804 270.605 145.924V154.924C270.605 155.716 270.689 156.376 270.857 156.904C271.025 157.408 271.265 157.78 271.577 158.02C271.889 158.26 272.261 158.38 272.693 158.38C273.197 158.38 273.629 158.308 273.989 158.164C274.373 158.02 274.733 157.804 275.069 157.516C275.381 157.876 275.561 158.272 275.609 158.704C275.225 159.16 274.637 159.544 273.845 159.856C273.077 160.168 272.309 160.324 271.541 160.324ZM294.53 155.428C294.53 156.676 294.698 157.516 295.034 157.948C295.394 158.356 295.934 158.56 296.654 158.56C296.726 158.776 296.774 159.004 296.798 159.244C296.822 159.484 296.834 159.772 296.834 160.108C296.306 160.06 295.706 160.024 295.034 160C294.362 160 293.654 160 292.91 160C292.43 160 291.926 160 291.398 160C290.87 160.024 290.366 160.036 289.886 160.036C289.43 160.06 289.01 160.084 288.626 160.108C288.626 159.772 288.638 159.484 288.662 159.244C288.686 158.98 288.734 158.752 288.806 158.56C289.67 158.56 290.294 158.344 290.678 157.912C291.086 157.456 291.29 156.628 291.29 155.428V149.956C291.29 148.252 290.978 147.1 290.354 146.5C289.73 145.876 288.926 145.564 287.942 145.564C287.318 145.564 286.694 145.768 286.07 146.176C285.446 146.56 284.918 147.196 284.486 148.084C284.078 148.948 283.874 150.112 283.874 151.576V155.428C283.874 156.628 284.054 157.456 284.414 157.912C284.774 158.344 285.422 158.56 286.358 158.56C286.43 158.776 286.478 159.004 286.502 159.244C286.526 159.484 286.538 159.772 286.538 160.108C286.202 160.084 285.794 160.06 285.314 160.036C284.834 160.036 284.33 160.024 283.802 160C283.274 160 282.758 160 282.254 160C281.774 160 281.27 160 280.742 160C280.214 160.024 279.71 160.036 279.23 160.036C278.75 160.06 278.33 160.084 277.97 160.108C277.97 159.772 277.982 159.484 278.006 159.244C278.03 158.98 278.078 158.752 278.15 158.56C279.086 158.56 279.734 158.344 280.094 157.912C280.454 157.456 280.634 156.628 280.634 155.428V148.3L283.874 144.772C283.874 145.06 283.862 145.384 283.838 145.744C283.814 146.104 283.742 146.488 283.622 146.896C283.694 146.776 283.766 146.644 283.838 146.5C283.91 146.332 284.018 146.152 284.162 145.96C284.57 145.408 285.218 144.844 286.106 144.268C287.018 143.668 288.11 143.368 289.382 143.368C290.294 143.368 291.134 143.56 291.902 143.944C292.694 144.304 293.33 144.916 293.81 145.78C294.29 146.62 294.53 147.772 294.53 149.236V155.428ZM280.634 139.3C280.634 138.724 280.574 138.256 280.454 137.896C280.358 137.512 280.118 137.224 279.734 137.032C279.35 136.84 278.75 136.744 277.934 136.744C277.934 136.48 277.958 136.24 278.006 136.024C278.054 135.808 278.138 135.604 278.258 135.412C278.618 135.412 279.122 135.352 279.77 135.232C280.442 135.112 281.09 134.956 281.714 134.764C282.338 134.572 282.794 134.38 283.082 134.188C283.298 134.26 283.478 134.404 283.622 134.62C283.79 134.836 283.874 135.172 283.874 135.628V140.632H280.634V139.3ZM280.634 139.3H283.874V144.772L280.634 148.84V139.3ZM307.191 160.324C305.487 160.324 304.071 159.94 302.943 159.172C301.815 158.404 300.963 157.372 300.387 156.076C299.835 154.756 299.559 153.316 299.559 151.756C299.559 150.22 299.859 148.804 300.459 147.508C301.059 146.212 301.911 145.168 303.015 144.376C304.143 143.584 305.475 143.188 307.011 143.188C308.571 143.188 309.819 143.524 310.755 144.196C311.715 144.868 312.423 145.768 312.879 146.896C313.359 148.024 313.647 149.272 313.743 150.64C313.647 151.12 313.467 151.528 313.203 151.864C312.795 151.864 312.183 151.864 311.367 151.864C310.551 151.864 309.627 151.876 308.595 151.9C307.563 151.9 306.507 151.924 305.427 151.972C304.347 151.996 303.327 152.032 302.367 152.08V150.244H309.999C309.999 148.66 309.711 147.376 309.135 146.392C308.559 145.408 307.743 144.916 306.687 144.916C306.111 144.916 305.547 145.096 304.995 145.456C304.443 145.792 303.987 146.404 303.627 147.292C303.267 148.156 303.087 149.392 303.087 151C303.087 152.176 303.231 153.328 303.519 154.456C303.831 155.56 304.359 156.484 305.103 157.228C305.871 157.948 306.951 158.308 308.343 158.308C309.135 158.308 309.915 158.128 310.683 157.768C311.451 157.408 312.135 156.892 312.735 156.22C312.927 156.316 313.107 156.484 313.275 156.724C313.467 156.94 313.575 157.144 313.599 157.336C312.783 158.416 311.835 159.184 310.755 159.64C309.699 160.096 308.511 160.324 307.191 160.324ZM329.865 160.324C328.449 160.324 327.393 159.964 326.697 159.244C326.025 158.5 325.689 157.312 325.689 155.68V145.924C325.329 145.804 324.957 145.708 324.573 145.636C324.189 145.54 323.697 145.48 323.097 145.456C323.097 145.144 323.121 144.88 323.169 144.664C323.217 144.424 323.301 144.16 323.421 143.872H325.689V139.12C326.169 139 326.637 138.808 327.093 138.544C327.573 138.28 327.993 137.992 328.353 137.68C328.593 137.776 328.749 137.92 328.821 138.112C328.893 138.304 328.929 138.784 328.929 139.552V143.872H333.609C333.609 144.112 333.585 144.376 333.537 144.664C333.489 144.928 333.405 145.192 333.285 145.456C332.421 145.48 331.629 145.54 330.909 145.636C330.189 145.708 329.529 145.804 328.929 145.924V154.924C328.929 155.716 329.013 156.376 329.181 156.904C329.349 157.408 329.589 157.78 329.901 158.02C330.213 158.26 330.585 158.38 331.017 158.38C331.521 158.38 331.953 158.308 332.313 158.164C332.697 158.02 333.057 157.804 333.393 157.516C333.705 157.876 333.885 158.272 333.933 158.704C333.549 159.16 332.961 159.544 332.169 159.856C331.401 160.168 330.633 160.324 329.865 160.324ZM342.234 154.708C342.234 155.74 342.342 156.532 342.558 157.084C342.774 157.612 343.122 157.984 343.602 158.2C344.082 158.392 344.694 158.512 345.438 158.56C345.51 158.752 345.558 158.98 345.582 159.244C345.606 159.484 345.618 159.772 345.618 160.108C345.258 160.084 344.826 160.06 344.322 160.036C343.842 160.036 343.326 160.024 342.774 160C342.222 160 341.658 160 341.082 160C340.242 160 339.354 160 338.418 160C337.506 160.024 336.81 160.06 336.33 160.108C336.33 159.772 336.342 159.484 336.366 159.244C336.39 158.98 336.438 158.752 336.51 158.56C337.158 158.512 337.662 158.404 338.022 158.236C338.382 158.044 338.634 157.732 338.778 157.3C338.922 156.844 338.994 156.22 338.994 155.428V151.828H342.234V154.708ZM342.234 149.452V152.296H338.994V148.3L342.234 144.772C342.234 145.588 342.162 146.332 342.018 147.004C341.874 147.652 341.742 148.3 341.622 148.948L342.234 149.452ZM341.442 149.164C341.706 148.492 341.91 147.94 342.054 147.508C342.198 147.076 342.354 146.716 342.522 146.428C343.05 145.588 343.674 144.892 344.394 144.34C345.114 143.788 345.942 143.512 346.878 143.512C347.79 143.512 348.618 143.8 349.362 144.376C349.314 144.76 349.266 145.204 349.218 145.708C349.17 146.212 349.134 146.716 349.11 147.22C349.11 147.724 349.11 148.192 349.11 148.624C348.894 148.696 348.594 148.768 348.21 148.84C347.85 148.912 347.466 148.948 347.058 148.948C347.01 147.796 346.818 147.04 346.482 146.68C346.17 146.32 345.774 146.14 345.294 146.14C344.886 146.14 344.442 146.38 343.962 146.86C343.482 147.316 343.074 147.928 342.738 148.696C342.402 149.464 342.234 150.316 342.234 151.252L341.442 149.164ZM338.994 152.296V148.3C338.994 147.724 338.934 147.256 338.814 146.896C338.694 146.536 338.442 146.26 338.058 146.068C337.674 145.876 337.086 145.768 336.294 145.744C336.294 145.48 336.318 145.24 336.366 145.024C336.414 144.808 336.498 144.604 336.618 144.412C337.362 144.364 338.214 144.22 339.174 143.98C340.134 143.74 340.89 143.476 341.442 143.188C341.658 143.26 341.838 143.416 341.982 143.656C342.15 143.872 342.234 144.244 342.234 144.772L338.994 152.296ZM358.18 160.144C356.572 160.144 355.312 159.676 354.4 158.74C353.488 157.804 353.032 156.136 353.032 153.736V148.3C353.032 147.46 352.912 146.836 352.672 146.428C352.432 145.996 351.76 145.768 350.656 145.744C350.656 145.48 350.668 145.252 350.692 145.06C350.74 144.844 350.812 144.628 350.908 144.412C351.652 144.364 352.456 144.22 353.32 143.98C354.208 143.74 354.928 143.476 355.48 143.188C355.696 143.26 355.876 143.416 356.02 143.656C356.188 143.872 356.272 144.244 356.272 144.772V152.944C356.272 154.552 356.488 155.788 356.92 156.652C357.376 157.516 358.156 157.948 359.26 157.948C360.46 157.948 361.456 157.444 362.248 156.436C363.064 155.428 363.472 153.88 363.472 151.792V148.12C363.472 147.28 363.316 146.656 363.004 146.248C362.716 145.816 361.972 145.588 360.772 145.564C360.772 145.3 360.784 145.072 360.808 144.88C360.832 144.664 360.904 144.448 361.024 144.232C361.96 144.184 362.872 144.064 363.76 143.872C364.672 143.656 365.392 143.428 365.92 143.188C366.136 143.26 366.316 143.416 366.46 143.656C366.628 143.872 366.712 144.244 366.712 144.772V155.212L363.904 156.544C363.784 156.856 363.616 157.168 363.4 157.48C363.184 157.768 362.944 158.044 362.68 158.308C362.056 158.932 361.396 159.4 360.7 159.712C360.004 160 359.164 160.144 358.18 160.144ZM364.624 160.324C364.384 160.204 364.168 160.036 363.976 159.82C363.808 159.58 363.724 159.052 363.724 158.236C363.724 157.972 363.736 157.6 363.76 157.12C363.808 156.64 363.916 155.968 364.084 155.104H366.712C366.712 155.656 366.76 156.124 366.856 156.508C366.952 156.868 367.156 157.132 367.468 157.3C367.804 157.468 368.296 157.552 368.944 157.552C368.944 157.792 368.932 158.068 368.908 158.38C368.884 158.668 368.824 158.944 368.728 159.208C368.128 159.232 367.432 159.352 366.64 159.568C365.848 159.76 365.176 160.012 364.624 160.324ZM377.888 160.324C376.472 160.324 375.416 159.964 374.72 159.244C374.048 158.5 373.712 157.312 373.712 155.68V145.924C373.352 145.804 372.98 145.708 372.596 145.636C372.212 145.54 371.72 145.48 371.12 145.456C371.12 145.144 371.144 144.88 371.192 144.664C371.24 144.424 371.324 144.16 371.444 143.872H373.712V139.12C374.192 139 374.66 138.808 375.116 138.544C375.596 138.28 376.016 137.992 376.376 137.68C376.616 137.776 376.772 137.92 376.844 138.112C376.916 138.304 376.952 138.784 376.952 139.552V143.872H381.632C381.632 144.112 381.608 144.376 381.56 144.664C381.512 144.928 381.428 145.192 381.308 145.456C380.444 145.48 379.652 145.54 378.932 145.636C378.212 145.708 377.552 145.804 376.952 145.924V154.924C376.952 155.716 377.036 156.376 377.204 156.904C377.372 157.408 377.612 157.78 377.924 158.02C378.236 158.26 378.608 158.38 379.04 158.38C379.544 158.38 379.976 158.308 380.336 158.164C380.72 158.02 381.08 157.804 381.416 157.516C381.728 157.876 381.908 158.272 381.956 158.704C381.572 159.16 380.984 159.544 380.192 159.856C379.424 160.168 378.656 160.324 377.888 160.324ZM400.877 155.428C400.877 156.676 401.045 157.516 401.381 157.948C401.741 158.356 402.281 158.56 403.001 158.56C403.073 158.776 403.121 159.004 403.145 159.244C403.169 159.484 403.181 159.772 403.181 160.108C402.653 160.06 402.053 160.024 401.381 160C400.709 160 400.001 160 399.257 160C398.777 160 398.273 160 397.745 160C397.217 160.024 396.713 160.036 396.233 160.036C395.777 160.06 395.357 160.084 394.973 160.108C394.973 159.772 394.985 159.484 395.009 159.244C395.033 158.98 395.081 158.752 395.153 158.56C396.017 158.56 396.641 158.344 397.025 157.912C397.433 157.456 397.637 156.628 397.637 155.428V149.956C397.637 148.252 397.325 147.1 396.701 146.5C396.077 145.876 395.273 145.564 394.289 145.564C393.665 145.564 393.041 145.768 392.417 146.176C391.793 146.56 391.265 147.196 390.833 148.084C390.425 148.948 390.221 150.112 390.221 151.576V155.428C390.221 156.628 390.401 157.456 390.761 157.912C391.121 158.344 391.769 158.56 392.705 158.56C392.777 158.776 392.825 159.004 392.849 159.244C392.873 159.484 392.885 159.772 392.885 160.108C392.549 160.084 392.141 160.06 391.661 160.036C391.181 160.036 390.677 160.024 390.149 160C389.621 160 389.105 160 388.601 160C388.121 160 387.617 160 387.089 160C386.561 160.024 386.057 160.036 385.577 160.036C385.097 160.06 384.677 160.084 384.317 160.108C384.317 159.772 384.329 159.484 384.353 159.244C384.377 158.98 384.425 158.752 384.497 158.56C385.433 158.56 386.081 158.344 386.441 157.912C386.801 157.456 386.981 156.628 386.981 155.428V148.3L390.221 144.772C390.221 145.06 390.209 145.384 390.185 145.744C390.161 146.104 390.089 146.488 389.969 146.896C390.041 146.776 390.113 146.644 390.185 146.5C390.257 146.332 390.365 146.152 390.509 145.96C390.917 145.408 391.565 144.844 392.453 144.268C393.365 143.668 394.457 143.368 395.729 143.368C396.641 143.368 397.481 143.56 398.249 143.944C399.041 144.304 399.677 144.916 400.157 145.78C400.637 146.62 400.877 147.772 400.877 149.236V155.428ZM386.981 139.3C386.981 138.724 386.921 138.256 386.801 137.896C386.705 137.512 386.465 137.224 386.081 137.032C385.697 136.84 385.097 136.744 384.281 136.744C384.281 136.48 384.305 136.24 384.353 136.024C384.401 135.808 384.485 135.604 384.605 135.412C384.965 135.412 385.469 135.352 386.117 135.232C386.789 135.112 387.437 134.956 388.061 134.764C388.685 134.572 389.141 134.38 389.429 134.188C389.645 134.26 389.825 134.404 389.969 134.62C390.137 134.836 390.221 135.172 390.221 135.628V140.632H386.981V139.3ZM386.981 139.3H390.221V144.772L386.981 148.84V139.3ZM424.228 149.272C424.852 147.736 424.996 146.692 424.66 146.14C424.348 145.564 423.664 145.18 422.608 144.988C422.512 144.724 422.44 144.472 422.392 144.232C422.368 143.968 422.356 143.704 422.356 143.44C422.908 143.464 423.472 143.488 424.048 143.512C424.624 143.512 425.248 143.512 425.92 143.512C426.592 143.512 427.228 143.512 427.828 143.512C428.428 143.488 428.992 143.464 429.52 143.44C429.52 143.68 429.508 143.932 429.484 144.196C429.484 144.46 429.424 144.724 429.304 144.988C428.872 145.084 428.5 145.252 428.188 145.492C427.9 145.732 427.624 146.104 427.36 146.608C427.096 147.112 426.772 147.82 426.388 148.732L421.096 161.332C420.424 162.964 419.812 164.284 419.26 165.292C418.732 166.3 418.228 167.068 417.748 167.596C417.292 168.124 416.824 168.484 416.344 168.676C415.888 168.868 415.384 168.964 414.832 168.964C414.112 168.964 413.536 168.868 413.104 168.676C412.696 168.484 412.372 168.304 412.132 168.136C412.036 167.776 412 167.32 412.024 166.768C412.048 166.24 412.096 165.82 412.168 165.508C412.576 165.58 412.972 165.628 413.356 165.652C413.74 165.7 414.112 165.724 414.472 165.724C415.168 165.724 415.828 165.556 416.452 165.22C417.1 164.884 417.652 164.344 418.108 163.6C418.444 163.096 418.948 162.1 419.62 160.612C420.292 159.148 421 157.456 421.744 155.536L424.228 149.272ZM420.016 160.756C419.44 159.484 418.828 158.152 418.18 156.76C417.556 155.344 416.956 153.988 416.38 152.692C415.804 151.396 415.3 150.304 414.868 149.416C414.316 148.216 413.848 147.316 413.464 146.716C413.104 146.116 412.756 145.696 412.42 145.456C412.108 145.216 411.748 145.06 411.34 144.988C411.268 144.772 411.208 144.532 411.16 144.268C411.136 144.004 411.124 143.728 411.124 143.44C411.82 143.464 412.516 143.488 413.212 143.512C413.908 143.512 414.568 143.512 415.192 143.512C415.816 143.512 416.584 143.512 417.496 143.512C418.408 143.488 419.236 143.464 419.98 143.44C419.98 143.752 419.956 144.04 419.908 144.304C419.884 144.544 419.824 144.772 419.728 144.988C418.432 145.204 417.688 145.588 417.496 146.14C417.304 146.668 417.532 147.604 418.18 148.948C418.516 149.644 418.9 150.484 419.332 151.468C419.764 152.428 420.184 153.4 420.592 154.384C421 155.344 421.348 156.196 421.636 156.94L420.016 160.756ZM439.285 160.324C437.653 160.324 436.225 159.976 435.001 159.28C433.777 158.56 432.829 157.564 432.157 156.292C431.485 154.996 431.149 153.484 431.149 151.756C431.149 150.124 431.497 148.66 432.193 147.364C432.889 146.068 433.849 145.048 435.073 144.304C436.297 143.56 437.701 143.188 439.285 143.188C440.989 143.188 442.441 143.548 443.641 144.268C444.865 144.988 445.801 145.996 446.449 147.292C447.097 148.564 447.421 150.052 447.421 151.756C447.421 153.388 447.073 154.852 446.377 156.148C445.705 157.444 444.757 158.464 443.533 159.208C442.333 159.952 440.917 160.324 439.285 160.324ZM439.573 158.596C441.013 158.596 442.081 158.008 442.777 156.832C443.473 155.632 443.821 154.084 443.821 152.188C443.821 150.7 443.593 149.416 443.137 148.336C442.705 147.232 442.117 146.392 441.373 145.816C440.629 145.216 439.813 144.916 438.925 144.916C437.533 144.916 436.489 145.48 435.793 146.608C435.121 147.736 434.785 149.2 434.785 151C434.785 152.608 434.977 153.988 435.361 155.14C435.769 156.268 436.333 157.132 437.053 157.732C437.773 158.308 438.613 158.596 439.573 158.596ZM456.969 160.144C455.361 160.144 454.101 159.676 453.189 158.74C452.277 157.804 451.821 156.136 451.821 153.736V148.3C451.821 147.46 451.701 146.836 451.461 146.428C451.221 145.996 450.549 145.768 449.445 145.744C449.445 145.48 449.457 145.252 449.481 145.06C449.529 144.844 449.601 144.628 449.697 144.412C450.441 144.364 451.245 144.22 452.109 143.98C452.997 143.74 453.717 143.476 454.269 143.188C454.485 143.26 454.665 143.416 454.809 143.656C454.977 143.872 455.061 144.244 455.061 144.772V152.944C455.061 154.552 455.277 155.788 455.709 156.652C456.165 157.516 456.945 157.948 458.049 157.948C459.249 157.948 460.245 157.444 461.037 156.436C461.853 155.428 462.261 153.88 462.261 151.792V148.12C462.261 147.28 462.105 146.656 461.793 146.248C461.505 145.816 460.761 145.588 459.561 145.564C459.561 145.3 459.573 145.072 459.597 144.88C459.621 144.664 459.693 144.448 459.813 144.232C460.749 144.184 461.661 144.064 462.549 143.872C463.461 143.656 464.181 143.428 464.709 143.188C464.925 143.26 465.105 143.416 465.249 143.656C465.417 143.872 465.501 144.244 465.501 144.772V155.212L462.693 156.544C462.573 156.856 462.405 157.168 462.189 157.48C461.973 157.768 461.733 158.044 461.469 158.308C460.845 158.932 460.185 159.4 459.489 159.712C458.793 160 457.953 160.144 456.969 160.144ZM463.413 160.324C463.173 160.204 462.957 160.036 462.765 159.82C462.597 159.58 462.513 159.052 462.513 158.236C462.513 157.972 462.525 157.6 462.549 157.12C462.597 156.64 462.705 155.968 462.873 155.104H465.501C465.501 155.656 465.549 156.124 465.645 156.508C465.741 156.868 465.945 157.132 466.257 157.3C466.593 157.468 467.085 157.552 467.733 157.552C467.733 157.792 467.721 158.068 467.697 158.38C467.673 158.668 467.613 158.944 467.517 159.208C466.917 159.232 466.221 159.352 465.429 159.568C464.637 159.76 463.965 160.012 463.413 160.324ZM483.047 160.324C482.639 159.172 482.231 158.044 481.823 156.94C481.439 155.812 481.031 154.708 480.599 153.628C480.191 152.524 479.771 151.432 479.339 150.352C478.931 149.272 478.511 148.192 478.079 147.112C477.815 146.44 477.539 145.96 477.251 145.672C476.987 145.384 476.591 145.156 476.063 144.988C475.967 144.748 475.907 144.484 475.883 144.196C475.859 143.908 475.847 143.656 475.847 143.44C476.327 143.464 476.831 143.488 477.359 143.512C477.911 143.512 478.583 143.512 479.375 143.512C480.167 143.512 480.875 143.5 481.499 143.476C482.123 143.452 482.735 143.428 483.335 143.404C483.335 143.644 483.323 143.92 483.299 144.232C483.275 144.544 483.227 144.796 483.155 144.988C482.483 145.06 482.003 145.18 481.715 145.348C481.451 145.516 481.319 145.744 481.319 146.032C481.343 146.32 481.439 146.692 481.607 147.148C482.159 148.54 482.735 150.064 483.335 151.72C483.935 153.376 484.475 154.912 484.955 156.328L484.487 156.364L489.455 143.512C489.647 143.464 489.875 143.428 490.139 143.404C490.403 143.38 490.655 143.368 490.895 143.368C491.687 145.192 492.551 147.256 493.487 149.56C494.447 151.864 495.371 154.156 496.259 156.436H495.755L498.023 149.632C498.407 148.456 498.575 147.556 498.527 146.932C498.503 146.284 498.323 145.816 497.987 145.528C497.651 145.24 497.183 145.06 496.583 144.988C496.487 144.724 496.403 144.46 496.331 144.196C496.283 143.908 496.259 143.644 496.259 143.404C496.715 143.428 497.231 143.452 497.807 143.476C498.383 143.5 498.935 143.512 499.463 143.512C500.111 143.512 500.699 143.5 501.227 143.476C501.755 143.452 502.223 143.428 502.631 143.404C502.631 143.716 502.607 143.992 502.559 144.232C502.535 144.472 502.463 144.724 502.343 144.988C501.983 145.084 501.671 145.264 501.407 145.528C501.167 145.768 500.915 146.2 500.651 146.824C500.411 147.448 500.087 148.348 499.679 149.524L496.043 160C495.899 160.072 495.743 160.132 495.575 160.18C495.407 160.228 495.227 160.264 495.035 160.288C494.843 160.312 494.627 160.324 494.387 160.324C493.835 158.884 493.235 157.408 492.587 155.896C491.963 154.36 491.339 152.848 490.715 151.36C490.091 149.872 489.479 148.468 488.879 147.148L489.995 146.536L484.631 160C484.511 160.072 484.379 160.132 484.235 160.18C484.091 160.228 483.923 160.264 483.731 160.288C483.539 160.312 483.311 160.324 483.047 160.324ZM515.534 160.324C515.27 160.204 515.054 159.988 514.886 159.676C514.742 159.364 514.67 158.872 514.67 158.2C514.67 157.984 514.682 157.732 514.706 157.444C514.73 157.132 514.778 156.856 514.85 156.616H514.922C514.85 157 514.682 157.42 514.418 157.876C514.178 158.308 513.854 158.692 513.446 159.028C513.038 159.388 512.522 159.688 511.898 159.928C511.274 160.144 510.518 160.252 509.63 160.252C508.118 160.252 506.966 159.916 506.174 159.244C505.382 158.548 504.986 157.612 504.986 156.436C504.986 155.5 505.202 154.708 505.634 154.06C506.09 153.388 506.666 152.836 507.362 152.404C508.082 151.948 508.85 151.588 509.666 151.324C510.506 151.06 511.322 150.856 512.114 150.712C512.906 150.568 513.602 150.448 514.202 150.352C514.202 149.368 514.178 148.6 514.13 148.048C514.106 147.496 514.034 147.064 513.914 146.752C513.818 146.416 513.662 146.128 513.446 145.888C513.158 145.528 512.822 145.264 512.438 145.096C512.078 144.904 511.67 144.808 511.214 144.808C510.422 144.808 509.798 145.06 509.342 145.564C508.886 146.044 508.562 146.608 508.37 147.256C508.178 147.904 508.07 148.48 508.046 148.984C507.782 148.984 507.446 148.972 507.038 148.948C506.654 148.9 506.366 148.828 506.174 148.732C506.222 148.132 506.234 147.46 506.21 146.716C506.186 145.972 506.114 145.336 505.994 144.808C506.978 144.304 508.01 143.908 509.09 143.62C510.194 143.332 511.202 143.188 512.114 143.188C513.002 143.188 513.758 143.32 514.382 143.584C515.03 143.824 515.546 144.148 515.93 144.556C516.554 145.156 516.962 145.948 517.154 146.932C517.346 147.892 517.442 149.176 517.442 150.784V154.744C517.442 155.416 517.49 155.956 517.586 156.364C517.706 156.748 517.922 157.036 518.234 157.228C518.546 157.396 519.026 157.504 519.674 157.552C519.674 157.792 519.662 158.068 519.638 158.38C519.614 158.668 519.554 158.944 519.458 159.208C518.858 159.232 518.186 159.352 517.442 159.568C516.722 159.76 516.086 160.012 515.534 160.324ZM510.638 158.272C511.166 158.272 511.706 158.104 512.258 157.768C512.81 157.408 513.266 156.856 513.626 156.112C514.01 155.368 514.202 154.396 514.202 153.196V151.828C513.602 151.9 512.966 152.008 512.294 152.152C511.622 152.272 510.998 152.464 510.422 152.728C509.846 152.992 509.378 153.364 509.018 153.844C508.658 154.3 508.478 154.924 508.478 155.716C508.478 156.604 508.694 157.252 509.126 157.66C509.558 158.068 510.062 158.272 510.638 158.272ZM525.111 152.296V148.3C525.111 147.724 525.051 147.256 524.931 146.896C524.811 146.536 524.559 146.26 524.175 146.068C523.791 145.876 523.203 145.768 522.411 145.744C522.411 145.48 522.435 145.24 522.483 145.024C522.531 144.808 522.615 144.604 522.735 144.412C523.479 144.364 524.331 144.22 525.291 143.98C526.251 143.74 527.007 143.476 527.559 143.188C527.775 143.26 527.955 143.416 528.099 143.656C528.267 143.872 528.351 144.244 528.351 144.772L525.111 152.296ZM539.007 155.428C539.007 156.676 539.175 157.516 539.511 157.948C539.871 158.356 540.411 158.56 541.131 158.56C541.203 158.776 541.251 159.004 541.275 159.244C541.299 159.484 541.311 159.772 541.311 160.108C540.783 160.06 540.183 160.024 539.511 160C538.839 160 538.131 160 537.387 160C536.907 160 536.403 160 535.875 160C535.347 160.024 534.843 160.036 534.363 160.036C533.907 160.06 533.487 160.084 533.103 160.108C533.103 159.772 533.115 159.484 533.139 159.244C533.163 158.98 533.211 158.752 533.283 158.56C534.147 158.56 534.771 158.344 535.155 157.912C535.563 157.456 535.767 156.628 535.767 155.428V149.956C535.767 148.252 535.455 147.1 534.831 146.5C534.207 145.876 533.403 145.564 532.419 145.564C531.795 145.564 531.171 145.768 530.547 146.176C529.923 146.56 529.395 147.196 528.963 148.084C528.555 148.948 528.351 150.112 528.351 151.576V155.428C528.351 156.628 528.531 157.456 528.891 157.912C529.251 158.344 529.899 158.56 530.835 158.56C530.907 158.776 530.955 159.004 530.979 159.244C531.003 159.484 531.015 159.772 531.015 160.108C530.679 160.084 530.271 160.06 529.791 160.036C529.311 160.036 528.807 160.024 528.279 160C527.751 160 527.235 160 526.731 160C526.251 160 525.747 160 525.219 160C524.691 160.024 524.187 160.036 523.707 160.036C523.227 160.06 522.807 160.084 522.447 160.108C522.447 159.772 522.459 159.484 522.483 159.244C522.507 158.98 522.555 158.752 522.627 158.56C523.563 158.56 524.211 158.344 524.571 157.912C524.931 157.456 525.111 156.628 525.111 155.428V148.3L528.351 144.772C528.351 145.06 528.339 145.384 528.315 145.744C528.291 146.104 528.219 146.488 528.099 146.896C528.171 146.776 528.243 146.644 528.315 146.5C528.387 146.332 528.495 146.152 528.639 145.96C529.047 145.408 529.695 144.844 530.583 144.268C531.495 143.668 532.587 143.368 533.859 143.368C534.771 143.368 535.611 143.56 536.379 143.944C537.171 144.304 537.807 144.916 538.287 145.78C538.767 146.62 539.007 147.772 539.007 149.236V155.428ZM550.084 160.324C548.668 160.324 547.612 159.964 546.916 159.244C546.244 158.5 545.908 157.312 545.908 155.68V145.924C545.548 145.804 545.176 145.708 544.792 145.636C544.408 145.54 543.916 145.48 543.316 145.456C543.316 145.144 543.34 144.88 543.388 144.664C543.436 144.424 543.52 144.16 543.64 143.872H545.908V139.12C546.388 139 546.856 138.808 547.312 138.544C547.792 138.28 548.212 137.992 548.572 137.68C548.812 137.776 548.968 137.92 549.04 138.112C549.112 138.304 549.148 138.784 549.148 139.552V143.872H553.828C553.828 144.112 553.804 144.376 553.756 144.664C553.708 144.928 553.624 145.192 553.504 145.456C552.64 145.48 551.848 145.54 551.128 145.636C550.408 145.708 549.748 145.804 549.148 145.924V154.924C549.148 155.716 549.232 156.376 549.4 156.904C549.568 157.408 549.808 157.78 550.12 158.02C550.432 158.26 550.804 158.38 551.236 158.38C551.74 158.38 552.172 158.308 552.532 158.164C552.916 158.02 553.276 157.804 553.612 157.516C553.924 157.876 554.104 158.272 554.152 158.704C553.768 159.16 553.18 159.544 552.388 159.856C551.62 160.168 550.852 160.324 550.084 160.324ZM569.912 160.324C568.496 160.324 567.44 159.964 566.744 159.244C566.072 158.5 565.736 157.312 565.736 155.68V145.924C565.376 145.804 565.004 145.708 564.62 145.636C564.236 145.54 563.744 145.48 563.144 145.456C563.144 145.144 563.168 144.88 563.216 144.664C563.264 144.424 563.348 144.16 563.468 143.872H565.736V139.12C566.216 139 566.684 138.808 567.14 138.544C567.62 138.28 568.04 137.992 568.4 137.68C568.64 137.776 568.796 137.92 568.868 138.112C568.94 138.304 568.976 138.784 568.976 139.552V143.872H573.656C573.656 144.112 573.632 144.376 573.584 144.664C573.536 144.928 573.452 145.192 573.332 145.456C572.468 145.48 571.676 145.54 570.956 145.636C570.236 145.708 569.576 145.804 568.976 145.924V154.924C568.976 155.716 569.06 156.376 569.228 156.904C569.396 157.408 569.636 157.78 569.948 158.02C570.26 158.26 570.632 158.38 571.064 158.38C571.568 158.38 572 158.308 572.36 158.164C572.744 158.02 573.104 157.804 573.44 157.516C573.752 157.876 573.932 158.272 573.98 158.704C573.596 159.16 573.008 159.544 572.216 159.856C571.448 160.168 570.68 160.324 569.912 160.324ZM584.269 160.324C582.637 160.324 581.209 159.976 579.985 159.28C578.761 158.56 577.813 157.564 577.141 156.292C576.469 154.996 576.133 153.484 576.133 151.756C576.133 150.124 576.481 148.66 577.177 147.364C577.873 146.068 578.833 145.048 580.057 144.304C581.281 143.56 582.685 143.188 584.269 143.188C585.973 143.188 587.425 143.548 588.625 144.268C589.849 144.988 590.785 145.996 591.433 147.292C592.081 148.564 592.405 150.052 592.405 151.756C592.405 153.388 592.057 154.852 591.361 156.148C590.689 157.444 589.741 158.464 588.517 159.208C587.317 159.952 585.901 160.324 584.269 160.324ZM584.557 158.596C585.997 158.596 587.065 158.008 587.761 156.832C588.457 155.632 588.805 154.084 588.805 152.188C588.805 150.7 588.577 149.416 588.121 148.336C587.689 147.232 587.101 146.392 586.357 145.816C585.613 145.216 584.797 144.916 583.909 144.916C582.517 144.916 581.473 145.48 580.777 146.608C580.105 147.736 579.769 149.2 579.769 151C579.769 152.608 579.961 153.988 580.345 155.14C580.753 156.268 581.317 157.132 582.037 157.732C582.757 158.308 583.597 158.596 584.557 158.596ZM602.357 160.108C602.357 159.868 602.369 159.616 602.393 159.352C602.417 159.064 602.465 158.8 602.537 158.56C603.497 158.56 604.145 158.344 604.481 157.912C604.841 157.456 605.021 156.628 605.021 155.428V139.3C605.021 138.724 604.961 138.256 604.841 137.896C604.745 137.512 604.505 137.224 604.121 137.032C603.737 136.84 603.137 136.744 602.321 136.744C602.321 136.48 602.345 136.24 602.393 136.024C602.441 135.808 602.525 135.604 602.645 135.412C603.005 135.412 603.509 135.352 604.157 135.232C604.829 135.112 605.477 134.956 606.101 134.764C606.725 134.572 607.181 134.38 607.469 134.188C607.685 134.26 607.865 134.404 608.009 134.62C608.177 134.836 608.261 135.172 608.261 135.628V155.428C608.261 156.628 608.417 157.456 608.729 157.912C609.065 158.344 609.617 158.56 610.385 158.56C610.457 158.8 610.505 159.076 610.529 159.388C610.553 159.7 610.565 159.94 610.565 160.108C609.941 160.06 609.281 160.024 608.585 160C607.889 160 607.193 160 606.497 160C606.041 160 605.561 160 605.057 160C604.577 160.024 604.109 160.036 603.653 160.036C603.197 160.06 602.765 160.084 602.357 160.108ZM615.173 160.324C614.765 159.7 614.273 159.004 613.697 158.236C613.121 157.468 612.497 156.676 611.825 155.86C611.153 155.02 610.457 154.216 609.737 153.448C609.041 152.656 608.369 151.948 607.721 151.324L610.925 148.372C611.741 147.628 612.329 147.028 612.689 146.572C613.049 146.092 613.229 145.732 613.229 145.492C613.229 145.3 613.133 145.156 612.941 145.06C612.773 144.964 612.521 144.916 612.185 144.916C612.113 144.676 612.053 144.436 612.005 144.196C611.981 143.956 611.969 143.704 611.969 143.44C612.497 143.464 612.977 143.488 613.409 143.512C613.865 143.512 614.285 143.512 614.669 143.512C615.053 143.512 615.401 143.512 615.713 143.512C616.121 143.512 616.625 143.512 617.225 143.512C617.825 143.488 618.449 143.464 619.097 143.44C619.097 143.68 619.073 143.944 619.025 144.232C619.001 144.496 618.941 144.736 618.845 144.952C618.389 144.952 617.933 145.024 617.477 145.168C617.045 145.312 616.577 145.54 616.073 145.852C615.593 146.164 615.053 146.596 614.453 147.148L610.493 150.748L610.421 149.596C611.261 150.46 612.125 151.396 613.013 152.404C613.901 153.388 614.969 154.648 616.217 156.184C616.697 156.76 617.105 157.204 617.441 157.516C617.801 157.828 618.173 158.056 618.557 158.2C618.941 158.32 619.409 158.404 619.961 158.452C619.961 158.788 619.949 159.088 619.925 159.352C619.901 159.592 619.853 159.808 619.781 160C619.205 160 618.665 160.012 618.161 160.036C617.657 160.06 617.165 160.084 616.685 160.108C616.205 160.156 615.701 160.228 615.173 160.324ZM629.222 160.324C627.518 160.324 626.102 159.94 624.974 159.172C623.846 158.404 622.994 157.372 622.418 156.076C621.866 154.756 621.59 153.316 621.59 151.756C621.59 150.22 621.89 148.804 622.49 147.508C623.09 146.212 623.942 145.168 625.046 144.376C626.174 143.584 627.506 143.188 629.042 143.188C630.602 143.188 631.85 143.524 632.786 144.196C633.746 144.868 634.454 145.768 634.91 146.896C635.39 148.024 635.678 149.272 635.774 150.64C635.678 151.12 635.498 151.528 635.234 151.864C634.826 151.864 634.214 151.864 633.398 151.864C632.582 151.864 631.658 151.876 630.626 151.9C629.594 151.9 628.538 151.924 627.458 151.972C626.378 151.996 625.358 152.032 624.398 152.08V150.244H632.03C632.03 148.66 631.742 147.376 631.166 146.392C630.59 145.408 629.774 144.916 628.718 144.916C628.142 144.916 627.578 145.096 627.026 145.456C626.474 145.792 626.018 146.404 625.658 147.292C625.298 148.156 625.118 149.392 625.118 151C625.118 152.176 625.262 153.328 625.55 154.456C625.862 155.56 626.39 156.484 627.134 157.228C627.902 157.948 628.982 158.308 630.374 158.308C631.166 158.308 631.946 158.128 632.714 157.768C633.482 157.408 634.166 156.892 634.766 156.22C634.958 156.316 635.138 156.484 635.306 156.724C635.498 156.94 635.606 157.144 635.63 157.336C634.814 158.416 633.866 159.184 632.786 159.64C631.73 160.096 630.542 160.324 629.222 160.324ZM646.273 160.324C644.569 160.324 643.153 159.94 642.025 159.172C640.897 158.404 640.045 157.372 639.469 156.076C638.917 154.756 638.641 153.316 638.641 151.756C638.641 150.22 638.941 148.804 639.541 147.508C640.141 146.212 640.993 145.168 642.097 144.376C643.225 143.584 644.557 143.188 646.093 143.188C647.653 143.188 648.901 143.524 649.837 144.196C650.797 144.868 651.505 145.768 651.961 146.896C652.441 148.024 652.729 149.272 652.825 150.64C652.729 151.12 652.549 151.528 652.285 151.864C651.877 151.864 651.265 151.864 650.449 151.864C649.633 151.864 648.709 151.876 647.677 151.9C646.645 151.9 645.589 151.924 644.509 151.972C643.429 151.996 642.409 152.032 641.449 152.08V150.244H649.081C649.081 148.66 648.793 147.376 648.217 146.392C647.641 145.408 646.825 144.916 645.769 144.916C645.193 144.916 644.629 145.096 644.077 145.456C643.525 145.792 643.069 146.404 642.709 147.292C642.349 148.156 642.169 149.392 642.169 151C642.169 152.176 642.313 153.328 642.601 154.456C642.913 155.56 643.441 156.484 644.185 157.228C644.953 157.948 646.033 158.308 647.425 158.308C648.217 158.308 648.997 158.128 649.765 157.768C650.533 157.408 651.217 156.892 651.817 156.22C652.009 156.316 652.189 156.484 652.357 156.724C652.549 156.94 652.657 157.144 652.681 157.336C651.865 158.416 650.917 159.184 649.837 159.64C648.781 160.096 647.593 160.324 646.273 160.324ZM655.584 168.82C655.584 168.484 655.596 168.184 655.62 167.92C655.644 167.68 655.692 167.464 655.764 167.272C656.412 167.224 656.916 167.104 657.276 166.912C657.636 166.744 657.888 166.432 658.032 165.976C658.176 165.544 658.248 164.932 658.248 164.14V148.3C658.248 147.724 658.188 147.256 658.068 146.896C657.948 146.536 657.696 146.26 657.312 146.068C656.928 145.876 656.34 145.768 655.548 145.744C655.548 145.48 655.572 145.24 655.62 145.024C655.668 144.808 655.752 144.604 655.872 144.412C656.616 144.364 657.468 144.22 658.428 143.98C659.388 143.74 660.144 143.476 660.696 143.188C660.912 143.26 661.092 143.416 661.236 143.656C661.404 143.872 661.488 144.244 661.488 144.772C661.488 145.324 661.404 145.852 661.236 146.356C661.092 146.836 660.888 147.484 660.624 148.3L661.488 148.984V163.42C661.488 164.452 661.596 165.232 661.812 165.76C662.028 166.312 662.376 166.684 662.856 166.876C663.336 167.092 663.948 167.224 664.692 167.272C664.764 167.464 664.812 167.68 664.836 167.92C664.86 168.184 664.872 168.484 664.872 168.82C664.512 168.796 664.08 168.772 663.576 168.748C663.096 168.748 662.58 168.736 662.028 168.712C661.476 168.712 660.912 168.712 660.336 168.712C659.496 168.712 658.608 168.712 657.672 168.712C656.76 168.736 656.064 168.772 655.584 168.82ZM664.476 160.324C663.804 160.324 663.204 160.264 662.676 160.144C662.172 160.024 661.608 159.868 660.984 159.676V156.904C661.464 157.408 661.98 157.828 662.532 158.164C663.108 158.5 663.816 158.668 664.656 158.668C665.16 158.668 665.7 158.572 666.276 158.38C666.876 158.164 667.452 157.804 668.004 157.3C668.556 156.796 669 156.088 669.336 155.176C669.696 154.264 669.876 153.088 669.876 151.648C669.876 150.376 669.696 149.284 669.336 148.372C669 147.436 668.52 146.716 667.896 146.212C667.296 145.708 666.612 145.456 665.844 145.456C665.148 145.456 664.464 145.684 663.792 146.14C663.12 146.572 662.568 147.292 662.136 148.3C661.704 149.308 661.488 150.652 661.488 152.332L660.444 148.516C660.756 147.748 661.02 147.16 661.236 146.752C661.476 146.344 661.656 146.044 661.776 145.852C661.992 145.492 662.328 145.108 662.784 144.7C663.264 144.268 663.84 143.908 664.512 143.62C665.184 143.332 665.916 143.188 666.708 143.188C668.124 143.188 669.324 143.464 670.308 144.016C671.316 144.568 672.084 145.408 672.612 146.536C673.164 147.664 673.44 149.104 673.44 150.856C673.44 152.632 673.068 154.24 672.324 155.68C671.58 157.12 670.536 158.26 669.192 159.1C667.848 159.916 666.276 160.324 664.476 160.324Z" fill="#534C42"/>
</svg>
